<?xml version="1.0" encoding="UTF-8"?>
<svg width="535px" height="393px" style="background:transparent;height:393px;width:535px" contentStyleType="text/css" data-diagram-type="CLASS" preserveAspectRatio="none" version="1.1" viewBox="0 0 535 393" xmlns="http://www.w3.org/2000/svg" xmlns:xlink="http://www.w3.org/1999/xlink" zoomAndPan="magnify">
<g id="a" class="entity" data-entity="nodomain.freeyourgadget.gadgetbridge.model.WeatherSpec.Hourly" data-source-line="13" data-uid="ent0002">
<a href="WeatherSpec.Hourly.html" target="_top" title="WeatherSpec.Hourly.html" xlink:actuate="onRequest" xlink:href="WeatherSpec.Hourly.html" xlink:show="new" xlink:title="WeatherSpec.Hourly.html" xlink:type="simple">
<rect x="51.5" y="86" width="267.58" height="282.09" rx="2.5" ry="2.5" fill="#F1F1F1" stroke="#181818" stroke-width=".5"/>
<ellipse cx="66.5" cy="104.97" rx="11" ry="11" fill="#ADD1B2" stroke="#181818"/>
<path d="m69.469 110.61q-0.5782 0.2969-1.2188 0.4375-0.6406 0.1562-1.3437 0.1562-2.5 0-3.8282-1.6406-1.3125-1.6562-1.3125-4.7812t1.3125-4.7813q1.3282-1.6562 3.8282-1.6562 0.7031 0 1.3437 0.1562 0.6563 0.1563 1.2188 0.4531v2.7188q-0.625-0.5781-1.2188-0.8438-0.5937-0.2812-1.2187-0.2812-1.3438 0-2.0313 1.0781-0.6875 1.0625-0.6875 3.1563 0 2.0937 0.6875 3.1718 0.6875 1.0625 2.0313 1.0625 0.625 0 1.2187-0.2656 0.5938-0.2812 1.2188-0.8594v2.7188z"/>
<text x="126.1895" y="103.9951" fill="#000000" font-family="sans-serif" font-size="14" textLength="144.1973">WeatherSpec.Hourly</text>
<text x="80.5" y="116.5791" fill="#000000" font-family="sans-serif" font-size="10" textLength="235.5762">nodomain.freeyourgadget.gadgetbridge.model</text>
<line x1="52.5" x2="318.08" y1="123.94" y2="123.94" stroke="#181818" stroke-width=".5"/>
<ellipse cx="62.5" cy="137.59" rx="3" ry="3" fill="none" stroke="#038048"/>
<text x="71.5" y="140.9326" fill="#000000" font-family="sans-serif" font-size="14" text-decoration="underline" textLength="90.0771">VERSION: int</text>
<ellipse cx="62.5" cy="153.88" rx="3" ry="3" fill="none" stroke="#038048"/>
<text x="71.5" y="157.2295" fill="#000000" font-family="sans-serif" font-size="14" text-decoration="underline" textLength="125.5898">CREATOR: &lt;any&gt;</text>
<ellipse cx="62.5" cy="170.18" rx="3" ry="3" fill="none" stroke="#038048"/>
<text x="71.5" y="173.5264" fill="#000000" font-family="sans-serif" font-size="14" textLength="102.9355">timestamp: int</text>
<ellipse cx="62.5" cy="186.48" rx="3" ry="3" fill="none" stroke="#038048"/>
<text x="71.5" y="189.8232" fill="#000000" font-family="sans-serif" font-size="14" textLength="64.0459">temp: int</text>
<ellipse cx="62.5" cy="202.77" rx="3" ry="3" fill="none" stroke="#038048"/>
<text x="71.5" y="206.1201" fill="#000000" font-family="sans-serif" font-size="14" textLength="127.9893">conditionCode: int</text>
<ellipse cx="62.5" cy="219.07" rx="3" ry="3" fill="none" stroke="#038048"/>
<text x="71.5" y="222.417" fill="#000000" font-family="sans-serif" font-size="14" textLength="89.2432">humidity: int</text>
<ellipse cx="62.5" cy="235.37" rx="3" ry="3" fill="none" stroke="#038048"/>
<text x="71.5" y="238.7139" fill="#000000" font-family="sans-serif" font-size="14" textLength="117.6055">windSpeed: float</text>
<ellipse cx="62.5" cy="251.66" rx="3" ry="3" fill="none" stroke="#038048"/>
<text x="71.5" y="255.0107" fill="#000000" font-family="sans-serif" font-size="14" textLength="124.0723">windDirection: int</text>
<ellipse cx="62.5" cy="267.96" rx="3" ry="3" fill="none" stroke="#038048"/>
<text x="71.5" y="271.3076" fill="#000000" font-family="sans-serif" font-size="14" textLength="96.5645">uvIndex: float</text>
<ellipse cx="62.5" cy="284.26" rx="3" ry="3" fill="none" stroke="#038048"/>
<text x="71.5" y="287.6045" fill="#000000" font-family="sans-serif" font-size="14" textLength="145.708">precipProbability: int</text>
<line x1="52.5" x2="318.08" y1="294.91" y2="294.91" stroke="#181818" stroke-width=".5"/>
<ellipse cx="62.5" cy="308.55" rx="3" ry="3" fill="#84BE84" stroke="#038048"/>
<text x="71.5" y="311.9014" fill="#000000" font-family="sans-serif" font-size="14" textLength="56.8203">Hourly()</text>
<ellipse cx="62.5" cy="324.85" rx="3" ry="3" fill="#84BE84" stroke="#038048"/>
<text x="71.5" y="328.1982" fill="#000000" font-family="sans-serif" font-size="14" textLength="160.9521">describeContents(): int</text>
<ellipse cx="62.5" cy="341.15" rx="3" ry="3" fill="#84BE84" stroke="#038048"/>
<text x="71.5" y="344.4951" fill="#000000" font-family="sans-serif" font-size="14" textLength="215.1406">writeToParcel(Parcel, int): void</text>
<ellipse cx="62.5" cy="357.45" rx="3" ry="3" fill="#84BE84" stroke="#038048"/>
<text x="71.5" y="360.792" fill="#000000" font-family="sans-serif" font-size="14" textLength="192.6094">windSpeedAsBeaufort(): int</text>
</a>
</g>
<g id="b" class="entity" data-entity="Parcelable" data-source-line="30" data-uid="ent0003">
<rect x="6" y="15" width="104.95" height="32" rx="2.5" ry="2.5" fill="#F1F1F1" stroke="#181818" stroke-width=".5"/>
<ellipse cx="21" cy="31" rx="11" ry="11" fill="#B4A7E5" stroke="#181818"/>
<path d="m16.922 26.766v-2.1562h7.3906v2.1562h-2.4687v8.0782h2.4687v2.1562h-7.3906v-2.1562h2.4687v-8.0782h-2.4687z"/>
<text x="35" y="35.8467" fill="#000000" font-family="sans-serif" font-size="14" font-style="italic" textLength="72.9463">Parcelable</text>
</g>
<g id="c" class="entity" data-entity="java.io.Serializable" data-source-line="31" data-uid="ent0004">
<rect x="129" y="12" width="112.82" height="37.938" rx="2.5" ry="2.5" fill="#F1F1F1" stroke="#181818" stroke-width=".5"/>
<ellipse cx="144" cy="30.969" rx="11" ry="11" fill="#B4A7E5" stroke="#181818"/>
<path d="m139.92 26.734v-2.1563h7.3906v2.1563h-2.4687v8.0781h2.4687v2.1563h-7.3906v-2.1563h2.4687v-8.0781h-2.4687z"/>
<text x="158" y="29.9951" fill="#000000" font-family="sans-serif" font-size="14" font-style="italic" textLength="80.8213">Serializable</text>
<text x="181.897" y="42.5791" fill="#000000" font-family="sans-serif" font-size="10" font-style="italic" textLength="33.0273">java.io</text>
</g>
<g id="d" class="entity" data-entity="nodomain.freeyourgadget.gadgetbridge.model.WeatherSpec" data-source-line="32" data-uid="ent0005">
<a href="WeatherSpec.html" target="_top" title="WeatherSpec.html" xlink:actuate="onRequest" xlink:href="WeatherSpec.html" xlink:show="new" xlink:title="WeatherSpec.html" xlink:type="simple">
<rect x="260.5" y="12" width="267.58" height="37.938" rx="2.5" ry="2.5" fill="#F1F1F1" stroke="#181818" stroke-width=".5"/>
<ellipse cx="275.5" cy="30.969" rx="11" ry="11" fill="#ADD1B2" stroke="#181818"/>
<path d="m278.47 36.609q-0.5782 0.2969-1.2188 0.4375-0.6406 0.1562-1.3437 0.1562-2.5 0-3.8282-1.6406-1.3125-1.6562-1.3125-4.7812t1.3125-4.7813q1.3282-1.6562 3.8282-1.6562 0.7031 0 1.3437 0.1562 0.6563 0.1563 1.2188 0.4531v2.7188q-0.625-0.5781-1.2188-0.8438-0.5937-0.2812-1.2187-0.2812-1.3438 0-2.0313 1.0781-0.6875 1.0625-0.6875 3.1563 0 2.0937 0.6875 3.1718 0.6875 1.0625 2.0313 1.0625 0.625 0 1.2187-0.2656 0.5938-0.2812 1.2188-0.8594v2.7188z"/>
<text x="360.3628" y="29.9951" fill="#000000" font-family="sans-serif" font-size="14" textLength="93.8506">WeatherSpec</text>
<text x="289.5" y="42.5791" fill="#000000" font-family="sans-serif" font-size="10" textLength="235.5762">nodomain.freeyourgadget.gadgetbridge.model</text>
</a>
</g>
<g id="e" class="link" fill="none" stroke="#181818" data-entity-1="Parcelable" data-entity-2="nodomain.freeyourgadget.gadgetbridge.model.WeatherSpec.Hourly" data-uid="lnk6">
<polygon points="68.466 47.223 73.304 65.569 83.344 58.997"/>
<path d="m78.324 62.283c6.3153 9.647 5.3149 8.1188 15.363 23.467" stroke-dasharray="7,7"/>
</g>
<g id="f" class="link" fill="none" stroke="#181818" data-entity-1="java.io.Serializable" data-entity-2="nodomain.freeyourgadget.gadgetbridge.model.WeatherSpec.Hourly" data-uid="lnk7">
<polygon points="185.5 50.251 179.5 68.251 191.5 68.251"/>
<path d="m185.5 68.251v17.4" stroke-dasharray="7,7"/>
</g>
<g id="g" class="link" stroke="#181818" data-entity-1="nodomain.freeyourgadget.gadgetbridge.model.WeatherSpec" data-entity-2="nodomain.freeyourgadget.gadgetbridge.model.WeatherSpec.Hourly" data-uid="lnk8">
<ellipse cx="368.97" cy="55.694" rx="8" ry="8" fill="#fff"/>
<line x1="363.11" x2="374.84" y1="61.136" y2="50.251"/>
<line x1="363.53" x2="374.42" y1="49.83" y2="61.557"/>
<path d="m363.11 61.136c-13.718 12.734-21.639 20.086-43.135 40.039" fill="none"/>
</g>
<g class="footer" data-source-line="44">
<text x="262.1606" y="371.2822" fill="#888888" font-family="sans-serif" font-size="10" textLength="3.1787"></text>
<a href="https://github.com/talsma-ict/umldoclet" target="_top" title="https://github.com/talsma-ict/umldoclet" xlink:actuate="onRequest" xlink:href="https://github.com/talsma-ict/umldoclet" xlink:show="new" xlink:title="https://github.com/talsma-ict/umldoclet" xlink:type="simple">
<text x="222.5952" y="382.9229" fill="#888888" font-family="sans-serif" font-size="10" textLength="82.3096">UMLDoclet 2.2.4</text>
</a>
</g>
</svg>
