<?xml version="1.0" encoding="UTF-8"?>
<svg width="555px" height="412px" style="background:transparent;height:412px;width:555px" contentStyleType="text/css" preserveAspectRatio="none" version="1.1" viewBox="0 0 555 412" xmlns="http://www.w3.org/2000/svg" xmlns:xlink="http://www.w3.org/1999/xlink" zoomAndPan="magnify">
<a href="WeatherSpec.Hourly.html" target="_top" title="WeatherSpec.Hourly.html" xlink:actuate="onRequest" xlink:href="WeatherSpec.Hourly.html" xlink:show="new" xlink:title="WeatherSpec.Hourly.html" xlink:type="simple">
<g id="a">
<rect id="b" x="70" y="105" width="259" height="282.09" rx="2.5" ry="2.5" fill="#F1F1F1" stroke="#181818" stroke-width=".5" codeLine="5"/>
<ellipse cx="85" cy="123.97" rx="11" ry="11" fill="#ADD1B2" stroke="#181818"/>
<path d="m87.969 129.61q-0.5782 0.2969-1.2188 0.4375-0.6406 0.1562-1.3437 0.1562-2.5 0-3.8282-1.6406-1.3125-1.6562-1.3125-4.7812t1.3125-4.7813q1.3282-1.6562 3.8282-1.6562 0.7031 0 1.3437 0.1562 0.6563 0.1563 1.2188 0.4531v2.7188q-0.625-0.5781-1.2188-0.8438-0.5937-0.2812-1.2187-0.2812-1.3438 0-2.0313 1.0781-0.6875 1.0625-0.6875 3.1563 0 2.0937 0.6875 3.1718 0.6875 1.0625 2.0313 1.0625 0.625 0 1.2187-0.2656 0.5938-0.2812 1.2188-0.8594v2.7188z"/>
<text x="142.5" y="122.9951" fill="#000000" font-family="sans-serif" font-size="14" textLength="140">WeatherSpec.Hourly</text>
<text x="99" y="135.5791" fill="#000000" font-family="sans-serif" font-size="10" textLength="227">nodomain.freeyourgadget.gadgetbridge.model</text>
<line x1="71" x2="328" y1="142.94" y2="142.94" stroke="#181818" stroke-width=".5"/>
<ellipse cx="81" cy="156.59" rx="3" ry="3" fill="none" stroke="#038048"/>
<text x="90" y="159.9326" fill="#000000" font-family="sans-serif" font-size="14" text-decoration="underline" textLength="87">VERSION: int</text>
<ellipse cx="81" cy="172.88" rx="3" ry="3" fill="none" stroke="#038048"/>
<text x="90" y="176.2295" fill="#000000" font-family="sans-serif" font-size="14" text-decoration="underline" textLength="125">CREATOR: &lt;any&gt;</text>
<ellipse cx="81" cy="189.18" rx="3" ry="3" fill="none" stroke="#038048"/>
<text x="90" y="192.5264" fill="#000000" font-family="sans-serif" font-size="14" textLength="99">timestamp: int</text>
<ellipse cx="81" cy="205.48" rx="3" ry="3" fill="none" stroke="#038048"/>
<text x="90" y="208.8232" fill="#000000" font-family="sans-serif" font-size="14" textLength="62">temp: int</text>
<ellipse cx="81" cy="221.77" rx="3" ry="3" fill="none" stroke="#038048"/>
<text x="90" y="225.1201" fill="#000000" font-family="sans-serif" font-size="14" textLength="127">conditionCode: int</text>
<ellipse cx="81" cy="238.07" rx="3" ry="3" fill="none" stroke="#038048"/>
<text x="90" y="241.417" fill="#000000" font-family="sans-serif" font-size="14" textLength="84">humidity: int</text>
<ellipse cx="81" cy="254.37" rx="3" ry="3" fill="none" stroke="#038048"/>
<text x="90" y="257.7139" fill="#000000" font-family="sans-serif" font-size="14" textLength="115">windSpeed: float</text>
<ellipse cx="81" cy="270.66" rx="3" ry="3" fill="none" stroke="#038048"/>
<text x="90" y="274.0107" fill="#000000" font-family="sans-serif" font-size="14" textLength="120">windDirection: int</text>
<ellipse cx="81" cy="286.96" rx="3" ry="3" fill="none" stroke="#038048"/>
<text x="90" y="290.3076" fill="#000000" font-family="sans-serif" font-size="14" textLength="91">uvIndex: float</text>
<ellipse cx="81" cy="303.26" rx="3" ry="3" fill="none" stroke="#038048"/>
<text x="90" y="306.6045" fill="#000000" font-family="sans-serif" font-size="14" textLength="139">precipProbability: int</text>
<line x1="71" x2="328" y1="313.91" y2="313.91" stroke="#181818" stroke-width=".5"/>
<ellipse cx="81" cy="327.55" rx="3" ry="3" fill="#84BE84" stroke="#038048"/>
<text x="90" y="330.9014" fill="#000000" font-family="sans-serif" font-size="14" textLength="53">Hourly()</text>
<ellipse cx="81" cy="343.85" rx="3" ry="3" fill="#84BE84" stroke="#038048"/>
<text x="90" y="347.1982" fill="#000000" font-family="sans-serif" font-size="14" textLength="160">describeContents(): int</text>
<ellipse cx="81" cy="360.15" rx="3" ry="3" fill="#84BE84" stroke="#038048"/>
<text x="90" y="363.4951" fill="#000000" font-family="sans-serif" font-size="14" textLength="207">writeToParcel(Parcel, int): void</text>
<ellipse cx="81" cy="376.45" rx="3" ry="3" fill="#84BE84" stroke="#038048"/>
<text x="90" y="379.792" fill="#000000" font-family="sans-serif" font-size="14" textLength="189">windSpeedAsBeaufort(): int</text>
</g>
</a>
<g id="c">
<rect id="d" x="7" y="10" width="103" height="32" rx="2.5" ry="2.5" fill="#F1F1F1" stroke="#181818" stroke-width=".5" codeLine="22"/>
<ellipse cx="22" cy="26" rx="11" ry="11" fill="#B4A7E5" stroke="#181818"/>
<path d="m17.922 21.766v-2.1562h7.3906v2.1562h-2.4687v8.0782h2.4687v2.1562h-7.3906v-2.1562h2.4687v-8.0782h-2.4687z"/>
<text x="36" y="30.8467" fill="#000000" font-family="sans-serif" font-size="14" font-style="italic" textLength="71">Parcelable</text>
</g>
<g id="e">
<rect id="f" x="145" y="7" width="109" height="37.938" rx="2.5" ry="2.5" fill="#F1F1F1" stroke="#181818" stroke-width=".5" codeLine="23"/>
<ellipse cx="160" cy="25.969" rx="11" ry="11" fill="#B4A7E5" stroke="#181818"/>
<path d="m155.92 21.734v-2.1563h7.3906v2.1563h-2.4687v8.0781h2.4687v2.1563h-7.3906v-2.1563h2.4687v-8.0781h-2.4687z"/>
<text x="174" y="24.9951" fill="#000000" font-family="sans-serif" font-size="14" font-style="italic" textLength="77">Serializable</text>
<text x="197" y="37.5791" fill="#000000" font-family="sans-serif" font-size="10" font-style="italic" textLength="31">java.io</text>
</g>
<a href="WeatherSpec.html" target="_top" title="WeatherSpec.html" xlink:actuate="onRequest" xlink:href="WeatherSpec.html" xlink:show="new" xlink:title="WeatherSpec.html" xlink:type="simple">
<g id="g">
<rect id="h" x="289" y="7" width="259" height="37.938" rx="2.5" ry="2.5" fill="#F1F1F1" stroke="#181818" stroke-width=".5" codeLine="24"/>
<ellipse cx="304" cy="25.969" rx="11" ry="11" fill="#ADD1B2" stroke="#181818"/>
<path d="m306.97 31.609q-0.5782 0.2969-1.2188 0.4375-0.6406 0.1562-1.3437 0.1562-2.5 0-3.8282-1.6406-1.3125-1.6562-1.3125-4.7812t1.3125-4.7813q1.3282-1.6562 3.8282-1.6562 0.7031 0 1.3437 0.1562 0.6563 0.1563 1.2188 0.4531v2.7188q-0.625-0.5781-1.2188-0.8438-0.5937-0.2812-1.2187-0.2812-1.3438 0-2.0313 1.0781-0.6875 1.0625-0.6875 3.1563 0 2.0937 0.6875 3.1718 0.6875 1.0625 2.0313 1.0625 0.625 0 1.2187-0.2656 0.5938-0.2812 1.2188-0.8594v2.7188z"/>
<text x="385" y="24.9951" fill="#000000" font-family="sans-serif" font-size="14" textLength="93">WeatherSpec</text>
<text x="318" y="37.5791" fill="#000000" font-family="sans-serif" font-size="10" textLength="227">nodomain.freeyourgadget.gadgetbridge.model</text>
</g>
</a>
<g id="i" fill="none" stroke="#181818">
<path id="j" d="m78.191 57.441c9.25 14.29 14.269 22.059 30.649 47.389" stroke-dasharray="7.0,7.0" codeLine="26"/>
<polygon points="68.41 42.33 73.154 60.701 83.228 54.18"/>
</g>
<g id="k" fill="none" stroke="#181818">
<path id="l" d="m199.5 63.21v41.59" stroke-dasharray="7.0,7.0" codeLine="27"/>
<polygon points="199.5 45.21 193.5 63.21 205.5 63.21"/>
</g>
<g id="m" stroke="#181818">
<path id="n" d="m388.86 56.5c-16.7 16.63-31.683 31.54-59.833 59.56" fill="none" codeLine="28"/>
<ellipse cx="394.53" cy="50.855" rx="8" ry="8" fill="#fff"/>
<line x1="388.86" x2="400.2" y1="56.5" y2="45.21"/>
<line x1="388.89" x2="400.18" y1="45.186" y2="56.524"/>
</g>
<text x="180.5" y="402.376" fill="#888888" font-family="sans-serif" font-size="10" textLength="180">UMLDoclet 2.1.2, PlantUML 1.2024.3</text>
</svg>
