<?xml version="1.0" encoding="UTF-8"?>
<svg width="555px" height="345px" style="background:transparent;height:345px;width:555px" contentStyleType="text/css" preserveAspectRatio="none" version="1.1" viewBox="0 0 555 345" xmlns="http://www.w3.org/2000/svg" xmlns:xlink="http://www.w3.org/1999/xlink" zoomAndPan="magnify">
<a href="WeatherSpec.Forecast.html" target="_top" title="WeatherSpec.Forecast.html" xlink:actuate="onRequest" xlink:href="WeatherSpec.Forecast.html" xlink:show="new" xlink:title="WeatherSpec.Forecast.html" xlink:type="simple">
<g id="a">
<rect id="b" x="70" y="105" width="259" height="214.58" rx="2.5" ry="2.5" fill="#F1F1F1" stroke="#181818" stroke-width=".5" codeLine="5"/>
<ellipse cx="85" cy="130.95" rx="11" ry="11" fill="#ADD1B2" stroke="#181818"/>
<path d="m87.969 136.59q-0.5782 0.2968-1.2188 0.4375-0.6406 0.1562-1.3437 0.1562-2.5 0-3.8282-1.6406-1.3125-1.6563-1.3125-4.7813t1.3125-4.7812q1.3282-1.6563 3.8282-1.6563 0.7031 0 1.3437 0.1563 0.6563 0.1562 1.2188 0.4531v2.7188q-0.625-0.5782-1.2188-0.8438-0.5937-0.2812-1.2187-0.2812-1.3438 0-2.0313 1.0781-0.6875 1.0625-0.6875 3.1562 0 2.0938 0.6875 3.1719 0.6875 1.0625 2.0313 1.0625 0.625 0 1.2187-0.2656 0.5938-0.2813 1.2188-0.8594v2.7188z"/>
<text x="169" y="121.1387" fill="#000000" font-family="sans-serif" font-size="12" font-style="italic" textLength="87">«deprecated»</text>
<text x="134" y="136.9639" fill="#000000" font-family="sans-serif" font-size="14" textLength="157">WeatherSpec.Forecast</text>
<text x="99" y="149.5479" fill="#000000" font-family="sans-serif" font-size="10" textLength="227">nodomain.freeyourgadget.gadgetbridge.model</text>
<line x1="71" x2="328" y1="156.91" y2="156.91" stroke="#181818" stroke-width=".5"/>
<ellipse cx="81" cy="170.55" rx="3" ry="3" fill="none" stroke="#038048"/>
<text x="90" y="173.9014" fill="#000000" font-family="sans-serif" font-size="14" text-decoration="underline" textLength="125">CREATOR: &lt;any&gt;</text>
<ellipse cx="81" cy="186.85" rx="3" ry="3" fill="none" stroke="#038048"/>
<text x="90" y="190.1982" fill="#000000" font-family="sans-serif" font-size="14" textLength="91">minTemp: int</text>
<ellipse cx="81" cy="203.15" rx="3" ry="3" fill="none" stroke="#038048"/>
<text x="90" y="206.4951" fill="#000000" font-family="sans-serif" font-size="14" textLength="94">maxTemp: int</text>
<ellipse cx="81" cy="219.45" rx="3" ry="3" fill="none" stroke="#038048"/>
<text x="90" y="222.792" fill="#000000" font-family="sans-serif" font-size="14" textLength="127">conditionCode: int</text>
<ellipse cx="81" cy="235.74" rx="3" ry="3" fill="none" stroke="#038048"/>
<text x="90" y="239.0889" fill="#000000" font-family="sans-serif" font-size="14" textLength="84">humidity: int</text>
<line x1="71" x2="328" y1="246.39" y2="246.39" stroke="#181818" stroke-width=".5"/>
<ellipse cx="81" cy="260.04" rx="3" ry="3" fill="#84BE84" stroke="#038048"/>
<text x="90" y="263.3857" fill="#000000" font-family="sans-serif" font-size="14" textLength="70">Forecast()</text>
<ellipse cx="81" cy="276.34" rx="3" ry="3" fill="#84BE84" stroke="#038048"/>
<text x="90" y="279.6826" fill="#000000" font-family="sans-serif" font-size="14" textLength="162">Forecast(int, int, int, int)</text>
<ellipse cx="81" cy="292.63" rx="3" ry="3" fill="#84BE84" stroke="#038048"/>
<text x="90" y="295.9795" fill="#000000" font-family="sans-serif" font-size="14" textLength="160">describeContents(): int</text>
<ellipse cx="81" cy="308.93" rx="3" ry="3" fill="#84BE84" stroke="#038048"/>
<text x="90" y="312.2764" fill="#000000" font-family="sans-serif" font-size="14" textLength="207">writeToParcel(Parcel, int): void</text>
</g>
</a>
<g id="c">
<rect id="d" x="7" y="10" width="103" height="32" rx="2.5" ry="2.5" fill="#F1F1F1" stroke="#181818" stroke-width=".5" codeLine="17"/>
<ellipse cx="22" cy="26" rx="11" ry="11" fill="#B4A7E5" stroke="#181818"/>
<path d="m17.922 21.766v-2.1562h7.3906v2.1562h-2.4687v8.0782h2.4687v2.1562h-7.3906v-2.1562h2.4687v-8.0782h-2.4687z"/>
<text x="36" y="30.8467" fill="#000000" font-family="sans-serif" font-size="14" font-style="italic" textLength="71">Parcelable</text>
</g>
<g id="e">
<rect id="f" x="145" y="7" width="109" height="37.938" rx="2.5" ry="2.5" fill="#F1F1F1" stroke="#181818" stroke-width=".5" codeLine="18"/>
<ellipse cx="160" cy="25.969" rx="11" ry="11" fill="#B4A7E5" stroke="#181818"/>
<path d="m155.92 21.734v-2.1563h7.3906v2.1563h-2.4687v8.0781h2.4687v2.1563h-7.3906v-2.1563h2.4687v-8.0781h-2.4687z"/>
<text x="174" y="24.9951" fill="#000000" font-family="sans-serif" font-size="14" font-style="italic" textLength="77">Serializable</text>
<text x="197" y="37.5791" fill="#000000" font-family="sans-serif" font-size="10" font-style="italic" textLength="31">java.io</text>
</g>
<a href="WeatherSpec.html" target="_top" title="WeatherSpec.html" xlink:actuate="onRequest" xlink:href="WeatherSpec.html" xlink:show="new" xlink:title="WeatherSpec.html" xlink:type="simple">
<g id="g">
<rect id="h" x="289" y="7" width="259" height="37.938" rx="2.5" ry="2.5" fill="#F1F1F1" stroke="#181818" stroke-width=".5" codeLine="19"/>
<ellipse cx="304" cy="25.969" rx="11" ry="11" fill="#ADD1B2" stroke="#181818"/>
<path d="m306.97 31.609q-0.5782 0.2969-1.2188 0.4375-0.6406 0.1562-1.3437 0.1562-2.5 0-3.8282-1.6406-1.3125-1.6562-1.3125-4.7812t1.3125-4.7813q1.3282-1.6562 3.8282-1.6562 0.7031 0 1.3437 0.1562 0.6563 0.1563 1.2188 0.4531v2.7188q-0.625-0.5781-1.2188-0.8438-0.5937-0.2812-1.2187-0.2812-1.3438 0-2.0313 1.0781-0.6875 1.0625-0.6875 3.1563 0 2.0937 0.6875 3.1718 0.6875 1.0625 2.0313 1.0625 0.625 0 1.2187-0.2656 0.5938-0.2812 1.2188-0.8594v2.7188z"/>
<text x="385" y="24.9951" fill="#000000" font-family="sans-serif" font-size="14" textLength="93">WeatherSpec</text>
<text x="318" y="37.5791" fill="#000000" font-family="sans-serif" font-size="10" textLength="227">nodomain.freeyourgadget.gadgetbridge.model</text>
</g>
</a>
<g id="i" fill="none" stroke="#181818">
<path id="j" d="m80.969 56.403c11.11 14.54 18.071 23.637 37.041 48.467" stroke-dasharray="7.0,7.0" codeLine="21"/>
<polygon points="70.04 42.1 76.201 60.046 85.736 52.76"/>
</g>
<g id="k" fill="none" stroke="#181818">
<path id="l" d="m199.5 63.03v41.61" stroke-dasharray="7.0,7.0" codeLine="22"/>
<polygon points="199.5 45.03 193.5 63.03 205.5 63.03"/>
</g>
<g id="m" stroke="#181818">
<path id="n" d="m384.86 55.338c-17.38 14.64-31.223 26.302-58.773 49.522" fill="none" codeLine="23"/>
<ellipse cx="390.98" cy="50.184" rx="8" ry="8" fill="#fff"/>
<line x1="384.86" x2="397.1" y1="55.338" y2="45.03"/>
<line x1="385.83" x2="396.14" y1="44.065" y2="56.302"/>
</g>
<text x="180.5" y="334.8604" fill="#888888" font-family="sans-serif" font-size="10" textLength="180">UMLDoclet 2.1.2, PlantUML 1.2024.3</text>
</svg>
