<?xml version="1.0" encoding="UTF-8"?>
<svg width="555px" height="510px" style="background:transparent;height:510px;width:555px" contentStyleType="text/css" preserveAspectRatio="none" version="1.1" viewBox="0 0 555 510" xmlns="http://www.w3.org/2000/svg" xmlns:xlink="http://www.w3.org/1999/xlink" zoomAndPan="magnify">
<a href="WeatherSpec.Daily.html" target="_top" title="WeatherSpec.Daily.html" xlink:actuate="onRequest" xlink:href="WeatherSpec.Daily.html" xlink:show="new" xlink:title="WeatherSpec.Daily.html" xlink:type="simple">
<g id="a">
<rect id="b" x="70" y="105" width="259" height="379.88" rx="2.5" ry="2.5" fill="#F1F1F1" stroke="#181818" stroke-width=".5" codeLine="5"/>
<ellipse cx="85" cy="123.97" rx="11" ry="11" fill="#ADD1B2" stroke="#181818"/>
<path d="m87.969 129.61q-0.5782 0.2969-1.2188 0.4375-0.6406 0.1562-1.3437 0.1562-2.5 0-3.8282-1.6406-1.3125-1.6562-1.3125-4.7812t1.3125-4.7813q1.3282-1.6562 3.8282-1.6562 0.7031 0 1.3437 0.1562 0.6563 0.1563 1.2188 0.4531v2.7188q-0.625-0.5781-1.2188-0.8438-0.5937-0.2812-1.2187-0.2812-1.3438 0-2.0313 1.0781-0.6875 1.0625-0.6875 3.1563 0 2.0937 0.6875 3.1718 0.6875 1.0625 2.0313 1.0625 0.625 0 1.2187-0.2656 0.5938-0.2812 1.2188-0.8594v2.7188z"/>
<text x="148" y="122.9951" fill="#000000" font-family="sans-serif" font-size="14" textLength="129">WeatherSpec.Daily</text>
<text x="99" y="135.5791" fill="#000000" font-family="sans-serif" font-size="10" textLength="227">nodomain.freeyourgadget.gadgetbridge.model</text>
<line x1="71" x2="328" y1="142.94" y2="142.94" stroke="#181818" stroke-width=".5"/>
<ellipse cx="81" cy="156.59" rx="3" ry="3" fill="none" stroke="#038048"/>
<text x="90" y="159.9326" fill="#000000" font-family="sans-serif" font-size="14" text-decoration="underline" textLength="87">VERSION: int</text>
<ellipse cx="81" cy="172.88" rx="3" ry="3" fill="none" stroke="#038048"/>
<text x="90" y="176.2295" fill="#000000" font-family="sans-serif" font-size="14" text-decoration="underline" textLength="125">CREATOR: &lt;any&gt;</text>
<ellipse cx="81" cy="189.18" rx="3" ry="3" fill="none" stroke="#038048"/>
<text x="90" y="192.5264" fill="#000000" font-family="sans-serif" font-size="14" textLength="91">minTemp: int</text>
<ellipse cx="81" cy="205.48" rx="3" ry="3" fill="none" stroke="#038048"/>
<text x="90" y="208.8232" fill="#000000" font-family="sans-serif" font-size="14" textLength="94">maxTemp: int</text>
<ellipse cx="81" cy="221.77" rx="3" ry="3" fill="none" stroke="#038048"/>
<text x="90" y="225.1201" fill="#000000" font-family="sans-serif" font-size="14" textLength="127">conditionCode: int</text>
<ellipse cx="81" cy="238.07" rx="3" ry="3" fill="none" stroke="#038048"/>
<text x="90" y="241.417" fill="#000000" font-family="sans-serif" font-size="14" textLength="84">humidity: int</text>
<ellipse cx="81" cy="254.37" rx="3" ry="3" fill="none" stroke="#038048"/>
<text x="90" y="257.7139" fill="#000000" font-family="sans-serif" font-size="14" textLength="115">windSpeed: float</text>
<ellipse cx="81" cy="270.66" rx="3" ry="3" fill="none" stroke="#038048"/>
<text x="90" y="274.0107" fill="#000000" font-family="sans-serif" font-size="14" textLength="120">windDirection: int</text>
<ellipse cx="81" cy="286.96" rx="3" ry="3" fill="none" stroke="#038048"/>
<text x="90" y="290.3076" fill="#000000" font-family="sans-serif" font-size="14" textLength="91">uvIndex: float</text>
<ellipse cx="81" cy="303.26" rx="3" ry="3" fill="none" stroke="#038048"/>
<text x="90" y="306.6045" fill="#000000" font-family="sans-serif" font-size="14" textLength="139">precipProbability: int</text>
<ellipse cx="81" cy="319.55" rx="3" ry="3" fill="none" stroke="#038048"/>
<text x="90" y="322.9014" fill="#000000" font-family="sans-serif" font-size="14" textLength="82">sunRise: int</text>
<ellipse cx="81" cy="335.85" rx="3" ry="3" fill="none" stroke="#038048"/>
<text x="90" y="339.1982" fill="#000000" font-family="sans-serif" font-size="14" textLength="75">sunSet: int</text>
<ellipse cx="81" cy="352.15" rx="3" ry="3" fill="none" stroke="#038048"/>
<text x="90" y="355.4951" fill="#000000" font-family="sans-serif" font-size="14" textLength="96">moonRise: int</text>
<ellipse cx="81" cy="368.45" rx="3" ry="3" fill="none" stroke="#038048"/>
<text x="90" y="371.792" fill="#000000" font-family="sans-serif" font-size="14" textLength="89">moonSet: int</text>
<ellipse cx="81" cy="384.74" rx="3" ry="3" fill="none" stroke="#038048"/>
<text x="90" y="388.0889" fill="#000000" font-family="sans-serif" font-size="14" textLength="109">moonPhase: int</text>
<ellipse cx="81" cy="401.04" rx="3" ry="3" fill="none" stroke="#038048"/>
<text x="90" y="404.3857" fill="#000000" font-family="sans-serif" font-size="14" textLength="134">airQuality: AirQuality</text>
<line x1="71" x2="328" y1="411.69" y2="411.69" stroke="#181818" stroke-width=".5"/>
<ellipse cx="81" cy="425.34" rx="3" ry="3" fill="#84BE84" stroke="#038048"/>
<text x="90" y="428.6826" fill="#000000" font-family="sans-serif" font-size="14" textLength="42">Daily()</text>
<ellipse cx="81" cy="441.63" rx="3" ry="3" fill="#84BE84" stroke="#038048"/>
<text x="90" y="444.9795" fill="#000000" font-family="sans-serif" font-size="14" textLength="160">describeContents(): int</text>
<ellipse cx="81" cy="457.93" rx="3" ry="3" fill="#84BE84" stroke="#038048"/>
<text x="90" y="461.2764" fill="#000000" font-family="sans-serif" font-size="14" textLength="207">writeToParcel(Parcel, int): void</text>
<ellipse cx="81" cy="474.23" rx="3" ry="3" fill="#84BE84" stroke="#038048"/>
<text x="90" y="477.5732" fill="#000000" font-family="sans-serif" font-size="14" textLength="189">windSpeedAsBeaufort(): int</text>
</g>
</a>
<g id="c">
<rect id="d" x="7" y="10" width="103" height="32" rx="2.5" ry="2.5" fill="#F1F1F1" stroke="#181818" stroke-width=".5" codeLine="28"/>
<ellipse cx="22" cy="26" rx="11" ry="11" fill="#B4A7E5" stroke="#181818"/>
<path d="m17.922 21.766v-2.1562h7.3906v2.1562h-2.4687v8.0782h2.4687v2.1562h-7.3906v-2.1562h2.4687v-8.0782h-2.4687z"/>
<text x="36" y="30.8467" fill="#000000" font-family="sans-serif" font-size="14" font-style="italic" textLength="71">Parcelable</text>
</g>
<g id="e">
<rect id="f" x="145" y="7" width="109" height="37.938" rx="2.5" ry="2.5" fill="#F1F1F1" stroke="#181818" stroke-width=".5" codeLine="29"/>
<ellipse cx="160" cy="25.969" rx="11" ry="11" fill="#B4A7E5" stroke="#181818"/>
<path d="m155.92 21.734v-2.1563h7.3906v2.1563h-2.4687v8.0781h2.4687v2.1563h-7.3906v-2.1563h2.4687v-8.0781h-2.4687z"/>
<text x="174" y="24.9951" fill="#000000" font-family="sans-serif" font-size="14" font-style="italic" textLength="77">Serializable</text>
<text x="197" y="37.5791" fill="#000000" font-family="sans-serif" font-size="10" font-style="italic" textLength="31">java.io</text>
</g>
<a href="WeatherSpec.html" target="_top" title="WeatherSpec.html" xlink:actuate="onRequest" xlink:href="WeatherSpec.html" xlink:show="new" xlink:title="WeatherSpec.html" xlink:type="simple">
<g id="g">
<rect id="h" x="289" y="7" width="259" height="37.938" rx="2.5" ry="2.5" fill="#F1F1F1" stroke="#181818" stroke-width=".5" codeLine="30"/>
<ellipse cx="304" cy="25.969" rx="11" ry="11" fill="#ADD1B2" stroke="#181818"/>
<path d="m306.97 31.609q-0.5782 0.2969-1.2188 0.4375-0.6406 0.1562-1.3437 0.1562-2.5 0-3.8282-1.6406-1.3125-1.6562-1.3125-4.7812t1.3125-4.7813q1.3282-1.6562 3.8282-1.6562 0.7031 0 1.3437 0.1562 0.6563 0.1563 1.2188 0.4531v2.7188q-0.625-0.5781-1.2188-0.8438-0.5937-0.2812-1.2187-0.2812-1.3438 0-2.0313 1.0781-0.6875 1.0625-0.6875 3.1563 0 2.0937 0.6875 3.1718 0.6875 1.0625 2.0313 1.0625 0.625 0 1.2187-0.2656 0.5938-0.2812 1.2188-0.8594v2.7188z"/>
<text x="385" y="24.9951" fill="#000000" font-family="sans-serif" font-size="14" textLength="93">WeatherSpec</text>
<text x="318" y="37.5791" fill="#000000" font-family="sans-serif" font-size="10" textLength="227">nodomain.freeyourgadget.gadgetbridge.model</text>
</g>
</a>
<g id="i" fill="none" stroke="#181818">
<path id="j" d="m74.885 58.037c7.43 14.07 11.005 20.833 24.805 46.963" stroke-dasharray="7.0,7.0" codeLine="32"/>
<polygon points="66.48 42.12 69.58 60.839 80.191 55.235"/>
</g>
<g id="k" fill="none" stroke="#181818">
<path id="l" d="m199.5 63.35v41.44" stroke-dasharray="7.0,7.0" codeLine="33"/>
<polygon points="199.5 45.35 193.5 63.35 205.5 63.35"/>
</g>
<g id="m" stroke="#181818">
<path id="n" d="m393.3 57.721c-16.38 19.97-34.123 41.599-64.103 78.149" fill="none" codeLine="34"/>
<ellipse cx="398.38" cy="51.535" rx="8" ry="8" fill="#fff"/>
<line x1="393.3" x2="403.45" y1="57.721" y2="45.35"/>
<line x1="392.19" x2="404.56" y1="46.462" y2="56.609"/>
</g>
<text x="180.5" y="500.1572" fill="#888888" font-family="sans-serif" font-size="10" textLength="180">UMLDoclet 2.1.2, PlantUML 1.2024.3</text>
</svg>
