<?xml version="1.0" encoding="UTF-8"?>
<svg width="293px" height="323px" style="background:transparent;height:323px;width:293px" contentStyleType="text/css" preserveAspectRatio="none" version="1.1" viewBox="0 0 293 323" xmlns="http://www.w3.org/2000/svg" xmlns:xlink="http://www.w3.org/1999/xlink" zoomAndPan="magnify">
<a href="Astronomy.Riseset.html" target="_top" title="Astronomy.Riseset.html" xlink:actuate="onRequest" xlink:href="Astronomy.Riseset.html" xlink:show="new" xlink:title="Astronomy.Riseset.html" xlink:type="simple">
<g id="a">
<rect id="b" x="7" y="105" width="279" height="192.61" rx="2.5" ry="2.5" fill="#F1F1F1" stroke="#181818" stroke-width=".5" codeLine="5"/>
<ellipse cx="77.25" cy="123.97" rx="11" ry="11" fill="#ADD1B2" stroke="#181818"/>
<path d="m80.219 129.61q-0.5782 0.2969-1.2188 0.4375-0.6406 0.1562-1.3437 0.1562-2.5 0-3.8282-1.6406-1.3125-1.6562-1.3125-4.7812t1.3125-4.7813q1.3282-1.6562 3.8282-1.6562 0.7031 0 1.3437 0.1562 0.6563 0.1563 1.2188 0.4531v2.7188q-0.625-0.5781-1.2188-0.8438-0.5937-0.2812-1.2187-0.2812-1.3438 0-2.0313 1.0781-0.6875 1.0625-0.6875 3.1563 0 2.0937 0.6875 3.1718 0.6875 1.0625 2.0313 1.0625 0.625 0 1.2187-0.2656 0.5938-0.2812 1.2188-0.8594v2.7188z"/>
<text x="97.75" y="122.9951" fill="#000000" font-family="sans-serif" font-size="14" textLength="130">Astronomy.Riseset</text>
<text x="115.25" y="135.5791" fill="#000000" font-family="sans-serif" font-size="10" textLength="95">org.astronomie.info</text>
<line x1="8" x2="285" y1="142.94" y2="142.94" stroke="#181818" stroke-width=".5"/>
<ellipse cx="18" cy="156.59" rx="3" ry="3" fill="none" stroke="#038048"/>
<text x="27" y="159.9326" fill="#000000" font-family="sans-serif" font-size="14" textLength="100">transit: double</text>
<ellipse cx="18" cy="172.88" rx="3" ry="3" fill="none" stroke="#038048"/>
<text x="27" y="176.2295" fill="#000000" font-family="sans-serif" font-size="14" textLength="82">rise: double</text>
<ellipse cx="18" cy="189.18" rx="3" ry="3" fill="none" stroke="#038048"/>
<text x="27" y="192.5264" fill="#000000" font-family="sans-serif" font-size="14" textLength="79">set: double</text>
<ellipse cx="18" cy="205.48" rx="3" ry="3" fill="none" stroke="#038048"/>
<text x="27" y="208.8232" fill="#000000" font-family="sans-serif" font-size="14" textLength="190">cicilTwilightMorning: double</text>
<ellipse cx="18" cy="221.77" rx="3" ry="3" fill="none" stroke="#038048"/>
<text x="27" y="225.1201" fill="#000000" font-family="sans-serif" font-size="14" textLength="189">cicilTwilightEvening: double</text>
<ellipse cx="18" cy="238.07" rx="3" ry="3" fill="none" stroke="#038048"/>
<text x="27" y="241.417" fill="#000000" font-family="sans-serif" font-size="14" textLength="218">nauticalTwilightMorning: double</text>
<ellipse cx="18" cy="254.37" rx="3" ry="3" fill="none" stroke="#038048"/>
<text x="27" y="257.7139" fill="#000000" font-family="sans-serif" font-size="14" textLength="217">nauticalTwilightEvening: double</text>
<ellipse cx="18" cy="270.66" rx="3" ry="3" fill="none" stroke="#038048"/>
<text x="27" y="274.0107" fill="#000000" font-family="sans-serif" font-size="14" textLength="253">astronomicalTwilightMorning: double</text>
<ellipse cx="18" cy="286.96" rx="3" ry="3" fill="none" stroke="#038048"/>
<text x="27" y="290.3076" fill="#000000" font-family="sans-serif" font-size="14" textLength="252">astronomicalTwilightEvening: double</text>
</g>
</a>
<a href="Astronomy.html" target="_top" title="Astronomy.html" xlink:actuate="onRequest" xlink:href="Astronomy.html" xlink:show="new" xlink:title="Astronomy.html" xlink:type="simple">
<g id="c">
<rect id="d" x="83" y="7" width="127" height="37.938" rx="2.5" ry="2.5" fill="#F1F1F1" stroke="#181818" stroke-width=".5" codeLine="17"/>
<ellipse cx="98" cy="25.969" rx="11" ry="11" fill="#ADD1B2" stroke="#181818"/>
<path d="m100.97 31.609q-0.5782 0.2969-1.2188 0.4375-0.6406 0.1562-1.3437 0.1562-2.5 0-3.8282-1.6406-1.3125-1.6562-1.3125-4.7812t1.3125-4.7813q1.3282-1.6562 3.8282-1.6562 0.7031 0 1.3437 0.1562 0.6563 0.1563 1.2188 0.4531v2.7188q-0.625-0.5781-1.2188-0.8438-0.5937-0.2812-1.2187-0.2812-1.3438 0-2.0313 1.0781-0.6875 1.0625-0.6875 3.1563 0 2.0937 0.6875 3.1718 0.6875 1.0625 2.0313 1.0625 0.625 0 1.2187-0.2656 0.5938-0.2812 1.2188-0.8594v2.7188z"/>
<text x="122.5" y="24.9951" fill="#000000" font-family="sans-serif" font-size="14" textLength="74">Astronomy</text>
<text x="112" y="37.5791" fill="#000000" font-family="sans-serif" font-size="10" textLength="95">org.astronomie.info</text>
</g>
</a>
<g id="e" stroke="#181818">
<path id="f" d="m146.5 61.24v43.38" fill="none" codeLine="19"/>
<ellipse cx="146.5" cy="53.24" rx="8" ry="8" fill="#fff"/>
<line x1="146.5" x2="146.5" y1="61.24" y2="45.24"/>
<line x1="138.5" x2="154.5" y1="53.24" y2="53.24"/>
</g>
<text x="49.5" y="312.8916" fill="#888888" font-family="sans-serif" font-size="10" textLength="180">UMLDoclet 2.1.2, PlantUML 1.2024.3</text>
</svg>
