<?xml version="1.0" encoding="UTF-8"?>
<svg width="540px" height="591px" style="background:transparent;height:591px;width:540px" contentScriptType="application/ecmascript" contentStyleType="text/css" preserveAspectRatio="none" version="1.1" viewBox="0 0 540 591" xmlns="http://www.w3.org/2000/svg" xmlns:xlink="http://www.w3.org/1999/xlink" zoomAndPan="magnify">
<defs>
<filter id="a" x="-1" y="-1" width="300%" height="300%">
<feGaussianBlur result="blurOut" stdDeviation="2.0"/>
<feColorMatrix in="blurOut" result="blurOut2" values="0 0 0 0 0 0 0 0 0 0 0 0 0 0 0 0 0 0 .4 0"/>
<feOffset dx="4.0" dy="4.0" in="blurOut2" result="blurOut3"/>
<feBlend in="SourceGraphic" in2="blurOut3"/>
</filter>
</defs>
<a href="Astronomy.html" target="_top" title="Astronomy.html" xlink:actuate="onRequest" xlink:href="Astronomy.html" xlink:show="new" xlink:title="Astronomy.html" xlink:type="simple">
<rect id="b" x="59" y="7" width="415" height="455.69" fill="#FEFECE" filter="url(#a)" stroke="#A80036" stroke-width="1.5" codeLine="5"/>
<ellipse cx="214.75" cy="25.969" rx="11" ry="11" fill="#ADD1B2" stroke="#A80036"/>
<path d="m217.72 31.609q-0.5782 0.2969-1.2188 0.4375-0.6406 0.1562-1.3437 0.1562-2.5 0-3.8282-1.6406-1.3125-1.6562-1.3125-4.7812t1.3125-4.7813q1.3282-1.6562 3.8282-1.6562 0.7031 0 1.3437 0.1562 0.6563 0.1563 1.2188 0.4531v2.7188q-0.625-0.5781-1.2188-0.8438-0.5937-0.2812-1.2187-0.2812-1.3438 0-2.0313 1.0781-0.6875 1.0625-0.6875 3.1563 0 2.0937 0.6875 3.1718 0.6875 1.0625 2.0313 1.0625 0.625 0 1.2187-0.2656 0.5938-0.2812 1.2188-0.8594v2.7188z"/>
<text x="245.75" y="24.9951" fill="#000000" font-family="sans-serif" font-size="14" textLength="74">Astronomy</text>
<text x="235.25" y="37.5791" fill="#000000" font-family="sans-serif" font-size="10" textLength="95">org.astronomie.info</text>
<line x1="60" x2="473" y1="44.938" y2="44.938" stroke="#A80036" stroke-width="1.5"/>
<ellipse cx="70" cy="55.938" rx="3" ry="3" fill="#84BE84" stroke="#038048"/>
<text x="79" y="59.1479" fill="#000000" font-family="sans-serif" font-size="11" text-decoration="underline" textLength="82">Int(double): int</text>
<ellipse cx="70" cy="68.742" rx="3" ry="3" fill="#84BE84" stroke="#038048"/>
<text x="79" y="71.9526" fill="#000000" font-family="sans-serif" font-size="11" text-decoration="underline" textLength="111">sqr(double): double</text>
<ellipse cx="70" cy="81.547" rx="3" ry="3" fill="#84BE84" stroke="#038048"/>
<text x="79" y="84.7573" fill="#000000" font-family="sans-serif" font-size="11" text-decoration="underline" textLength="114">frac(double): double</text>
<ellipse cx="70" cy="94.352" rx="3" ry="3" fill="#84BE84" stroke="#038048"/>
<text x="79" y="97.562" fill="#000000" font-family="sans-serif" font-size="11" text-decoration="underline" textLength="163">mod(double, double): double</text>
<ellipse cx="70" cy="107.16" rx="3" ry="3" fill="#84BE84" stroke="#038048"/>
<text x="79" y="110.3667" fill="#000000" font-family="sans-serif" font-size="11" text-decoration="underline" textLength="134">mod2Pi(double): double</text>
<ellipse cx="70" cy="119.96" rx="3" ry="3" fill="#84BE84" stroke="#038048"/>
<text x="79" y="123.1714" fill="#000000" font-family="sans-serif" font-size="11" text-decoration="underline" textLength="174">round1000000(double): double</text>
<ellipse cx="70" cy="132.77" rx="3" ry="3" fill="#84BE84" stroke="#038048"/>
<text x="79" y="135.9761" fill="#000000" font-family="sans-serif" font-size="11" text-decoration="underline" textLength="167">round100000(double): double</text>
<ellipse cx="70" cy="145.57" rx="3" ry="3" fill="#84BE84" stroke="#038048"/>
<text x="79" y="148.7808" fill="#000000" font-family="sans-serif" font-size="11" text-decoration="underline" textLength="160">round10000(double): double</text>
<ellipse cx="70" cy="158.38" rx="3" ry="3" fill="#84BE84" stroke="#038048"/>
<text x="79" y="161.5854" fill="#000000" font-family="sans-serif" font-size="11" text-decoration="underline" textLength="153">round1000(double): double</text>
<ellipse cx="70" cy="171.18" rx="3" ry="3" fill="#84BE84" stroke="#038048"/>
<text x="79" y="174.3901" fill="#000000" font-family="sans-serif" font-size="11" text-decoration="underline" textLength="146">round100(double): double</text>
<ellipse cx="70" cy="183.98" rx="3" ry="3" fill="#84BE84" stroke="#038048"/>
<text x="79" y="187.1948" fill="#000000" font-family="sans-serif" font-size="11" text-decoration="underline" textLength="139">round10(double): double</text>
<ellipse cx="70" cy="196.79" rx="3" ry="3" fill="#84BE84" stroke="#038048"/>
<text x="79" y="199.9995" fill="#000000" font-family="sans-serif" font-size="11" text-decoration="underline" textLength="163">timeHHMMSS(double): String</text>
<ellipse cx="70" cy="209.59" rx="3" ry="3" fill="#84BE84" stroke="#038048"/>
<text x="79" y="212.8042" fill="#000000" font-family="sans-serif" font-size="11" text-decoration="underline" textLength="183">timeHHMMSSdec(double): String</text>
<ellipse cx="70" cy="222.4" rx="3" ry="3" fill="#84BE84" stroke="#038048"/>
<text x="79" y="225.6089" fill="#000000" font-family="sans-serif" font-size="11" text-decoration="underline" textLength="167">timeHHMMdec(double): String</text>
<ellipse cx="70" cy="235.2" rx="3" ry="3" fill="#84BE84" stroke="#038048"/>
<text x="79" y="238.4136" fill="#000000" font-family="sans-serif" font-size="11" text-decoration="underline" textLength="147">timeHHMM(double): String</text>
<ellipse cx="70" cy="248.01" rx="3" ry="3" fill="#84BE84" stroke="#038048"/>
<text x="79" y="251.2183" fill="#000000" font-family="sans-serif" font-size="11" text-decoration="underline" textLength="112">sign(double): String</text>
<ellipse cx="70" cy="260.81" rx="3" ry="3" fill="#84BE84" stroke="#038048"/>
<text x="79" y="264.0229" fill="#000000" font-family="sans-serif" font-size="11" text-decoration="underline" textLength="145">calcJD(int, int, int): double</text>
<ellipse cx="70" cy="273.62" rx="3" ry="3" fill="#84BE84" stroke="#038048"/>
<text x="79" y="276.8276" fill="#000000" font-family="sans-serif" font-size="11" text-decoration="underline" textLength="123">gMST(double): double</text>
<ellipse cx="70" cy="286.42" rx="3" ry="3" fill="#84BE84" stroke="#038048"/>
<text x="79" y="289.6323" fill="#000000" font-family="sans-serif" font-size="11" text-decoration="underline" textLength="191">gMST2UT(double, double): double</text>
<ellipse cx="70" cy="299.23" rx="3" ry="3" fill="#84BE84" stroke="#038048"/>
<text x="79" y="302.437" fill="#000000" font-family="sans-serif" font-size="11" text-decoration="underline" textLength="206">gMST2LMST(double, double): double</text>
<ellipse cx="70" cy="312.03" rx="3" ry="3" fill="#84BE84" stroke="#038048"/>
<text x="79" y="315.2417" fill="#000000" font-family="sans-serif" font-size="11" text-decoration="underline" textLength="160">ecl2Equ(Coor, double): Coor</text>
<ellipse cx="70" cy="324.84" rx="3" ry="3" fill="#84BE84" stroke="#038048"/>
<text x="79" y="328.0464" fill="#000000" font-family="sans-serif" font-size="11" text-decoration="underline" textLength="262">equ2Altaz(Coor, double, double, double): Coor</text>
<ellipse cx="70" cy="337.64" rx="3" ry="3" fill="#84BE84" stroke="#038048"/>
<text x="79" y="340.8511" fill="#000000" font-family="sans-serif" font-size="11" text-decoration="underline" textLength="249">geoEqu2TopoEqu(Coor, Coor, double): Coor</text>
<ellipse cx="70" cy="350.45" rx="3" ry="3" fill="#84BE84" stroke="#038048"/>
<text x="79" y="353.6558" fill="#000000" font-family="sans-serif" font-size="11" text-decoration="underline" textLength="254">equPolar2Cart(double, double, double): Coor</text>
<ellipse cx="70" cy="363.25" rx="3" ry="3" fill="#84BE84" stroke="#038048"/>
<text x="79" y="366.4604" fill="#000000" font-family="sans-serif" font-size="11" text-decoration="underline" textLength="322">observer2EquCart(double, double, double, double): Coor</text>
<ellipse cx="70" cy="376.05" rx="3" ry="3" fill="#84BE84" stroke="#038048"/>
<text x="79" y="379.2651" fill="#000000" font-family="sans-serif" font-size="11" text-decoration="underline" textLength="147">sunPosition(double): Coor</text>
<ellipse cx="70" cy="388.86" rx="3" ry="3" fill="#84BE84" stroke="#038048"/>
<text x="79" y="392.0698" fill="#000000" font-family="sans-serif" font-size="11" text-decoration="underline" textLength="239">sunPosition(double, double, double): Coor</text>
<ellipse cx="70" cy="401.66" rx="3" ry="3" fill="#84BE84" stroke="#038048"/>
<text x="79" y="404.8745" fill="#000000" font-family="sans-serif" font-size="11" text-decoration="underline" textLength="193">moonPosition(Coor, double): Coor</text>
<ellipse cx="70" cy="414.47" rx="3" ry="3" fill="#84BE84" stroke="#038048"/>
<text x="79" y="417.6792" fill="#000000" font-family="sans-serif" font-size="11" text-decoration="underline" textLength="274">moonPosition(Coor, double, Coor, double): Coor</text>
<ellipse cx="70" cy="427.27" rx="3" ry="3" fill="#84BE84" stroke="#038048"/>
<text x="79" y="430.4839" fill="#000000" font-family="sans-serif" font-size="11" text-decoration="underline" textLength="147">refraction(double): double</text>
<ellipse cx="70" cy="440.08" rx="3" ry="3" fill="#84BE84" stroke="#038048"/>
<text x="79" y="443.2886" fill="#000000" font-family="sans-serif" font-size="11" text-decoration="underline" textLength="378">sunRise(double, double, double, double, double, boolean): Riseset</text>
<ellipse cx="70" cy="452.88" rx="3" ry="3" fill="#84BE84" stroke="#038048"/>
<text x="79" y="456.0933" fill="#000000" font-family="sans-serif" font-size="11" text-decoration="underline" textLength="389">moonRise(double, double, double, double, double, boolean): Riseset</text>
</a>
<a href="Astronomy.Coor.html" target="_top" title="Astronomy.Coor.html" xlink:actuate="onRequest" xlink:href="Astronomy.Coor.html" xlink:show="new" xlink:title="Astronomy.Coor.html" xlink:type="simple">
<rect id="c" x="7" y="523" width="143" height="37.938" fill="#FEFECE" filter="url(#a)" stroke="#A80036" stroke-width="1.5" codeLine="39"/>
<ellipse cx="22" cy="541.97" rx="11" ry="11" fill="#ADD1B2" stroke="#A80036"/>
<path d="m24.969 547.61q-0.5782 0.2969-1.2188 0.4375-0.6406 0.1562-1.3437 0.1562-2.5 0-3.8282-1.6406-1.3125-1.6562-1.3125-4.7812t1.3125-4.7813q1.3282-1.6562 3.8282-1.6562 0.7031 0 1.3437 0.1562 0.6563 0.1563 1.2188 0.4531v2.7188q-0.625-0.5781-1.2188-0.8438-0.5937-0.2812-1.2187-0.2812-1.3438 0-2.0313 1.0781-0.6875 1.0625-0.6875 3.1563 0 2.0937 0.6875 3.1718 0.6875 1.0625 2.0313 1.0625 0.625 0 1.2187-0.2656 0.5938-0.2812 1.2188-0.8594v2.7188z"/>
<text x="36" y="540.9951" fill="#000000" font-family="sans-serif" font-size="14" textLength="111">Astronomy.Coor</text>
<text x="44" y="553.5791" fill="#000000" font-family="sans-serif" font-size="10" textLength="95">org.astronomie.info</text>
</a>
<a href="Astronomy.Riseset.html" target="_top" title="Astronomy.Riseset.html" xlink:actuate="onRequest" xlink:href="Astronomy.Riseset.html" xlink:show="new" xlink:title="Astronomy.Riseset.html" xlink:type="simple">
<rect id="d" x="185.5" y="523" width="162" height="37.938" fill="#FEFECE" filter="url(#a)" stroke="#A80036" stroke-width="1.5" codeLine="40"/>
<ellipse cx="200.5" cy="541.97" rx="11" ry="11" fill="#ADD1B2" stroke="#A80036"/>
<path d="m203.47 547.61q-0.5782 0.2969-1.2188 0.4375-0.6406 0.1562-1.3437 0.1562-2.5 0-3.8282-1.6406-1.3125-1.6562-1.3125-4.7812t1.3125-4.7813q1.3282-1.6562 3.8282-1.6562 0.7031 0 1.3437 0.1562 0.6563 0.1563 1.2188 0.4531v2.7188q-0.625-0.5781-1.2188-0.8438-0.5937-0.2812-1.2187-0.2812-1.3438 0-2.0313 1.0781-0.6875 1.0625-0.6875 3.1563 0 2.0937 0.6875 3.1718 0.6875 1.0625 2.0313 1.0625 0.625 0 1.2187-0.2656 0.5938-0.2812 1.2188-0.8594v2.7188z"/>
<text x="214.5" y="540.9951" fill="#000000" font-family="sans-serif" font-size="14" textLength="130">Astronomy.Riseset</text>
<text x="232" y="553.5791" fill="#000000" font-family="sans-serif" font-size="10" textLength="95">org.astronomie.info</text>
</a>
<a href="Astronomy.Time.html" target="_top" title="Astronomy.Time.html" xlink:actuate="onRequest" xlink:href="Astronomy.Time.html" xlink:show="new" xlink:title="Astronomy.Time.html" xlink:type="simple">
<rect id="e" x="382.5" y="523" width="144" height="37.938" fill="#FEFECE" filter="url(#a)" stroke="#A80036" stroke-width="1.5" codeLine="41"/>
<ellipse cx="397.5" cy="541.97" rx="11" ry="11" fill="#ADD1B2" stroke="#A80036"/>
<path d="m400.47 547.61q-0.5782 0.2969-1.2188 0.4375-0.6406 0.1562-1.3437 0.1562-2.5 0-3.8282-1.6406-1.3125-1.6562-1.3125-4.7812t1.3125-4.7813q1.3282-1.6562 3.8282-1.6562 0.7031 0 1.3437 0.1562 0.6563 0.1563 1.2188 0.4531v2.7188q-0.625-0.5781-1.2188-0.8438-0.5937-0.2812-1.2187-0.2812-1.3438 0-2.0313 1.0781-0.6875 1.0625-0.6875 3.1563 0 2.0937 0.6875 3.1718 0.6875 1.0625 2.0313 1.0625 0.625 0 1.2187-0.2656 0.5938-0.2812 1.2188-0.8594v2.7188z"/>
<text x="411.5" y="540.9951" fill="#000000" font-family="sans-serif" font-size="14" textLength="112">Astronomy.Time</text>
<text x="420" y="553.5791" fill="#000000" font-family="sans-serif" font-size="10" textLength="95">org.astronomie.info</text>
</a>
<path id="f" d="m118.5 476.11c-11.72 19.01-21.74 35.27-28.83 46.76" fill="none" stroke="#A80036" codeLine="43"/>
<ellipse cx="122.23" cy="470.06" rx="8" ry="8" fill="#fff" stroke="#A80036"/>
<line x1="118.04" x2="126.43" y1="476.87" y2="463.25" stroke="#A80036"/>
<line x1="115.42" x2="129.04" y1="465.86" y2="474.26" stroke="#A80036"/>
<path id="g" d="m266.5 478.27v44.6" fill="none" stroke="#A80036" codeLine="44"/>
<ellipse cx="266.5" cy="471.25" rx="8" ry="8" fill="#fff" stroke="#A80036"/>
<line x1="266.5" x2="266.5" y1="479.25" y2="463.25" stroke="#A80036"/>
<line x1="258.5" x2="274.5" y1="471.25" y2="471.25" stroke="#A80036"/>
<path id="h" d="m414.5 476.11c11.72 19.01 21.74 35.27 28.83 46.76" fill="none" stroke="#A80036" codeLine="45"/>
<ellipse cx="410.77" cy="470.06" rx="8" ry="8" fill="#fff" stroke="#A80036"/>
<line x1="414.96" x2="406.57" y1="476.87" y2="463.25" stroke="#A80036"/>
<line x1="403.96" x2="417.58" y1="474.26" y2="465.86" stroke="#A80036"/>
<text x="167.75" y="583.2197" fill="#888888" font-family="sans-serif" font-size="10" textLength="192">UMLDoclet 2.0.15, PlantUML 1.2021.13</text>
</svg>
