<?xml version="1.0" encoding="UTF-8"?>
<svg width="207px" height="489px" style="background:transparent;height:489px;width:207px" contentScriptType="application/ecmascript" contentStyleType="text/css" preserveAspectRatio="none" version="1.1" viewBox="0 0 207 489" xmlns="http://www.w3.org/2000/svg" xmlns:xlink="http://www.w3.org/1999/xlink" zoomAndPan="magnify">
<defs>
<filter id="a" x="-1" y="-1" width="300%" height="300%">
<feGaussianBlur result="blurOut" stdDeviation="2.0"/>
<feColorMatrix in="blurOut" result="blurOut2" values="0 0 0 0 0 0 0 0 0 0 0 0 0 0 0 0 0 0 .4 0"/>
<feOffset dx="4.0" dy="4.0" in="blurOut2" result="blurOut3"/>
<feBlend in="SourceGraphic" in2="blurOut3"/>
</filter>
</defs>
<a href="Astronomy.Coor.html" target="_top" title="Astronomy.Coor.html" xlink:actuate="onRequest" xlink:href="Astronomy.Coor.html" xlink:show="new" xlink:title="Astronomy.Coor.html" xlink:type="simple">
<rect id="b" x="7" y="105" width="186" height="353.25" fill="#FEFECE" filter="url(#a)" stroke="#A80036" stroke-width="1.5" codeLine="5"/>
<ellipse cx="41.35" cy="123.97" rx="11" ry="11" fill="#ADD1B2" stroke="#A80036"/>
<path d="m44.319 129.61q-0.5782 0.2969-1.2188 0.4375-0.6406 0.1562-1.3437 0.1562-2.5 0-3.8282-1.6406-1.3125-1.6562-1.3125-4.7812t1.3125-4.7813q1.3282-1.6562 3.8282-1.6562 0.7031 0 1.3437 0.1562 0.6563 0.1563 1.2188 0.4531v2.7188q-0.625-0.5781-1.2188-0.8438-0.5937-0.2812-1.2187-0.2812-1.3438 0-2.0313 1.0781-0.6875 1.0625-0.6875 3.1563 0 2.0937 0.6875 3.1718 0.6875 1.0625 2.0313 1.0625 0.625 0 1.2187-0.2656 0.5938-0.2812 1.2188-0.8594v2.7188z"/>
<text x="59.65" y="122.9951" fill="#000000" font-family="sans-serif" font-size="14" textLength="111">Astronomy.Coor</text>
<text x="67.65" y="135.5791" fill="#000000" font-family="sans-serif" font-size="10" textLength="95">org.astronomie.info</text>
<line x1="8" x2="192" y1="142.94" y2="142.94" stroke="#A80036" stroke-width="1.5"/>
<ellipse cx="18" cy="153.94" rx="3" ry="3" fill="none" stroke="#038048"/>
<text x="27" y="157.1479" fill="#000000" font-family="sans-serif" font-size="11" textLength="63">lon: double</text>
<ellipse cx="18" cy="166.74" rx="3" ry="3" fill="none" stroke="#038048"/>
<text x="27" y="169.9526" fill="#000000" font-family="sans-serif" font-size="11" textLength="60">lat: double</text>
<ellipse cx="18" cy="179.55" rx="3" ry="3" fill="none" stroke="#038048"/>
<text x="27" y="182.7573" fill="#000000" font-family="sans-serif" font-size="11" textLength="58">ra: double</text>
<ellipse cx="18" cy="192.35" rx="3" ry="3" fill="none" stroke="#038048"/>
<text x="27" y="195.562" fill="#000000" font-family="sans-serif" font-size="11" textLength="66">dec: double</text>
<ellipse cx="18" cy="205.16" rx="3" ry="3" fill="none" stroke="#038048"/>
<text x="27" y="208.3667" fill="#000000" font-family="sans-serif" font-size="11" textLength="119">raGeocentric: double</text>
<ellipse cx="18" cy="217.96" rx="3" ry="3" fill="none" stroke="#038048"/>
<text x="27" y="221.1714" fill="#000000" font-family="sans-serif" font-size="11" textLength="127">decGeocentric: double</text>
<ellipse cx="18" cy="230.77" rx="3" ry="3" fill="none" stroke="#038048"/>
<text x="27" y="233.9761" fill="#000000" font-family="sans-serif" font-size="11" textLength="58">az: double</text>
<ellipse cx="18" cy="243.57" rx="3" ry="3" fill="none" stroke="#038048"/>
<text x="27" y="246.7808" fill="#000000" font-family="sans-serif" font-size="11" textLength="60">alt: double</text>
<ellipse cx="18" cy="256.38" rx="3" ry="3" fill="none" stroke="#038048"/>
<text x="27" y="259.5854" fill="#000000" font-family="sans-serif" font-size="11" textLength="52">x: double</text>
<ellipse cx="18" cy="269.18" rx="3" ry="3" fill="none" stroke="#038048"/>
<text x="27" y="272.3901" fill="#000000" font-family="sans-serif" font-size="11" textLength="52">y: double</text>
<ellipse cx="18" cy="281.98" rx="3" ry="3" fill="none" stroke="#038048"/>
<text x="27" y="285.1948" fill="#000000" font-family="sans-serif" font-size="11" textLength="51">z: double</text>
<ellipse cx="18" cy="294.79" rx="3" ry="3" fill="none" stroke="#038048"/>
<text x="27" y="297.9995" fill="#000000" font-family="sans-serif" font-size="11" textLength="82">radius: double</text>
<ellipse cx="18" cy="307.59" rx="3" ry="3" fill="none" stroke="#038048"/>
<text x="27" y="310.8042" fill="#000000" font-family="sans-serif" font-size="11" textLength="97">diameter: double</text>
<ellipse cx="18" cy="320.4" rx="3" ry="3" fill="none" stroke="#038048"/>
<text x="27" y="323.6089" fill="#000000" font-family="sans-serif" font-size="11" textLength="94">distance: double</text>
<ellipse cx="18" cy="333.2" rx="3" ry="3" fill="none" stroke="#038048"/>
<text x="27" y="336.4136" fill="#000000" font-family="sans-serif" font-size="11" textLength="160">distanceTopocentric: double</text>
<ellipse cx="18" cy="346.01" rx="3" ry="3" fill="none" stroke="#038048"/>
<text x="27" y="349.2183" fill="#000000" font-family="sans-serif" font-size="11" textLength="132">decTopocentric: double</text>
<ellipse cx="18" cy="358.81" rx="3" ry="3" fill="none" stroke="#038048"/>
<text x="27" y="362.0229" fill="#000000" font-family="sans-serif" font-size="11" textLength="124">raTopocentric: double</text>
<ellipse cx="18" cy="371.62" rx="3" ry="3" fill="none" stroke="#038048"/>
<text x="27" y="374.8276" fill="#000000" font-family="sans-serif" font-size="11" textLength="124">anomalyMean: double</text>
<ellipse cx="18" cy="384.42" rx="3" ry="3" fill="none" stroke="#038048"/>
<text x="27" y="387.6323" fill="#000000" font-family="sans-serif" font-size="11" textLength="91">parallax: double</text>
<ellipse cx="18" cy="397.23" rx="3" ry="3" fill="none" stroke="#038048"/>
<text x="27" y="400.437" fill="#000000" font-family="sans-serif" font-size="11" textLength="92">orbitLon: double</text>
<ellipse cx="18" cy="410.03" rx="3" ry="3" fill="none" stroke="#038048"/>
<text x="27" y="413.2417" fill="#000000" font-family="sans-serif" font-size="11" textLength="99">moonAge: double</text>
<ellipse cx="18" cy="422.84" rx="3" ry="3" fill="none" stroke="#038048"/>
<text x="27" y="426.0464" fill="#000000" font-family="sans-serif" font-size="11" textLength="81">phase: double</text>
<ellipse cx="18" cy="435.64" rx="3" ry="3" fill="none" stroke="#038048"/>
<text x="27" y="438.8511" fill="#000000" font-family="sans-serif" font-size="11" textLength="109">moonPhase: String</text>
<ellipse cx="18" cy="448.45" rx="3" ry="3" fill="none" stroke="#038048"/>
<text x="27" y="451.6558" fill="#000000" font-family="sans-serif" font-size="11" textLength="66">sign: String</text>
</a>
<a href="Astronomy.html" target="_top" title="Astronomy.html" xlink:actuate="onRequest" xlink:href="Astronomy.html" xlink:show="new" xlink:title="Astronomy.html" xlink:type="simple">
<rect id="c" x="36.5" y="7" width="127" height="37.938" fill="#FEFECE" filter="url(#a)" stroke="#A80036" stroke-width="1.5" codeLine="32"/>
<ellipse cx="51.5" cy="25.969" rx="11" ry="11" fill="#ADD1B2" stroke="#A80036"/>
<path d="m54.469 31.609q-0.5782 0.2969-1.2188 0.4375-0.6406 0.1562-1.3437 0.1562-2.5 0-3.8282-1.6406-1.3125-1.6562-1.3125-4.7812t1.3125-4.7813q1.3282-1.6562 3.8282-1.6562 0.7031 0 1.3437 0.1562 0.6563 0.1563 1.2188 0.4531v2.7188q-0.625-0.5781-1.2188-0.8438-0.5937-0.2812-1.2187-0.2812-1.3438 0-2.0313 1.0781-0.6875 1.0625-0.6875 3.1563 0 2.0937 0.6875 3.1718 0.6875 1.0625 2.0313 1.0625 0.625 0 1.2187-0.2656 0.5938-0.2812 1.2188-0.8594v2.7188z"/>
<text x="76" y="24.9951" fill="#000000" font-family="sans-serif" font-size="14" textLength="74">Astronomy</text>
<text x="65.5" y="37.5791" fill="#000000" font-family="sans-serif" font-size="10" textLength="95">org.astronomie.info</text>
</a>
<path id="d" d="m100 60.48v44.3" fill="none" stroke="#A80036" codeLine="34"/>
<ellipse cx="100" cy="53.23" rx="8" ry="8" fill="#fff" stroke="#A80036"/>
<line x1="100" x2="100" y1="61.23" y2="45.23" stroke="#A80036"/>
<line x1="92" x2="108" y1="53.23" y2="53.23" stroke="#A80036"/>
<text x="1" y="480.5322" fill="#888888" font-family="sans-serif" font-size="10" textLength="192">UMLDoclet 2.0.15, PlantUML 1.2021.13</text>
</svg>
