<?xml version="1.0" encoding="UTF-8"?>
<svg width="425px" height="298px" style="background:transparent;height:298px;width:425px" contentStyleType="text/css" preserveAspectRatio="none" version="1.1" viewBox="0 0 425 298" xmlns="http://www.w3.org/2000/svg" xmlns:xlink="http://www.w3.org/1999/xlink" zoomAndPan="magnify">
<a href="APIReaders.PollenAreaReader.html" target="_top" title="APIReaders.PollenAreaReader.html" xlink:actuate="onRequest" xlink:href="APIReaders.PollenAreaReader.html" xlink:show="new" xlink:title="APIReaders.PollenAreaReader.html" xlink:type="simple">
<g id="a">
<rect id="b" x="7" y="129" width="330" height="143.72" rx="2.5" ry="2.5" fill="#F1F1F1" stroke="#181818" stroke-width=".5" codeLine="5"/>
<ellipse cx="48.1" cy="147.97" rx="11" ry="11" fill="#ADD1B2" stroke="#181818"/>
<path d="m51.069 153.61q-0.5782 0.2969-1.2188 0.4375-0.6406 0.1562-1.3437 0.1562-2.5 0-3.8282-1.6406-1.3125-1.6562-1.3125-4.7812t1.3125-4.7813q1.3282-1.6562 3.8282-1.6562 0.7031 0 1.3437 0.1562 0.6563 0.1563 1.2188 0.4531v2.7188q-0.625-0.5781-1.2188-0.8438-0.5937-0.2812-1.2187-0.2812-1.3438 0-2.0313 1.0781-0.6875 1.0625-0.6875 3.1563 0 2.0937 0.6875 3.1718 0.6875 1.0625 2.0313 1.0625 0.625 0 1.2187-0.2656 0.5938-0.2812 1.2188-0.8594v2.7188z"/>
<text x="84.9" y="146.9951" fill="#000000" font-family="sans-serif" font-size="14" textLength="206">APIReaders.PollenAreaReader</text>
<text x="67.9" y="159.5791" fill="#000000" font-family="sans-serif" font-size="10" textLength="240">de.kaffeemitkoffein.tinyweatherforecastgermany</text>
<line x1="8" x2="336" y1="166.94" y2="166.94" stroke="#181818" stroke-width=".5"/>
<ellipse cx="18" cy="180.59" rx="3" ry="3" fill="#84BE84" stroke="#038048"/>
<text x="27" y="183.9326" fill="#000000" font-family="sans-serif" font-size="14" textLength="187">PollenAreaReader(Context)</text>
<ellipse cx="18" cy="196.88" rx="3" ry="3" fill="#84BE84" stroke="#038048"/>
<text x="27" y="200.2295" fill="#000000" font-family="sans-serif" font-size="14" text-decoration="underline" textLength="304">getPollenAreaStream(boolean): InputStream</text>
<ellipse cx="18" cy="213.18" rx="3" ry="3" fill="#84BE84" stroke="#038048"/>
<text x="27" y="216.5264" fill="#000000" font-family="sans-serif" font-size="14" textLength="264">readPollenAreaDataRawString(): String</text>
<ellipse cx="18" cy="229.48" rx="3" ry="3" fill="#84BE84" stroke="#038048"/>
<text x="27" y="232.8232" fill="#000000" font-family="sans-serif" font-size="14" textLength="159">readPollenAreas(): void</text>
<ellipse cx="18" cy="245.77" rx="3" ry="3" fill="#84BE84" stroke="#038048"/>
<text x="27" y="249.1201" fill="#000000" font-family="sans-serif" font-size="14" textLength="123">onFinished(): void</text>
<ellipse cx="18" cy="262.07" rx="3" ry="3" fill="#84BE84" stroke="#038048"/>
<text x="27" y="265.417" fill="#000000" font-family="sans-serif" font-size="14" textLength="70">run(): void</text>
</g>
</a>
<g id="c">
<rect id="d" x="13" y="7" width="98" height="62.234" rx="2.5" ry="2.5" fill="#F1F1F1" stroke="#181818" stroke-width=".5" codeLine="14"/>
<ellipse cx="28" cy="25.969" rx="11" ry="11" fill="#B4A7E5" stroke="#181818"/>
<path d="m23.922 21.734v-2.1563h7.3906v2.1563h-2.4687v8.0781h2.4687v2.1563h-7.3906v-2.1563h2.4687v-8.0781h-2.4687z"/>
<text x="42" y="24.9951" fill="#000000" font-family="sans-serif" font-size="14" font-style="italic" textLength="66">Runnable</text>
<text x="53.5" y="37.5791" fill="#000000" font-family="sans-serif" font-size="10" font-style="italic" textLength="43">java.lang</text>
<line x1="14" x2="110" y1="44.938" y2="44.938" stroke="#181818" stroke-width=".5"/>
<ellipse cx="24" cy="58.586" rx="3" ry="3" fill="#84BE84" stroke="#038048"/>
<text x="33" y="61.9326" fill="#000000" font-family="sans-serif" font-size="14" font-style="italic" textLength="70">run(): void</text>
</g>
<a href="APIReaders.html" target="_top" title="APIReaders.html" xlink:actuate="onRequest" xlink:href="APIReaders.html" xlink:show="new" xlink:title="APIReaders.html" xlink:type="simple">
<g id="e">
<rect id="f" x="146" y="19" width="272" height="37.938" rx="2.5" ry="2.5" fill="#F1F1F1" stroke="#181818" stroke-width=".5" codeLine="17"/>
<ellipse cx="161" cy="37.969" rx="11" ry="11" fill="#ADD1B2" stroke="#181818"/>
<path d="m163.97 43.609q-0.5782 0.2969-1.2188 0.4375-0.6406 0.1562-1.3437 0.1562-2.5 0-3.8282-1.6406-1.3125-1.6562-1.3125-4.7812t1.3125-4.7813q1.3282-1.6562 3.8282-1.6562 0.7031 0 1.3437 0.1562 0.6563 0.1563 1.2188 0.4531v2.7188q-0.625-0.5781-1.2188-0.8438-0.5937-0.2812-1.2187-0.2812-1.3438 0-2.0313 1.0781-0.6875 1.0625-0.6875 3.1563 0 2.0937 0.6875 3.1718 0.6875 1.0625 2.0313 1.0625 0.625 0 1.2187-0.2656 0.5938-0.2812 1.2188-0.8594v2.7188z"/>
<text x="255.5" y="36.9951" fill="#000000" font-family="sans-serif" font-size="14" textLength="79">APIReaders</text>
<text x="175" y="49.5791" fill="#000000" font-family="sans-serif" font-size="10" textLength="240">de.kaffeemitkoffein.tinyweatherforecastgermany</text>
</g>
</a>
<g id="g" fill="none" stroke="#181818">
<path id="h" d="m92.843 84.143c11.51 16.85 16.217 23.727 30.487 44.627" stroke-dasharray="7.0,7.0" codeLine="19"/>
<polygon points="82.69 69.28 87.888 87.528 97.797 80.759"/>
</g>
<g id="i" stroke="#181818">
<path id="j" d="m260.57 70.369c-11.97 17.51-21.84 31.971-39.84 58.301" fill="none" codeLine="20"/>
<ellipse cx="265.09" cy="63.764" rx="8" ry="8" fill="#fff"/>
<line x1="260.57" x2="269.6" y1="70.369" y2="57.16"/>
<line x1="258.48" x2="271.69" y1="59.25" y2="68.279"/>
</g>
<text x="115.5" y="288.001" fill="#888888" font-family="sans-serif" font-size="10" textLength="180">UMLDoclet 2.1.2, PlantUML 1.2024.3</text>
</svg>
