<?xml version="1.0" encoding="UTF-8"?>
<svg width="459px" height="282px" style="background:transparent;height:282px;width:459px" contentStyleType="text/css" preserveAspectRatio="none" version="1.1" viewBox="0 0 459 282" xmlns="http://www.w3.org/2000/svg" xmlns:xlink="http://www.w3.org/1999/xlink" zoomAndPan="magnify">
<a href="APIReaders.WarnAreasReader.html" target="_top" title="APIReaders.WarnAreasReader.html" xlink:actuate="onRequest" xlink:href="APIReaders.WarnAreasReader.html" xlink:show="new" xlink:title="APIReaders.WarnAreasReader.html" xlink:type="simple">
<g id="a">
<rect id="b" x="7" y="129" width="398" height="127.42" rx="2.5" ry="2.5" fill="#F1F1F1" stroke="#181818" stroke-width=".5" codeLine="5"/>
<ellipse cx="81.75" cy="147.97" rx="11" ry="11" fill="#ADD1B2" stroke="#181818"/>
<path d="m84.719 153.61q-0.5782 0.2969-1.2188 0.4375-0.6406 0.1562-1.3437 0.1562-2.5 0-3.8282-1.6406-1.3125-1.6562-1.3125-4.7812t1.3125-4.7813q1.3282-1.6562 3.8282-1.6562 0.7031 0 1.3437 0.1562 0.6563 0.1563 1.2188 0.4531v2.7188q-0.625-0.5781-1.2188-0.8438-0.5937-0.2812-1.2187-0.2812-1.3438 0-2.0313 1.0781-0.6875 1.0625-0.6875 3.1563 0 2.0937 0.6875 3.1718 0.6875 1.0625 2.0313 1.0625 0.625 0 1.2187-0.2656 0.5938-0.2812 1.2188-0.8594v2.7188z"/>
<text x="118.75" y="146.9951" fill="#000000" font-family="sans-serif" font-size="14" textLength="207">APIReaders.WarnAreasReader</text>
<text x="102.25" y="159.5791" fill="#000000" font-family="sans-serif" font-size="10" textLength="240">de.kaffeemitkoffein.tinyweatherforecastgermany</text>
<line x1="8" x2="404" y1="166.94" y2="166.94" stroke="#181818" stroke-width=".5"/>
<ellipse cx="18" cy="180.59" rx="3" ry="3" fill="#84BE84" stroke="#038048"/>
<text x="27" y="183.9326" fill="#000000" font-family="sans-serif" font-size="14" textLength="188">WarnAreasReader(Context)</text>
<ellipse cx="18" cy="196.88" rx="3" ry="3" fill="#84BE84" stroke="#038048"/>
<text x="27" y="200.2295" fill="#000000" font-family="sans-serif" font-size="14" text-decoration="underline" textLength="372">getAreaStream(Context, boolean, String): InputStream</text>
<ellipse cx="18" cy="213.18" rx="3" ry="3" fill="#84BE84" stroke="#038048"/>
<text x="27" y="216.5264" fill="#000000" font-family="sans-serif" font-size="14" textLength="262">readAreaDataRawString(String): String</text>
<ellipse cx="18" cy="229.48" rx="3" ry="3" fill="#84BE84" stroke="#038048"/>
<text x="27" y="232.8232" fill="#000000" font-family="sans-serif" font-size="14" textLength="142">doFile(String, int): int</text>
<ellipse cx="18" cy="245.77" rx="3" ry="3" fill="#84BE84" stroke="#038048"/>
<text x="27" y="249.1201" fill="#000000" font-family="sans-serif" font-size="14" textLength="70">run(): void</text>
</g>
</a>
<g id="c">
<rect id="d" x="47" y="7" width="98" height="62.234" rx="2.5" ry="2.5" fill="#F1F1F1" stroke="#181818" stroke-width=".5" codeLine="13"/>
<ellipse cx="62" cy="25.969" rx="11" ry="11" fill="#B4A7E5" stroke="#181818"/>
<path d="m57.922 21.734v-2.1563h7.3906v2.1563h-2.4687v8.0781h2.4687v2.1563h-7.3906v-2.1563h2.4687v-8.0781h-2.4687z"/>
<text x="76" y="24.9951" fill="#000000" font-family="sans-serif" font-size="14" font-style="italic" textLength="66">Runnable</text>
<text x="87.5" y="37.5791" fill="#000000" font-family="sans-serif" font-size="10" font-style="italic" textLength="43">java.lang</text>
<line x1="48" x2="144" y1="44.938" y2="44.938" stroke="#181818" stroke-width=".5"/>
<ellipse cx="58" cy="58.586" rx="3" ry="3" fill="#84BE84" stroke="#038048"/>
<text x="67" y="61.9326" fill="#000000" font-family="sans-serif" font-size="14" font-style="italic" textLength="70">run(): void</text>
</g>
<a href="APIReaders.html" target="_top" title="APIReaders.html" xlink:actuate="onRequest" xlink:href="APIReaders.html" xlink:show="new" xlink:title="APIReaders.html" xlink:type="simple">
<g id="e">
<rect id="f" x="180" y="19" width="272" height="37.938" rx="2.5" ry="2.5" fill="#F1F1F1" stroke="#181818" stroke-width=".5" codeLine="16"/>
<ellipse cx="195" cy="37.969" rx="11" ry="11" fill="#ADD1B2" stroke="#181818"/>
<path d="m197.97 43.609q-0.5782 0.2969-1.2188 0.4375-0.6406 0.1562-1.3437 0.1562-2.5 0-3.8282-1.6406-1.3125-1.6562-1.3125-4.7812t1.3125-4.7813q1.3282-1.6562 3.8282-1.6562 0.7031 0 1.3437 0.1562 0.6563 0.1563 1.2188 0.4531v2.7188q-0.625-0.5781-1.2188-0.8438-0.5937-0.2812-1.2187-0.2812-1.3438 0-2.0313 1.0781-0.6875 1.0625-0.6875 3.1563 0 2.0937 0.6875 3.1718 0.6875 1.0625 2.0313 1.0625 0.625 0 1.2187-0.2656 0.5938-0.2812 1.2188-0.8594v2.7188z"/>
<text x="289.5" y="36.9951" fill="#000000" font-family="sans-serif" font-size="14" textLength="79">APIReaders</text>
<text x="209" y="49.5791" fill="#000000" font-family="sans-serif" font-size="10" textLength="240">de.kaffeemitkoffein.tinyweatherforecastgermany</text>
</g>
</a>
<g id="g" fill="none" stroke="#181818">
<path id="h" d="m128.26 83.726c12.34 17.1 17.717 24.564 32.627 45.234" stroke-dasharray="7.0,7.0" codeLine="18"/>
<polygon points="117.73 69.13 123.4 87.237 133.13 80.215"/>
</g>
<g id="i" stroke="#181818">
<path id="j" d="m293.59 70.064c-12.81 17.75-23.717 32.886-42.417 58.816" fill="none" codeLine="19"/>
<ellipse cx="298.27" cy="63.577" rx="8" ry="8" fill="#fff"/>
<line x1="293.59" x2="302.95" y1="70.064" y2="57.09"/>
<line x1="291.78" x2="304.76" y1="58.895" y2="68.259"/>
</g>
<text x="132.5" y="271.7041" fill="#888888" font-family="sans-serif" font-size="10" textLength="180">UMLDoclet 2.1.2, PlantUML 1.2024.3</text>
</svg>
