<?xml version="1.0" encoding="UTF-8"?>
<svg width="451px" height="371px" style="background:transparent;height:371px;width:451px" contentStyleType="text/css" preserveAspectRatio="none" version="1.1" viewBox="0 0 451 371" xmlns="http://www.w3.org/2000/svg" xmlns:xlink="http://www.w3.org/1999/xlink" zoomAndPan="magnify">
<a href="APIReaders.WeatherWarningsRunnable.html" target="_top" title="APIReaders.WeatherWarningsRunnable.html" xlink:actuate="onRequest" xlink:href="APIReaders.WeatherWarningsRunnable.html" xlink:show="new" xlink:title="APIReaders.WeatherWarningsRunnable.html" xlink:type="simple">
<g id="a">
<rect id="b" x="7" y="129" width="383" height="216.91" rx="2.5" ry="2.5" fill="#F1F1F1" stroke="#181818" stroke-width=".5" codeLine="5"/>
<ellipse cx="58.75" cy="147.97" rx="11" ry="11" fill="#ADD1B2" stroke="#181818"/>
<path d="m61.719 153.61q-0.5782 0.2969-1.2188 0.4375-0.6406 0.1562-1.3437 0.1562-2.5 0-3.8282-1.6406-1.3125-1.6562-1.3125-4.7812t1.3125-4.7813q1.3282-1.6562 3.8282-1.6562 0.7031 0 1.3437 0.1562 0.6563 0.1563 1.2188 0.4531v2.7188q-0.625-0.5781-1.2188-0.8438-0.5937-0.2812-1.2187-0.2812-1.3438 0-2.0313 1.0781-0.6875 1.0625-0.6875 3.1563 0 2.0937 0.6875 3.1718 0.6875 1.0625 2.0313 1.0625 0.625 0 1.2187-0.2656 0.5938-0.2812 1.2188-0.8594v2.7188z"/>
<text x="79.25" y="146.9951" fill="#000000" font-family="sans-serif" font-size="14" textLength="271">APIReaders.WeatherWarningsRunnable</text>
<text x="94.75" y="159.5791" fill="#000000" font-family="sans-serif" font-size="10" textLength="240">de.kaffeemitkoffein.tinyweatherforecastgermany</text>
<line x1="8" x2="389" y1="166.94" y2="166.94" stroke="#181818" stroke-width=".5"/>
<ellipse cx="18" cy="180.59" rx="3" ry="3" fill="none" stroke="#038048"/>
<text x="27" y="183.9326" fill="#000000" font-family="sans-serif" font-size="14" textLength="115">context: Context</text>
<ellipse cx="18" cy="196.88" rx="3" ry="3" fill="none" stroke="#038048"/>
<text x="27" y="200.2295" fill="#000000" font-family="sans-serif" font-size="14" textLength="239">weatherLocation: WeatherLocation</text>
<line x1="8" x2="389" y1="207.53" y2="207.53" stroke="#181818" stroke-width=".5"/>
<ellipse cx="18" cy="221.18" rx="3" ry="3" fill="#84BE84" stroke="#038048"/>
<text x="27" y="224.5264" fill="#000000" font-family="sans-serif" font-size="14" textLength="252">WeatherWarningsRunnable(Context)</text>
<ellipse cx="18" cy="237.48" rx="3" ry="3" fill="#84BE84" stroke="#038048"/>
<text x="27" y="240.8232" fill="#000000" font-family="sans-serif" font-size="14" textLength="265">getTimeStampFromString(String): long</text>
<ellipse cx="18" cy="253.77" rx="3" ry="3" fill="#84BE84" stroke="#038048"/>
<text x="27" y="257.1201" fill="#000000" font-family="sans-serif" font-size="14" textLength="328">doInBackground(): ArrayList&lt;WeatherWarning&gt;</text>
<ellipse cx="18" cy="270.07" rx="3" ry="3" fill="#84BE84" stroke="#038048"/>
<text x="27" y="273.417" fill="#000000" font-family="sans-serif" font-size="14" textLength="97">onStart(): void</text>
<ellipse cx="18" cy="286.37" rx="3" ry="3" fill="#84BE84" stroke="#038048"/>
<text x="27" y="289.7139" fill="#000000" font-family="sans-serif" font-size="14" textLength="169">onNegativeResult(): void</text>
<ellipse cx="18" cy="302.66" rx="3" ry="3" fill="#84BE84" stroke="#038048"/>
<text x="27" y="306.0107" fill="#000000" font-family="sans-serif" font-size="14" textLength="162">onPositiveResult(): void</text>
<ellipse cx="18" cy="318.96" rx="3" ry="3" fill="#84BE84" stroke="#038048"/>
<text x="27" y="322.3076" fill="#000000" font-family="sans-serif" font-size="14" textLength="357">onPositiveResult(ArrayList&lt;WeatherWarning&gt;): void</text>
<ellipse cx="18" cy="335.26" rx="3" ry="3" fill="#84BE84" stroke="#038048"/>
<text x="27" y="338.6045" fill="#000000" font-family="sans-serif" font-size="14" textLength="70">run(): void</text>
</g>
</a>
<g id="c">
<rect id="d" x="39.5" y="7" width="98" height="62.234" rx="2.5" ry="2.5" fill="#F1F1F1" stroke="#181818" stroke-width=".5" codeLine="18"/>
<ellipse cx="54.5" cy="25.969" rx="11" ry="11" fill="#B4A7E5" stroke="#181818"/>
<path d="m50.422 21.734v-2.1563h7.3906v2.1563h-2.4687v8.0781h2.4687v2.1563h-7.3906v-2.1563h2.4687v-8.0781h-2.4687z"/>
<text x="68.5" y="24.9951" fill="#000000" font-family="sans-serif" font-size="14" font-style="italic" textLength="66">Runnable</text>
<text x="80" y="37.5791" fill="#000000" font-family="sans-serif" font-size="10" font-style="italic" textLength="43">java.lang</text>
<line x1="40.5" x2="136.5" y1="44.938" y2="44.938" stroke="#181818" stroke-width=".5"/>
<ellipse cx="50.5" cy="58.586" rx="3" ry="3" fill="#84BE84" stroke="#038048"/>
<text x="59.5" y="61.9326" fill="#000000" font-family="sans-serif" font-size="14" font-style="italic" textLength="70">run(): void</text>
</g>
<a href="APIReaders.html" target="_top" title="APIReaders.html" xlink:actuate="onRequest" xlink:href="APIReaders.html" xlink:show="new" xlink:title="APIReaders.html" xlink:type="simple">
<g id="e">
<rect id="f" x="172.5" y="19" width="272" height="37.938" rx="2.5" ry="2.5" fill="#F1F1F1" stroke="#181818" stroke-width=".5" codeLine="21"/>
<ellipse cx="187.5" cy="37.969" rx="11" ry="11" fill="#ADD1B2" stroke="#181818"/>
<path d="m190.47 43.609q-0.5782 0.2969-1.2188 0.4375-0.6406 0.1562-1.3437 0.1562-2.5 0-3.8282-1.6406-1.3125-1.6562-1.3125-4.7812t1.3125-4.7813q1.3282-1.6562 3.8282-1.6562 0.7031 0 1.3437 0.1562 0.6563 0.1563 1.2188 0.4531v2.7188q-0.625-0.5781-1.2188-0.8438-0.5937-0.2812-1.2187-0.2812-1.3438 0-2.0313 1.0781-0.6875 1.0625-0.6875 3.1563 0 2.0937 0.6875 3.1718 0.6875 1.0625 2.0313 1.0625 0.625 0 1.2187-0.2656 0.5938-0.2812 1.2188-0.8594v2.7188z"/>
<text x="282" y="36.9951" fill="#000000" font-family="sans-serif" font-size="14" textLength="79">APIReaders</text>
<text x="201.5" y="49.5791" fill="#000000" font-family="sans-serif" font-size="10" textLength="240">de.kaffeemitkoffein.tinyweatherforecastgermany</text>
</g>
</a>
<g id="g" fill="none" stroke="#181818">
<path id="h" d="m114.21 85.156c9.1 16.34 12.162 21.844 24.322 43.664" stroke-dasharray="7.0,7.0" codeLine="23"/>
<polygon points="105.45 69.43 108.97 88.075 119.45 82.236"/>
</g>
<g id="i" stroke="#181818">
<path id="j" d="m290.56 71.206c-9.47 16.99-16.63 29.864-32.11 57.654" fill="none" codeLine="24"/>
<ellipse cx="294.46" cy="64.218" rx="8" ry="8" fill="#fff"/>
<line x1="290.56" x2="298.35" y1="71.206" y2="57.23"/>
<line x1="287.47" x2="301.44" y1="60.323" y2="68.113"/>
</g>
<text x="128.75" y="361.1885" fill="#888888" font-family="sans-serif" font-size="10" textLength="180">UMLDoclet 2.1.2, PlantUML 1.2024.3</text>
</svg>
