<?xml version="1.0" encoding="UTF-8"?>
<svg width="428px" height="347px" style="background:transparent;height:347px;width:428px" contentStyleType="text/css" preserveAspectRatio="none" version="1.1" viewBox="0 0 428 347" xmlns="http://www.w3.org/2000/svg" xmlns:xlink="http://www.w3.org/1999/xlink" zoomAndPan="magnify">
<a href="APIReaders.PollenReader.html" target="_top" title="APIReaders.PollenReader.html" xlink:actuate="onRequest" xlink:href="APIReaders.PollenReader.html" xlink:show="new" xlink:title="APIReaders.PollenReader.html" xlink:type="simple">
<g id="a">
<rect id="b" x="7" y="129" width="336" height="192.61" rx="2.5" ry="2.5" fill="#F1F1F1" stroke="#181818" stroke-width=".5" codeLine="5"/>
<ellipse cx="50.8" cy="147.97" rx="11" ry="11" fill="#ADD1B2" stroke="#181818"/>
<path d="m53.769 153.61q-0.5782 0.2969-1.2188 0.4375-0.6406 0.1562-1.3437 0.1562-2.5 0-3.8282-1.6406-1.3125-1.6562-1.3125-4.7812t1.3125-4.7813q1.3282-1.6562 3.8282-1.6562 0.7031 0 1.3437 0.1562 0.6563 0.1563 1.2188 0.4531v2.7188q-0.625-0.5781-1.2188-0.8438-0.5937-0.2812-1.2187-0.2812-1.3438 0-2.0313 1.0781-0.6875 1.0625-0.6875 3.1563 0 2.0937 0.6875 3.1718 0.6875 1.0625 2.0313 1.0625 0.625 0 1.2187-0.2656 0.5938-0.2812 1.2188-0.8594v2.7188z"/>
<text x="103.7" y="146.9951" fill="#000000" font-family="sans-serif" font-size="14" textLength="175">APIReaders.PollenReader</text>
<text x="71.2" y="159.5791" fill="#000000" font-family="sans-serif" font-size="10" textLength="240">de.kaffeemitkoffein.tinyweatherforecastgermany</text>
<line x1="8" x2="342" y1="166.94" y2="166.94" stroke="#181818" stroke-width=".5"/>
<ellipse cx="18" cy="180.59" rx="3" ry="3" fill="#84BE84" stroke="#038048"/>
<text x="27" y="183.9326" fill="#000000" font-family="sans-serif" font-size="14" textLength="156">PollenReader(Context)</text>
<ellipse cx="18" cy="196.88" rx="3" ry="3" fill="#84BE84" stroke="#038048"/>
<text x="27" y="200.2295" fill="#000000" font-family="sans-serif" font-size="14" text-decoration="underline" textLength="273">getPollenStream(boolean): InputStream</text>
<ellipse cx="18" cy="213.18" rx="3" ry="3" fill="#84BE84" stroke="#038048"/>
<text x="27" y="216.5264" fill="#000000" font-family="sans-serif" font-size="14" textLength="233">readPollenDataRawString(): String</text>
<ellipse cx="18" cy="229.48" rx="3" ry="3" fill="#84BE84" stroke="#038048"/>
<text x="27" y="232.8232" fill="#000000" font-family="sans-serif" font-size="14" textLength="253">parsePollenDateToMillis(String): long</text>
<ellipse cx="18" cy="245.77" rx="3" ry="3" fill="#84BE84" stroke="#038048"/>
<text x="27" y="249.1201" fill="#000000" font-family="sans-serif" font-size="14" text-decoration="underline" textLength="310">getPollenDataFromJson(JSONObject, int): int[]</text>
<ellipse cx="18" cy="262.07" rx="3" ry="3" fill="#84BE84" stroke="#038048"/>
<text x="27" y="265.417" fill="#000000" font-family="sans-serif" font-size="14" textLength="180">readPollenData(): boolean</text>
<ellipse cx="18" cy="278.37" rx="3" ry="3" fill="#84BE84" stroke="#038048"/>
<text x="27" y="281.7139" fill="#000000" font-family="sans-serif" font-size="14" textLength="97">onStart(): void</text>
<ellipse cx="18" cy="294.66" rx="3" ry="3" fill="#84BE84" stroke="#038048"/>
<text x="27" y="298.0107" fill="#000000" font-family="sans-serif" font-size="14" textLength="179">onFinished(boolean): void</text>
<ellipse cx="18" cy="310.96" rx="3" ry="3" fill="#84BE84" stroke="#038048"/>
<text x="27" y="314.3076" fill="#000000" font-family="sans-serif" font-size="14" textLength="70">run(): void</text>
</g>
</a>
<g id="c">
<rect id="d" x="16" y="7" width="98" height="62.234" rx="2.5" ry="2.5" fill="#F1F1F1" stroke="#181818" stroke-width=".5" codeLine="17"/>
<ellipse cx="31" cy="25.969" rx="11" ry="11" fill="#B4A7E5" stroke="#181818"/>
<path d="m26.922 21.734v-2.1563h7.3906v2.1563h-2.4687v8.0781h2.4687v2.1563h-7.3906v-2.1563h2.4687v-8.0781h-2.4687z"/>
<text x="45" y="24.9951" fill="#000000" font-family="sans-serif" font-size="14" font-style="italic" textLength="66">Runnable</text>
<text x="56.5" y="37.5791" fill="#000000" font-family="sans-serif" font-size="10" font-style="italic" textLength="43">java.lang</text>
<line x1="17" x2="113" y1="44.938" y2="44.938" stroke="#181818" stroke-width=".5"/>
<ellipse cx="27" cy="58.586" rx="3" ry="3" fill="#84BE84" stroke="#038048"/>
<text x="36" y="61.9326" fill="#000000" font-family="sans-serif" font-size="14" font-style="italic" textLength="70">run(): void</text>
</g>
<a href="APIReaders.html" target="_top" title="APIReaders.html" xlink:actuate="onRequest" xlink:href="APIReaders.html" xlink:show="new" xlink:title="APIReaders.html" xlink:type="simple">
<g id="e">
<rect id="f" x="149" y="19" width="272" height="37.938" rx="2.5" ry="2.5" fill="#F1F1F1" stroke="#181818" stroke-width=".5" codeLine="20"/>
<ellipse cx="164" cy="37.969" rx="11" ry="11" fill="#ADD1B2" stroke="#181818"/>
<path d="m166.97 43.609q-0.5782 0.2969-1.2188 0.4375-0.6406 0.1562-1.3437 0.1562-2.5 0-3.8282-1.6406-1.3125-1.6562-1.3125-4.7812t1.3125-4.7813q1.3282-1.6562 3.8282-1.6562 0.7031 0 1.3437 0.1562 0.6563 0.1563 1.2188 0.4531v2.7188q-0.625-0.5781-1.2188-0.8438-0.5937-0.2812-1.2187-0.2812-1.3438 0-2.0313 1.0781-0.6875 1.0625-0.6875 3.1563 0 2.0937 0.6875 3.1718 0.6875 1.0625 2.0313 1.0625 0.625 0 1.2187-0.2656 0.5938-0.2812 1.2188-0.8594v2.7188z"/>
<text x="258.5" y="36.9951" fill="#000000" font-family="sans-serif" font-size="14" textLength="79">APIReaders</text>
<text x="178" y="49.5791" fill="#000000" font-family="sans-serif" font-size="10" textLength="240">de.kaffeemitkoffein.tinyweatherforecastgermany</text>
</g>
</a>
<g id="g" fill="none" stroke="#181818">
<path id="h" d="m92.1 84.703c9.8 16.53 13.36 22.527 26.23 44.227" stroke-dasharray="7.0,7.0" codeLine="22"/>
<polygon points="82.92 69.22 86.938 87.763 97.261 81.644"/>
</g>
<g id="i" stroke="#181818">
<path id="j" d="m266.09 70.884c-10.16 17.14-18.081 30.496-34.371 57.956" fill="none" codeLine="23"/>
<ellipse cx="270.17" cy="64.002" rx="8" ry="8" fill="#fff"/>
<line x1="266.09" x2="274.25" y1="70.884" y2="57.12"/>
<line x1="263.29" x2="277.05" y1="59.922" y2="68.081"/>
</g>
<text x="117" y="336.8916" fill="#888888" font-family="sans-serif" font-size="10" textLength="180">UMLDoclet 2.1.2, PlantUML 1.2024.3</text>
</svg>
