<?xml version="1.0" encoding="UTF-8"?>
<svg width="1623px" height="173px" style="background:transparent;height:173px;width:1623px" contentScriptType="application/ecmascript" contentStyleType="text/css" preserveAspectRatio="none" version="1.1" viewBox="0 0 1623 173" xmlns="http://www.w3.org/2000/svg" xmlns:xlink="http://www.w3.org/1999/xlink" zoomAndPan="magnify">
<defs>
<filter id="a" x="-1" y="-1" width="300%" height="300%">
<feGaussianBlur result="blurOut" stdDeviation="2.0"/>
<feColorMatrix in="blurOut" result="blurOut2" values="0 0 0 0 0 0 0 0 0 0 0 0 0 0 0 0 0 0 .4 0"/>
<feOffset dx="4.0" dy="4.0" in="blurOut2" result="blurOut3"/>
<feBlend in="SourceGraphic" in2="blurOut3"/>
</filter>
</defs>
<a href="APIReaders.html" target="_top" title="APIReaders.html" xlink:actuate="onRequest" xlink:href="APIReaders.html" xlink:show="new" xlink:title="APIReaders.html" xlink:type="simple">
<rect id="b" x="679.5" y="7" width="272" height="37.938" fill="#FEFECE" filter="url(#a)" stroke="#A80036" stroke-width="1.5" codeLine="5"/>
<ellipse cx="694.5" cy="25.969" rx="11" ry="11" fill="#ADD1B2" stroke="#A80036"/>
<path d="m697.47 31.609q-0.5782 0.2969-1.2188 0.4375-0.6406 0.1562-1.3437 0.1562-2.5 0-3.8282-1.6406-1.3125-1.6562-1.3125-4.7812t1.3125-4.7813q1.3282-1.6562 3.8282-1.6562 0.7031 0 1.3437 0.1562 0.6563 0.1563 1.2188 0.4531v2.7188q-0.625-0.5781-1.2188-0.8438-0.5937-0.2812-1.2187-0.2812-1.3438 0-2.0313 1.0781-0.6875 1.0625-0.6875 3.1563 0 2.0937 0.6875 3.1718 0.6875 1.0625 2.0313 1.0625 0.625 0 1.2187-0.2656 0.5938-0.2812 1.2188-0.8594v2.7188z"/>
<text x="789" y="24.9951" fill="#000000" font-family="sans-serif" font-size="14" textLength="79">APIReaders</text>
<text x="708.5" y="37.5791" fill="#000000" font-family="sans-serif" font-size="10" textLength="240">de.kaffeemitkoffein.tinyweatherforecastgermany</text>
</a>
<a href="APIReaders.WeatherWarningsRunnable.html" target="_top" title="APIReaders.WeatherWarningsRunnable.html" xlink:actuate="onRequest" xlink:href="APIReaders.WeatherWarningsRunnable.html" xlink:show="new" xlink:title="APIReaders.WeatherWarningsRunnable.html" xlink:type="simple">
<rect id="c" x="7" y="105" width="303" height="37.938" fill="#FEFECE" filter="url(#a)" stroke="#A80036" stroke-width="1.5" codeLine="6"/>
<ellipse cx="22" cy="123.97" rx="11" ry="11" fill="#ADD1B2" stroke="#A80036"/>
<path d="m24.969 129.61q-0.5782 0.2969-1.2188 0.4375-0.6406 0.1562-1.3437 0.1562-2.5 0-3.8282-1.6406-1.3125-1.6562-1.3125-4.7812t1.3125-4.7813q1.3282-1.6562 3.8282-1.6562 0.7031 0 1.3437 0.1562 0.6563 0.1563 1.2188 0.4531v2.7188q-0.625-0.5781-1.2188-0.8438-0.5937-0.2812-1.2187-0.2812-1.3438 0-2.0313 1.0781-0.6875 1.0625-0.6875 3.1563 0 2.0937 0.6875 3.1718 0.6875 1.0625 2.0313 1.0625 0.625 0 1.2187-0.2656 0.5938-0.2812 1.2188-0.8594v2.7188z"/>
<text x="36" y="122.9951" fill="#000000" font-family="sans-serif" font-size="14" textLength="271">APIReaders.WeatherWarningsRunnable</text>
<text x="51.5" y="135.5791" fill="#000000" font-family="sans-serif" font-size="10" textLength="240">de.kaffeemitkoffein.tinyweatherforecastgermany</text>
</a>
<a href="APIReaders.WeatherForecastRunnable.html" target="_top" title="APIReaders.WeatherForecastRunnable.html" xlink:actuate="onRequest" xlink:href="APIReaders.WeatherForecastRunnable.html" xlink:show="new" xlink:title="APIReaders.WeatherForecastRunnable.html" xlink:type="simple">
<rect id="d" x="345" y="105" width="299" height="37.938" fill="#FEFECE" filter="url(#a)" stroke="#A80036" stroke-width="1.5" codeLine="7"/>
<ellipse cx="360" cy="123.97" rx="11" ry="11" fill="#ADD1B2" stroke="#A80036"/>
<path d="m362.97 129.61q-0.5782 0.2969-1.2188 0.4375-0.6406 0.1562-1.3437 0.1562-2.5 0-3.8282-1.6406-1.3125-1.6562-1.3125-4.7812t1.3125-4.7813q1.3282-1.6562 3.8282-1.6562 0.7031 0 1.3437 0.1562 0.6563 0.1563 1.2188 0.4531v2.7188q-0.625-0.5781-1.2188-0.8438-0.5937-0.2812-1.2187-0.2812-1.3438 0-2.0313 1.0781-0.6875 1.0625-0.6875 3.1563 0 2.0937 0.6875 3.1718 0.6875 1.0625 2.0313 1.0625 0.625 0 1.2187-0.2656 0.5938-0.2812 1.2188-0.8594v2.7188z"/>
<text x="374" y="122.9951" fill="#000000" font-family="sans-serif" font-size="14" textLength="267">APIReaders.WeatherForecastRunnable</text>
<text x="387.5" y="135.5791" fill="#000000" font-family="sans-serif" font-size="10" textLength="240">de.kaffeemitkoffein.tinyweatherforecastgermany</text>
</a>
<a href="APIReaders.TextForecastRunnable.html" target="_top" title="APIReaders.TextForecastRunnable.html" xlink:actuate="onRequest" xlink:href="APIReaders.TextForecastRunnable.html" xlink:show="new" xlink:title="APIReaders.TextForecastRunnable.html" xlink:type="simple">
<rect id="e" x="679.5" y="105" width="272" height="37.938" fill="#FEFECE" filter="url(#a)" stroke="#A80036" stroke-width="1.5" codeLine="8"/>
<ellipse cx="694.5" cy="123.97" rx="11" ry="11" fill="#ADD1B2" stroke="#A80036"/>
<path d="m697.47 129.61q-0.5782 0.2969-1.2188 0.4375-0.6406 0.1562-1.3437 0.1562-2.5 0-3.8282-1.6406-1.3125-1.6562-1.3125-4.7812t1.3125-4.7813q1.3282-1.6562 3.8282-1.6562 0.7031 0 1.3437 0.1562 0.6563 0.1563 1.2188 0.4531v2.7188q-0.625-0.5781-1.2188-0.8438-0.5937-0.2812-1.2187-0.2812-1.3438 0-2.0313 1.0781-0.6875 1.0625-0.6875 3.1563 0 2.0937 0.6875 3.1718 0.6875 1.0625 2.0313 1.0625 0.625 0 1.2187-0.2656 0.5938-0.2812 1.2188-0.8594v2.7188z"/>
<text x="709" y="122.9951" fill="#000000" font-family="sans-serif" font-size="14" textLength="239">APIReaders.TextForecastRunnable</text>
<text x="708.5" y="135.5791" fill="#000000" font-family="sans-serif" font-size="10" textLength="240">de.kaffeemitkoffein.tinyweatherforecastgermany</text>
</a>
<a href="APIReaders.RadarmapRunnable.html" target="_top" title="APIReaders.RadarmapRunnable.html" xlink:actuate="onRequest" xlink:href="APIReaders.RadarmapRunnable.html" xlink:show="new" xlink:title="APIReaders.RadarmapRunnable.html" xlink:type="simple">
<rect id="f" x="986.5" y="105" width="272" height="37.938" fill="#FEFECE" filter="url(#a)" stroke="#A80036" stroke-width="1.5" codeLine="9"/>
<ellipse cx="1001.5" cy="123.97" rx="11" ry="11" fill="#ADD1B2" stroke="#A80036"/>
<path d="m1004.5 129.61q-0.5782 0.2969-1.2188 0.4375-0.6406 0.1562-1.3437 0.1562-2.5 0-3.8282-1.6406-1.3125-1.6562-1.3125-4.7812t1.3125-4.7813q1.3282-1.6562 3.8282-1.6562 0.7031 0 1.3437 0.1562 0.6563 0.1563 1.2188 0.4531v2.7188q-0.625-0.5781-1.2188-0.8438-0.5937-0.2812-1.2187-0.2812-1.3438 0-2.0313 1.0781-0.6875 1.0625-0.6875 3.1563 0 2.0937 0.6875 3.1718 0.6875 1.0625 2.0313 1.0625 0.625 0 1.2187-0.2656 0.5938-0.2812 1.2188-0.8594v2.7188z"/>
<text x="1026" y="122.9951" fill="#000000" font-family="sans-serif" font-size="14" textLength="219">APIReaders.RadarmapRunnable</text>
<text x="1015.5" y="135.5791" fill="#000000" font-family="sans-serif" font-size="10" textLength="240">de.kaffeemitkoffein.tinyweatherforecastgermany</text>
</a>
<a href="APIReaders.RadarMNGeoserverRunnable.html" target="_top" title="APIReaders.RadarMNGeoserverRunnable.html" xlink:actuate="onRequest" xlink:href="APIReaders.RadarMNGeoserverRunnable.html" xlink:show="new" xlink:title="APIReaders.RadarMNGeoserverRunnable.html" xlink:type="simple">
<rect id="g" x="1294" y="105" width="315" height="37.938" fill="#FEFECE" filter="url(#a)" stroke="#A80036" stroke-width="1.5" codeLine="10"/>
<ellipse cx="1309" cy="123.97" rx="11" ry="11" fill="#ADD1B2" stroke="#A80036"/>
<path d="m1312 129.61q-0.5782 0.2969-1.2188 0.4375-0.6406 0.1562-1.3437 0.1562-2.5 0-3.8282-1.6406-1.3125-1.6562-1.3125-4.7812t1.3125-4.7813q1.3282-1.6562 3.8282-1.6562 0.7031 0 1.3437 0.1562 0.6563 0.1563 1.2188 0.4531v2.7188q-0.625-0.5781-1.2188-0.8438-0.5937-0.2812-1.2187-0.2812-1.3438 0-2.0313 1.0781-0.6875 1.0625-0.6875 3.1563 0 2.0937 0.6875 3.1718 0.6875 1.0625 2.0313 1.0625 0.625 0 1.2187-0.2656 0.5938-0.2812 1.2188-0.8594v2.7188z"/>
<text x="1323" y="122.9951" fill="#000000" font-family="sans-serif" font-size="14" textLength="283">APIReaders.RadarMNGeoserverRunnable</text>
<text x="1344.5" y="135.5791" fill="#000000" font-family="sans-serif" font-size="10" textLength="240">de.kaffeemitkoffein.tinyweatherforecastgermany</text>
</a>
<path id="h" d="m677.23 47.2c-116.89 17.08-282.81 41.33-395.28 57.76" fill="none" stroke="#A80036" codeLine="12"/>
<ellipse cx="684.39" cy="46.158" rx="8" ry="8" fill="#fff" stroke="#A80036"/>
<line x1="676.48" x2="692.31" y1="47.316" y2="45" stroke="#A80036"/>
<line x1="683.24" x2="685.55" y1="38.242" y2="54.074" stroke="#A80036"/>
<path id="i" d="m740.48 49.44c-56.52 16.9-133 39.77-185.6 55.5" fill="none" stroke="#A80036" codeLine="13"/>
<ellipse cx="747.46" cy="47.353" rx="8" ry="8" fill="#fff" stroke="#A80036"/>
<line x1="739.79" x2="755.12" y1="49.646" y2="45.06" stroke="#A80036"/>
<line x1="745.16" x2="749.75" y1="39.689" y2="55.018" stroke="#A80036"/>
<path id="j" d="m815.5 60.11v44.59" fill="none" stroke="#A80036" codeLine="14"/>
<ellipse cx="815.5" cy="53.06" rx="8" ry="8" fill="#fff" stroke="#A80036"/>
<line x1="815.5" x2="815.5" y1="61.06" y2="45.06" stroke="#A80036"/>
<line x1="807.5" x2="823.5" y1="53.06" y2="53.06" stroke="#A80036"/>
<path id="k" d="m887.59 49.54c54.02 16.9 126.97 39.71 177.16 55.4" fill="none" stroke="#A80036" codeLine="15"/>
<ellipse cx="880.87" cy="47.452" rx="8" ry="8" fill="#fff" stroke="#A80036"/>
<line x1="888.51" x2="873.24" y1="49.844" y2="45.06" stroke="#A80036"/>
<line x1="878.48" x2="883.27" y1="55.086" y2="39.818" stroke="#A80036"/>
<path id="l" d="m949.7 47.26c113.13 17.07 273.53 41.28 382.3 57.7" fill="none" stroke="#A80036" codeLine="16"/>
<ellipse cx="942.66" cy="46.196" rx="8" ry="8" fill="#fff" stroke="#A80036"/>
<line x1="950.57" x2="934.75" y1="47.393" y2="45" stroke="#A80036"/>
<line x1="941.46" x2="943.86" y1="54.106" y2="38.286" stroke="#A80036"/>
<text x="709" y="165.2197" fill="#888888" font-family="sans-serif" font-size="10" textLength="192">UMLDoclet 2.0.15, PlantUML 1.2021.13</text>
</svg>
