<?xml version="1.0" encoding="UTF-8"?>
<svg width="499px" height="355px" style="background:transparent;height:355px;width:499px" contentStyleType="text/css" preserveAspectRatio="none" version="1.1" viewBox="0 0 499 355" xmlns="http://www.w3.org/2000/svg" xmlns:xlink="http://www.w3.org/1999/xlink" zoomAndPan="magnify">
<a href="APIReaders.WeatherForecastRunnable.html" target="_top" title="APIReaders.WeatherForecastRunnable.html" xlink:actuate="onRequest" xlink:href="APIReaders.WeatherForecastRunnable.html" xlink:show="new" xlink:title="APIReaders.WeatherForecastRunnable.html" xlink:type="simple">
<g id="a">
<rect id="b" x="7" y="129" width="479" height="200.61" rx="2.5" ry="2.5" fill="#F1F1F1" stroke="#181818" stroke-width=".5" codeLine="5"/>
<ellipse cx="108.75" cy="147.97" rx="11" ry="11" fill="#ADD1B2" stroke="#181818"/>
<path d="m111.72 153.61q-0.5782 0.2969-1.2188 0.4375-0.6406 0.1562-1.3437 0.1562-2.5 0-3.8282-1.6406-1.3125-1.6562-1.3125-4.7812t1.3125-4.7813q1.3282-1.6562 3.8282-1.6562 0.7031 0 1.3437 0.1562 0.6563 0.1563 1.2188 0.4531v2.7188q-0.625-0.5781-1.2188-0.8438-0.5937-0.2812-1.2187-0.2812-1.3438 0-2.0313 1.0781-0.6875 1.0625-0.6875 3.1563 0 2.0937 0.6875 3.1718 0.6875 1.0625 2.0313 1.0625 0.625 0 1.2187-0.2656 0.5938-0.2812 1.2188-0.8594v2.7188z"/>
<text x="129.25" y="146.9951" fill="#000000" font-family="sans-serif" font-size="14" textLength="267">APIReaders.WeatherForecastRunnable</text>
<text x="142.75" y="159.5791" fill="#000000" font-family="sans-serif" font-size="10" textLength="240">de.kaffeemitkoffein.tinyweatherforecastgermany</text>
<line x1="8" x2="485" y1="166.94" y2="166.94" stroke="#181818" stroke-width=".5"/>
<ellipse cx="18" cy="180.59" rx="3" ry="3" fill="none" stroke="#038048"/>
<text x="27" y="183.9326" fill="#000000" font-family="sans-serif" font-size="14" textLength="159">ssl_exception: boolean</text>
<line x1="8" x2="485" y1="191.23" y2="191.23" stroke="#181818" stroke-width=".5"/>
<ellipse cx="18" cy="204.88" rx="3" ry="3" fill="#84BE84" stroke="#038048"/>
<text x="27" y="208.2295" fill="#000000" font-family="sans-serif" font-size="14" textLength="453">WeatherForecastRunnable(Context, ArrayList&lt;WeatherLocation&gt;)</text>
<ellipse cx="18" cy="221.18" rx="3" ry="3" fill="#84BE84" stroke="#038048"/>
<text x="27" y="224.5264" fill="#000000" font-family="sans-serif" font-size="14" textLength="390">setWeatherLocations(ArrayList&lt;WeatherLocation&gt;): void</text>
<ellipse cx="18" cy="237.48" rx="3" ry="3" fill="#84BE84" stroke="#038048"/>
<text x="27" y="240.8232" fill="#000000" font-family="sans-serif" font-size="14" textLength="286">getLastestDMOUrl(Context, String): String</text>
<ellipse cx="18" cy="253.77" rx="3" ry="3" fill="#84BE84" stroke="#038048"/>
<text x="27" y="257.1201" fill="#000000" font-family="sans-serif" font-size="14" textLength="97">onStart(): void</text>
<ellipse cx="18" cy="270.07" rx="3" ry="3" fill="#84BE84" stroke="#038048"/>
<text x="27" y="273.417" fill="#000000" font-family="sans-serif" font-size="14" textLength="169">onNegativeResult(): void</text>
<ellipse cx="18" cy="286.37" rx="3" ry="3" fill="#84BE84" stroke="#038048"/>
<text x="27" y="289.7139" fill="#000000" font-family="sans-serif" font-size="14" textLength="162">onPositiveResult(): void</text>
<ellipse cx="18" cy="302.66" rx="3" ry="3" fill="#84BE84" stroke="#038048"/>
<text x="27" y="306.0107" fill="#000000" font-family="sans-serif" font-size="14" textLength="355">onPositiveResult(ArrayList&lt;RawWeatherInfo&gt;): void</text>
<ellipse cx="18" cy="318.96" rx="3" ry="3" fill="#84BE84" stroke="#038048"/>
<text x="27" y="322.3076" fill="#000000" font-family="sans-serif" font-size="14" textLength="70">run(): void</text>
</g>
</a>
<g id="c">
<rect id="d" x="87.5" y="7" width="98" height="62.234" rx="2.5" ry="2.5" fill="#F1F1F1" stroke="#181818" stroke-width=".5" codeLine="17"/>
<ellipse cx="102.5" cy="25.969" rx="11" ry="11" fill="#B4A7E5" stroke="#181818"/>
<path d="m98.422 21.734v-2.1563h7.3906v2.1563h-2.4687v8.0781h2.4687v2.1563h-7.3906v-2.1563h2.4687v-8.0781h-2.4687z"/>
<text x="116.5" y="24.9951" fill="#000000" font-family="sans-serif" font-size="14" font-style="italic" textLength="66">Runnable</text>
<text x="128" y="37.5791" fill="#000000" font-family="sans-serif" font-size="10" font-style="italic" textLength="43">java.lang</text>
<line x1="88.5" x2="184.5" y1="44.938" y2="44.938" stroke="#181818" stroke-width=".5"/>
<ellipse cx="98.5" cy="58.586" rx="3" ry="3" fill="#84BE84" stroke="#038048"/>
<text x="107.5" y="61.9326" fill="#000000" font-family="sans-serif" font-size="14" font-style="italic" textLength="70">run(): void</text>
</g>
<a href="APIReaders.html" target="_top" title="APIReaders.html" xlink:actuate="onRequest" xlink:href="APIReaders.html" xlink:show="new" xlink:title="APIReaders.html" xlink:type="simple">
<g id="e">
<rect id="f" x="220.5" y="19" width="272" height="37.938" rx="2.5" ry="2.5" fill="#F1F1F1" stroke="#181818" stroke-width=".5" codeLine="20"/>
<ellipse cx="235.5" cy="37.969" rx="11" ry="11" fill="#ADD1B2" stroke="#181818"/>
<path d="m238.47 43.609q-0.5782 0.2969-1.2188 0.4375-0.6406 0.1562-1.3437 0.1562-2.5 0-3.8282-1.6406-1.3125-1.6562-1.3125-4.7812t1.3125-4.7813q1.3282-1.6562 3.8282-1.6562 0.7031 0 1.3437 0.1562 0.6563 0.1563 1.2188 0.4531v2.7188q-0.625-0.5781-1.2188-0.8438-0.5937-0.2812-1.2187-0.2812-1.3438 0-2.0313 1.0781-0.6875 1.0625-0.6875 3.1563 0 2.0937 0.6875 3.1718 0.6875 1.0625 2.0313 1.0625 0.625 0 1.2187-0.2656 0.5938-0.2812 1.2188-0.8594v2.7188z"/>
<text x="330" y="36.9951" fill="#000000" font-family="sans-serif" font-size="14" textLength="79">APIReaders</text>
<text x="249.5" y="49.5791" fill="#000000" font-family="sans-serif" font-size="10" textLength="240">de.kaffeemitkoffein.tinyweatherforecastgermany</text>
</g>
</a>
<g id="g" fill="none" stroke="#181818">
<path id="h" d="m162.96 84.598c9.57 16.49 13.015 22.422 25.695 44.262" stroke-dasharray="7.0,7.0" codeLine="22"/>
<polygon points="153.93 69.03 157.78 87.61 168.15 81.586"/>
</g>
<g id="i" stroke="#181818">
<path id="j" d="m337.92 71.01c-9.89 17.05-17.492 30.13-33.452 57.62" fill="none" codeLine="23"/>
<ellipse cx="341.94" cy="64.09" rx="8" ry="8" fill="#fff"/>
<line x1="337.92" x2="345.95" y1="71.01" y2="57.17"/>
<line x1="335.02" x2="348.86" y1="60.076" y2="68.104"/>
</g>
<text x="152.75" y="344.8916" fill="#888888" font-family="sans-serif" font-size="10" textLength="180">UMLDoclet 2.1.2, PlantUML 1.2024.3</text>
</svg>
