<?xml version="1.0" encoding="UTF-8"?>
<svg width="426px" height="325px" style="background:transparent;height:325px;width:426px" contentScriptType="application/ecmascript" contentStyleType="text/css" preserveAspectRatio="none" version="1.1" viewBox="0 0 426 325" xmlns="http://www.w3.org/2000/svg" xmlns:xlink="http://www.w3.org/1999/xlink" zoomAndPan="magnify">
<defs>
<filter id="a" x="-1" y="-1" width="300%" height="300%">
<feGaussianBlur result="blurOut" stdDeviation="2.0"/>
<feColorMatrix in="blurOut" result="blurOut2" values="0 0 0 0 0 0 0 0 0 0 0 0 0 0 0 0 0 0 .4 0"/>
<feOffset dx="4.0" dy="4.0" in="blurOut2" result="blurOut3"/>
<feBlend in="SourceGraphic" in2="blurOut3"/>
</filter>
</defs>
<a href="APIReaders.RadarMNGeoserverRunnable.html" target="_top" title="APIReaders.RadarMNGeoserverRunnable.html" xlink:actuate="onRequest" xlink:href="APIReaders.RadarMNGeoserverRunnable.html" xlink:show="new" xlink:title="APIReaders.RadarMNGeoserverRunnable.html" xlink:type="simple">
<rect id="b" x="8.5" y="126" width="315" height="169.18" fill="#FEFECE" filter="url(#a)" stroke="#A80036" stroke-width="1.5" codeLine="5"/>
<ellipse cx="23.5" cy="144.97" rx="11" ry="11" fill="#ADD1B2" stroke="#A80036"/>
<path d="m26.469 150.61q-0.5782 0.2969-1.2188 0.4375-0.6406 0.1562-1.3437 0.1562-2.5 0-3.8282-1.6406-1.3125-1.6562-1.3125-4.7812t1.3125-4.7813q1.3282-1.6562 3.8282-1.6562 0.7031 0 1.3437 0.1562 0.6563 0.1563 1.2188 0.4531v2.7188q-0.625-0.5781-1.2188-0.8438-0.5937-0.2812-1.2187-0.2812-1.3438 0-2.0313 1.0781-0.6875 1.0625-0.6875 3.1563 0 2.0937 0.6875 3.1718 0.6875 1.0625 2.0313 1.0625 0.625 0 1.2187-0.2656 0.5938-0.2812 1.2188-0.8594v2.7188z"/>
<text x="37.5" y="143.9951" fill="#000000" font-family="sans-serif" font-size="14" textLength="283">APIReaders.RadarMNGeoserverRunnable</text>
<text x="59" y="156.5791" fill="#000000" font-family="sans-serif" font-size="10" textLength="240">de.kaffeemitkoffein.tinyweatherforecastgermany</text>
<line x1="9.5" x2="322.5" y1="163.94" y2="163.94" stroke="#A80036" stroke-width="1.5"/>
<ellipse cx="19.5" cy="174.94" rx="3" ry="3" fill="none" stroke="#038048"/>
<text x="28.5" y="178.1479" fill="#000000" font-family="sans-serif" font-size="11" text-decoration="underline" textLength="181">RADAR_CACHE_FILENAME: String</text>
<ellipse cx="19.5" cy="187.74" rx="3" ry="3" fill="none" stroke="#038048"/>
<text x="28.5" y="190.9526" fill="#000000" font-family="sans-serif" font-size="11" textLength="130">ssl_exception: boolean</text>
<line x1="9.5" x2="322.5" y1="197.55" y2="197.55" stroke="#A80036" stroke-width="1.5"/>
<ellipse cx="19.5" cy="208.55" rx="3" ry="3" fill="#84BE84" stroke="#038048"/>
<text x="28.5" y="211.7573" fill="#000000" font-family="sans-serif" font-size="11" textLength="213">RadarMNGeoserverRunnable(Context)</text>
<ellipse cx="19.5" cy="221.35" rx="3" ry="3" fill="#84BE84" stroke="#038048"/>
<text x="28.5" y="224.562" fill="#000000" font-family="sans-serif" font-size="11" textLength="266">RadarMNGeoserverRunnable(Context, boolean)</text>
<ellipse cx="19.5" cy="234.16" rx="3" ry="3" fill="#84BE84" stroke="#038048"/>
<text x="28.5" y="237.3667" fill="#000000" font-family="sans-serif" font-size="11" textLength="173">setForceUpdate(boolean): void</text>
<ellipse cx="19.5" cy="246.96" rx="3" ry="3" fill="#84BE84" stroke="#038048"/>
<text x="28.5" y="250.1714" fill="#000000" font-family="sans-serif" font-size="11" text-decoration="underline" textLength="165">getRadarMNFile(Context): File</text>
<ellipse cx="19.5" cy="259.77" rx="3" ry="3" fill="#84BE84" stroke="#038048"/>
<text x="28.5" y="262.9761" fill="#000000" font-family="sans-serif" font-size="11" text-decoration="underline" textLength="223">radarCacheFileExists(Context): boolean</text>
<ellipse cx="19.5" cy="272.57" rx="3" ry="3" fill="#84BE84" stroke="#038048"/>
<text x="28.5" y="275.7808" fill="#000000" font-family="sans-serif" font-size="11" textLength="150">onFinished(RadarMN): void</text>
<ellipse cx="19.5" cy="285.38" rx="3" ry="3" fill="#84BE84" stroke="#038048"/>
<text x="28.5" y="288.5854" fill="#000000" font-family="sans-serif" font-size="11" textLength="58">run(): void</text>
</a>
<rect id="c" x="7" y="7" width="98" height="58.742" fill="#FEFECE" filter="url(#a)" stroke="#A80036" stroke-width="1.5" codeLine="17"/>
<ellipse cx="22" cy="25.969" rx="11" ry="11" fill="#B4A7E5" stroke="#A80036"/>
<path d="m17.922 21.734v-2.1563h7.3906v2.1563h-2.4687v8.0781h2.4687v2.1563h-7.3906v-2.1563h2.4687v-8.0781h-2.4687z"/>
<text x="36" y="24.9951" fill="#000000" font-family="sans-serif" font-size="14" font-style="italic" textLength="66">Runnable</text>
<text x="47.5" y="37.5791" fill="#000000" font-family="sans-serif" font-size="10" font-style="italic" textLength="43">java.lang</text>
<line x1="8" x2="104" y1="44.938" y2="44.938" stroke="#A80036" stroke-width="1.5"/>
<ellipse cx="18" cy="55.938" rx="3" ry="3" fill="#84BE84" stroke="#038048"/>
<text x="27" y="59.1479" fill="#000000" font-family="sans-serif" font-size="11" font-style="italic" textLength="58">run(): void</text>
<a href="APIReaders.html" target="_top" title="APIReaders.html" xlink:actuate="onRequest" xlink:href="APIReaders.html" xlink:show="new" xlink:title="APIReaders.html" xlink:type="simple">
<rect id="d" x="140" y="17.5" width="272" height="37.938" fill="#FEFECE" filter="url(#a)" stroke="#A80036" stroke-width="1.5" codeLine="20"/>
<ellipse cx="155" cy="36.469" rx="11" ry="11" fill="#ADD1B2" stroke="#A80036"/>
<path d="m157.97 42.109q-0.5782 0.2969-1.2188 0.4375-0.6406 0.1562-1.3437 0.1562-2.5 0-3.8282-1.6406-1.3125-1.6562-1.3125-4.7812t1.3125-4.7813q1.3282-1.6562 3.8282-1.6562 0.7031 0 1.3437 0.1562 0.6563 0.1563 1.2188 0.4531v2.7188q-0.625-0.5781-1.2188-0.8438-0.5937-0.2812-1.2187-0.2812-1.3438 0-2.0313 1.0781-0.6875 1.0625-0.6875 3.1563 0 2.0937 0.6875 3.1718 0.6875 1.0625 2.0313 1.0625 0.625 0 1.2187-0.2656 0.5938-0.2812 1.2188-0.8594v2.7188z"/>
<text x="249.5" y="35.4951" fill="#000000" font-family="sans-serif" font-size="14" textLength="79">APIReaders</text>
<text x="169" y="48.0791" fill="#000000" font-family="sans-serif" font-size="10" textLength="240">de.kaffeemitkoffein.tinyweatherforecastgermany</text>
</a>
<path id="e" d="m85.42 83.49c8.33 13.04 17.68 27.66 26.97 42.19" fill="none" stroke="#A80036" stroke-dasharray="7.0,7.0" codeLine="22"/>
<polygon points="79.29 86.91 74.41 66.29 91.08 79.37" fill="none" stroke="#A80036"/>
<path id="f" d="m256.17 68.51c-10.33 16.15-23.51 36.75-36.58 57.19" fill="none" stroke="#A80036" codeLine="23"/>
<ellipse cx="260.13" cy="62.32" rx="8" ry="8" fill="#fff" stroke="#A80036"/>
<line x1="255.82" x2="264.44" y1="69.059" y2="55.58" stroke="#A80036"/>
<line x1="253.39" x2="266.87" y1="58.009" y2="66.63" stroke="#A80036"/>
<text x="110.5" y="317.4619" fill="#888888" font-family="sans-serif" font-size="10" textLength="192">UMLDoclet 2.0.15, PlantUML 1.2021.13</text>
</svg>
