<?xml version="1.0" encoding="UTF-8"?>
<svg width="321px" height="331px" style="background:transparent;height:331px;width:321px" contentStyleType="text/css" preserveAspectRatio="none" version="1.1" viewBox="0 0 321 331" xmlns="http://www.w3.org/2000/svg" xmlns:xlink="http://www.w3.org/1999/xlink" zoomAndPan="magnify">
<a href="Areas.AreaDatabaseCreator.html" target="_top" title="Areas.AreaDatabaseCreator.html" xlink:actuate="onRequest" xlink:href="Areas.AreaDatabaseCreator.html" xlink:show="new" xlink:title="Areas.AreaDatabaseCreator.html" xlink:type="simple">
<g id="a">
<rect id="b" x="7" y="105" width="307" height="200.61" rx="2.5" ry="2.5" fill="#F1F1F1" stroke="#181818" stroke-width=".5" codeLine="5"/>
<ellipse cx="37.75" cy="123.97" rx="11" ry="11" fill="#ADD1B2" stroke="#181818"/>
<path d="m40.719 129.61q-0.5782 0.2969-1.2188 0.4375-0.6406 0.1562-1.3437 0.1562-2.5 0-3.8282-1.6406-1.3125-1.6562-1.3125-4.7812t1.3125-4.7813q1.3282-1.6562 3.8282-1.6562 0.7031 0 1.3437 0.1562 0.6563 0.1563 1.2188 0.4531v2.7188q-0.625-0.5781-1.2188-0.8438-0.5937-0.2812-1.2187-0.2812-1.3438 0-2.0313 1.0781-0.6875 1.0625-0.6875 3.1563 0 2.0937 0.6875 3.1718 0.6875 1.0625 2.0313 1.0625 0.625 0 1.2187-0.2656 0.5938-0.2812 1.2188-0.8594v2.7188z"/>
<text x="79.75" y="122.9951" fill="#000000" font-family="sans-serif" font-size="14" textLength="191">Areas.AreaDatabaseCreator</text>
<text x="55.25" y="135.5791" fill="#000000" font-family="sans-serif" font-size="10" textLength="240">de.kaffeemitkoffein.tinyweatherforecastgermany</text>
<line x1="8" x2="313" y1="142.94" y2="142.94" stroke="#181818" stroke-width=".5"/>
<ellipse cx="18" cy="156.59" rx="3" ry="3" fill="none" stroke="#038048"/>
<text x="27" y="159.9326" fill="#000000" font-family="sans-serif" font-size="14" text-decoration="underline" textLength="139">DATABASE_SIZE: int</text>
<line x1="8" x2="313" y1="167.23" y2="167.23" stroke="#181818" stroke-width=".5"/>
<ellipse cx="18" cy="180.88" rx="3" ry="3" fill="#84BE84" stroke="#038048"/>
<text x="27" y="184.2295" fill="#000000" font-family="sans-serif" font-size="14" textLength="281">AreaDatabaseCreator(Context, Executor)</text>
<ellipse cx="18" cy="197.18" rx="3" ry="3" fill="#84BE84" stroke="#038048"/>
<text x="27" y="200.5264" fill="#000000" font-family="sans-serif" font-size="14" text-decoration="underline" textLength="214">getAreaDataVersion(String): int</text>
<ellipse cx="18" cy="213.48" rx="3" ry="3" fill="#84BE84" stroke="#038048"/>
<text x="27" y="216.8232" fill="#000000" font-family="sans-serif" font-size="14" text-decoration="underline" textLength="228">getAreaDataVersion(Context): int</text>
<ellipse cx="18" cy="229.77" rx="3" ry="3" fill="#84BE84" stroke="#038048"/>
<text x="27" y="233.1201" fill="#000000" font-family="sans-serif" font-size="14" text-decoration="underline" textLength="260">areAreasUpToDate(Context): boolean</text>
<ellipse cx="18" cy="246.07" rx="3" ry="3" fill="#84BE84" stroke="#038048"/>
<text x="27" y="249.417" fill="#000000" font-family="sans-serif" font-size="14" textLength="188">setProgressSteps(int): void</text>
<ellipse cx="18" cy="262.37" rx="3" ry="3" fill="#84BE84" stroke="#038048"/>
<text x="27" y="265.7139" fill="#000000" font-family="sans-serif" font-size="14" textLength="91">create(): void</text>
<ellipse cx="18" cy="278.66" rx="3" ry="3" fill="#84BE84" stroke="#038048"/>
<text x="27" y="282.0107" fill="#000000" font-family="sans-serif" font-size="14" textLength="211">showProgress(int, String): void</text>
<ellipse cx="18" cy="294.96" rx="3" ry="3" fill="#84BE84" stroke="#038048"/>
<text x="27" y="298.3076" fill="#000000" font-family="sans-serif" font-size="14" textLength="123">onFinished(): void</text>
</g>
</a>
<a href="Areas.html" target="_top" title="Areas.html" xlink:actuate="onRequest" xlink:href="Areas.html" xlink:show="new" xlink:title="Areas.html" xlink:type="simple">
<g id="c">
<rect id="d" x="24.5" y="7" width="272" height="37.938" rx="2.5" ry="2.5" fill="#F1F1F1" stroke="#181818" stroke-width=".5" codeLine="17"/>
<ellipse cx="39.5" cy="25.969" rx="11" ry="11" fill="#ADD1B2" stroke="#181818"/>
<path d="m42.469 31.609q-0.5782 0.2969-1.2188 0.4375-0.6406 0.1562-1.3437 0.1562-2.5 0-3.8282-1.6406-1.3125-1.6562-1.3125-4.7812t1.3125-4.7813q1.3282-1.6562 3.8282-1.6562 0.7031 0 1.3437 0.1562 0.6563 0.1563 1.2188 0.4531v2.7188q-0.625-0.5781-1.2188-0.8438-0.5937-0.2812-1.2187-0.2812-1.3438 0-2.0313 1.0781-0.6875 1.0625-0.6875 3.1563 0 2.0937 0.6875 3.1718 0.6875 1.0625 2.0313 1.0625 0.625 0 1.2187-0.2656 0.5938-0.2812 1.2188-0.8594v2.7188z"/>
<text x="154" y="24.9951" fill="#000000" font-family="sans-serif" font-size="14" textLength="39">Areas</text>
<text x="53.5" y="37.5791" fill="#000000" font-family="sans-serif" font-size="10" textLength="240">de.kaffeemitkoffein.tinyweatherforecastgermany</text>
</g>
</a>
<g id="e" stroke="#181818">
<path id="f" d="m160.5 61.33v43.49" fill="none" codeLine="19"/>
<ellipse cx="160.5" cy="53.33" rx="8" ry="8" fill="#fff"/>
<line x1="160.5" x2="160.5" y1="61.33" y2="45.33"/>
<line x1="152.5" x2="168.5" y1="53.33" y2="53.33"/>
</g>
<text x="63.5" y="320.8916" fill="#888888" font-family="sans-serif" font-size="10" textLength="180">UMLDoclet 2.1.2, PlantUML 1.2024.3</text>
</svg>
