<?xml version="1.0" encoding="UTF-8"?>
<svg width="907px" height="283px" style="background:transparent;height:283px;width:907px" contentScriptType="application/ecmascript" contentStyleType="text/css" preserveAspectRatio="none" version="1.1" viewBox="0 0 907 283" xmlns="http://www.w3.org/2000/svg" xmlns:xlink="http://www.w3.org/1999/xlink" zoomAndPan="magnify">
<defs>
<filter id="a" x="-1" y="-1" width="300%" height="300%">
<feGaussianBlur result="blurOut" stdDeviation="2.0"/>
<feColorMatrix in="blurOut" result="blurOut2" values="0 0 0 0 0 0 0 0 0 0 0 0 0 0 0 0 0 0 .4 0"/>
<feOffset dx="4.0" dy="4.0" in="blurOut2" result="blurOut3"/>
<feBlend in="SourceGraphic" in2="blurOut3"/>
</filter>
</defs>
<a href="Areas.html" target="_top" title="Areas.html" xlink:actuate="onRequest" xlink:href="Areas.html" xlink:show="new" xlink:title="Areas.html" xlink:type="simple">
<rect id="b" x="280" y="7" width="340" height="148.38" fill="#FEFECE" filter="url(#a)" stroke="#A80036" stroke-width="1.5" codeLine="5"/>
<ellipse cx="325.75" cy="25.969" rx="11" ry="11" fill="#ADD1B2" stroke="#A80036"/>
<path d="m328.72 31.609q-0.5782 0.2969-1.2188 0.4375-0.6406 0.1562-1.3437 0.1562-2.5 0-3.8282-1.6406-1.3125-1.6562-1.3125-4.7812t1.3125-4.7813q1.3282-1.6562 3.8282-1.6562 0.7031 0 1.3437 0.1562 0.6563 0.1563 1.2188 0.4531v2.7188q-0.625-0.5781-1.2188-0.8438-0.5937-0.2812-1.2187-0.2812-1.3438 0-2.0313 1.0781-0.6875 1.0625-0.6875 3.1563 0 2.0937 0.6875 3.1718 0.6875 1.0625 2.0313 1.0625 0.625 0 1.2187-0.2656 0.5938-0.2812 1.2188-0.8594v2.7188z"/>
<text x="446.75" y="24.9951" fill="#000000" font-family="sans-serif" font-size="14" textLength="39">Areas</text>
<text x="346.25" y="37.5791" fill="#000000" font-family="sans-serif" font-size="10" textLength="240">de.kaffeemitkoffein.tinyweatherforecastgermany</text>
<line x1="281" x2="619" y1="44.938" y2="44.938" stroke="#A80036" stroke-width="1.5"/>
<ellipse cx="291" cy="55.938" rx="3" ry="3" fill="#84BE84" stroke="#038048"/>
<text x="300" y="59.1479" fill="#000000" font-family="sans-serif" font-size="11" text-decoration="underline" textLength="194">getAreaDatabaseSize(Context): int</text>
<ellipse cx="291" cy="68.742" rx="3" ry="3" fill="#84BE84" stroke="#038048"/>
<text x="300" y="71.9526" fill="#000000" font-family="sans-serif" font-size="11" text-decoration="underline" textLength="239">doesAreaDatabaseExist(Context): boolean</text>
<ellipse cx="291" cy="81.547" rx="3" ry="3" fill="#84BE84" stroke="#038048"/>
<text x="300" y="84.7573" fill="#000000" font-family="sans-serif" font-size="11" text-decoration="underline" textLength="171">getArea(Context, String): Area</text>
<ellipse cx="291" cy="94.352" rx="3" ry="3" fill="#84BE84" stroke="#038048"/>
<text x="300" y="97.562" fill="#000000" font-family="sans-serif" font-size="11" text-decoration="underline" textLength="314">getAreas(Context, ArrayList&lt;String&gt;): ArrayList&lt;Area&gt;</text>
<ellipse cx="291" cy="107.16" rx="3" ry="3" fill="#84BE84" stroke="#038048"/>
<text x="300" y="110.3667" fill="#000000" font-family="sans-serif" font-size="11" text-decoration="underline" textLength="218">getAreaByName(Context, String): Area</text>
<ellipse cx="291" cy="119.96" rx="3" ry="3" fill="#84BE84" stroke="#038048"/>
<text x="300" y="123.1714" fill="#000000" font-family="sans-serif" font-size="11" text-decoration="underline" textLength="258">getAllAreaNames(Context): ArrayList&lt;String&gt;</text>
<ellipse cx="291" cy="132.77" rx="3" ry="3" fill="#84BE84" stroke="#038048"/>
<text x="300" y="135.9761" fill="#000000" font-family="sans-serif" font-size="11" text-decoration="underline" textLength="257">getAllWarncellIDs(Context): ArrayList&lt;String&gt;</text>
<ellipse cx="291" cy="145.57" rx="3" ry="3" fill="#84BE84" stroke="#038048"/>
<text x="300" y="148.7808" fill="#000000" font-family="sans-serif" font-size="11" text-decoration="underline" textLength="95">test(Context): int</text>
</a>
<a href="Areas.Area.html" target="_top" title="Areas.Area.html" xlink:actuate="onRequest" xlink:href="Areas.Area.html" xlink:show="new" xlink:title="Areas.Area.html" xlink:type="simple">
<rect id="c" x="7" y="215" width="272" height="37.938" fill="#FEFECE" filter="url(#a)" stroke="#A80036" stroke-width="1.5" codeLine="15"/>
<ellipse cx="22" cy="233.97" rx="11" ry="11" fill="#ADD1B2" stroke="#A80036"/>
<path d="m24.969 239.61q-0.5782 0.2969-1.2188 0.4375-0.6406 0.1562-1.3437 0.1562-2.5 0-3.8282-1.6406-1.3125-1.6562-1.3125-4.7812t1.3125-4.7813q1.3282-1.6562 3.8282-1.6562 0.7031 0 1.3437 0.1562 0.6563 0.1563 1.2188 0.4531v2.7188q-0.625-0.5781-1.2188-0.8438-0.5937-0.2812-1.2187-0.2812-1.3438 0-2.0313 1.0781-0.6875 1.0625-0.6875 3.1563 0 2.0937 0.6875 3.1718 0.6875 1.0625 2.0313 1.0625 0.625 0 1.2187-0.2656 0.5938-0.2812 1.2188-0.8594v2.7188z"/>
<text x="119" y="232.9951" fill="#000000" font-family="sans-serif" font-size="14" textLength="74">Areas.Area</text>
<text x="36" y="245.5791" fill="#000000" font-family="sans-serif" font-size="10" textLength="240">de.kaffeemitkoffein.tinyweatherforecastgermany</text>
</a>
<a href="Areas.AreaDatabaseCreator.html" target="_top" title="Areas.AreaDatabaseCreator.html" xlink:actuate="onRequest" xlink:href="Areas.AreaDatabaseCreator.html" xlink:show="new" xlink:title="Areas.AreaDatabaseCreator.html" xlink:type="simple">
<rect id="d" x="314" y="215" width="272" height="37.938" fill="#FEFECE" filter="url(#a)" stroke="#A80036" stroke-width="1.5" codeLine="16"/>
<ellipse cx="329" cy="233.97" rx="11" ry="11" fill="#ADD1B2" stroke="#A80036"/>
<path d="m331.97 239.61q-0.5782 0.2969-1.2188 0.4375-0.6406 0.1562-1.3437 0.1562-2.5 0-3.8282-1.6406-1.3125-1.6562-1.3125-4.7812t1.3125-4.7813q1.3282-1.6562 3.8282-1.6562 0.7031 0 1.3437 0.1562 0.6563 0.1563 1.2188 0.4531v2.7188q-0.625-0.5781-1.2188-0.8438-0.5937-0.2812-1.2187-0.2812-1.3438 0-2.0313 1.0781-0.6875 1.0625-0.6875 3.1563 0 2.0937 0.6875 3.1718 0.6875 1.0625 2.0313 1.0625 0.625 0 1.2187-0.2656 0.5938-0.2812 1.2188-0.8594v2.7188z"/>
<text x="367.5" y="232.9951" fill="#000000" font-family="sans-serif" font-size="14" textLength="191">Areas.AreaDatabaseCreator</text>
<text x="343" y="245.5791" fill="#000000" font-family="sans-serif" font-size="10" textLength="240">de.kaffeemitkoffein.tinyweatherforecastgermany</text>
</a>
<a href="Areas.AreaNameReader.html" target="_top" title="Areas.AreaNameReader.html" xlink:actuate="onRequest" xlink:href="Areas.AreaNameReader.html" xlink:show="new" xlink:title="Areas.AreaNameReader.html" xlink:type="simple">
<rect id="e" x="621" y="215" width="272" height="37.938" fill="#FEFECE" filter="url(#a)" stroke="#A80036" stroke-width="1.5" codeLine="17"/>
<ellipse cx="636" cy="233.97" rx="11" ry="11" fill="#ADD1B2" stroke="#A80036"/>
<path d="m638.97 239.61q-0.5782 0.2969-1.2188 0.4375-0.6406 0.1562-1.3437 0.1562-2.5 0-3.8282-1.6406-1.3125-1.6562-1.3125-4.7812t1.3125-4.7813q1.3282-1.6562 3.8282-1.6562 0.7031 0 1.3437 0.1562 0.6563 0.1563 1.2188 0.4531v2.7188q-0.625-0.5781-1.2188-0.8438-0.5937-0.2812-1.2187-0.2812-1.3438 0-2.0313 1.0781-0.6875 1.0625-0.6875 3.1563 0 2.0937 0.6875 3.1718 0.6875 1.0625 2.0313 1.0625 0.625 0 1.2187-0.2656 0.5938-0.2812 1.2188-0.8594v2.7188z"/>
<text x="688" y="232.9951" fill="#000000" font-family="sans-serif" font-size="14" textLength="164">Areas.AreaNameReader</text>
<text x="650" y="245.5791" fill="#000000" font-family="sans-serif" font-size="10" textLength="240">de.kaffeemitkoffein.tinyweatherforecastgermany</text>
</a>
<path id="f" d="m287.91 161.73c-40.76 20.04-80.7 39.69-108.29 53.26" fill="none" stroke="#A80036" codeLine="19"/>
<ellipse cx="294.27" cy="158.6" rx="8" ry="8" fill="#fff" stroke="#A80036"/>
<line x1="287.09" x2="301.45" y1="162.13" y2="155.07" stroke="#A80036"/>
<line x1="290.74" x2="297.8" y1="151.42" y2="165.78" stroke="#A80036"/>
<path id="g" d="m450 170.51v44.24" fill="none" stroke="#A80036" codeLine="20"/>
<ellipse cx="450" cy="163.29" rx="8" ry="8" fill="#fff" stroke="#A80036"/>
<line x1="450" x2="450" y1="171.29" y2="155.29" stroke="#A80036"/>
<line x1="442" x2="458" y1="163.29" y2="163.29" stroke="#A80036"/>
<path id="h" d="m612.09 161.73c40.76 20.04 80.7 39.69 108.29 53.26" fill="none" stroke="#A80036" codeLine="21"/>
<ellipse cx="605.73" cy="158.6" rx="8" ry="8" fill="#fff" stroke="#A80036"/>
<line x1="612.91" x2="598.55" y1="162.13" y2="155.07" stroke="#A80036"/>
<line x1="602.2" x2="609.26" y1="165.78" y2="151.42" stroke="#A80036"/>
<text x="351" y="275.2197" fill="#888888" font-family="sans-serif" font-size="10" textLength="192">UMLDoclet 2.0.15, PlantUML 1.2021.13</text>
</svg>
