<?xml version="1.0" encoding="UTF-8"?>
<svg width="293px" height="292px" style="background:transparent;height:292px;width:293px" contentScriptType="application/ecmascript" contentStyleType="text/css" preserveAspectRatio="none" version="1.1" viewBox="0 0 293 292" xmlns="http://www.w3.org/2000/svg" xmlns:xlink="http://www.w3.org/1999/xlink" zoomAndPan="magnify">
<defs>
<filter id="a" x="-1" y="-1" width="300%" height="300%">
<feGaussianBlur result="blurOut" stdDeviation="2.0"/>
<feColorMatrix in="blurOut" result="blurOut2" values="0 0 0 0 0 0 0 0 0 0 0 0 0 0 0 0 0 0 .4 0"/>
<feOffset dx="4.0" dy="4.0" in="blurOut2" result="blurOut3"/>
<feBlend in="SourceGraphic" in2="blurOut3"/>
</filter>
</defs>
<a href="Areas.AreaDatabaseCreator.html" target="_top" title="Areas.AreaDatabaseCreator.html" xlink:actuate="onRequest" xlink:href="Areas.AreaDatabaseCreator.html" xlink:show="new" xlink:title="Areas.AreaDatabaseCreator.html" xlink:type="simple">
<rect id="b" x="7" y="105" width="272" height="156.38" fill="#FEFECE" filter="url(#a)" stroke="#A80036" stroke-width="1.5" codeLine="5"/>
<ellipse cx="22" cy="123.97" rx="11" ry="11" fill="#ADD1B2" stroke="#A80036"/>
<path d="m24.969 129.61q-0.5782 0.2969-1.2188 0.4375-0.6406 0.1562-1.3437 0.1562-2.5 0-3.8282-1.6406-1.3125-1.6562-1.3125-4.7812t1.3125-4.7813q1.3282-1.6562 3.8282-1.6562 0.7031 0 1.3437 0.1562 0.6563 0.1563 1.2188 0.4531v2.7188q-0.625-0.5781-1.2188-0.8438-0.5937-0.2812-1.2187-0.2812-1.3438 0-2.0313 1.0781-0.6875 1.0625-0.6875 3.1563 0 2.0937 0.6875 3.1718 0.6875 1.0625 2.0313 1.0625 0.625 0 1.2187-0.2656 0.5938-0.2812 1.2188-0.8594v2.7188z"/>
<text x="60.5" y="122.9951" fill="#000000" font-family="sans-serif" font-size="14" textLength="191">Areas.AreaDatabaseCreator</text>
<text x="36" y="135.5791" fill="#000000" font-family="sans-serif" font-size="10" textLength="240">de.kaffeemitkoffein.tinyweatherforecastgermany</text>
<line x1="8" x2="278" y1="142.94" y2="142.94" stroke="#A80036" stroke-width="1.5"/>
<ellipse cx="18" cy="153.94" rx="3" ry="3" fill="none" stroke="#038048"/>
<text x="27" y="157.1479" fill="#000000" font-family="sans-serif" font-size="11" text-decoration="underline" textLength="114">DATABASE_SIZE: int</text>
<line x1="8" x2="278" y1="163.74" y2="163.74" stroke="#A80036" stroke-width="1.5"/>
<ellipse cx="18" cy="174.74" rx="3" ry="3" fill="#84BE84" stroke="#038048"/>
<text x="27" y="177.9526" fill="#000000" font-family="sans-serif" font-size="11" textLength="231">AreaDatabaseCreator(Context, Executor)</text>
<ellipse cx="18" cy="187.55" rx="3" ry="3" fill="#84BE84" stroke="#038048"/>
<text x="27" y="190.7573" fill="#000000" font-family="sans-serif" font-size="11" text-decoration="underline" textLength="177">getAreaDataVersion(String): int</text>
<ellipse cx="18" cy="200.35" rx="3" ry="3" fill="#84BE84" stroke="#038048"/>
<text x="27" y="203.562" fill="#000000" font-family="sans-serif" font-size="11" text-decoration="underline" textLength="186">getAreaDataVersion(Context): int</text>
<ellipse cx="18" cy="213.16" rx="3" ry="3" fill="#84BE84" stroke="#038048"/>
<text x="27" y="216.3667" fill="#000000" font-family="sans-serif" font-size="11" text-decoration="underline" textLength="211">areAreasUpToDate(Context): boolean</text>
<ellipse cx="18" cy="225.96" rx="3" ry="3" fill="#84BE84" stroke="#038048"/>
<text x="27" y="229.1714" fill="#000000" font-family="sans-serif" font-size="11" textLength="75">create(): void</text>
<ellipse cx="18" cy="238.77" rx="3" ry="3" fill="#84BE84" stroke="#038048"/>
<text x="27" y="241.9761" fill="#000000" font-family="sans-serif" font-size="11" textLength="177">showProgress(int, String): void</text>
<ellipse cx="18" cy="251.57" rx="3" ry="3" fill="#84BE84" stroke="#038048"/>
<text x="27" y="254.7808" fill="#000000" font-family="sans-serif" font-size="11" textLength="100">onFinished(): void</text>
</a>
<a href="Areas.html" target="_top" title="Areas.html" xlink:actuate="onRequest" xlink:href="Areas.html" xlink:show="new" xlink:title="Areas.html" xlink:type="simple">
<rect id="c" x="7" y="7" width="272" height="37.938" fill="#FEFECE" filter="url(#a)" stroke="#A80036" stroke-width="1.5" codeLine="16"/>
<ellipse cx="22" cy="25.969" rx="11" ry="11" fill="#ADD1B2" stroke="#A80036"/>
<path d="m24.969 31.609q-0.5782 0.2969-1.2188 0.4375-0.6406 0.1562-1.3437 0.1562-2.5 0-3.8282-1.6406-1.3125-1.6562-1.3125-4.7812t1.3125-4.7813q1.3282-1.6562 3.8282-1.6562 0.7031 0 1.3437 0.1562 0.6563 0.1563 1.2188 0.4531v2.7188q-0.625-0.5781-1.2188-0.8438-0.5937-0.2812-1.2187-0.2812-1.3438 0-2.0313 1.0781-0.6875 1.0625-0.6875 3.1563 0 2.0937 0.6875 3.1718 0.6875 1.0625 2.0313 1.0625 0.625 0 1.2187-0.2656 0.5938-0.2812 1.2188-0.8594v2.7188z"/>
<text x="136.5" y="24.9951" fill="#000000" font-family="sans-serif" font-size="14" textLength="39">Areas</text>
<text x="36" y="37.5791" fill="#000000" font-family="sans-serif" font-size="10" textLength="240">de.kaffeemitkoffein.tinyweatherforecastgermany</text>
</a>
<path id="d" d="m143 60.22v44.72" fill="none" stroke="#A80036" codeLine="18"/>
<ellipse cx="143" cy="53.08" rx="8" ry="8" fill="#fff" stroke="#A80036"/>
<line x1="143" x2="143" y1="61.08" y2="45.08" stroke="#A80036"/>
<line x1="135" x2="151" y1="53.08" y2="53.08" stroke="#A80036"/>
<text x="44" y="283.6572" fill="#888888" font-family="sans-serif" font-size="10" textLength="192">UMLDoclet 2.0.15, PlantUML 1.2021.13</text>
</svg>
