<?xml version="1.0" encoding="UTF-8"?>
<svg width="730px" height="623px" style="background:transparent;height:623px;width:730px" contentStyleType="text/css" preserveAspectRatio="none" version="1.1" viewBox="0 0 730 623" xmlns="http://www.w3.org/2000/svg" xmlns:xlink="http://www.w3.org/1999/xlink" zoomAndPan="magnify">
<a href="ClassicWidget.html" target="_top" title="ClassicWidget.html" xlink:actuate="onRequest" xlink:href="ClassicWidget.html" xlink:show="new" xlink:title="ClassicWidget.html" xlink:type="simple">
<g id="a">
<rect id="b" x="7" y="7" width="716" height="493.95" rx="2.5" ry="2.5" fill="#F1F1F1" stroke="#181818" stroke-width=".5" codeLine="5"/>
<ellipse cx="240.75" cy="25.969" rx="11" ry="11" fill="#ADD1B2" stroke="#181818"/>
<path d="m243.72 31.609q-0.5782 0.2969-1.2188 0.4375-0.6406 0.1562-1.3437 0.1562-2.5 0-3.8282-1.6406-1.3125-1.6562-1.3125-4.7812t1.3125-4.7813q1.3282-1.6562 3.8282-1.6562 0.7031 0 1.3437 0.1562 0.6563 0.1563 1.2188 0.4531v2.7188q-0.625-0.5781-1.2188-0.8438-0.5937-0.2812-1.2187-0.2812-1.3438 0-2.0313 1.0781-0.6875 1.0625-0.6875 3.1563 0 2.0937 0.6875 3.1718 0.6875 1.0625 2.0313 1.0625 0.625 0 1.2187-0.2656 0.5938-0.2812 1.2188-0.8594v2.7188z"/>
<text x="333.25" y="24.9951" fill="#000000" font-family="sans-serif" font-size="14" textLength="96">ClassicWidget</text>
<text x="261.25" y="37.5791" fill="#000000" font-family="sans-serif" font-size="10" textLength="240">de.kaffeemitkoffein.tinyweatherforecastgermany</text>
<line x1="8" x2="722" y1="44.938" y2="44.938" stroke="#181818" stroke-width=".5"/>
<ellipse cx="18" cy="58.586" rx="3" ry="3" fill="none" stroke="#038048"/>
<text x="27" y="61.9326" fill="#000000" font-family="sans-serif" font-size="14" text-decoration="underline" textLength="304">WIDGET_CUSTOM_REFRESH_ACTION: String</text>
<ellipse cx="18" cy="74.883" rx="3" ry="3" fill="none" stroke="#038048"/>
<text x="27" y="78.2295" fill="#000000" font-family="sans-serif" font-size="14" text-decoration="underline" textLength="158">NOT_AVAILABLE: String</text>
<line x1="8" x2="722" y1="85.531" y2="85.531" stroke="#181818" stroke-width=".5"/>
<ellipse cx="18" cy="99.18" rx="3" ry="3" fill="#84BE84" stroke="#038048"/>
<text x="27" y="102.5264" fill="#000000" font-family="sans-serif" font-size="14" textLength="175">onEnabled(Context): void</text>
<ellipse cx="18" cy="115.48" rx="3" ry="3" fill="#84BE84" stroke="#038048"/>
<text x="27" y="118.8232" fill="#000000" font-family="sans-serif" font-size="14" textLength="179">onDisabled(Context): void</text>
<ellipse cx="18" cy="131.77" rx="3" ry="3" fill="#84BE84" stroke="#038048"/>
<text x="27" y="135.1201" fill="#000000" font-family="sans-serif" font-size="14" textLength="209">onDeleted(Context, int[]): void</text>
<ellipse cx="18" cy="148.07" rx="3" ry="3" fill="#84BE84" stroke="#038048"/>
<text x="27" y="151.417" fill="#000000" font-family="sans-serif" font-size="14" textLength="253">onRestored(Context, int[], int[]): void</text>
<ellipse cx="18" cy="164.37" rx="3" ry="3" fill="#84BE84" stroke="#038048"/>
<text x="27" y="167.7139" fill="#000000" font-family="sans-serif" font-size="14" textLength="536">onAppWidgetOptionsChanged(Context, AppWidgetManager, int, Bundle): void</text>
<ellipse cx="18" cy="180.66" rx="3" ry="3" fill="#84BE84" stroke="#038048"/>
<text x="27" y="184.0107" fill="#000000" font-family="sans-serif" font-size="14" textLength="347">onUpdate(Context, AppWidgetManager, int[]): void</text>
<ellipse cx="18" cy="196.96" rx="3" ry="3" fill="#84BE84" stroke="#038048"/>
<text x="27" y="200.3076" fill="#000000" font-family="sans-serif" font-size="14" textLength="222">onReceive(Context, Intent): void</text>
<ellipse cx="18" cy="213.26" rx="3" ry="3" fill="#84BE84" stroke="#038048"/>
<text x="27" y="216.6045" fill="#000000" font-family="sans-serif" font-size="14" textLength="431">setPressure(Context, RemoteViews, CurrentWeatherInfo): void</text>
<ellipse cx="18" cy="229.55" rx="3" ry="3" fill="#84BE84" stroke="#038048"/>
<text x="27" y="232.9014" fill="#000000" font-family="sans-serif" font-size="14" textLength="454">setPrecipitation(Context, RemoteViews, CurrentWeatherInfo): void</text>
<ellipse cx="18" cy="245.85" rx="3" ry="3" fill="#84BE84" stroke="#038048"/>
<text x="27" y="249.1982" fill="#000000" font-family="sans-serif" font-size="14" textLength="447">setVisibility(Context, RemoteViews, CurrentWeatherInfo, int): void</text>
<ellipse cx="18" cy="262.15" rx="3" ry="3" fill="#84BE84" stroke="#038048"/>
<text x="27" y="265.4951" fill="#000000" font-family="sans-serif" font-size="14" textLength="417">setClouds(Context, RemoteViews, CurrentWeatherInfo): void</text>
<ellipse cx="18" cy="278.45" rx="3" ry="3" fill="#84BE84" stroke="#038048"/>
<text x="27" y="281.792" fill="#000000" font-family="sans-serif" font-size="14" textLength="489">setTemperature5cm(Context, RemoteViews, CurrentWeatherInfo): void</text>
<ellipse cx="18" cy="294.74" rx="3" ry="3" fill="#84BE84" stroke="#038048"/>
<text x="27" y="298.0889" fill="#000000" font-family="sans-serif" font-size="14" textLength="428">setHumidity(Context, RemoteViews, CurrentWeatherInfo): void</text>
<ellipse cx="18" cy="311.04" rx="3" ry="3" fill="#84BE84" stroke="#038048"/>
<text x="27" y="314.3857" fill="#000000" font-family="sans-serif" font-size="14" textLength="289">setDateText(Context, RemoteViews): void</text>
<ellipse cx="18" cy="327.34" rx="3" ry="3" fill="#84BE84" stroke="#038048"/>
<text x="27" y="330.6826" fill="#000000" font-family="sans-serif" font-size="14" textLength="294">setAlarmText(Context, RemoteViews): void</text>
<ellipse cx="18" cy="343.63" rx="3" ry="3" fill="#84BE84" stroke="#038048"/>
<text x="27" y="346.9795" fill="#000000" font-family="sans-serif" font-size="14" textLength="465">setConditionText(Context, RemoteViews, CurrentWeatherInfo): void</text>
<ellipse cx="18" cy="359.93" rx="3" ry="3" fill="#84BE84" stroke="#038048"/>
<text x="27" y="363.2764" fill="#000000" font-family="sans-serif" font-size="14" textLength="464">setConditionIcon(Context, RemoteViews, CurrentWeatherInfo): void</text>
<ellipse cx="18" cy="376.23" rx="3" ry="3" fill="#84BE84" stroke="#038048"/>
<text x="27" y="379.5732" fill="#000000" font-family="sans-serif" font-size="14" textLength="521">setLocationText(Context, RemoteViews, CurrentWeatherInfo, boolean): void</text>
<ellipse cx="18" cy="392.52" rx="3" ry="3" fill="#84BE84" stroke="#038048"/>
<text x="27" y="395.8701" fill="#000000" font-family="sans-serif" font-size="14" textLength="468">setWarningTextAndIcon(Context, RemoteViews, int, int, int, int): void</text>
<ellipse cx="18" cy="408.82" rx="3" ry="3" fill="#84BE84" stroke="#038048"/>
<text x="27" y="412.167" fill="#000000" font-family="sans-serif" font-size="14" textLength="336">setWarningIcon(Context, RemoteViews, int): void</text>
<ellipse cx="18" cy="425.12" rx="3" ry="3" fill="#84BE84" stroke="#038048"/>
<text x="27" y="428.4639" fill="#000000" font-family="sans-serif" font-size="14" textLength="690">setClassicWidgetItems(RemoteViews, WeatherSettings, CurrentWeatherInfo, Context, boolean): void</text>
<ellipse cx="18" cy="441.41" rx="3" ry="3" fill="#84BE84" stroke="#038048"/>
<text x="27" y="444.7607" fill="#000000" font-family="sans-serif" font-size="14" textLength="626">setClassicWidgetItems(RemoteViews, WeatherSettings, CurrentWeatherInfo, Context): void</text>
<ellipse cx="18" cy="457.71" rx="3" ry="3" fill="#84BE84" stroke="#038048"/>
<text x="27" y="461.0576" fill="#000000" font-family="sans-serif" font-size="14" textLength="450">updateWidgetDisplay(Context, AppWidgetManager, int[], int): void</text>
<ellipse cx="18" cy="474.01" rx="3" ry="3" fill="#84BE84" stroke="#038048"/>
<text x="27" y="477.3545" fill="#000000" font-family="sans-serif" font-size="14" textLength="317">widgetRefreshAction(Context, Intent, int): void</text>
<ellipse cx="18" cy="490.3" rx="3" ry="3" fill="#84BE84" stroke="#038048"/>
<text x="27" y="493.6514" fill="#000000" font-family="sans-serif" font-size="14" text-decoration="underline" textLength="370">getMaxPossibleFontsize(String, float, float, Float): float</text>
</g>
</a>
<a href="ClassicWidget.WidgetDimensionManager.html" target="_top" title="ClassicWidget.WidgetDimensionManager.html" xlink:actuate="onRequest" xlink:href="ClassicWidget.WidgetDimensionManager.html" xlink:show="new" xlink:title="ClassicWidget.WidgetDimensionManager.html" xlink:type="simple">
<g id="c">
<rect id="d" x="208" y="561" width="314" height="37.938" rx="2.5" ry="2.5" fill="#F1F1F1" stroke="#181818" stroke-width=".5" codeLine="34"/>
<ellipse cx="223" cy="579.97" rx="11" ry="11" fill="#ADD1B2" stroke="#181818"/>
<path d="m225.97 585.61q-0.5782 0.2969-1.2188 0.4375-0.6406 0.1562-1.3437 0.1562-2.5 0-3.8282-1.6406-1.3125-1.6562-1.3125-4.7812t1.3125-4.7813q1.3282-1.6562 3.8282-1.6562 0.7031 0 1.3437 0.1562 0.6563 0.1563 1.2188 0.4531v2.7188q-0.625-0.5781-1.2188-0.8438-0.5937-0.2812-1.2187-0.2812-1.3438 0-2.0313 1.0781-0.6875 1.0625-0.6875 3.1563 0 2.0937 0.6875 3.1718 0.6875 1.0625 2.0313 1.0625 0.625 0 1.2187-0.2656 0.5938-0.2812 1.2188-0.8594v2.7188z"/>
<text x="237" y="578.9951" fill="#000000" font-family="sans-serif" font-size="14" textLength="282">ClassicWidget.WidgetDimensionManager</text>
<text x="258" y="591.5791" fill="#000000" font-family="sans-serif" font-size="10" textLength="240">de.kaffeemitkoffein.tinyweatherforecastgermany</text>
</g>
</a>
<g id="e" stroke="#181818">
<path id="f" d="m365 517.39v43.33" fill="none" codeLine="36"/>
<ellipse cx="365" cy="509.39" rx="8" ry="8" fill="#fff"/>
<line x1="365" x2="365" y1="517.39" y2="501.39"/>
<line x1="357" x2="373" y1="509.39" y2="509.39"/>
</g>
<text x="268" y="613.2197" fill="#888888" font-family="sans-serif" font-size="10" textLength="180">UMLDoclet 2.1.2, PlantUML 1.2024.3</text>
</svg>
