<?xml version="1.0" encoding="UTF-8"?>
<svg width="381px" height="271px" style="background:transparent;height:271px;width:381px" contentScriptType="application/ecmascript" contentStyleType="text/css" preserveAspectRatio="none" version="1.1" viewBox="0 0 381 271" xmlns="http://www.w3.org/2000/svg" xmlns:xlink="http://www.w3.org/1999/xlink" zoomAndPan="magnify">
<defs>
<filter id="a" x="-1" y="-1" width="300%" height="300%">
<feGaussianBlur result="blurOut" stdDeviation="2.0"/>
<feColorMatrix in="blurOut" result="blurOut2" values="0 0 0 0 0 0 0 0 0 0 0 0 0 0 0 0 0 0 .4 0"/>
<feOffset dx="4.0" dy="4.0" in="blurOut2" result="blurOut3"/>
<feBlend in="SourceGraphic" in2="blurOut3"/>
</filter>
</defs>
<a href="ClassicWidget.WidgetDimensionManager.html" target="_top" title="ClassicWidget.WidgetDimensionManager.html" xlink:actuate="onRequest" xlink:href="ClassicWidget.WidgetDimensionManager.html" xlink:show="new" xlink:title="ClassicWidget.WidgetDimensionManager.html" xlink:type="simple">
<rect id="b" x="7" y="105" width="360" height="135.57" fill="#FEFECE" filter="url(#a)" stroke="#A80036" stroke-width="1.5" codeLine="5"/>
<ellipse cx="42.7" cy="123.97" rx="11" ry="11" fill="#ADD1B2" stroke="#A80036"/>
<path d="m45.669 129.61q-0.5782 0.2969-1.2188 0.4375-0.6406 0.1562-1.3437 0.1562-2.5 0-3.8282-1.6406-1.3125-1.6562-1.3125-4.7812t1.3125-4.7813q1.3282-1.6562 3.8282-1.6562 0.7031 0 1.3437 0.1562 0.6563 0.1563 1.2188 0.4531v2.7188q-0.625-0.5781-1.2188-0.8438-0.5937-0.2812-1.2187-0.2812-1.3438 0-2.0313 1.0781-0.6875 1.0625-0.6875 3.1563 0 2.0937 0.6875 3.1718 0.6875 1.0625 2.0313 1.0625 0.625 0 1.2187-0.2656 0.5938-0.2812 1.2188-0.8594v2.7188z"/>
<text x="61.3" y="122.9951" fill="#000000" font-family="sans-serif" font-size="14" textLength="282">ClassicWidget.WidgetDimensionManager</text>
<text x="82.3" y="135.5791" fill="#000000" font-family="sans-serif" font-size="10" textLength="240">de.kaffeemitkoffein.tinyweatherforecastgermany</text>
<line x1="8" x2="366" y1="142.94" y2="142.94" stroke="#A80036" stroke-width="1.5"/>
<ellipse cx="18" cy="153.94" rx="3" ry="3" fill="#84BE84" stroke="#038048"/>
<text x="27" y="157.1479" fill="#000000" font-family="sans-serif" font-size="11" textLength="334">WidgetDimensionManager(Context, AppWidgetManager, int)</text>
<ellipse cx="18" cy="166.74" rx="3" ry="3" fill="#84BE84" stroke="#038048"/>
<text x="27" y="169.9526" fill="#000000" font-family="sans-serif" font-size="11" textLength="126">getWidgetWidth(): float</text>
<ellipse cx="18" cy="179.55" rx="3" ry="3" fill="#84BE84" stroke="#038048"/>
<text x="27" y="182.7573" fill="#000000" font-family="sans-serif" font-size="11" textLength="132">getWidgetHeight(): float</text>
<ellipse cx="18" cy="192.35" rx="3" ry="3" fill="#84BE84" stroke="#038048"/>
<text x="27" y="195.562" fill="#000000" font-family="sans-serif" font-size="11" textLength="129">getWidgetWidthInt(): int</text>
<ellipse cx="18" cy="205.16" rx="3" ry="3" fill="#84BE84" stroke="#038048"/>
<text x="27" y="208.3667" fill="#000000" font-family="sans-serif" font-size="11" textLength="135">getWidgetHeightInt(): int</text>
<ellipse cx="18" cy="217.96" rx="3" ry="3" fill="#84BE84" stroke="#038048"/>
<text x="27" y="221.1714" fill="#000000" font-family="sans-serif" font-size="11" textLength="139">getScaledDensity(): float</text>
<ellipse cx="18" cy="230.77" rx="3" ry="3" fill="#84BE84" stroke="#038048"/>
<text x="27" y="233.9761" fill="#000000" font-family="sans-serif" font-size="11" textLength="187">getFontHeightInPixels(float): float</text>
</a>
<a href="ClassicWidget.html" target="_top" title="ClassicWidget.html" xlink:actuate="onRequest" xlink:href="ClassicWidget.html" xlink:show="new" xlink:title="ClassicWidget.html" xlink:type="simple">
<rect id="c" x="51" y="7" width="272" height="37.938" fill="#FEFECE" filter="url(#a)" stroke="#A80036" stroke-width="1.5" codeLine="15"/>
<ellipse cx="66" cy="25.969" rx="11" ry="11" fill="#ADD1B2" stroke="#A80036"/>
<path d="m68.969 31.609q-0.5782 0.2969-1.2188 0.4375-0.6406 0.1562-1.3437 0.1562-2.5 0-3.8282-1.6406-1.3125-1.6562-1.3125-4.7812t1.3125-4.7813q1.3282-1.6562 3.8282-1.6562 0.7031 0 1.3437 0.1562 0.6563 0.1563 1.2188 0.4531v2.7188q-0.625-0.5781-1.2188-0.8438-0.5937-0.2812-1.2187-0.2812-1.3438 0-2.0313 1.0781-0.6875 1.0625-0.6875 3.1563 0 2.0937 0.6875 3.1718 0.6875 1.0625 2.0313 1.0625 0.625 0 1.2187-0.2656 0.5938-0.2812 1.2188-0.8594v2.7188z"/>
<text x="152" y="24.9951" fill="#000000" font-family="sans-serif" font-size="14" textLength="96">ClassicWidget</text>
<text x="80" y="37.5791" fill="#000000" font-family="sans-serif" font-size="10" textLength="240">de.kaffeemitkoffein.tinyweatherforecastgermany</text>
</a>
<path id="d" d="m187 60.36v44.6" fill="none" stroke="#A80036" codeLine="17"/>
<ellipse cx="187" cy="53.07" rx="8" ry="8" fill="#fff" stroke="#A80036"/>
<line x1="187" x2="187" y1="61.07" y2="45.07" stroke="#A80036"/>
<line x1="179" x2="195" y1="53.07" y2="53.07" stroke="#A80036"/>
<text x="88" y="262.8525" fill="#888888" font-family="sans-serif" font-size="10" textLength="192">UMLDoclet 2.0.15, PlantUML 1.2021.13</text>
</svg>
