<?xml version="1.0" encoding="UTF-8"?>
<svg width="454px" height="290px" style="background:transparent;height:290px;width:454px" contentStyleType="text/css" preserveAspectRatio="none" version="1.1" viewBox="0 0 454 290" xmlns="http://www.w3.org/2000/svg" xmlns:xlink="http://www.w3.org/1999/xlink" zoomAndPan="magnify">
<a href="ClassicWidget.WidgetDimensionManager.html" target="_top" title="ClassicWidget.WidgetDimensionManager.html" xlink:actuate="onRequest" xlink:href="ClassicWidget.WidgetDimensionManager.html" xlink:show="new" xlink:title="ClassicWidget.WidgetDimensionManager.html" xlink:type="simple">
<g id="a">
<rect id="b" x="7" y="105" width="440" height="160.02" rx="2.5" ry="2.5" fill="#F1F1F1" stroke="#181818" stroke-width=".5" codeLine="5"/>
<ellipse cx="81.75" cy="123.97" rx="11" ry="11" fill="#ADD1B2" stroke="#181818"/>
<path d="m84.719 129.61q-0.5782 0.2969-1.2188 0.4375-0.6406 0.1562-1.3437 0.1562-2.5 0-3.8282-1.6406-1.3125-1.6562-1.3125-4.7812t1.3125-4.7813q1.3282-1.6562 3.8282-1.6562 0.7031 0 1.3437 0.1562 0.6563 0.1563 1.2188 0.4531v2.7188q-0.625-0.5781-1.2188-0.8438-0.5937-0.2812-1.2187-0.2812-1.3438 0-2.0313 1.0781-0.6875 1.0625-0.6875 3.1563 0 2.0937 0.6875 3.1718 0.6875 1.0625 2.0313 1.0625 0.625 0 1.2187-0.2656 0.5938-0.2812 1.2188-0.8594v2.7188z"/>
<text x="102.25" y="122.9951" fill="#000000" font-family="sans-serif" font-size="14" textLength="282">ClassicWidget.WidgetDimensionManager</text>
<text x="123.25" y="135.5791" fill="#000000" font-family="sans-serif" font-size="10" textLength="240">de.kaffeemitkoffein.tinyweatherforecastgermany</text>
<line x1="8" x2="446" y1="142.94" y2="142.94" stroke="#181818" stroke-width=".5"/>
<ellipse cx="18" cy="156.59" rx="3" ry="3" fill="#84BE84" stroke="#038048"/>
<text x="27" y="159.9326" fill="#000000" font-family="sans-serif" font-size="14" textLength="414">WidgetDimensionManager(Context, AppWidgetManager, int)</text>
<ellipse cx="18" cy="172.88" rx="3" ry="3" fill="#84BE84" stroke="#038048"/>
<text x="27" y="176.2295" fill="#000000" font-family="sans-serif" font-size="14" textLength="158">getWidgetWidth(): float</text>
<ellipse cx="18" cy="189.18" rx="3" ry="3" fill="#84BE84" stroke="#038048"/>
<text x="27" y="192.5264" fill="#000000" font-family="sans-serif" font-size="14" textLength="164">getWidgetHeight(): float</text>
<ellipse cx="18" cy="205.48" rx="3" ry="3" fill="#84BE84" stroke="#038048"/>
<text x="27" y="208.8232" fill="#000000" font-family="sans-serif" font-size="14" textLength="163">getWidgetWidthInt(): int</text>
<ellipse cx="18" cy="221.77" rx="3" ry="3" fill="#84BE84" stroke="#038048"/>
<text x="27" y="225.1201" fill="#000000" font-family="sans-serif" font-size="14" textLength="169">getWidgetHeightInt(): int</text>
<ellipse cx="18" cy="238.07" rx="3" ry="3" fill="#84BE84" stroke="#038048"/>
<text x="27" y="241.417" fill="#000000" font-family="sans-serif" font-size="14" textLength="169">getScaledDensity(): float</text>
<ellipse cx="18" cy="254.37" rx="3" ry="3" fill="#84BE84" stroke="#038048"/>
<text x="27" y="257.7139" fill="#000000" font-family="sans-serif" font-size="14" textLength="227">getFontHeightInPixels(float): float</text>
</g>
</a>
<a href="ClassicWidget.html" target="_top" title="ClassicWidget.html" xlink:actuate="onRequest" xlink:href="ClassicWidget.html" xlink:show="new" xlink:title="ClassicWidget.html" xlink:type="simple">
<g id="c">
<rect id="d" x="91" y="7" width="272" height="37.938" rx="2.5" ry="2.5" fill="#F1F1F1" stroke="#181818" stroke-width=".5" codeLine="15"/>
<ellipse cx="106" cy="25.969" rx="11" ry="11" fill="#ADD1B2" stroke="#181818"/>
<path d="m108.97 31.609q-0.5782 0.2969-1.2188 0.4375-0.6406 0.1562-1.3437 0.1562-2.5 0-3.8282-1.6406-1.3125-1.6562-1.3125-4.7812t1.3125-4.7813q1.3282-1.6562 3.8282-1.6562 0.7031 0 1.3437 0.1562 0.6563 0.1563 1.2188 0.4531v2.7188q-0.625-0.5781-1.2188-0.8438-0.5937-0.2812-1.2187-0.2812-1.3438 0-2.0313 1.0781-0.6875 1.0625-0.6875 3.1563 0 2.0937 0.6875 3.1718 0.6875 1.0625 2.0313 1.0625 0.625 0 1.2187-0.2656 0.5938-0.2812 1.2188-0.8594v2.7188z"/>
<text x="192" y="24.9951" fill="#000000" font-family="sans-serif" font-size="14" textLength="96">ClassicWidget</text>
<text x="120" y="37.5791" fill="#000000" font-family="sans-serif" font-size="10" textLength="240">de.kaffeemitkoffein.tinyweatherforecastgermany</text>
</g>
</a>
<g id="e" stroke="#181818">
<path id="f" d="m227 61.01v43.92" fill="none" codeLine="17"/>
<ellipse cx="227" cy="53.01" rx="8" ry="8" fill="#fff"/>
<line x1="227" x2="227" y1="61.01" y2="45.01"/>
<line x1="219" x2="235" y1="53.01" y2="53.01"/>
</g>
<text x="130" y="280.2979" fill="#888888" font-family="sans-serif" font-size="10" textLength="180">UMLDoclet 2.1.2, PlantUML 1.2024.3</text>
</svg>
