<?xml version="1.0" encoding="UTF-8"?>
<svg width="391px" height="194px" style="background:transparent;height:194px;width:391px" contentScriptType="application/ecmascript" contentStyleType="text/css" preserveAspectRatio="none" version="1.1" viewBox="0 0 391 194" xmlns="http://www.w3.org/2000/svg" xmlns:xlink="http://www.w3.org/1999/xlink" zoomAndPan="magnify">
<defs>
<filter id="a" x="-1" y="-1" width="300%" height="300%">
<feGaussianBlur result="blurOut" stdDeviation="2.0"/>
<feColorMatrix in="blurOut" result="blurOut2" values="0 0 0 0 0 0 0 0 0 0 0 0 0 0 0 0 0 0 .4 0"/>
<feOffset dx="4.0" dy="4.0" in="blurOut2" result="blurOut3"/>
<feBlend in="SourceGraphic" in2="blurOut3"/>
</filter>
</defs>
<a href="ClockWidget.html" target="_top" title="ClockWidget.html" xlink:actuate="onRequest" xlink:href="ClockWidget.html" xlink:show="new" xlink:title="ClockWidget.html" xlink:type="simple">
<rect id="b" x="7" y="105" width="370" height="58.742" fill="#FEFECE" filter="url(#a)" stroke="#A80036" stroke-width="1.5" codeLine="5"/>
<ellipse cx="67.75" cy="123.97" rx="11" ry="11" fill="#ADD1B2" stroke="#A80036"/>
<path d="m70.719 129.61q-0.5782 0.2969-1.2188 0.4375-0.6406 0.1562-1.3437 0.1562-2.5 0-3.8282-1.6406-1.3125-1.6562-1.3125-4.7812t1.3125-4.7813q1.3282-1.6562 3.8282-1.6562 0.7031 0 1.3437 0.1562 0.6563 0.1563 1.2188 0.4531v2.7188q-0.625-0.5781-1.2188-0.8438-0.5937-0.2812-1.2187-0.2812-1.3438 0-2.0313 1.0781-0.6875 1.0625-0.6875 3.1563 0 2.0937 0.6875 3.1718 0.6875 1.0625 2.0313 1.0625 0.625 0 1.2187-0.2656 0.5938-0.2812 1.2188-0.8594v2.7188z"/>
<text x="165.25" y="122.9951" fill="#000000" font-family="sans-serif" font-size="14" textLength="86">ClockWidget</text>
<text x="88.25" y="135.5791" fill="#000000" font-family="sans-serif" font-size="10" textLength="240">de.kaffeemitkoffein.tinyweatherforecastgermany</text>
<line x1="8" x2="376" y1="142.94" y2="142.94" stroke="#A80036" stroke-width="1.5"/>
<ellipse cx="18" cy="153.94" rx="3" ry="3" fill="#84BE84" stroke="#038048"/>
<text x="27" y="157.1479" fill="#000000" font-family="sans-serif" font-size="11" textLength="344">updateWidgetDisplay(Context, AppWidgetManager, int[]): void</text>
</a>
<a href="ClassicWidget.html" target="_top" title="ClassicWidget.html" xlink:actuate="onRequest" xlink:href="ClassicWidget.html" xlink:show="new" xlink:title="ClassicWidget.html" xlink:type="simple">
<rect id="c" x="56" y="7" width="272" height="37.938" fill="#FEFECE" filter="url(#a)" stroke="#A80036" stroke-width="1.5" codeLine="9"/>
<ellipse cx="71" cy="25.969" rx="11" ry="11" fill="#ADD1B2" stroke="#A80036"/>
<path d="m73.969 31.609q-0.5782 0.2969-1.2188 0.4375-0.6406 0.1562-1.3437 0.1562-2.5 0-3.8282-1.6406-1.3125-1.6562-1.3125-4.7812t1.3125-4.7813q1.3282-1.6562 3.8282-1.6562 0.7031 0 1.3437 0.1562 0.6563 0.1563 1.2188 0.4531v2.7188q-0.625-0.5781-1.2188-0.8438-0.5937-0.2812-1.2187-0.2812-1.3438 0-2.0313 1.0781-0.6875 1.0625-0.6875 3.1563 0 2.0937 0.6875 3.1718 0.6875 1.0625 2.0313 1.0625 0.625 0 1.2187-0.2656 0.5938-0.2812 1.2188-0.8594v2.7188z"/>
<text x="157" y="24.9951" fill="#000000" font-family="sans-serif" font-size="14" textLength="96">ClassicWidget</text>
<text x="85" y="37.5791" fill="#000000" font-family="sans-serif" font-size="10" textLength="240">de.kaffeemitkoffein.tinyweatherforecastgermany</text>
</a>
<path id="d" d="m192 65.22v39.67" fill="none" stroke="#A80036" codeLine="11"/>
<polygon points="185 65.07 192 45.07 199 65.07" fill="none" stroke="#A80036"/>
<text x="93" y="186.0244" fill="#888888" font-family="sans-serif" font-size="10" textLength="192">UMLDoclet 2.0.15, PlantUML 1.2021.13</text>
</svg>
