<?xml version="1.0" encoding="UTF-8"?>
<svg width="580px" height="397px" style="background:transparent;height:397px;width:580px" contentStyleType="text/css" preserveAspectRatio="none" version="1.1" viewBox="0 0 580 397" xmlns="http://www.w3.org/2000/svg" xmlns:xlink="http://www.w3.org/1999/xlink" zoomAndPan="magnify">
<a href="CurrentWeatherInfo.html" target="_top" title="CurrentWeatherInfo.html" xlink:actuate="onRequest" xlink:href="CurrentWeatherInfo.html" xlink:show="new" xlink:title="CurrentWeatherInfo.html" xlink:type="simple">
<g id="a">
<rect id="b" x="7" y="7" width="559" height="363.58" rx="2.5" ry="2.5" fill="#F1F1F1" stroke="#181818" stroke-width=".5" codeLine="5"/>
<ellipse cx="162.25" cy="25.969" rx="11" ry="11" fill="#ADD1B2" stroke="#181818"/>
<path d="m165.22 31.609q-0.5782 0.2969-1.2188 0.4375-0.6406 0.1562-1.3437 0.1562-2.5 0-3.8282-1.6406-1.3125-1.6562-1.3125-4.7812t1.3125-4.7813q1.3282-1.6562 3.8282-1.6562 0.7031 0 1.3437 0.1562 0.6563 0.1563 1.2188 0.4531v2.7188q-0.625-0.5781-1.2188-0.8438-0.5937-0.2812-1.2187-0.2812-1.3438 0-2.0313 1.0781-0.6875 1.0625-0.6875 3.1563 0 2.0937 0.6875 3.1718 0.6875 1.0625 2.0313 1.0625 0.625 0 1.2187-0.2656 0.5938-0.2812 1.2188-0.8594v2.7188z"/>
<text x="235.25" y="24.9951" fill="#000000" font-family="sans-serif" font-size="14" textLength="135">CurrentWeatherInfo</text>
<text x="182.75" y="37.5791" fill="#000000" font-family="sans-serif" font-size="10" textLength="240">de.kaffeemitkoffein.tinyweatherforecastgermany</text>
<line x1="8" x2="565" y1="44.938" y2="44.938" stroke="#181818" stroke-width=".5"/>
<ellipse cx="18" cy="58.586" rx="3" ry="3" fill="none" stroke="#038048"/>
<text x="27" y="61.9326" fill="#000000" font-family="sans-serif" font-size="14" text-decoration="underline" textLength="133">EMPTY_TAG: String</text>
<ellipse cx="18" cy="74.883" rx="3" ry="3" fill="none" stroke="#038048"/>
<text x="27" y="78.2295" fill="#000000" font-family="sans-serif" font-size="14" text-decoration="underline" textLength="219">MOSMIX_UPDATE_INTERVAL: int</text>
<ellipse cx="18" cy="91.18" rx="3" ry="3" fill="none" stroke="#038048"/>
<text x="27" y="94.5264" fill="#000000" font-family="sans-serif" font-size="14" text-decoration="underline" textLength="232">MOSMIX_PUBLICATION_DELAY: int</text>
<ellipse cx="18" cy="107.48" rx="3" ry="3" fill="none" stroke="#038048"/>
<text x="27" y="110.8232" fill="#000000" font-family="sans-serif" font-size="14" text-decoration="underline" textLength="197">DMO_UPDATE_INTERVAL: int</text>
<ellipse cx="18" cy="123.77" rx="3" ry="3" fill="none" stroke="#038048"/>
<text x="27" y="127.1201" fill="#000000" font-family="sans-serif" font-size="14" text-decoration="underline" textLength="210">DMO_PUBLICATION_DELAY: int</text>
<line x1="8" x2="565" y1="134.42" y2="134.42" stroke="#181818" stroke-width=".5"/>
<ellipse cx="18" cy="148.07" rx="3" ry="3" fill="#84BE84" stroke="#038048"/>
<text x="27" y="151.417" fill="#000000" font-family="sans-serif" font-size="14" textLength="145">CurrentWeatherInfo()</text>
<ellipse cx="18" cy="164.37" rx="3" ry="3" fill="#84BE84" stroke="#038048"/>
<text x="27" y="167.7139" fill="#000000" font-family="sans-serif" font-size="14" textLength="319">CurrentWeatherInfo(Context, RawWeatherInfo)</text>
<ellipse cx="18" cy="180.66" rx="3" ry="3" fill="#84BE84" stroke="#038048"/>
<text x="27" y="184.0107" fill="#000000" font-family="sans-serif" font-size="14" textLength="130">setToEmpty(): void</text>
<ellipse cx="18" cy="196.96" rx="3" ry="3" fill="#84BE84" stroke="#038048"/>
<text x="27" y="200.3076" fill="#000000" font-family="sans-serif" font-size="14" textLength="161">getCity(Context): String</text>
<ellipse cx="18" cy="213.26" rx="3" ry="3" fill="#84BE84" stroke="#038048"/>
<text x="27" y="216.6045" fill="#000000" font-family="sans-serif" font-size="14" textLength="300">getWindForecast(int): ArrayList&lt;WindData&gt;</text>
<ellipse cx="18" cy="229.55" rx="3" ry="3" fill="#84BE84" stroke="#038048"/>
<text x="27" y="232.9014" fill="#000000" font-family="sans-serif" font-size="14" textLength="342">setSunDurationFromClouds(WeatherInfo): Integer</text>
<ellipse cx="18" cy="245.85" rx="3" ry="3" fill="#84BE84" stroke="#038048"/>
<text x="27" y="249.1982" fill="#000000" font-family="sans-serif" font-size="14" text-decoration="underline" textLength="266">iteratePositions(String[], int, int): String</text>
<ellipse cx="18" cy="262.15" rx="3" ry="3" fill="#84BE84" stroke="#038048"/>
<text x="27" y="265.4951" fill="#000000" font-family="sans-serif" font-size="14" text-decoration="underline" textLength="473">interpolateConditionFromHigherIntervals(int, RawWeatherInfo): String</text>
<ellipse cx="18" cy="278.45" rx="3" ry="3" fill="#84BE84" stroke="#038048"/>
<text x="27" y="281.792" fill="#000000" font-family="sans-serif" font-size="14" textLength="463">getConditionFromHourlyCondition(RawWeatherInfo, int, int): Integer</text>
<ellipse cx="18" cy="294.74" rx="3" ry="3" fill="#84BE84" stroke="#038048"/>
<text x="27" y="298.0889" fill="#000000" font-family="sans-serif" font-size="14" textLength="533">getConditionFromHourlySignificantCondition(RawWeatherInfo, int, int): Integer</text>
<ellipse cx="18" cy="311.04" rx="3" ry="3" fill="#84BE84" stroke="#038048"/>
<text x="27" y="314.3857" fill="#000000" font-family="sans-serif" font-size="14" text-decoration="underline" textLength="391">getMostSignificantCondition(ArrayList&lt;Integer&gt;): Integer</text>
<ellipse cx="18" cy="327.34" rx="3" ry="3" fill="#84BE84" stroke="#038048"/>
<text x="27" y="330.6826" fill="#000000" font-family="sans-serif" font-size="14" textLength="311">isNewServerDataExpected(Context): boolean</text>
<ellipse cx="18" cy="343.63" rx="3" ry="3" fill="#84BE84" stroke="#038048"/>
<text x="27" y="346.9795" fill="#000000" font-family="sans-serif" font-size="14" textLength="337">getWhenNewServerDataExpected(Context): long</text>
<ellipse cx="18" cy="359.93" rx="3" ry="3" fill="#84BE84" stroke="#038048"/>
<text x="27" y="363.2764" fill="#000000" font-family="sans-serif" font-size="14" textLength="267">getHumanReadableIssueTime(): String</text>
</g>
</a>
<text x="196" y="386.8604" fill="#888888" font-family="sans-serif" font-size="10" textLength="180">UMLDoclet 2.1.2, PlantUML 1.2024.3</text>
</svg>
