<?xml version="1.0" encoding="UTF-8"?>
<svg width="593px" height="289px" style="background:transparent;height:289px;width:593px" contentStyleType="text/css" preserveAspectRatio="none" version="1.1" viewBox="0 0 593 289" xmlns="http://www.w3.org/2000/svg" xmlns:xlink="http://www.w3.org/1999/xlink" zoomAndPan="magnify">
<a href="ForecastIcons.html" target="_top" title="ForecastIcons.html" xlink:actuate="onRequest" xlink:href="ForecastIcons.html" xlink:show="new" xlink:title="ForecastIcons.html" xlink:type="simple">
<g id="a">
<rect id="b" x="58.5" y="7" width="475" height="160.02" rx="2.5" ry="2.5" fill="#F1F1F1" stroke="#181818" stroke-width=".5" codeLine="5"/>
<ellipse cx="171.75" cy="25.969" rx="11" ry="11" fill="#ADD1B2" stroke="#181818"/>
<path d="m174.72 31.609q-0.5782 0.2969-1.2188 0.4375-0.6406 0.1562-1.3437 0.1562-2.5 0-3.8282-1.6406-1.3125-1.6562-1.3125-4.7812t1.3125-4.7813q1.3282-1.6562 3.8282-1.6562 0.7031 0 1.3437 0.1562 0.6563 0.1563 1.2188 0.4531v2.7188q-0.625-0.5781-1.2188-0.8438-0.5937-0.2812-1.2187-0.2812-1.3438 0-2.0313 1.0781-0.6875 1.0625-0.6875 3.1563 0 2.0937 0.6875 3.1718 0.6875 1.0625 2.0313 1.0625 0.625 0 1.2187-0.2656 0.5938-0.2812 1.2188-0.8594v2.7188z"/>
<text x="263.75" y="24.9951" fill="#000000" font-family="sans-serif" font-size="14" textLength="97">ForecastIcons</text>
<text x="192.25" y="37.5791" fill="#000000" font-family="sans-serif" font-size="10" textLength="240">de.kaffeemitkoffein.tinyweatherforecastgermany</text>
<line x1="59.5" x2="532.5" y1="44.938" y2="44.938" stroke="#181818" stroke-width=".5"/>
<ellipse cx="69.5" cy="58.586" rx="3" ry="3" fill="#84BE84" stroke="#038048"/>
<text x="78.5" y="61.9326" fill="#000000" font-family="sans-serif" font-size="14" textLength="243">ForecastIcons(Context, ImageView)</text>
<ellipse cx="69.5" cy="74.883" rx="3" ry="3" fill="#84BE84" stroke="#038048"/>
<text x="78.5" y="78.2295" fill="#000000" font-family="sans-serif" font-size="14" textLength="211">ForecastIcons(Context, int, int)</text>
<ellipse cx="69.5" cy="91.18" rx="3" ry="3" fill="#84BE84" stroke="#038048"/>
<text x="78.5" y="94.5264" fill="#000000" font-family="sans-serif" font-size="14" textLength="143">getLayer(int): Bitmap</text>
<ellipse cx="69.5" cy="107.48" rx="3" ry="3" fill="#84BE84" stroke="#038048"/>
<text x="78.5" y="110.8232" fill="#000000" font-family="sans-serif" font-size="14" textLength="449">getDisposableMoonLayer(WeatherInfo, WeatherLocation): Bitmap</text>
<ellipse cx="69.5" cy="123.77" rx="3" ry="3" fill="#84BE84" stroke="#038048"/>
<text x="78.5" y="127.1201" fill="#000000" font-family="sans-serif" font-size="14" textLength="396">getDisposableMoonLayer(long, WeatherLocation): Bitmap</text>
<ellipse cx="69.5" cy="140.07" rx="3" ry="3" fill="#84BE84" stroke="#038048"/>
<text x="78.5" y="143.417" fill="#000000" font-family="sans-serif" font-size="14" textLength="374">getIconBitmap(WeatherInfo, WeatherLocation): Bitmap</text>
<ellipse cx="69.5" cy="156.37" rx="3" ry="3" fill="#84BE84" stroke="#038048"/>
<text x="78.5" y="159.7139" fill="#000000" font-family="sans-serif" font-size="14" textLength="124">clearCache(): void</text>
</g>
</a>
<a href="ForecastIcons.Holidays.html" target="_top" title="ForecastIcons.Holidays.html" xlink:actuate="onRequest" xlink:href="ForecastIcons.Holidays.html" xlink:show="new" xlink:title="ForecastIcons.Holidays.html" xlink:type="simple">
<g id="c">
<rect id="d" x="7" y="227" width="272" height="37.938" rx="2.5" ry="2.5" fill="#F1F1F1" stroke="#181818" stroke-width=".5" codeLine="14"/>
<ellipse cx="22" cy="245.97" rx="11" ry="11" fill="#ADD1B2" stroke="#181818"/>
<path d="m24.969 251.61q-0.5782 0.2969-1.2188 0.4375-0.6406 0.1562-1.3437 0.1562-2.5 0-3.8282-1.6406-1.3125-1.6562-1.3125-4.7812t1.3125-4.7813q1.3282-1.6562 3.8282-1.6562 0.7031 0 1.3437 0.1562 0.6563 0.1563 1.2188 0.4531v2.7188q-0.625-0.5781-1.2188-0.8438-0.5937-0.2812-1.2187-0.2812-1.3438 0-2.0313 1.0781-0.6875 1.0625-0.6875 3.1563 0 2.0937 0.6875 3.1718 0.6875 1.0625 2.0313 1.0625 0.625 0 1.2187-0.2656 0.5938-0.2812 1.2188-0.8594v2.7188z"/>
<text x="77" y="244.9951" fill="#000000" font-family="sans-serif" font-size="14" textLength="158">ForecastIcons.Holidays</text>
<text x="36" y="257.5791" fill="#000000" font-family="sans-serif" font-size="10" textLength="240">de.kaffeemitkoffein.tinyweatherforecastgermany</text>
</g>
</a>
<a href="ForecastIcons.Layer.html" target="_top" title="ForecastIcons.Layer.html" xlink:actuate="onRequest" xlink:href="ForecastIcons.Layer.html" xlink:show="new" xlink:title="ForecastIcons.Layer.html" xlink:type="simple">
<g id="e">
<rect id="f" x="314" y="227" width="272" height="37.938" rx="2.5" ry="2.5" fill="#F1F1F1" stroke="#181818" stroke-width=".5" codeLine="15"/>
<ellipse cx="329" cy="245.97" rx="11" ry="11" fill="#ADD1B2" stroke="#181818"/>
<path d="m331.97 251.61q-0.5782 0.2969-1.2188 0.4375-0.6406 0.1562-1.3437 0.1562-2.5 0-3.8282-1.6406-1.3125-1.6562-1.3125-4.7812t1.3125-4.7813q1.3282-1.6562 3.8282-1.6562 0.7031 0 1.3437 0.1562 0.6563 0.1563 1.2188 0.4531v2.7188q-0.625-0.5781-1.2188-0.8438-0.5937-0.2812-1.2187-0.2812-1.3438 0-2.0313 1.0781-0.6875 1.0625-0.6875 3.1563 0 2.0937 0.6875 3.1718 0.6875 1.0625 2.0313 1.0625 0.625 0 1.2187-0.2656 0.5938-0.2812 1.2188-0.8594v2.7188z"/>
<text x="394.5" y="244.9951" fill="#000000" font-family="sans-serif" font-size="14" textLength="137">ForecastIcons.Layer</text>
<text x="343" y="257.5791" fill="#000000" font-family="sans-serif" font-size="10" textLength="240">de.kaffeemitkoffein.tinyweatherforecastgermany</text>
</g>
</a>
<g id="g" stroke="#181818">
<path id="h" d="m207.43 178.88c-21.79 22.36-32.313 33.161-46.833 48.061" fill="none" codeLine="17"/>
<ellipse cx="213.02" cy="173.15" rx="8" ry="8" fill="#fff"/>
<line x1="207.43" x2="218.6" y1="178.88" y2="167.42"/>
<line x1="207.29" x2="218.75" y1="167.57" y2="178.73"/>
</g>
<g id="i" stroke="#181818">
<path id="j" d="m385.11 178.84c21.94 22.36 32.564 33.2 47.184 48.1" fill="none" codeLine="18"/>
<ellipse cx="379.5" cy="173.13" rx="8" ry="8" fill="#fff"/>
<line x1="385.11" x2="373.9" y1="178.84" y2="167.42"/>
<line x1="373.79" x2="385.21" y1="178.73" y2="167.53"/>
</g>
<text x="199.5" y="279.2197" fill="#888888" font-family="sans-serif" font-size="10" textLength="180">UMLDoclet 2.1.2, PlantUML 1.2024.3</text>
</svg>
