<?xml version="1.0" encoding="UTF-8"?>
<svg width="601px" height="322px" style="background:transparent;height:322px;width:601px" contentScriptType="application/ecmascript" contentStyleType="text/css" preserveAspectRatio="none" version="1.1" viewBox="0 0 601 322" xmlns="http://www.w3.org/2000/svg" xmlns:xlink="http://www.w3.org/1999/xlink" zoomAndPan="magnify">
<defs>
<filter id="a" x="-1" y="-1" width="300%" height="300%">
<feGaussianBlur result="blurOut" stdDeviation="2.0"/>
<feColorMatrix in="blurOut" result="blurOut2" values="0 0 0 0 0 0 0 0 0 0 0 0 0 0 0 0 0 0 .4 0"/>
<feOffset dx="4.0" dy="4.0" in="blurOut2" result="blurOut3"/>
<feBlend in="SourceGraphic" in2="blurOut3"/>
</filter>
</defs>
<a href="ForecastBitmap.html" target="_top" title="ForecastBitmap.html" xlink:actuate="onRequest" xlink:href="ForecastBitmap.html" xlink:show="new" xlink:title="ForecastBitmap.html" xlink:type="simple">
<rect id="b" x="7" y="7" width="580" height="186.79" fill="#FEFECE" filter="url(#a)" stroke="#A80036" stroke-width="1.5" codeLine="5"/>
<ellipse cx="172.75" cy="25.969" rx="11" ry="11" fill="#ADD1B2" stroke="#A80036"/>
<path d="m175.72 31.609q-0.5782 0.2969-1.2188 0.4375-0.6406 0.1562-1.3437 0.1562-2.5 0-3.8282-1.6406-1.3125-1.6562-1.3125-4.7812t1.3125-4.7813q1.3282-1.6562 3.8282-1.6562 0.7031 0 1.3437 0.1562 0.6563 0.1563 1.2188 0.4531v2.7188q-0.625-0.5781-1.2188-0.8438-0.5937-0.2812-1.2187-0.2812-1.3438 0-2.0313 1.0781-0.6875 1.0625-0.6875 3.1563 0 2.0937 0.6875 3.1718 0.6875 1.0625 2.0313 1.0625 0.625 0 1.2187-0.2656 0.5938-0.2812 1.2188-0.8594v2.7188z"/>
<text x="259.25" y="24.9951" fill="#000000" font-family="sans-serif" font-size="14" textLength="108">ForecastBitmap</text>
<text x="193.25" y="37.5791" fill="#000000" font-family="sans-serif" font-size="10" textLength="240">de.kaffeemitkoffein.tinyweatherforecastgermany</text>
<line x1="8" x2="586" y1="44.938" y2="44.938" stroke="#A80036" stroke-width="1.5"/>
<ellipse cx="18" cy="55.938" rx="3" ry="3" fill="#84BE84" stroke="#038048"/>
<text x="27" y="59.1479" fill="#000000" font-family="sans-serif" font-size="11" textLength="239">getLayoutParams(Context): LayoutParams</text>
<ellipse cx="18" cy="68.742" rx="3" ry="3" fill="#84BE84" stroke="#038048"/>
<text x="27" y="71.9526" fill="#000000" font-family="sans-serif" font-size="11" text-decoration="underline" textLength="142">clearBitmapCache(): void</text>
<ellipse cx="18" cy="81.547" rx="3" ry="3" fill="#84BE84" stroke="#038048"/>
<text x="27" y="84.7573" fill="#000000" font-family="sans-serif" font-size="11" textLength="163">getForecastBitmap(): Bitmap</text>
<ellipse cx="18" cy="94.352" rx="3" ry="3" fill="#84BE84" stroke="#038048"/>
<text x="27" y="97.562" fill="#000000" font-family="sans-serif" font-size="11" text-decoration="underline" textLength="197">getPixelDisplayRatio(Context): float</text>
<ellipse cx="18" cy="107.16" rx="3" ry="3" fill="#84BE84" stroke="#038048"/>
<text x="27" y="110.3667" fill="#000000" font-family="sans-serif" font-size="11" text-decoration="underline" textLength="217">getPhysicalDisplayRatio(Context): float</text>
<ellipse cx="18" cy="119.96" rx="3" ry="3" fill="#84BE84" stroke="#038048"/>
<text x="27" y="123.1714" fill="#000000" font-family="sans-serif" font-size="11" text-decoration="underline" textLength="195">getDisplayOrientation(Context): int</text>
<ellipse cx="18" cy="132.77" rx="3" ry="3" fill="#84BE84" stroke="#038048"/>
<text x="27" y="135.9761" fill="#000000" font-family="sans-serif" font-size="11" text-decoration="underline" textLength="360">getPrecipitationChartRaw(Context, WeatherInfo, int, int): Bitmap</text>
<ellipse cx="18" cy="145.57" rx="3" ry="3" fill="#84BE84" stroke="#038048"/>
<text x="27" y="148.7808" fill="#000000" font-family="sans-serif" font-size="11" text-decoration="underline" textLength="390">getPrecipitationChart(Context, WeatherInfo, int, int, boolean): Bitmap</text>
<ellipse cx="18" cy="158.38" rx="3" ry="3" fill="#84BE84" stroke="#038048"/>
<text x="27" y="161.5854" fill="#000000" font-family="sans-serif" font-size="11" text-decoration="underline" textLength="332">getCloudCoverChart(Context, WeatherInfo, int, int): Bitmap</text>
<ellipse cx="18" cy="171.18" rx="3" ry="3" fill="#84BE84" stroke="#038048"/>
<text x="27" y="174.3901" fill="#000000" font-family="sans-serif" font-size="11" text-decoration="underline" textLength="191">GetDefaultLinePaint(int, int): Paint</text>
<ellipse cx="18" cy="183.98" rx="3" ry="3" fill="#84BE84" stroke="#038048"/>
<text x="27" y="187.1948" fill="#000000" font-family="sans-serif" font-size="11" text-decoration="underline" textLength="554">getOverviewChart(Context, int, int, ArrayList&lt;WeatherInfo&gt;, ArrayList&lt;WeatherWarning&gt;): Bitmap</text>
</a>
<a href="ForecastBitmap.LayoutParams.html" target="_top" title="ForecastBitmap.LayoutParams.html" xlink:actuate="onRequest" xlink:href="ForecastBitmap.LayoutParams.html" xlink:show="new" xlink:title="ForecastBitmap.LayoutParams.html" xlink:type="simple">
<rect id="c" x="161" y="254" width="272" height="37.938" fill="#FEFECE" filter="url(#a)" stroke="#A80036" stroke-width="1.5" codeLine="18"/>
<ellipse cx="176" cy="272.97" rx="11" ry="11" fill="#ADD1B2" stroke="#A80036"/>
<path d="m178.97 278.61q-0.5782 0.2969-1.2188 0.4375-0.6406 0.1562-1.3437 0.1562-2.5 0-3.8282-1.6406-1.3125-1.6562-1.3125-4.7812t1.3125-4.7813q1.3282-1.6562 3.8282-1.6562 0.7031 0 1.3437 0.1562 0.6563 0.1563 1.2188 0.4531v2.7188q-0.625-0.5781-1.2188-0.8438-0.5937-0.2812-1.2187-0.2812-1.3438 0-2.0313 1.0781-0.6875 1.0625-0.6875 3.1563 0 2.0937 0.6875 3.1718 0.6875 1.0625 2.0313 1.0625 0.625 0 1.2187-0.2656 0.5938-0.2812 1.2188-0.8594v2.7188z"/>
<text x="206" y="271.9951" fill="#000000" font-family="sans-serif" font-size="14" textLength="208">ForecastBitmap.LayoutParams</text>
<text x="190" y="284.5791" fill="#000000" font-family="sans-serif" font-size="10" textLength="240">de.kaffeemitkoffein.tinyweatherforecastgermany</text>
</a>
<path id="d" d="m297 209.29v44.61" fill="none" stroke="#A80036" codeLine="20"/>
<ellipse cx="297" cy="202.23" rx="8" ry="8" fill="#fff" stroke="#A80036"/>
<line x1="297" x2="297" y1="210.23" y2="194.23" stroke="#A80036"/>
<line x1="289" x2="305" y1="202.23" y2="202.23" stroke="#A80036"/>
<text x="198" y="314.2197" fill="#888888" font-family="sans-serif" font-size="10" textLength="192">UMLDoclet 2.0.15, PlantUML 1.2021.13</text>
</svg>
