<?xml version="1.0" encoding="UTF-8"?>
<svg width="517px" height="136px" style="background:transparent;height:136px;width:517px" contentStyleType="text/css" preserveAspectRatio="none" version="1.1" viewBox="0 0 517 136" xmlns="http://www.w3.org/2000/svg" xmlns:xlink="http://www.w3.org/1999/xlink" zoomAndPan="magnify">
<a href="GadgetbridgeAPI.html" target="_top" title="GadgetbridgeAPI.html" xlink:actuate="onRequest" xlink:href="GadgetbridgeAPI.html" xlink:show="new" xlink:title="GadgetbridgeAPI.html" xlink:type="simple">
<g id="a">
<rect id="b" x="7" y="7" width="496" height="102.83" rx="2.5" ry="2.5" fill="#F1F1F1" stroke="#181818" stroke-width=".5" codeLine="5"/>
<ellipse cx="130.75" cy="25.969" rx="11" ry="11" fill="#ADD1B2" stroke="#181818"/>
<path d="m133.72 31.609q-0.5782 0.2969-1.2188 0.4375-0.6406 0.1562-1.3437 0.1562-2.5 0-3.8282-1.6406-1.3125-1.6562-1.3125-4.7812t1.3125-4.7813q1.3282-1.6562 3.8282-1.6562 0.7031 0 1.3437 0.1562 0.6563 0.1563 1.2188 0.4531v2.7188q-0.625-0.5781-1.2188-0.8438-0.5937-0.2812-1.2187-0.2812-1.3438 0-2.0313 1.0781-0.6875 1.0625-0.6875 3.1563 0 2.0937 0.6875 3.1718 0.6875 1.0625 2.0313 1.0625 0.625 0 1.2187-0.2656 0.5938-0.2812 1.2188-0.8594v2.7188z"/>
<text x="213.25" y="24.9951" fill="#000000" font-family="sans-serif" font-size="14" textLength="116">GadgetbridgeAPI</text>
<text x="151.25" y="37.5791" fill="#000000" font-family="sans-serif" font-size="10" textLength="240">de.kaffeemitkoffein.tinyweatherforecastgermany</text>
<line x1="8" x2="502" y1="44.938" y2="44.938" stroke="#181818" stroke-width=".5"/>
<ellipse cx="18" cy="58.586" rx="3" ry="3" fill="none" stroke="#038048"/>
<text x="27" y="61.9326" fill="#000000" font-family="sans-serif" font-size="14" text-decoration="underline" textLength="171">WEATHER_EXTRA: String</text>
<ellipse cx="18" cy="74.883" rx="3" ry="3" fill="none" stroke="#038048"/>
<text x="27" y="78.2295" fill="#000000" font-family="sans-serif" font-size="14" text-decoration="underline" textLength="177">WEATHER_ACTION: String</text>
<line x1="8" x2="502" y1="85.531" y2="85.531" stroke="#181818" stroke-width=".5"/>
<ellipse cx="18" cy="99.18" rx="3" ry="3" fill="#84BE84" stroke="#038048"/>
<text x="27" y="102.5264" fill="#000000" font-family="sans-serif" font-size="14" text-decoration="underline" textLength="470">sendWeatherBroadcastIfEnabled(Context, CurrentWeatherInfo): void</text>
</g>
</a>
<text x="164.5" y="126.1104" fill="#888888" font-family="sans-serif" font-size="10" textLength="180">UMLDoclet 2.1.2, PlantUML 1.2024.3</text>
</svg>
