<?xml version="1.0" encoding="UTF-8"?>
<svg width="423px" height="224px" style="background:transparent;height:224px;width:423px" contentStyleType="text/css" preserveAspectRatio="none" version="1.1" viewBox="0 0 423 224" xmlns="http://www.w3.org/2000/svg" xmlns:xlink="http://www.w3.org/1999/xlink" zoomAndPan="magnify">
<a href="LEDColorPicker.html" target="_top" title="LEDColorPicker.html" xlink:actuate="onRequest" xlink:href="LEDColorPicker.html" xlink:show="new" xlink:title="LEDColorPicker.html" xlink:type="simple">
<g id="a">
<rect id="b" x="7" y="7" width="409" height="94.828" rx="2.5" ry="2.5" fill="#F1F1F1" stroke="#181818" stroke-width=".5" codeLine="5"/>
<ellipse cx="87.25" cy="25.969" rx="11" ry="11" fill="#ADD1B2" stroke="#181818"/>
<path d="m90.219 31.609q-0.5782 0.2969-1.2188 0.4375-0.6406 0.1562-1.3437 0.1562-2.5 0-3.8282-1.6406-1.3125-1.6562-1.3125-4.7812t1.3125-4.7813q1.3282-1.6562 3.8282-1.6562 0.7031 0 1.3437 0.1562 0.6563 0.1563 1.2188 0.4531v2.7188q-0.625-0.5781-1.2188-0.8438-0.5937-0.2812-1.2187-0.2812-1.3438 0-2.0313 1.0781-0.6875 1.0625-0.6875 3.1563 0 2.0937 0.6875 3.1718 0.6875 1.0625 2.0313 1.0625 0.625 0 1.2187-0.2656 0.5938-0.2812 1.2188-0.8594v2.7188z"/>
<text x="175.25" y="24.9951" fill="#000000" font-family="sans-serif" font-size="14" textLength="105">LEDColorPicker</text>
<text x="107.75" y="37.5791" fill="#000000" font-family="sans-serif" font-size="10" textLength="240">de.kaffeemitkoffein.tinyweatherforecastgermany</text>
<line x1="8" x2="415" y1="44.938" y2="44.938" stroke="#181818" stroke-width=".5"/>
<ellipse cx="18" cy="58.586" rx="3" ry="3" fill="#84BE84" stroke="#038048"/>
<text x="27" y="61.9326" fill="#000000" font-family="sans-serif" font-size="14" textLength="169">LEDColorPicker(Context)</text>
<ellipse cx="18" cy="74.883" rx="3" ry="3" fill="#84BE84" stroke="#038048"/>
<text x="27" y="78.2295" fill="#000000" font-family="sans-serif" font-size="14" textLength="383">setOnColorPickedListener(OnColorPickedListener): void</text>
<ellipse cx="18" cy="91.18" rx="3" ry="3" fill="#84BE84" stroke="#038048"/>
<text x="27" y="94.5264" fill="#000000" font-family="sans-serif" font-size="14" textLength="84">show(): void</text>
</g>
</a>
<a href="LEDColorPicker.OnColorPickedListener.html" target="_top" title="LEDColorPicker.OnColorPickedListener.html" xlink:actuate="onRequest" xlink:href="LEDColorPicker.OnColorPickedListener.html" xlink:show="new" xlink:title="LEDColorPicker.OnColorPickedListener.html" xlink:type="simple">
<g id="c">
<rect id="d" x="62.5" y="162" width="298" height="37.938" rx="2.5" ry="2.5" fill="#F1F1F1" stroke="#181818" stroke-width=".5" codeLine="10"/>
<ellipse cx="77.5" cy="180.97" rx="11" ry="11" fill="#B4A7E5" stroke="#181818"/>
<path d="m73.422 176.73v-2.1563h7.3906v2.1563h-2.4687v8.0781h2.4687v2.1563h-7.3906v-2.1563h2.4687v-8.0781h-2.4687z"/>
<text x="91.5" y="179.9951" fill="#000000" font-family="sans-serif" font-size="14" font-style="italic" textLength="266">LEDColorPicker.OnColorPickedListener</text>
<text x="104.5" y="192.5791" fill="#000000" font-family="sans-serif" font-size="10" font-style="italic" textLength="240">de.kaffeemitkoffein.tinyweatherforecastgermany</text>
</g>
</a>
<g id="e" stroke="#181818">
<path id="f" d="m211.5 118.21v43.78" fill="none" codeLine="12"/>
<ellipse cx="211.5" cy="110.21" rx="8" ry="8" fill="#fff"/>
<line x1="211.5" x2="211.5" y1="118.21" y2="102.21"/>
<line x1="203.5" x2="219.5" y1="110.21" y2="110.21"/>
</g>
<text x="114.5" y="214.2197" fill="#888888" font-family="sans-serif" font-size="10" textLength="180">UMLDoclet 2.1.2, PlantUML 1.2024.3</text>
</svg>
