<?xml version="1.0" encoding="UTF-8"?>
<svg width="295px" height="253px" style="background:transparent;height:253px;width:295px" contentScriptType="application/ecmascript" contentStyleType="text/css" preserveAspectRatio="none" version="1.1" viewBox="0 0 295 253" xmlns="http://www.w3.org/2000/svg" xmlns:xlink="http://www.w3.org/1999/xlink" zoomAndPan="magnify">
<defs>
<filter id="a" x="-1" y="-1" width="300%" height="300%">
<feGaussianBlur result="blurOut" stdDeviation="2.0"/>
<feColorMatrix in="blurOut" result="blurOut2" values="0 0 0 0 0 0 0 0 0 0 0 0 0 0 0 0 0 0 .4 0"/>
<feOffset dx="4.0" dy="4.0" in="blurOut2" result="blurOut3"/>
<feBlend in="SourceGraphic" in2="blurOut3"/>
</filter>
</defs>
<a href="LicenseInfo.html" target="_top" title="LicenseInfo.html" xlink:actuate="onRequest" xlink:href="LicenseInfo.html" xlink:show="new" xlink:title="LicenseInfo.html" xlink:type="simple">
<rect id="b" x="9" y="105" width="272" height="117.96" fill="#FEFECE" filter="url(#a)" stroke="#A80036" stroke-width="1.5" codeLine="5"/>
<ellipse cx="24" cy="123.97" rx="11" ry="11" fill="#ADD1B2" stroke="#A80036"/>
<path d="m26.969 129.61q-0.5782 0.2969-1.2188 0.4375-0.6406 0.1562-1.3437 0.1562-2.5 0-3.8282-1.6406-1.3125-1.6562-1.3125-4.7812t1.3125-4.7813q1.3282-1.6562 3.8282-1.6562 0.7031 0 1.3437 0.1562 0.6563 0.1563 1.2188 0.4531v2.7188q-0.625-0.5781-1.2188-0.8438-0.5937-0.2812-1.2187-0.2812-1.3438 0-2.0313 1.0781-0.6875 1.0625-0.6875 3.1563 0 2.0937 0.6875 3.1718 0.6875 1.0625 2.0313 1.0625 0.625 0 1.2187-0.2656 0.5938-0.2812 1.2188-0.8594v2.7188z"/>
<text x="119" y="122.9951" fill="#000000" font-family="sans-serif" font-size="14" textLength="78">LicenseInfo</text>
<text x="38" y="135.5791" fill="#000000" font-family="sans-serif" font-size="10" textLength="240">de.kaffeemitkoffein.tinyweatherforecastgermany</text>
<line x1="10" x2="280" y1="142.94" y2="142.94" stroke="#A80036" stroke-width="1.5"/>
<ellipse cx="20" cy="153.94" rx="3" ry="3" fill="none" stroke="#038048"/>
<text x="29" y="157.1479" fill="#000000" font-family="sans-serif" font-size="11" text-decoration="underline" textLength="107">DATA_TITLE: String</text>
<ellipse cx="20" cy="166.74" rx="3" ry="3" fill="none" stroke="#038048"/>
<text x="29" y="169.9526" fill="#000000" font-family="sans-serif" font-size="11" text-decoration="underline" textLength="166">DATA_TEXTRESOURCE: String</text>
<ellipse cx="20" cy="179.55" rx="3" ry="3" fill="none" stroke="#038048"/>
<text x="29" y="182.7573" fill="#000000" font-family="sans-serif" font-size="11" text-decoration="underline" textLength="152">DATA_BUTTONTEXT: String</text>
<line x1="10" x2="280" y1="189.35" y2="189.35" stroke="#A80036" stroke-width="1.5"/>
<polygon points="20 195.35 24 199.35 20 203.35 16 199.35" fill="#ff4" stroke="#B38D22"/>
<text x="29" y="203.562" fill="#000000" font-family="sans-serif" font-size="11" textLength="130">onCreate(Bundle): void</text>
<ellipse cx="20" cy="213.16" rx="3" ry="3" fill="#84BE84" stroke="#038048"/>
<text x="29" y="216.3667" fill="#000000" font-family="sans-serif" font-size="11" textLength="105">onClick(View): void</text>
</a>
<rect id="c" x="75.5" y="7" width="139" height="37.938" fill="#FEFECE" filter="url(#a)" stroke="#A80036" stroke-width="1.5" codeLine="13"/>
<ellipse cx="90.5" cy="25.969" rx="11" ry="11" fill="#B4A7E5" stroke="#A80036"/>
<path d="m86.422 21.734v-2.1563h7.3906v2.1563h-2.4687v8.0781h2.4687v2.1563h-7.3906v-2.1563h2.4687v-8.0781h-2.4687z"/>
<text x="104.5" y="24.9951" fill="#000000" font-family="sans-serif" font-size="14" font-style="italic" textLength="107">OnClickListener</text>
<text x="146.5" y="37.5791" fill="#000000" font-family="sans-serif" font-size="10" font-style="italic" textLength="23">View</text>
<path id="d" d="m145 65.47v39.28" fill="none" stroke="#A80036" stroke-dasharray="7.0,7.0" codeLine="15"/>
<polygon points="138 65.06 145 45.06 152 65.06" fill="none" stroke="#A80036"/>
<text x="45" y="245.2432" fill="#888888" font-family="sans-serif" font-size="10" textLength="192">UMLDoclet 2.0.15, PlantUML 1.2021.13</text>
</svg>
