<?xml version="1.0" encoding="UTF-8"?>
<svg width="295px" height="167px" style="background:transparent;height:167px;width:295px" contentScriptType="application/ecmascript" contentStyleType="text/css" preserveAspectRatio="none" version="1.1" viewBox="0 0 295 167" xmlns="http://www.w3.org/2000/svg" xmlns:xlink="http://www.w3.org/1999/xlink" zoomAndPan="magnify">
<defs>
<filter id="a" x="-1" y="-1" width="300%" height="300%">
<feGaussianBlur result="blurOut" stdDeviation="2.0"/>
<feColorMatrix in="blurOut" result="blurOut2" values="0 0 0 0 0 0 0 0 0 0 0 0 0 0 0 0 0 0 .4 0"/>
<feOffset dx="4.0" dy="4.0" in="blurOut2" result="blurOut3"/>
<feBlend in="SourceGraphic" in2="blurOut3"/>
</filter>
</defs>
<a href="LoggingActivity.html" target="_top" title="LoggingActivity.html" xlink:actuate="onRequest" xlink:href="LoggingActivity.html" xlink:show="new" xlink:title="LoggingActivity.html" xlink:type="simple">
<rect id="b" x="7" y="7" width="274" height="135.57" fill="#FEFECE" filter="url(#a)" stroke="#A80036" stroke-width="1.5" codeLine="5"/>
<ellipse cx="22.9" cy="25.969" rx="11" ry="11" fill="#ADD1B2" stroke="#A80036"/>
<path d="m25.869 31.609q-0.5782 0.2969-1.2188 0.4375-0.6406 0.1562-1.3437 0.1562-2.5 0-3.8282-1.6406-1.3125-1.6562-1.3125-4.7812t1.3125-4.7813q1.3282-1.6562 3.8282-1.6562 0.7031 0 1.3437 0.1562 0.6563 0.1563 1.2188 0.4531v2.7188q-0.625-0.5781-1.2188-0.8438-0.5937-0.2812-1.2187-0.2812-1.3438 0-2.0313 1.0781-0.6875 1.0625-0.6875 3.1563 0 2.0937 0.6875 3.1718 0.6875 1.0625 2.0313 1.0625 0.625 0 1.2187-0.2656 0.5938-0.2812 1.2188-0.8594v2.7188z"/>
<text x="106.1" y="24.9951" fill="#000000" font-family="sans-serif" font-size="14" textLength="102">LoggingActivity</text>
<text x="37.1" y="37.5791" fill="#000000" font-family="sans-serif" font-size="10" textLength="240">de.kaffeemitkoffein.tinyweatherforecastgermany</text>
<line x1="8" x2="280" y1="44.938" y2="44.938" stroke="#A80036" stroke-width="1.5"/>
<polygon points="18 50.938 22 54.938 18 58.938 14 54.938" fill="#ff4" stroke="#B38D22"/>
<text x="27" y="59.1479" fill="#000000" font-family="sans-serif" font-size="11" textLength="130">onCreate(Bundle): void</text>
<ellipse cx="18" cy="68.742" rx="3" ry="3" fill="#84BE84" stroke="#038048"/>
<text x="27" y="71.9526" fill="#000000" font-family="sans-serif" font-size="11" textLength="217">onCreateOptionsMenu(Menu): boolean</text>
<ellipse cx="18" cy="81.547" rx="3" ry="3" fill="#84BE84" stroke="#038048"/>
<text x="27" y="84.7573" fill="#000000" font-family="sans-serif" font-size="11" textLength="201">onMenuOpened(int, Menu): boolean</text>
<ellipse cx="18" cy="94.352" rx="3" ry="3" fill="#84BE84" stroke="#038048"/>
<text x="27" y="97.562" fill="#000000" font-family="sans-serif" font-size="11" textLength="196">onOptionsMenuClosed(Menu): void</text>
<ellipse cx="18" cy="107.16" rx="3" ry="3" fill="#84BE84" stroke="#038048"/>
<text x="27" y="110.3667" fill="#000000" font-family="sans-serif" font-size="11" textLength="248">onOptionsItemSelected(MenuItem): boolean</text>
<ellipse cx="18" cy="119.96" rx="3" ry="3" fill="#84BE84" stroke="#038048"/>
<text x="27" y="123.1714" fill="#000000" font-family="sans-serif" font-size="11" textLength="99">shareLogs(): void</text>
<ellipse cx="18" cy="132.77" rx="3" ry="3" fill="#84BE84" stroke="#038048"/>
<text x="27" y="135.9761" fill="#000000" font-family="sans-serif" font-size="11" textLength="132">updateActionBar(): void</text>
</a>
<text x="48" y="158.8525" fill="#888888" font-family="sans-serif" font-size="10" textLength="192">UMLDoclet 2.0.15, PlantUML 1.2021.13</text>
</svg>
