<?xml version="1.0" encoding="UTF-8"?>
<svg width="705px" height="241px" style="background:transparent;height:241px;width:705px" contentStyleType="text/css" preserveAspectRatio="none" version="1.1" viewBox="0 0 705 241" xmlns="http://www.w3.org/2000/svg" xmlns:xlink="http://www.w3.org/1999/xlink" zoomAndPan="magnify">
<a href="MainActivity.SpinnerListener.html" target="_top" title="MainActivity.SpinnerListener.html" xlink:actuate="onRequest" xlink:href="MainActivity.SpinnerListener.html" xlink:show="new" xlink:title="MainActivity.SpinnerListener.html" xlink:type="simple">
<g id="a">
<rect id="b" x="111.5" y="105" width="362" height="111.12" rx="2.5" ry="2.5" fill="#F1F1F1" stroke="#181818" stroke-width=".5" codeLine="5"/>
<ellipse cx="168.25" cy="123.97" rx="11" ry="11" fill="#ADD1B2" stroke="#181818"/>
<path d="m171.22 129.61q-0.5782 0.2969-1.2188 0.4375-0.6406 0.1562-1.3437 0.1562-2.5 0-3.8282-1.6406-1.3125-1.6562-1.3125-4.7812t1.3125-4.7813q1.3282-1.6562 3.8282-1.6562 0.7031 0 1.3437 0.1562 0.6563 0.1563 1.2188 0.4531v2.7188q-0.625-0.5781-1.2188-0.8438-0.5937-0.2812-1.2187-0.2812-1.3438 0-2.0313 1.0781-0.6875 1.0625-0.6875 3.1563 0 2.0937 0.6875 3.1718 0.6875 1.0625 2.0313 1.0625 0.625 0 1.2187-0.2656 0.5938-0.2812 1.2188-0.8594v2.7188z"/>
<text x="213.25" y="122.9951" fill="#000000" font-family="sans-serif" font-size="14" textLength="191">MainActivity.SpinnerListener</text>
<text x="188.75" y="135.5791" fill="#000000" font-family="sans-serif" font-size="10" textLength="240">de.kaffeemitkoffein.tinyweatherforecastgermany</text>
<line x1="112.5" x2="472.5" y1="142.94" y2="142.94" stroke="#181818" stroke-width=".5"/>
<ellipse cx="122.5" cy="156.59" rx="3" ry="3" fill="#84BE84" stroke="#038048"/>
<text x="131.5" y="159.9326" fill="#000000" font-family="sans-serif" font-size="14" textLength="263">onTouch(View, MotionEvent): boolean</text>
<ellipse cx="122.5" cy="172.88" rx="3" ry="3" fill="#84BE84" stroke="#038048"/>
<text x="131.5" y="176.2295" fill="#000000" font-family="sans-serif" font-size="14" textLength="336">handleItemSelected(&lt;any&gt;, View, int, long): void</text>
<ellipse cx="122.5" cy="189.18" rx="3" ry="3" fill="#84BE84" stroke="#038048"/>
<text x="131.5" y="192.5264" fill="#000000" font-family="sans-serif" font-size="14" textLength="307">onItemSelected(&lt;any&gt;, View, int, long): void</text>
<ellipse cx="122.5" cy="205.48" rx="3" ry="3" fill="#84BE84" stroke="#038048"/>
<text x="131.5" y="208.8232" fill="#000000" font-family="sans-serif" font-size="14" textLength="228">onNothingSelected(&lt;any&gt;): void</text>
</g>
</a>
<g id="c">
<rect id="d" x="7" y="7" width="151" height="37.938" rx="2.5" ry="2.5" fill="#F1F1F1" stroke="#181818" stroke-width=".5" codeLine="12"/>
<ellipse cx="22" cy="25.969" rx="11" ry="11" fill="#B4A7E5" stroke="#181818"/>
<path d="m17.922 21.734v-2.1563h7.3906v2.1563h-2.4687v8.0781h2.4687v2.1563h-7.3906v-2.1563h2.4687v-8.0781h-2.4687z"/>
<text x="36" y="24.9951" fill="#000000" font-family="sans-serif" font-size="14" font-style="italic" textLength="119">OnTouchListener</text>
<text x="84" y="37.5791" fill="#000000" font-family="sans-serif" font-size="10" font-style="italic" textLength="23">View</text>
</g>
<g id="e">
<rect id="f" x="193.5" y="7" width="198" height="37.938" rx="2.5" ry="2.5" fill="#F1F1F1" stroke="#181818" stroke-width=".5" codeLine="13"/>
<ellipse cx="208.5" cy="25.969" rx="11" ry="11" fill="#B4A7E5" stroke="#181818"/>
<path d="m204.42 21.734v-2.1563h7.3906v2.1563h-2.4687v8.0781h2.4687v2.1563h-7.3906v-2.1563h2.4687v-8.0781h-2.4687z"/>
<text x="222.5" y="24.9951" fill="#000000" font-family="sans-serif" font-size="14" font-style="italic" textLength="166">OnItemSelectedListener</text>
<text x="274.5" y="37.5791" fill="#000000" font-family="sans-serif" font-size="10" font-style="italic" textLength="62">AdapterView</text>
</g>
<a href="MainActivity.html" target="_top" title="MainActivity.html" xlink:actuate="onRequest" xlink:href="MainActivity.html" xlink:show="new" xlink:title="MainActivity.html" xlink:type="simple">
<g id="g">
<rect id="h" x="426.5" y="7" width="272" height="37.938" rx="2.5" ry="2.5" fill="#F1F1F1" stroke="#181818" stroke-width=".5" codeLine="14"/>
<ellipse cx="441.5" cy="25.969" rx="11" ry="11" fill="#ADD1B2" stroke="#181818"/>
<path d="m444.47 31.609q-0.5782 0.2969-1.2188 0.4375-0.6406 0.1562-1.3437 0.1562-2.5 0-3.8282-1.6406-1.3125-1.6562-1.3125-4.7812t1.3125-4.7813q1.3282-1.6562 3.8282-1.6562 0.7031 0 1.3437 0.1562 0.6563 0.1563 1.2188 0.4531v2.7188q-0.625-0.5781-1.2188-0.8438-0.5937-0.2812-1.2187-0.2812-1.3438 0-2.0313 1.0781-0.6875 1.0625-0.6875 3.1563 0 2.0937 0.6875 3.1718 0.6875 1.0625 2.0313 1.0625 0.625 0 1.2187-0.2656 0.5938-0.2812 1.2188-0.8594v2.7188z"/>
<text x="536" y="24.9951" fill="#000000" font-family="sans-serif" font-size="14" textLength="79">MainActivity</text>
<text x="455.5" y="37.5791" fill="#000000" font-family="sans-serif" font-size="10" textLength="240">de.kaffeemitkoffein.tinyweatherforecastgermany</text>
</g>
</a>
<g id="i" fill="none" stroke="#181818">
<path id="j" d="m126.48 54.754c24.49 15.45 45.756 28.866 79.586 50.216" stroke-dasharray="7.0,7.0" codeLine="16"/>
<polygon points="111.26 45.15 123.28 59.829 129.69 49.68"/>
</g>
<g id="k" fill="none" stroke="#181818">
<path id="l" d="m292.5 63.15v41.82" stroke-dasharray="7.0,7.0" codeLine="17"/>
<polygon points="292.5 45.15 286.5 63.15 298.5 63.15"/>
</g>
<g id="m" stroke="#181818">
<path id="n" d="m511.44 52.056c-31.44 15.42-64.035 31.424-107.6 52.804" fill="none" codeLine="18"/>
<ellipse cx="518.63" cy="48.533" rx="8" ry="8" fill="#fff"/>
<line x1="511.44" x2="525.81" y1="52.056" y2="45.01"/>
<line x1="515.1" x2="522.15" y1="41.35" y2="55.715"/>
</g>
<text x="255.75" y="231.4072" fill="#888888" font-family="sans-serif" font-size="10" textLength="180">UMLDoclet 2.1.2, PlantUML 1.2024.3</text>
</svg>
