<?xml version="1.0" encoding="UTF-8"?>
<svg width="448px" height="315px" style="background:transparent;height:315px;width:448px" contentStyleType="text/css" preserveAspectRatio="none" version="1.1" viewBox="0 0 448 315" xmlns="http://www.w3.org/2000/svg" xmlns:xlink="http://www.w3.org/1999/xlink" zoomAndPan="magnify">
<a href="Polygon.html" target="_top" title="Polygon.html" xlink:actuate="onRequest" xlink:href="Polygon.html" xlink:show="new" xlink:title="Polygon.html" xlink:type="simple">
<g id="a">
<rect id="b" x="7" y="7" width="427" height="282.09" rx="2.5" ry="2.5" fill="#F1F1F1" stroke="#181818" stroke-width=".5" codeLine="5"/>
<ellipse cx="96.25" cy="25.969" rx="11" ry="11" fill="#ADD1B2" stroke="#181818"/>
<path d="m99.219 31.609q-0.5782 0.2969-1.2188 0.4375-0.6406 0.1562-1.3437 0.1562-2.5 0-3.8282-1.6406-1.3125-1.6562-1.3125-4.7812t1.3125-4.7813q1.3282-1.6562 3.8282-1.6562 0.7031 0 1.3437 0.1562 0.6563 0.1563 1.2188 0.4531v2.7188q-0.625-0.5781-1.2188-0.8438-0.5937-0.2812-1.2187-0.2812-1.3438 0-2.0313 1.0781-0.6875 1.0625-0.6875 3.1563 0 2.0937 0.6875 3.1718 0.6875 1.0625 2.0313 1.0625 0.625 0 1.2187-0.2656 0.5938-0.2812 1.2188-0.8594v2.7188z"/>
<text x="209.25" y="24.9951" fill="#000000" font-family="sans-serif" font-size="14" textLength="55">Polygon</text>
<text x="116.75" y="37.5791" fill="#000000" font-family="sans-serif" font-size="10" textLength="240">de.kaffeemitkoffein.tinyweatherforecastgermany</text>
<line x1="8" x2="433" y1="44.938" y2="44.938" stroke="#181818" stroke-width=".5"/>
<ellipse cx="18" cy="58.586" rx="3" ry="3" fill="none" stroke="#038048"/>
<text x="27" y="61.9326" fill="#000000" font-family="sans-serif" font-size="14" textLength="112">polygonX: float[]</text>
<ellipse cx="18" cy="74.883" rx="3" ry="3" fill="none" stroke="#038048"/>
<text x="27" y="78.2295" fill="#000000" font-family="sans-serif" font-size="14" textLength="112">polygonY: float[]</text>
<ellipse cx="18" cy="91.18" rx="3" ry="3" fill="none" stroke="#038048"/>
<text x="27" y="94.5264" fill="#000000" font-family="sans-serif" font-size="14" textLength="138">identifier_link: String</text>
<line x1="8" x2="433" y1="101.83" y2="101.83" stroke="#181818" stroke-width=".5"/>
<ellipse cx="18" cy="115.48" rx="3" ry="3" fill="#84BE84" stroke="#038048"/>
<text x="27" y="118.8232" fill="#000000" font-family="sans-serif" font-size="14" textLength="82">Polygon(int)</text>
<ellipse cx="18" cy="131.77" rx="3" ry="3" fill="#84BE84" stroke="#038048"/>
<text x="27" y="135.1201" fill="#000000" font-family="sans-serif" font-size="14" textLength="105">Polygon(String)</text>
<ellipse cx="18" cy="148.07" rx="3" ry="3" fill="#84BE84" stroke="#038048"/>
<text x="27" y="151.417" fill="#000000" font-family="sans-serif" font-size="14" textLength="199">Polygon(float[], float[], String)</text>
<ellipse cx="18" cy="164.37" rx="3" ry="3" fill="#84BE84" stroke="#038048"/>
<text x="27" y="167.7139" fill="#000000" font-family="sans-serif" font-size="14" textLength="180">Polygon(JSONArray, String)</text>
<ellipse cx="18" cy="180.66" rx="3" ry="3" fill="#84BE84" stroke="#038048"/>
<text x="27" y="184.0107" fill="#000000" font-family="sans-serif" font-size="14" textLength="152">getPolygonX(int): float</text>
<ellipse cx="18" cy="196.96" rx="3" ry="3" fill="#84BE84" stroke="#038048"/>
<text x="27" y="200.3076" fill="#000000" font-family="sans-serif" font-size="14" textLength="152">getPolygonY(int): float</text>
<ellipse cx="18" cy="213.26" rx="3" ry="3" fill="#84BE84" stroke="#038048"/>
<text x="27" y="216.6045" fill="#000000" font-family="sans-serif" font-size="14" textLength="194">getPolygonXCentroid(): float</text>
<ellipse cx="18" cy="229.55" rx="3" ry="3" fill="#84BE84" stroke="#038048"/>
<text x="27" y="232.9014" fill="#000000" font-family="sans-serif" font-size="14" textLength="194">getPolygonYCentroid(): float</text>
<ellipse cx="18" cy="245.85" rx="3" ry="3" fill="#84BE84" stroke="#038048"/>
<text x="27" y="249.1982" fill="#000000" font-family="sans-serif" font-size="14" textLength="219">isInPolygon(float, float): boolean</text>
<ellipse cx="18" cy="262.15" rx="3" ry="3" fill="#84BE84" stroke="#038048"/>
<text x="27" y="265.4951" fill="#000000" font-family="sans-serif" font-size="14" textLength="269">isInPolygon(WeatherLocation): boolean</text>
<ellipse cx="18" cy="278.45" rx="3" ry="3" fill="#84BE84" stroke="#038048"/>
<text x="27" y="281.792" fill="#000000" font-family="sans-serif" font-size="14" text-decoration="underline" textLength="401">getPolygonArraylistFromString(String): ArrayList&lt;Polygon&gt;</text>
</g>
</a>
<text x="130" y="305.376" fill="#888888" font-family="sans-serif" font-size="10" textLength="180">UMLDoclet 2.1.2, PlantUML 1.2024.3</text>
</svg>
