<?xml version="1.0" encoding="UTF-8"?>
<svg width="296px" height="586px" style="background:transparent;height:586px;width:296px" contentScriptType="application/ecmascript" contentStyleType="text/css" preserveAspectRatio="none" version="1.1" viewBox="0 0 296 586" xmlns="http://www.w3.org/2000/svg" xmlns:xlink="http://www.w3.org/1999/xlink" zoomAndPan="magnify">
<defs>
<filter id="a" x="-1" y="-1" width="300%" height="300%">
<feGaussianBlur result="blurOut" stdDeviation="2.0"/>
<feColorMatrix in="blurOut" result="blurOut2" values="0 0 0 0 0 0 0 0 0 0 0 0 0 0 0 0 0 0 .4 0"/>
<feOffset dx="4.0" dy="4.0" in="blurOut2" result="blurOut3"/>
<feBlend in="SourceGraphic" in2="blurOut3"/>
</filter>
</defs>
<a href="PrivateLog.html" target="_top" title="PrivateLog.html" xlink:actuate="onRequest" xlink:href="PrivateLog.html" xlink:show="new" xlink:title="PrivateLog.html" xlink:type="simple">
<rect id="b" x="7" y="7" width="275" height="450.88" fill="#FEFECE" filter="url(#a)" stroke="#A80036" stroke-width="1.5" codeLine="5"/>
<ellipse cx="23.35" cy="25.969" rx="11" ry="11" fill="#ADD1B2" stroke="#A80036"/>
<path d="m26.319 31.609q-0.5782 0.2969-1.2188 0.4375-0.6406 0.1562-1.3437 0.1562-2.5 0-3.8282-1.6406-1.3125-1.6562-1.3125-4.7812t1.3125-4.7813q1.3282-1.6562 3.8282-1.6562 0.7031 0 1.3437 0.1562 0.6563 0.1563 1.2188 0.4531v2.7188q-0.625-0.5781-1.2188-0.8438-0.5937-0.2812-1.2187-0.2812-1.3438 0-2.0313 1.0781-0.6875 1.0625-0.6875 3.1563 0 2.0937 0.6875 3.1718 0.6875 1.0625 2.0313 1.0625 0.625 0 1.2187-0.2656 0.5938-0.2812 1.2188-0.8594v2.7188z"/>
<text x="122.15" y="24.9951" fill="#000000" font-family="sans-serif" font-size="14" textLength="71">PrivateLog</text>
<text x="37.65" y="37.5791" fill="#000000" font-family="sans-serif" font-size="10" textLength="240">de.kaffeemitkoffein.tinyweatherforecastgermany</text>
<line x1="8" x2="281" y1="44.938" y2="44.938" stroke="#A80036" stroke-width="1.5"/>
<ellipse cx="18" cy="55.938" rx="3" ry="3" fill="none" stroke="#038048"/>
<text x="27" y="59.1479" fill="#000000" font-family="sans-serif" font-size="11" text-decoration="underline" textLength="110">LOGHANDLE: String</text>
<ellipse cx="18" cy="68.742" rx="3" ry="3" fill="none" stroke="#038048"/>
<text x="27" y="71.9526" fill="#000000" font-family="sans-serif" font-size="11" text-decoration="underline" textLength="119">LOGFILENAME: String</text>
<ellipse cx="18" cy="81.547" rx="3" ry="3" fill="none" stroke="#038048"/>
<text x="27" y="84.7573" fill="#000000" font-family="sans-serif" font-size="11" text-decoration="underline" textLength="169">CLIPBOARD_LOGLABEL: String</text>
<ellipse cx="18" cy="94.352" rx="3" ry="3" fill="none" stroke="#038048"/>
<text x="27" y="97.562" fill="#000000" font-family="sans-serif" font-size="11" text-decoration="underline" textLength="183">CLIPBOARD_MIMETYPES: String[]</text>
<ellipse cx="18" cy="107.16" rx="3" ry="3" fill="none" stroke="#038048"/>
<text x="27" y="110.3667" fill="#000000" font-family="sans-serif" font-size="11" text-decoration="underline" textLength="140">LOG_MAX_FILESIZE: long</text>
<ellipse cx="18" cy="119.96" rx="3" ry="3" fill="none" stroke="#038048"/>
<text x="27" y="123.1714" fill="#000000" font-family="sans-serif" font-size="11" text-decoration="underline" textLength="69">MAIN: String</text>
<ellipse cx="18" cy="132.77" rx="3" ry="3" fill="none" stroke="#038048"/>
<text x="27" y="135.9761" fill="#000000" font-family="sans-serif" font-size="11" text-decoration="underline" textLength="89">SERVICE: String</text>
<ellipse cx="18" cy="145.57" rx="3" ry="3" fill="none" stroke="#038048"/>
<text x="27" y="148.7808" fill="#000000" font-family="sans-serif" font-size="11" text-decoration="underline" textLength="92">ONBOOT: String</text>
<ellipse cx="18" cy="158.38" rx="3" ry="3" fill="none" stroke="#038048"/>
<text x="27" y="161.5854" fill="#000000" font-family="sans-serif" font-size="11" text-decoration="underline" textLength="59">GB: String</text>
<ellipse cx="18" cy="171.18" rx="3" ry="3" fill="none" stroke="#038048"/>
<text x="27" y="174.3901" fill="#000000" font-family="sans-serif" font-size="11" text-decoration="underline" textLength="93">UPDATER: String</text>
<ellipse cx="18" cy="183.98" rx="3" ry="3" fill="none" stroke="#038048"/>
<text x="27" y="187.1948" fill="#000000" font-family="sans-serif" font-size="11" text-decoration="underline" textLength="71">DATA: String</text>
<ellipse cx="18" cy="196.79" rx="3" ry="3" fill="none" stroke="#038048"/>
<text x="27" y="199.9995" fill="#000000" font-family="sans-serif" font-size="11" text-decoration="underline" textLength="101">WARNINGS: String</text>
<ellipse cx="18" cy="209.59" rx="3" ry="3" fill="none" stroke="#038048"/>
<text x="27" y="212.8042" fill="#000000" font-family="sans-serif" font-size="11" text-decoration="underline" textLength="85">WIDGET: String</text>
<ellipse cx="18" cy="222.4" rx="3" ry="3" fill="none" stroke="#038048"/>
<text x="27" y="225.6089" fill="#000000" font-family="sans-serif" font-size="11" text-decoration="underline" textLength="78">TEXTS: String</text>
<ellipse cx="18" cy="235.2" rx="3" ry="3" fill="none" stroke="#038048"/>
<text x="27" y="238.4136" fill="#000000" font-family="sans-serif" font-size="11" text-decoration="underline" textLength="99">STATIONS: String</text>
<ellipse cx="18" cy="248.01" rx="3" ry="3" fill="none" stroke="#038048"/>
<text x="27" y="251.2183" fill="#000000" font-family="sans-serif" font-size="11" text-decoration="underline" textLength="78">RADAR: String</text>
<ellipse cx="18" cy="260.81" rx="3" ry="3" fill="none" stroke="#038048"/>
<text x="27" y="264.0229" fill="#000000" font-family="sans-serif" font-size="11" text-decoration="underline" textLength="84">ALERTS: String</text>
<ellipse cx="18" cy="273.62" rx="3" ry="3" fill="none" stroke="#038048"/>
<text x="27" y="276.8276" fill="#000000" font-family="sans-serif" font-size="11" text-decoration="underline" textLength="48">INFO: int</text>
<ellipse cx="18" cy="286.42" rx="3" ry="3" fill="none" stroke="#038048"/>
<text x="27" y="289.6323" fill="#000000" font-family="sans-serif" font-size="11" text-decoration="underline" textLength="53">WARN: int</text>
<ellipse cx="18" cy="299.23" rx="3" ry="3" fill="none" stroke="#038048"/>
<text x="27" y="302.437" fill="#000000" font-family="sans-serif" font-size="11" text-decoration="underline" textLength="43">ERR: int</text>
<ellipse cx="18" cy="312.03" rx="3" ry="3" fill="none" stroke="#038048"/>
<text x="27" y="315.2417" fill="#000000" font-family="sans-serif" font-size="11" text-decoration="underline" textLength="55">FATAL: int</text>
<line x1="8" x2="281" y1="321.84" y2="321.84" stroke="#A80036" stroke-width="1.5"/>
<ellipse cx="18" cy="332.84" rx="3" ry="3" fill="#84BE84" stroke="#038048"/>
<text x="27" y="336.0464" fill="#000000" font-family="sans-serif" font-size="11" text-decoration="underline" textLength="138">getLogs(Context): String</text>
<ellipse cx="18" cy="345.64" rx="3" ry="3" fill="#84BE84" stroke="#038048"/>
<text x="27" y="348.8511" fill="#000000" font-family="sans-serif" font-size="11" text-decoration="underline" textLength="226">getLogsList(Context): ArrayList&lt;String&gt;</text>
<ellipse cx="18" cy="358.45" rx="3" ry="3" fill="#84BE84" stroke="#038048"/>
<text x="27" y="361.6558" fill="#000000" font-family="sans-serif" font-size="11" text-decoration="underline" textLength="162">getLogFilesize(Context): long</text>
<ellipse cx="18" cy="371.25" rx="3" ry="3" fill="#84BE84" stroke="#038048"/>
<text x="27" y="374.4604" fill="#000000" font-family="sans-serif" font-size="11" text-decoration="underline" textLength="227">log(Context, String, int, String): boolean</text>
<ellipse cx="18" cy="384.05" rx="3" ry="3" fill="#84BE84" stroke="#038048"/>
<text x="27" y="387.2651" fill="#000000" font-family="sans-serif" font-size="11" text-decoration="underline" textLength="225">copyLogsToClipboard(Context): boolean</text>
<ellipse cx="18" cy="396.86" rx="3" ry="3" fill="#84BE84" stroke="#038048"/>
<text x="27" y="400.0698" fill="#000000" font-family="sans-serif" font-size="11" text-decoration="underline" textLength="159">clearLogs(Context): boolean</text>
<ellipse cx="18" cy="409.66" rx="3" ry="3" fill="#84BE84" stroke="#038048"/>
<text x="27" y="412.8745" fill="#000000" font-family="sans-serif" font-size="11" text-decoration="underline" textLength="129">getLogUri(Context): Uri</text>
<ellipse cx="18" cy="422.47" rx="3" ry="3" fill="#84BE84" stroke="#038048"/>
<text x="27" y="425.6792" fill="#000000" font-family="sans-serif" font-size="11" text-decoration="underline" textLength="202">getDebugInfoString(Context): String</text>
<ellipse cx="18" cy="435.27" rx="3" ry="3" fill="#84BE84" stroke="#038048"/>
<text x="27" y="438.4839" fill="#000000" font-family="sans-serif" font-size="11" text-decoration="underline" textLength="166">getInfoString(Context): String</text>
<ellipse cx="18" cy="448.08" rx="3" ry="3" fill="#84BE84" stroke="#038048"/>
<text x="27" y="451.2886" fill="#000000" font-family="sans-serif" font-size="11" text-decoration="underline" textLength="249">getCurrentStationInfoString(Context): String</text>
</a>
<a href="PrivateLog.AsyncGetLogs.html" target="_top" title="PrivateLog.AsyncGetLogs.html" xlink:actuate="onRequest" xlink:href="PrivateLog.AsyncGetLogs.html" xlink:show="new" xlink:title="PrivateLog.AsyncGetLogs.html" xlink:type="simple">
<rect id="c" x="8.5" y="518" width="272" height="37.938" fill="#FEFECE" filter="url(#a)" stroke="#A80036" stroke-width="1.5" codeLine="38"/>
<ellipse cx="23.5" cy="536.97" rx="11" ry="11" fill="#ADD1B2" stroke="#A80036"/>
<path d="m26.469 542.61q-0.5782 0.2969-1.2188 0.4375-0.6406 0.1562-1.3437 0.1562-2.5 0-3.8282-1.6406-1.3125-1.6562-1.3125-4.7812t1.3125-4.7813q1.3282-1.6562 3.8282-1.6562 0.7031 0 1.3437 0.1562 0.6563 0.1563 1.2188 0.4531v2.7188q-0.625-0.5781-1.2188-0.8438-0.5937-0.2812-1.2187-0.2812-1.3438 0-2.0313 1.0781-0.6875 1.0625-0.6875 3.1563 0 2.0937 0.6875 3.1718 0.6875 1.0625 2.0313 1.0625 0.625 0 1.2187-0.2656 0.5938-0.2812 1.2188-0.8594v2.7188z"/>
<text x="70.5" y="535.9951" fill="#000000" font-family="sans-serif" font-size="14" textLength="174">PrivateLog.AsyncGetLogs</text>
<text x="37.5" y="548.5791" fill="#000000" font-family="sans-serif" font-size="10" textLength="240">de.kaffeemitkoffein.tinyweatherforecastgermany</text>
</a>
<path id="d" d="m144.5 473.14v44.68" fill="none" stroke="#A80036" codeLine="40"/>
<ellipse cx="144.5" cy="466.1" rx="8" ry="8" fill="#fff" stroke="#A80036"/>
<line x1="144.5" x2="144.5" y1="474.1" y2="458.1" stroke="#A80036"/>
<line x1="136.5" x2="152.5" y1="466.1" y2="466.1" stroke="#A80036"/>
<text x="45.5" y="578.2197" fill="#888888" font-family="sans-serif" font-size="10" textLength="192">UMLDoclet 2.0.15, PlantUML 1.2021.13</text>
</svg>
