<?xml version="1.0" encoding="UTF-8"?>
<svg width="295px" height="283px" style="background:transparent;height:283px;width:295px" contentStyleType="text/css" preserveAspectRatio="none" version="1.1" viewBox="0 0 295 283" xmlns="http://www.w3.org/2000/svg" xmlns:xlink="http://www.w3.org/1999/xlink" zoomAndPan="magnify">
<a href="RadarMN.html" target="_top" title="RadarMN.html" xlink:actuate="onRequest" xlink:href="RadarMN.html" xlink:show="new" xlink:title="RadarMN.html" xlink:type="simple">
<g id="a">
<rect id="b" x="7" y="7" width="274" height="249.5" rx="2.5" ry="2.5" fill="#F1F1F1" stroke="#181818" stroke-width=".5" codeLine="5"/>
<ellipse cx="22.9" cy="25.969" rx="11" ry="11" fill="#ADD1B2" stroke="#181818"/>
<path d="m25.869 31.609q-0.5782 0.2969-1.2188 0.4375-0.6406 0.1562-1.3437 0.1562-2.5 0-3.8282-1.6406-1.3125-1.6562-1.3125-4.7812t1.3125-4.7813q1.3282-1.6562 3.8282-1.6562 0.7031 0 1.3437 0.1562 0.6563 0.1563 1.2188 0.4531v2.7188q-0.625-0.5781-1.2188-0.8438-0.5937-0.2812-1.2187-0.2812-1.3438 0-2.0313 1.0781-0.6875 1.0625-0.6875 3.1563 0 2.0937 0.6875 3.1718 0.6875 1.0625 2.0313 1.0625 0.625 0 1.2187-0.2656 0.5938-0.2812 1.2188-0.8594v2.7188z"/>
<text x="126.1" y="24.9951" fill="#000000" font-family="sans-serif" font-size="14" textLength="62">RadarMN</text>
<text x="37.1" y="37.5791" fill="#000000" font-family="sans-serif" font-size="10" textLength="240">de.kaffeemitkoffein.tinyweatherforecastgermany</text>
<line x1="8" x2="280" y1="44.938" y2="44.938" stroke="#181818" stroke-width=".5"/>
<ellipse cx="18" cy="58.586" rx="3" ry="3" fill="none" stroke="#038048"/>
<text x="27" y="61.9326" fill="#000000" font-family="sans-serif" font-size="14" text-decoration="underline" textLength="242">RADARMAP_PIXEL_FIXEDWIDTH: int</text>
<ellipse cx="18" cy="74.883" rx="3" ry="3" fill="none" stroke="#038048"/>
<text x="27" y="78.2295" fill="#000000" font-family="sans-serif" font-size="14" text-decoration="underline" textLength="248">RADARMAP_PIXEL_FIXEDHEIGHT: int</text>
<ellipse cx="18" cy="91.18" rx="3" ry="3" fill="none" stroke="#038048"/>
<text x="27" y="94.5264" fill="#000000" font-family="sans-serif" font-size="14" text-decoration="underline" textLength="193">RADARMAP_BYTESIZE: long</text>
<line x1="8" x2="280" y1="101.83" y2="101.83" stroke="#181818" stroke-width=".5"/>
<ellipse cx="18" cy="115.48" rx="3" ry="3" fill="#84BE84" stroke="#038048"/>
<text x="27" y="118.8232" fill="#000000" font-family="sans-serif" font-size="14" text-decoration="underline" textLength="156">getGeoWidth(int): float</text>
<ellipse cx="18" cy="131.77" rx="3" ry="3" fill="#84BE84" stroke="#038048"/>
<text x="27" y="135.1201" fill="#000000" font-family="sans-serif" font-size="14" text-decoration="underline" textLength="162">getGeoHeight(int): float</text>
<ellipse cx="18" cy="148.07" rx="3" ry="3" fill="#84BE84" stroke="#038048"/>
<text x="27" y="151.417" fill="#000000" font-family="sans-serif" font-size="14" text-decoration="underline" textLength="188">getGeoXRowStart(int): float</text>
<ellipse cx="18" cy="164.37" rx="3" ry="3" fill="#84BE84" stroke="#038048"/>
<text x="27" y="167.7139" fill="#000000" font-family="sans-serif" font-size="14" text-decoration="underline" textLength="151">getGeoX(int, int): float</text>
<ellipse cx="18" cy="180.66" rx="3" ry="3" fill="#84BE84" stroke="#038048"/>
<text x="27" y="184.0107" fill="#000000" font-family="sans-serif" font-size="14" text-decoration="underline" textLength="185">getGeoYStartTop(int): float</text>
<ellipse cx="18" cy="196.96" rx="3" ry="3" fill="#84BE84" stroke="#038048"/>
<text x="27" y="200.3076" fill="#000000" font-family="sans-serif" font-size="14" text-decoration="underline" textLength="151">getGeoY(int, int): float</text>
<ellipse cx="18" cy="213.26" rx="3" ry="3" fill="#84BE84" stroke="#038048"/>
<text x="27" y="216.6045" fill="#000000" font-family="sans-serif" font-size="14" text-decoration="underline" textLength="108">getPixels(): int[]</text>
<ellipse cx="18" cy="229.55" rx="3" ry="3" fill="#84BE84" stroke="#038048"/>
<text x="27" y="232.9014" fill="#000000" font-family="sans-serif" font-size="14" text-decoration="underline" textLength="156">getPixels(Bitmap): int[]</text>
<ellipse cx="18" cy="245.85" rx="3" ry="3" fill="#84BE84" stroke="#038048"/>
<text x="27" y="249.1982" fill="#000000" font-family="sans-serif" font-size="14" text-decoration="underline" textLength="180">getData(Context, int): int[]</text>
</g>
</a>
<text x="53.5" y="272.7822" fill="#888888" font-family="sans-serif" font-size="10" textLength="180">UMLDoclet 2.1.2, PlantUML 1.2024.3</text>
</svg>
