<?xml version="1.0" encoding="UTF-8"?>
<svg width="600px" height="381px" style="background:transparent;height:381px;width:600px" contentScriptType="application/ecmascript" contentStyleType="text/css" preserveAspectRatio="none" version="1.1" viewBox="0 0 600 381" xmlns="http://www.w3.org/2000/svg" xmlns:xlink="http://www.w3.org/1999/xlink" zoomAndPan="magnify">
<defs>
<filter id="a" x="-1" y="-1" width="300%" height="300%">
<feGaussianBlur result="blurOut" stdDeviation="2.0"/>
<feColorMatrix in="blurOut" result="blurOut2" values="0 0 0 0 0 0 0 0 0 0 0 0 0 0 0 0 0 0 .4 0"/>
<feOffset dx="4.0" dy="4.0" in="blurOut2" result="blurOut3"/>
<feBlend in="SourceGraphic" in2="blurOut3"/>
</filter>
</defs>
<a href="Radarmap.html" target="_top" title="Radarmap.html" xlink:actuate="onRequest" xlink:href="Radarmap.html" xlink:show="new" xlink:title="Radarmap.html" xlink:type="simple">
<rect id="b" x="160" y="7" width="272" height="246.01" fill="#FEFECE" filter="url(#a)" stroke="#A80036" stroke-width="1.5" codeLine="5"/>
<ellipse cx="175" cy="25.969" rx="11" ry="11" fill="#ADD1B2" stroke="#A80036"/>
<path d="m177.97 31.609q-0.5782 0.2969-1.2188 0.4375-0.6406 0.1562-1.3437 0.1562-2.5 0-3.8282-1.6406-1.3125-1.6562-1.3125-4.7812t1.3125-4.7813q1.3282-1.6562 3.8282-1.6562 0.7031 0 1.3437 0.1562 0.6563 0.1563 1.2188 0.4531v2.7188q-0.625-0.5781-1.2188-0.8438-0.5937-0.2812-1.2187-0.2812-1.3438 0-2.0313 1.0781-0.6875 1.0625-0.6875 3.1563 0 2.0937 0.6875 3.1718 0.6875 1.0625 2.0313 1.0625 0.625 0 1.2187-0.2656 0.5938-0.2812 1.2188-0.8594v2.7188z"/>
<text x="274" y="24.9951" fill="#000000" font-family="sans-serif" font-size="14" textLength="70">Radarmap</text>
<text x="189" y="37.5791" fill="#000000" font-family="sans-serif" font-size="10" textLength="240">de.kaffeemitkoffein.tinyweatherforecastgermany</text>
<line x1="161" x2="431" y1="44.938" y2="44.938" stroke="#A80036" stroke-width="1.5"/>
<ellipse cx="171" cy="55.938" rx="3" ry="3" fill="none" stroke="#038048"/>
<text x="180" y="59.1479" fill="#000000" font-family="sans-serif" font-size="11" text-decoration="underline" textLength="145">RADAR_DATAINTERVAL: int</text>
<ellipse cx="171" cy="68.742" rx="3" ry="3" fill="none" stroke="#038048"/>
<text x="180" y="71.9526" fill="#000000" font-family="sans-serif" font-size="11" text-decoration="underline" textLength="102">RAINCOLORS: int[]</text>
<ellipse cx="171" cy="81.547" rx="3" ry="3" fill="none" stroke="#038048"/>
<text x="180" y="84.7573" fill="#000000" font-family="sans-serif" font-size="11" text-decoration="underline" textLength="109">DBZVALUES: float[]</text>
<ellipse cx="171" cy="94.352" rx="3" ry="3" fill="none" stroke="#038048"/>
<text x="180" y="97.562" fill="#000000" font-family="sans-serif" font-size="11" text-decoration="underline" textLength="82">CLUTTER: byte</text>
<ellipse cx="171" cy="107.16" rx="3" ry="3" fill="none" stroke="#038048"/>
<text x="180" y="110.3667" fill="#000000" font-family="sans-serif" font-size="11" text-decoration="underline" textLength="69">ERROR: byte</text>
<ellipse cx="171" cy="119.96" rx="3" ry="3" fill="none" stroke="#038048"/>
<text x="180" y="123.1714" fill="#000000" font-family="sans-serif" font-size="11" textLength="100">highestDBZ: float</text>
<ellipse cx="171" cy="132.77" rx="3" ry="3" fill="none" stroke="#038048"/>
<text x="180" y="135.9761" fill="#000000" font-family="sans-serif" font-size="11" textLength="100">highestByte: float</text>
<line x1="161" x2="431" y1="142.57" y2="142.57" stroke="#A80036" stroke-width="1.5"/>
<ellipse cx="171" cy="153.57" rx="3" ry="3" fill="#84BE84" stroke="#038048"/>
<text x="180" y="156.7808" fill="#000000" font-family="sans-serif" font-size="11" textLength="147">Radarmap(RawRadarmap)</text>
<ellipse cx="171" cy="166.38" rx="3" ry="3" fill="#84BE84" stroke="#038048"/>
<text x="180" y="169.5854" fill="#000000" font-family="sans-serif" font-size="11" textLength="92">XLeftGeo(): float</text>
<ellipse cx="171" cy="179.18" rx="3" ry="3" fill="#84BE84" stroke="#038048"/>
<text x="180" y="182.3901" fill="#000000" font-family="sans-serif" font-size="11" textLength="92">YTopGeo(): float</text>
<ellipse cx="171" cy="191.98" rx="3" ry="3" fill="#84BE84" stroke="#038048"/>
<text x="180" y="195.1948" fill="#000000" font-family="sans-serif" font-size="11" textLength="99">XRightGeo(): float</text>
<ellipse cx="171" cy="204.79" rx="3" ry="3" fill="#84BE84" stroke="#038048"/>
<text x="180" y="207.9995" fill="#000000" font-family="sans-serif" font-size="11" textLength="112">YBottomGeo(): float</text>
<ellipse cx="171" cy="217.59" rx="3" ry="3" fill="#84BE84" stroke="#038048"/>
<text x="180" y="220.8042" fill="#000000" font-family="sans-serif" font-size="11" textLength="150">radarmapWidthGeo(): float</text>
<ellipse cx="171" cy="230.4" rx="3" ry="3" fill="#84BE84" stroke="#038048"/>
<text x="180" y="233.6089" fill="#000000" font-family="sans-serif" font-size="11" textLength="156">radarmapHeightGeo(): float</text>
<ellipse cx="171" cy="243.2" rx="3" ry="3" fill="#84BE84" stroke="#038048"/>
<text x="180" y="246.4136" fill="#000000" font-family="sans-serif" font-size="11" textLength="158">getRadarMapColor(byte): int</text>
</a>
<a href="Radarmap.FormatVersion.html" target="_top" title="Radarmap.FormatVersion.html" xlink:actuate="onRequest" xlink:href="Radarmap.FormatVersion.html" xlink:show="new" xlink:title="Radarmap.FormatVersion.html" xlink:type="simple">
<rect id="c" x="7" y="313" width="272" height="37.938" fill="#FEFECE" filter="url(#a)" stroke="#A80036" stroke-width="1.5" codeLine="22"/>
<ellipse cx="22" cy="331.97" rx="11" ry="11" fill="#ADD1B2" stroke="#A80036"/>
<path d="m24.969 337.61q-0.5782 0.2969-1.2188 0.4375-0.6406 0.1562-1.3437 0.1562-2.5 0-3.8282-1.6406-1.3125-1.6562-1.3125-4.7812t1.3125-4.7813q1.3282-1.6562 3.8282-1.6562 0.7031 0 1.3437 0.1562 0.6563 0.1563 1.2188 0.4531v2.7188q-0.625-0.5781-1.2188-0.8438-0.5937-0.2812-1.2187-0.2812-1.3438 0-2.0313 1.0781-0.6875 1.0625-0.6875 3.1563 0 2.0937 0.6875 3.1718 0.6875 1.0625 2.0313 1.0625 0.625 0 1.2187-0.2656 0.5938-0.2812 1.2188-0.8594v2.7188z"/>
<text x="69" y="330.9951" fill="#000000" font-family="sans-serif" font-size="14" textLength="174">Radarmap.FormatVersion</text>
<text x="36" y="343.5791" fill="#000000" font-family="sans-serif" font-size="10" textLength="240">de.kaffeemitkoffein.tinyweatherforecastgermany</text>
</a>
<a href="Radarmap.Resolution.html" target="_top" title="Radarmap.Resolution.html" xlink:actuate="onRequest" xlink:href="Radarmap.Resolution.html" xlink:show="new" xlink:title="Radarmap.Resolution.html" xlink:type="simple">
<rect id="d" x="314" y="313" width="272" height="37.938" fill="#FEFECE" filter="url(#a)" stroke="#A80036" stroke-width="1.5" codeLine="23"/>
<ellipse cx="329" cy="331.97" rx="11" ry="11" fill="#ADD1B2" stroke="#A80036"/>
<path d="m331.97 337.61q-0.5782 0.2969-1.2188 0.4375-0.6406 0.1562-1.3437 0.1562-2.5 0-3.8282-1.6406-1.3125-1.6562-1.3125-4.7812t1.3125-4.7813q1.3282-1.6562 3.8282-1.6562 0.7031 0 1.3437 0.1562 0.6563 0.1563 1.2188 0.4531v2.7188q-0.625-0.5781-1.2188-0.8438-0.5937-0.2812-1.2187-0.2812-1.3438 0-2.0313 1.0781-0.6875 1.0625-0.6875 3.1563 0 2.0937 0.6875 3.1718 0.6875 1.0625 2.0313 1.0625 0.625 0 1.2187-0.2656 0.5938-0.2812 1.2188-0.8594v2.7188z"/>
<text x="389" y="330.9951" fill="#000000" font-family="sans-serif" font-size="14" textLength="148">Radarmap.Resolution</text>
<text x="343" y="343.5791" fill="#000000" font-family="sans-serif" font-size="10" textLength="240">de.kaffeemitkoffein.tinyweatherforecastgermany</text>
</a>
<path id="e" d="m193.29 265.27c-14.29 18.67-27.18 35.53-36.34 47.5" fill="none" stroke="#A80036" codeLine="25"/>
<ellipse cx="197.73" cy="259.45" rx="8" ry="8" fill="#fff" stroke="#A80036"/>
<line x1="192.87" x2="202.59" y1="265.81" y2="253.1" stroke="#A80036"/>
<line x1="191.38" x2="204.08" y1="254.59" y2="264.31" stroke="#A80036"/>
<path id="f" d="m399.18 265c14.46 18.78 27.52 35.74 36.78 47.77" fill="none" stroke="#A80036" codeLine="26"/>
<ellipse cx="394.9" cy="259.44" rx="8" ry="8" fill="#fff" stroke="#A80036"/>
<line x1="399.78" x2="390.02" y1="265.77" y2="253.1" stroke="#A80036"/>
<line x1="388.57" x2="401.24" y1="264.32" y2="254.55" stroke="#A80036"/>
<text x="197.5" y="373.2197" fill="#888888" font-family="sans-serif" font-size="10" textLength="192">UMLDoclet 2.0.15, PlantUML 1.2021.13</text>
</svg>
