<?xml version="1.0" encoding="UTF-8"?>
<svg width="593px" height="427px" style="background:transparent;height:427px;width:593px" contentStyleType="text/css" preserveAspectRatio="none" version="1.1" viewBox="0 0 593 427" xmlns="http://www.w3.org/2000/svg" xmlns:xlink="http://www.w3.org/1999/xlink" zoomAndPan="magnify">
<a href="Radarmap.html" target="_top" title="Radarmap.html" xlink:actuate="onRequest" xlink:href="Radarmap.html" xlink:show="new" xlink:title="Radarmap.html" xlink:type="simple">
<g id="a">
<rect id="b" x="160" y="7" width="272" height="298.39" rx="2.5" ry="2.5" fill="#F1F1F1" stroke="#181818" stroke-width=".5" codeLine="5"/>
<ellipse cx="175" cy="25.969" rx="11" ry="11" fill="#ADD1B2" stroke="#181818"/>
<path d="m177.97 31.609q-0.5782 0.2969-1.2188 0.4375-0.6406 0.1562-1.3437 0.1562-2.5 0-3.8282-1.6406-1.3125-1.6562-1.3125-4.7812t1.3125-4.7813q1.3282-1.6562 3.8282-1.6562 0.7031 0 1.3437 0.1562 0.6563 0.1563 1.2188 0.4531v2.7188q-0.625-0.5781-1.2188-0.8438-0.5937-0.2812-1.2187-0.2812-1.3438 0-2.0313 1.0781-0.6875 1.0625-0.6875 3.1563 0 2.0937 0.6875 3.1718 0.6875 1.0625 2.0313 1.0625 0.625 0 1.2187-0.2656 0.5938-0.2812 1.2188-0.8594v2.7188z"/>
<text x="274" y="24.9951" fill="#000000" font-family="sans-serif" font-size="14" textLength="70">Radarmap</text>
<text x="189" y="37.5791" fill="#000000" font-family="sans-serif" font-size="10" textLength="240">de.kaffeemitkoffein.tinyweatherforecastgermany</text>
<line x1="161" x2="431" y1="44.938" y2="44.938" stroke="#181818" stroke-width=".5"/>
<ellipse cx="171" cy="58.586" rx="3" ry="3" fill="none" stroke="#038048"/>
<text x="180" y="61.9326" fill="#000000" font-family="sans-serif" font-size="14" text-decoration="underline" textLength="186">RADAR_DATAINTERVAL: int</text>
<ellipse cx="171" cy="74.883" rx="3" ry="3" fill="none" stroke="#038048"/>
<text x="180" y="78.2295" fill="#000000" font-family="sans-serif" font-size="14" text-decoration="underline" textLength="126">RAINCOLORS: int[]</text>
<ellipse cx="171" cy="91.18" rx="3" ry="3" fill="none" stroke="#038048"/>
<text x="180" y="94.5264" fill="#000000" font-family="sans-serif" font-size="14" text-decoration="underline" textLength="132">DBZVALUES: float[]</text>
<ellipse cx="171" cy="107.48" rx="3" ry="3" fill="none" stroke="#038048"/>
<text x="180" y="110.8232" fill="#000000" font-family="sans-serif" font-size="14" text-decoration="underline" textLength="103">CLUTTER: byte</text>
<ellipse cx="171" cy="123.77" rx="3" ry="3" fill="none" stroke="#038048"/>
<text x="180" y="127.1201" fill="#000000" font-family="sans-serif" font-size="14" text-decoration="underline" textLength="89">ERROR: byte</text>
<ellipse cx="171" cy="140.07" rx="3" ry="3" fill="none" stroke="#038048"/>
<text x="180" y="143.417" fill="#000000" font-family="sans-serif" font-size="14" textLength="121">highestDBZ: float</text>
<ellipse cx="171" cy="156.37" rx="3" ry="3" fill="none" stroke="#038048"/>
<text x="180" y="159.7139" fill="#000000" font-family="sans-serif" font-size="14" textLength="121">highestByte: float</text>
<line x1="161" x2="431" y1="167.02" y2="167.02" stroke="#181818" stroke-width=".5"/>
<ellipse cx="171" cy="180.66" rx="3" ry="3" fill="#84BE84" stroke="#038048"/>
<text x="180" y="184.0107" fill="#000000" font-family="sans-serif" font-size="14" textLength="179">Radarmap(RawRadarmap)</text>
<ellipse cx="171" cy="196.96" rx="3" ry="3" fill="#84BE84" stroke="#038048"/>
<text x="180" y="200.3076" fill="#000000" font-family="sans-serif" font-size="14" textLength="111">XLeftGeo(): float</text>
<ellipse cx="171" cy="213.26" rx="3" ry="3" fill="#84BE84" stroke="#038048"/>
<text x="180" y="216.6045" fill="#000000" font-family="sans-serif" font-size="14" textLength="113">YTopGeo(): float</text>
<ellipse cx="171" cy="229.55" rx="3" ry="3" fill="#84BE84" stroke="#038048"/>
<text x="180" y="232.9014" fill="#000000" font-family="sans-serif" font-size="14" textLength="122">XRightGeo(): float</text>
<ellipse cx="171" cy="245.85" rx="3" ry="3" fill="#84BE84" stroke="#038048"/>
<text x="180" y="249.1982" fill="#000000" font-family="sans-serif" font-size="14" textLength="137">YBottomGeo(): float</text>
<ellipse cx="171" cy="262.15" rx="3" ry="3" fill="#84BE84" stroke="#038048"/>
<text x="180" y="265.4951" fill="#000000" font-family="sans-serif" font-size="14" textLength="181">radarmapWidthGeo(): float</text>
<ellipse cx="171" cy="278.45" rx="3" ry="3" fill="#84BE84" stroke="#038048"/>
<text x="180" y="281.792" fill="#000000" font-family="sans-serif" font-size="14" textLength="187">radarmapHeightGeo(): float</text>
<ellipse cx="171" cy="294.74" rx="3" ry="3" fill="#84BE84" stroke="#038048"/>
<text x="180" y="298.0889" fill="#000000" font-family="sans-serif" font-size="14" textLength="194">getRadarMapColor(byte): int</text>
</g>
</a>
<a href="Radarmap.FormatVersion.html" target="_top" title="Radarmap.FormatVersion.html" xlink:actuate="onRequest" xlink:href="Radarmap.FormatVersion.html" xlink:show="new" xlink:title="Radarmap.FormatVersion.html" xlink:type="simple">
<g id="c">
<rect id="d" x="7" y="365" width="272" height="37.938" rx="2.5" ry="2.5" fill="#F1F1F1" stroke="#181818" stroke-width=".5" codeLine="22"/>
<ellipse cx="22" cy="383.97" rx="11" ry="11" fill="#ADD1B2" stroke="#181818"/>
<path d="m24.969 389.61q-0.5782 0.2969-1.2188 0.4375-0.6406 0.1562-1.3437 0.1562-2.5 0-3.8282-1.6406-1.3125-1.6562-1.3125-4.7812t1.3125-4.7813q1.3282-1.6562 3.8282-1.6562 0.7031 0 1.3437 0.1562 0.6563 0.1563 1.2188 0.4531v2.7188q-0.625-0.5781-1.2188-0.8438-0.5937-0.2812-1.2187-0.2812-1.3438 0-2.0313 1.0781-0.6875 1.0625-0.6875 3.1563 0 2.0937 0.6875 3.1718 0.6875 1.0625 2.0313 1.0625 0.625 0 1.2187-0.2656 0.5938-0.2812 1.2188-0.8594v2.7188z"/>
<text x="69" y="382.9951" fill="#000000" font-family="sans-serif" font-size="14" textLength="174">Radarmap.FormatVersion</text>
<text x="36" y="395.5791" fill="#000000" font-family="sans-serif" font-size="10" textLength="240">de.kaffeemitkoffein.tinyweatherforecastgermany</text>
</g>
</a>
<a href="Radarmap.Resolution.html" target="_top" title="Radarmap.Resolution.html" xlink:actuate="onRequest" xlink:href="Radarmap.Resolution.html" xlink:show="new" xlink:title="Radarmap.Resolution.html" xlink:type="simple">
<g id="e">
<rect id="f" x="314" y="365" width="272" height="37.938" rx="2.5" ry="2.5" fill="#F1F1F1" stroke="#181818" stroke-width=".5" codeLine="23"/>
<ellipse cx="329" cy="383.97" rx="11" ry="11" fill="#ADD1B2" stroke="#181818"/>
<path d="m331.97 389.61q-0.5782 0.2969-1.2188 0.4375-0.6406 0.1562-1.3437 0.1562-2.5 0-3.8282-1.6406-1.3125-1.6562-1.3125-4.7812t1.3125-4.7813q1.3282-1.6562 3.8282-1.6562 0.7031 0 1.3437 0.1562 0.6563 0.1563 1.2188 0.4531v2.7188q-0.625-0.5781-1.2188-0.8438-0.5937-0.2812-1.2187-0.2812-1.3438 0-2.0313 1.0781-0.6875 1.0625-0.6875 3.1563 0 2.0937 0.6875 3.1718 0.6875 1.0625 2.0313 1.0625 0.625 0 1.2187-0.2656 0.5938-0.2812 1.2188-0.8594v2.7188z"/>
<text x="389" y="382.9951" fill="#000000" font-family="sans-serif" font-size="14" textLength="148">Radarmap.Resolution</text>
<text x="343" y="395.5791" fill="#000000" font-family="sans-serif" font-size="10" textLength="240">de.kaffeemitkoffein.tinyweatherforecastgermany</text>
</g>
</a>
<g id="g" stroke="#181818">
<path id="h" d="m186.68 318.47c-16.11 23.8-21.681 32.03-31.381 46.36" fill="none" codeLine="25"/>
<ellipse cx="191.17" cy="311.84" rx="8" ry="8" fill="#fff"/>
<line x1="186.68" x2="195.65" y1="318.47" y2="305.22"/>
<line x1="184.54" x2="197.79" y1="307.36" y2="316.33"/>
</g>
<g id="i" stroke="#181818">
<path id="j" d="m406.01 318.44c16.22 23.8 21.839 32.058 31.609 46.388" fill="none" codeLine="26"/>
<ellipse cx="401.51" cy="311.83" rx="8" ry="8" fill="#fff"/>
<line x1="406.01" x2="397" y1="318.44" y2="305.22"/>
<line x1="394.89" x2="408.12" y1="316.34" y2="307.33"/>
</g>
<text x="199.5" y="417.2197" fill="#888888" font-family="sans-serif" font-size="10" textLength="180">UMLDoclet 2.1.2, PlantUML 1.2024.3</text>
</svg>
