<?xml version="1.0" encoding="UTF-8"?>
<svg width="482px" height="502px" style="background:transparent;height:502px;width:482px" contentStyleType="text/css" preserveAspectRatio="none" version="1.1" viewBox="0 0 482 502" xmlns="http://www.w3.org/2000/svg" xmlns:xlink="http://www.w3.org/1999/xlink" zoomAndPan="magnify">
<a href="Settings.html" target="_top" title="Settings.html" xlink:actuate="onRequest" xlink:href="Settings.html" xlink:show="new" xlink:title="Settings.html" xlink:type="simple">
<g id="a">
<rect id="b" x="9" y="105" width="466" height="371.88" rx="2.5" ry="2.5" fill="#F1F1F1" stroke="#181818" stroke-width=".5" codeLine="5"/>
<ellipse cx="117.75" cy="123.97" rx="11" ry="11" fill="#ADD1B2" stroke="#181818"/>
<path d="m120.72 129.61q-0.5782 0.2969-1.2188 0.4375-0.6406 0.1562-1.3437 0.1562-2.5 0-3.8282-1.6406-1.3125-1.6562-1.3125-4.7812t1.3125-4.7813q1.3282-1.6562 3.8282-1.6562 0.7031 0 1.3437 0.1562 0.6563 0.1563 1.2188 0.4531v2.7188q-0.625-0.5781-1.2188-0.8438-0.5937-0.2812-1.2187-0.2812-1.3438 0-2.0313 1.0781-0.6875 1.0625-0.6875 3.1563 0 2.0937 0.6875 3.1718 0.6875 1.0625 2.0313 1.0625 0.625 0 1.2187-0.2656 0.5938-0.2812 1.2188-0.8594v2.7188z"/>
<text x="229.75" y="122.9951" fill="#000000" font-family="sans-serif" font-size="14" textLength="57">Settings</text>
<text x="138.25" y="135.5791" fill="#000000" font-family="sans-serif" font-size="10" textLength="240">de.kaffeemitkoffein.tinyweatherforecastgermany</text>
<line x1="10" x2="474" y1="142.94" y2="142.94" stroke="#181818" stroke-width=".5"/>
<ellipse cx="20" cy="156.59" rx="3" ry="3" fill="#84BE84" stroke="#038048"/>
<text x="29" y="159.9326" fill="#000000" font-family="sans-serif" font-size="14" textLength="160">onCreate(Bundle): void</text>
<ellipse cx="20" cy="172.88" rx="3" ry="3" fill="#84BE84" stroke="#038048"/>
<text x="29" y="176.2295" fill="#000000" font-family="sans-serif" font-size="14" textLength="199">disableLogCatLogging(): void</text>
<ellipse cx="20" cy="189.18" rx="3" ry="3" fill="#84BE84" stroke="#038048"/>
<text x="29" y="192.5264" fill="#000000" font-family="sans-serif" font-size="14" textLength="215">disableClearNotifications(): void</text>
<ellipse cx="20" cy="205.48" rx="3" ry="3" fill="#84BE84" stroke="#038048"/>
<text x="29" y="208.8232" fill="#000000" font-family="sans-serif" font-size="14" textLength="167">disableTLSOption(): void</text>
<ellipse cx="20" cy="221.77" rx="3" ry="3" fill="#84BE84" stroke="#038048"/>
<text x="29" y="225.1201" fill="#000000" font-family="sans-serif" font-size="14" textLength="209">setAlarmSettingAllowed(): void</text>
<ellipse cx="20" cy="238.07" rx="3" ry="3" fill="#84BE84" stroke="#038048"/>
<text x="29" y="241.417" fill="#000000" font-family="sans-serif" font-size="14" textLength="284">setShowWarningsInWidgetAllowed(): void</text>
<ellipse cx="20" cy="254.37" rx="3" ry="3" fill="#84BE84" stroke="#038048"/>
<text x="29" y="257.7139" fill="#000000" font-family="sans-serif" font-size="14" textLength="171">setNotifyWarnings(): void</text>
<ellipse cx="20" cy="270.66" rx="3" ry="3" fill="#84BE84" stroke="#038048"/>
<text x="29" y="274.0107" fill="#000000" font-family="sans-serif" font-size="14" textLength="161">setNotifySeverity(): void</text>
<ellipse cx="20" cy="286.96" rx="3" ry="3" fill="#84BE84" stroke="#038048"/>
<text x="29" y="290.3076" fill="#000000" font-family="sans-serif" font-size="14" textLength="134">setNotifyLED(): void</text>
<ellipse cx="20" cy="303.26" rx="3" ry="3" fill="#84BE84" stroke="#038048"/>
<text x="29" y="306.6045" fill="#000000" font-family="sans-serif" font-size="14" textLength="147">setUseMinMax(): void</text>
<ellipse cx="20" cy="319.55" rx="3" ry="3" fill="#84BE84" stroke="#038048"/>
<text x="29" y="322.9014" fill="#000000" font-family="sans-serif" font-size="14" textLength="440">disableIfUnchecked(Preference, CheckBoxPreference): boolean</text>
<ellipse cx="20" cy="335.85" rx="3" ry="3" fill="#84BE84" stroke="#038048"/>
<text x="29" y="339.1982" fill="#000000" font-family="sans-serif" font-size="14" textLength="423">disableIfChecked(Preference, CheckBoxPreference): boolean</text>
<ellipse cx="20" cy="352.15" rx="3" ry="3" fill="#84BE84" stroke="#038048"/>
<text x="29" y="355.4951" fill="#000000" font-family="sans-serif" font-size="14" textLength="180">setUVHIdisplayMain(): void</text>
<polygon points="20 363.45 24 367.45 20 371.45 16 367.45" fill="#ff4" stroke="#B38D22"/>
<text x="29" y="371.792" fill="#000000" font-family="sans-serif" font-size="14" textLength="123">onResume(): void</text>
<polygon points="20 379.74 24 383.74 20 387.74 16 383.74" fill="#ff4" stroke="#B38D22"/>
<text x="29" y="388.0889" fill="#000000" font-family="sans-serif" font-size="14" textLength="108">onPause(): void</text>
<ellipse cx="20" cy="401.04" rx="3" ry="3" fill="#84BE84" stroke="#038048"/>
<text x="29" y="404.3857" fill="#000000" font-family="sans-serif" font-size="14" textLength="434">onSharedPreferenceChanged(SharedPreferences, String): void</text>
<ellipse cx="20" cy="417.34" rx="3" ry="3" fill="#84BE84" stroke="#038048"/>
<text x="29" y="420.6826" fill="#000000" font-family="sans-serif" font-size="14" textLength="319">requestBackgroundLocationPermission(): void</text>
<ellipse cx="20" cy="433.63" rx="3" ry="3" fill="#84BE84" stroke="#038048"/>
<text x="29" y="436.9795" fill="#000000" font-family="sans-serif" font-size="14" textLength="362">onRequestPermissionsResult(int, String[], int[]): void</text>
<ellipse cx="20" cy="449.93" rx="3" ry="3" fill="#84BE84" stroke="#038048"/>
<text x="29" y="453.2764" fill="#000000" font-family="sans-serif" font-size="14" textLength="216">openPermissionSettings(): void</text>
<ellipse cx="20" cy="466.23" rx="3" ry="3" fill="#84BE84" stroke="#038048"/>
<text x="29" y="469.5732" fill="#000000" font-family="sans-serif" font-size="14" text-decoration="underline" textLength="329">openBatteryOptimizationSettings(Context): void</text>
</g>
</a>
<g id="c">
<rect id="d" x="99" y="7" width="286" height="37.938" rx="2.5" ry="2.5" fill="#F1F1F1" stroke="#181818" stroke-width=".5" codeLine="28"/>
<ellipse cx="114" cy="25.969" rx="11" ry="11" fill="#B4A7E5" stroke="#181818"/>
<path d="m109.92 21.734v-2.1563h7.3906v2.1563h-2.4687v8.0781h2.4687v2.1563h-7.3906v-2.1563h2.4687v-8.0781h-2.4687z"/>
<text x="128" y="24.9951" fill="#000000" font-family="sans-serif" font-size="14" font-style="italic" textLength="254">OnSharedPreferenceChangeListener</text>
<text x="208" y="37.5791" fill="#000000" font-family="sans-serif" font-size="10" font-style="italic" textLength="94">SharedPreferences</text>
</g>
<g id="e" fill="none" stroke="#181818">
<path id="f" d="m242 63.08v41.73" stroke-dasharray="7.0,7.0" codeLine="30"/>
<polygon points="242 45.08 236 63.08 248 63.08"/>
</g>
<text x="144" y="492.1572" fill="#888888" font-family="sans-serif" font-size="10" textLength="180">UMLDoclet 2.1.2, PlantUML 1.2024.3</text>
</svg>
