<?xml version="1.0" encoding="UTF-8"?>
<svg width="442px" height="241px" style="background:transparent;height:241px;width:442px" contentScriptType="application/ecmascript" contentStyleType="text/css" preserveAspectRatio="none" version="1.1" viewBox="0 0 442 241" xmlns="http://www.w3.org/2000/svg" xmlns:xlink="http://www.w3.org/1999/xlink" zoomAndPan="magnify">
<defs>
<filter id="a" x="-1" y="-1" width="300%" height="300%">
<feGaussianBlur result="blurOut" stdDeviation="2.0"/>
<feColorMatrix in="blurOut" result="blurOut2" values="0 0 0 0 0 0 0 0 0 0 0 0 0 0 0 0 0 0 .4 0"/>
<feOffset dx="4.0" dy="4.0" in="blurOut2" result="blurOut3"/>
<feBlend in="SourceGraphic" in2="blurOut3"/>
</filter>
</defs>
<a href="StationsManager.StationsReader.html" target="_top" title="StationsManager.StationsReader.html" xlink:actuate="onRequest" xlink:href="StationsManager.StationsReader.html" xlink:show="new" xlink:title="StationsManager.StationsReader.html" xlink:type="simple">
<rect id="b" x="7" y="126" width="351" height="84.352" fill="#FEFECE" filter="url(#a)" stroke="#A80036" stroke-width="1.5" codeLine="5"/>
<ellipse cx="58.25" cy="144.97" rx="11" ry="11" fill="#ADD1B2" stroke="#A80036"/>
<path d="m61.219 150.61q-0.5782 0.2969-1.2188 0.4375-0.6406 0.1562-1.3437 0.1562-2.5 0-3.8282-1.6406-1.3125-1.6562-1.3125-4.7812t1.3125-4.7813q1.3282-1.6562 3.8282-1.6562 0.7031 0 1.3437 0.1562 0.6563 0.1563 1.2188 0.4531v2.7188q-0.625-0.5781-1.2188-0.8438-0.5937-0.2812-1.2187-0.2812-1.3438 0-2.0313 1.0781-0.6875 1.0625-0.6875 3.1563 0 2.0937 0.6875 3.1718 0.6875 1.0625 2.0313 1.0625 0.625 0 1.2187-0.2656 0.5938-0.2812 1.2188-0.8594v2.7188z"/>
<text x="85.75" y="143.9951" fill="#000000" font-family="sans-serif" font-size="14" textLength="226">StationsManager.StationsReader</text>
<text x="78.75" y="156.5791" fill="#000000" font-family="sans-serif" font-size="10" textLength="240">de.kaffeemitkoffein.tinyweatherforecastgermany</text>
<line x1="8" x2="357" y1="163.94" y2="163.94" stroke="#A80036" stroke-width="1.5"/>
<ellipse cx="18" cy="174.94" rx="3" ry="3" fill="#84BE84" stroke="#038048"/>
<text x="27" y="178.1479" fill="#000000" font-family="sans-serif" font-size="11" textLength="138">StationsReader(Context)</text>
<ellipse cx="18" cy="187.74" rx="3" ry="3" fill="#84BE84" stroke="#038048"/>
<text x="27" y="190.9526" fill="#000000" font-family="sans-serif" font-size="11" textLength="325">onLoadingListFinished(ArrayList&lt;WeatherLocation&gt;): void</text>
<ellipse cx="18" cy="200.55" rx="3" ry="3" fill="#84BE84" stroke="#038048"/>
<text x="27" y="203.7573" fill="#000000" font-family="sans-serif" font-size="11" textLength="58">run(): void</text>
</a>
<rect id="c" x="23.5" y="7" width="98" height="58.742" fill="#FEFECE" filter="url(#a)" stroke="#A80036" stroke-width="1.5" codeLine="11"/>
<ellipse cx="38.5" cy="25.969" rx="11" ry="11" fill="#B4A7E5" stroke="#A80036"/>
<path d="m34.422 21.734v-2.1563h7.3906v2.1563h-2.4687v8.0781h2.4687v2.1563h-7.3906v-2.1563h2.4687v-8.0781h-2.4687z"/>
<text x="52.5" y="24.9951" fill="#000000" font-family="sans-serif" font-size="14" font-style="italic" textLength="66">Runnable</text>
<text x="64" y="37.5791" fill="#000000" font-family="sans-serif" font-size="10" font-style="italic" textLength="43">java.lang</text>
<line x1="24.5" x2="120.5" y1="44.938" y2="44.938" stroke="#A80036" stroke-width="1.5"/>
<ellipse cx="34.5" cy="55.938" rx="3" ry="3" fill="#84BE84" stroke="#038048"/>
<text x="43.5" y="59.1479" fill="#000000" font-family="sans-serif" font-size="11" font-style="italic" textLength="58">run(): void</text>
<a href="StationsManager.html" target="_top" title="StationsManager.html" xlink:actuate="onRequest" xlink:href="StationsManager.html" xlink:show="new" xlink:title="StationsManager.html" xlink:type="simple">
<rect id="d" x="156.5" y="17.5" width="272" height="37.938" fill="#FEFECE" filter="url(#a)" stroke="#A80036" stroke-width="1.5" codeLine="14"/>
<ellipse cx="171.5" cy="36.469" rx="11" ry="11" fill="#ADD1B2" stroke="#A80036"/>
<path d="m174.47 42.109q-0.5782 0.2969-1.2188 0.4375-0.6406 0.1562-1.3437 0.1562-2.5 0-3.8282-1.6406-1.3125-1.6562-1.3125-4.7812t1.3125-4.7813q1.3282-1.6562 3.8282-1.6562 0.7031 0 1.3437 0.1562 0.6563 0.1563 1.2188 0.4531v2.7188q-0.625-0.5781-1.2188-0.8438-0.5937-0.2812-1.2187-0.2812-1.3438 0-2.0313 1.0781-0.6875 1.0625-0.6875 3.1563 0 2.0937 0.6875 3.1718 0.6875 1.0625 2.0313 1.0625 0.625 0 1.2187-0.2656 0.5938-0.2812 1.2188-0.8594v2.7188z"/>
<text x="247.5" y="35.4951" fill="#000000" font-family="sans-serif" font-size="14" textLength="116">StationsManager</text>
<text x="185.5" y="48.0791" fill="#000000" font-family="sans-serif" font-size="10" textLength="240">de.kaffeemitkoffein.tinyweatherforecastgermany</text>
</a>
<path id="e" d="m109.89 81.52c12.1 14.25 25.48 29.99 37.41 44.04" fill="none" stroke="#A80036" stroke-dasharray="7.0,7.0" codeLine="16"/>
<polygon points="104.53 86.02 96.91 66.24 115.2 76.95" fill="none" stroke="#A80036"/>
<path id="f" d="m267.47 66.97c-14.83 17.45-33.84 39.83-50.11 58.99" fill="none" stroke="#A80036" codeLine="17"/>
<ellipse cx="272.02" cy="61.609" rx="8" ry="8" fill="#fff" stroke="#A80036"/>
<line x1="266.85" x2="277.2" y1="67.707" y2="55.51" stroke="#A80036"/>
<line x1="265.92" x2="278.12" y1="56.431" y2="66.786" stroke="#A80036"/>
<text x="118.75" y="232.6338" fill="#888888" font-family="sans-serif" font-size="10" textLength="192">UMLDoclet 2.0.15, PlantUML 1.2021.13</text>
</svg>
