<?xml version="1.0" encoding="UTF-8"?>
<svg width="293px" height="444px" style="background:transparent;height:444px;width:293px" contentScriptType="application/ecmascript" contentStyleType="text/css" preserveAspectRatio="none" version="1.1" viewBox="0 0 293 444" xmlns="http://www.w3.org/2000/svg" xmlns:xlink="http://www.w3.org/1999/xlink" zoomAndPan="magnify">
<defs>
<filter id="a" x="-1" y="-1" width="300%" height="300%">
<feGaussianBlur result="blurOut" stdDeviation="2.0"/>
<feColorMatrix in="blurOut" result="blurOut2" values="0 0 0 0 0 0 0 0 0 0 0 0 0 0 0 0 0 0 .4 0"/>
<feOffset dx="4.0" dy="4.0" in="blurOut2" result="blurOut3"/>
<feBlend in="SourceGraphic" in2="blurOut3"/>
</filter>
</defs>
<a href="TextForecast.html" target="_top" title="TextForecast.html" xlink:actuate="onRequest" xlink:href="TextForecast.html" xlink:show="new" xlink:title="TextForecast.html" xlink:type="simple">
<rect id="b" x="7" y="129" width="272" height="284.42" fill="#FEFECE" filter="url(#a)" stroke="#A80036" stroke-width="1.5" codeLine="5"/>
<ellipse cx="22" cy="147.97" rx="11" ry="11" fill="#ADD1B2" stroke="#A80036"/>
<path d="m24.969 153.61q-0.5782 0.2969-1.2188 0.4375-0.6406 0.1562-1.3437 0.1562-2.5 0-3.8282-1.6406-1.3125-1.6562-1.3125-4.7812t1.3125-4.7813q1.3282-1.6562 3.8282-1.6562 0.7031 0 1.3437 0.1562 0.6563 0.1563 1.2188 0.4531v2.7188q-0.625-0.5781-1.2188-0.8438-0.5937-0.2812-1.2187-0.2812-1.3438 0-2.0313 1.0781-0.6875 1.0625-0.6875 3.1563 0 2.0937 0.6875 3.1718 0.6875 1.0625 2.0313 1.0625 0.625 0 1.2187-0.2656 0.5938-0.2812 1.2188-0.8594v2.7188z"/>
<text x="111" y="146.9951" fill="#000000" font-family="sans-serif" font-size="14" textLength="90">TextForecast</text>
<text x="36" y="159.5791" fill="#000000" font-family="sans-serif" font-size="10" textLength="240">de.kaffeemitkoffein.tinyweatherforecastgermany</text>
<line x1="8" x2="278" y1="166.94" y2="166.94" stroke="#A80036" stroke-width="1.5"/>
<ellipse cx="18" cy="177.94" rx="3" ry="3" fill="none" stroke="#038048"/>
<text x="27" y="181.1479" fill="#000000" font-family="sans-serif" font-size="11" text-decoration="underline" textLength="162">TIMESTAMP_PATTERN: String</text>
<ellipse cx="18" cy="190.74" rx="3" ry="3" fill="none" stroke="#038048"/>
<text x="27" y="193.9526" fill="#000000" font-family="sans-serif" font-size="11" textLength="92">identifier: String</text>
<ellipse cx="18" cy="203.55" rx="3" ry="3" fill="none" stroke="#038048"/>
<text x="27" y="206.7573" fill="#000000" font-family="sans-serif" font-size="11" textLength="81">webUrl: String</text>
<ellipse cx="18" cy="216.35" rx="3" ry="3" fill="none" stroke="#038048"/>
<text x="27" y="219.562" fill="#000000" font-family="sans-serif" font-size="11" textLength="84">content: String</text>
<ellipse cx="18" cy="229.16" rx="3" ry="3" fill="none" stroke="#038048"/>
<text x="27" y="232.3667" fill="#000000" font-family="sans-serif" font-size="11" textLength="63">title: String</text>
<ellipse cx="18" cy="241.96" rx="3" ry="3" fill="none" stroke="#038048"/>
<text x="27" y="245.1714" fill="#000000" font-family="sans-serif" font-size="11" textLength="84">subtitle: String</text>
<ellipse cx="18" cy="254.77" rx="3" ry="3" fill="none" stroke="#038048"/>
<text x="27" y="257.9761" fill="#000000" font-family="sans-serif" font-size="11" textLength="107">issued_text: String</text>
<ellipse cx="18" cy="267.57" rx="3" ry="3" fill="none" stroke="#038048"/>
<text x="27" y="270.7808" fill="#000000" font-family="sans-serif" font-size="11" textLength="46">type: int</text>
<ellipse cx="18" cy="280.38" rx="3" ry="3" fill="none" stroke="#038048"/>
<text x="27" y="283.5854" fill="#000000" font-family="sans-serif" font-size="11" textLength="70">issued: long</text>
<ellipse cx="18" cy="293.18" rx="3" ry="3" fill="none" stroke="#038048"/>
<text x="27" y="296.3901" fill="#000000" font-family="sans-serif" font-size="11" textLength="66">polled: long</text>
<ellipse cx="18" cy="305.98" rx="3" ry="3" fill="none" stroke="#038048"/>
<text x="27" y="309.1948" fill="#000000" font-family="sans-serif" font-size="11" textLength="103">outdated: boolean</text>
<line x1="8" x2="278" y1="315.79" y2="315.79" stroke="#A80036" stroke-width="1.5"/>
<ellipse cx="18" cy="326.79" rx="3" ry="3" fill="#84BE84" stroke="#038048"/>
<text x="27" y="329.9995" fill="#000000" font-family="sans-serif" font-size="11" textLength="174">parse(ArrayList&lt;String&gt;): void</text>
<ellipse cx="18" cy="339.59" rx="3" ry="3" fill="#84BE84" stroke="#038048"/>
<text x="27" y="342.8042" fill="#000000" font-family="sans-serif" font-size="11" textLength="173">setIssued(String, int): boolean</text>
<ellipse cx="18" cy="352.4" rx="3" ry="3" fill="#84BE84" stroke="#038048"/>
<text x="27" y="355.6089" fill="#000000" font-family="sans-serif" font-size="11" textLength="141">setFallBackIssued(): void</text>
<ellipse cx="18" cy="365.2" rx="3" ry="3" fill="#84BE84" stroke="#038048"/>
<text x="27" y="368.4136" fill="#000000" font-family="sans-serif" font-size="11" textLength="106">getIssued(): String</text>
<ellipse cx="18" cy="378.01" rx="3" ry="3" fill="#84BE84" stroke="#038048"/>
<text x="27" y="381.2183" fill="#000000" font-family="sans-serif" font-size="11" textLength="118">getUrlString(): String</text>
<ellipse cx="18" cy="390.81" rx="3" ry="3" fill="#84BE84" stroke="#038048"/>
<text x="27" y="394.0229" fill="#000000" font-family="sans-serif" font-size="11" textLength="157">getLegacyUrlString(): String</text>
<ellipse cx="18" cy="403.62" rx="3" ry="3" fill="#84BE84" stroke="#038048"/>
<text x="27" y="406.8276" fill="#000000" font-family="sans-serif" font-size="11" textLength="167">compareTo(TextForecast): int</text>
</a>
<rect id="c" x="43" y="10" width="200" height="58.742" fill="#FEFECE" filter="url(#a)" stroke="#A80036" stroke-width="1.5" codeLine="26"/>
<ellipse cx="58" cy="28.969" rx="11" ry="11" fill="#B4A7E5" stroke="#A80036"/>
<path d="m53.922 24.734v-2.1563h7.3906v2.1563h-2.4687v8.0781h2.4687v2.1563h-7.3906v-2.1563h2.4687v-8.0781h-2.4687z"/>
<text x="72" y="27.9951" fill="#000000" font-family="sans-serif" font-size="14" font-style="italic" textLength="83">Comparable</text>
<text x="92" y="40.5791" fill="#000000" font-family="sans-serif" font-size="10" font-style="italic" textLength="43">java.lang</text>
<rect x="163" y="7" width="83" height="15.969" fill="#fff" stroke="#000" stroke-dasharray="2.0,2.0"/>
<text x="164" y="19.1387" fill="#000000" font-family="sans-serif" font-size="12" font-style="italic" textLength="81">TextForecast</text>
<line x1="44" x2="242" y1="47.938" y2="47.938" stroke="#A80036" stroke-width="1.5"/>
<ellipse cx="54" cy="58.938" rx="3" ry="3" fill="#84BE84" stroke="#038048"/>
<text x="63" y="62.1479" fill="#000000" font-family="sans-serif" font-size="11" font-style="italic" textLength="167">compareTo(TextForecast): int</text>
<path id="d" d="m143 89.55v39.45" fill="none" stroke="#A80036" stroke-dasharray="7.0,7.0" codeLine="30"/>
<polygon points="136 89.1 143 69.1 150 89.1" fill="none" stroke="#A80036"/>
<text x="44" y="435.7041" fill="#888888" font-family="sans-serif" font-size="10" textLength="192">UMLDoclet 2.0.15, PlantUML 1.2021.13</text>
</svg>
