<?xml version="1.0" encoding="UTF-8"?>
<svg width="378px" height="306px" style="background:transparent;height:306px;width:378px" contentStyleType="text/css" preserveAspectRatio="none" version="1.1" viewBox="0 0 378 306" xmlns="http://www.w3.org/2000/svg" xmlns:xlink="http://www.w3.org/1999/xlink" zoomAndPan="magnify">
<a href="TextForecasts.Type.html" target="_top" title="TextForecasts.Type.html" xlink:actuate="onRequest" xlink:href="TextForecasts.Type.html" xlink:show="new" xlink:title="TextForecasts.Type.html" xlink:type="simple">
<g id="a">
<rect id="b" x="7" y="105" width="364" height="176.31" rx="2.5" ry="2.5" fill="#F1F1F1" stroke="#181818" stroke-width=".5" codeLine="5"/>
<ellipse cx="64.75" cy="123.97" rx="11" ry="11" fill="#ADD1B2" stroke="#181818"/>
<path d="m67.719 129.61q-0.5782 0.2969-1.2188 0.4375-0.6406 0.1562-1.3437 0.1562-2.5 0-3.8282-1.6406-1.3125-1.6562-1.3125-4.7812t1.3125-4.7813q1.3282-1.6562 3.8282-1.6562 0.7031 0 1.3437 0.1562 0.6563 0.1563 1.2188 0.4531v2.7188q-0.625-0.5781-1.2188-0.8438-0.5937-0.2812-1.2187-0.2812-1.3438 0-2.0313 1.0781-0.6875 1.0625-0.6875 3.1563 0 2.0937 0.6875 3.1718 0.6875 1.0625 2.0313 1.0625 0.625 0 1.2187-0.2656 0.5938-0.2812 1.2188-0.8594v2.7188z"/>
<text x="137.25" y="122.9951" fill="#000000" font-family="sans-serif" font-size="14" textLength="136">TextForecasts.Type</text>
<text x="85.25" y="135.5791" fill="#000000" font-family="sans-serif" font-size="10" textLength="240">de.kaffeemitkoffein.tinyweatherforecastgermany</text>
<line x1="8" x2="370" y1="142.94" y2="142.94" stroke="#181818" stroke-width=".5"/>
<ellipse cx="18" cy="156.59" rx="3" ry="3" fill="none" stroke="#038048"/>
<text x="27" y="159.9326" fill="#000000" font-family="sans-serif" font-size="14" text-decoration="underline" textLength="90">FEATURE: int</text>
<ellipse cx="18" cy="172.88" rx="3" ry="3" fill="none" stroke="#038048"/>
<text x="27" y="176.2295" fill="#000000" font-family="sans-serif" font-size="14" text-decoration="underline" textLength="104">KURZFRIST: int</text>
<ellipse cx="18" cy="189.18" rx="3" ry="3" fill="none" stroke="#038048"/>
<text x="27" y="192.5264" fill="#000000" font-family="sans-serif" font-size="14" text-decoration="underline" textLength="114">MITTELFRIST: int</text>
<ellipse cx="18" cy="205.48" rx="3" ry="3" fill="none" stroke="#038048"/>
<text x="27" y="208.8232" fill="#000000" font-family="sans-serif" font-size="14" text-decoration="underline" textLength="243">MARITIME_NORD_UND_OSTSEE: int</text>
<ellipse cx="18" cy="221.77" rx="3" ry="3" fill="none" stroke="#038048"/>
<text x="27" y="225.1201" fill="#000000" font-family="sans-serif" font-size="14" text-decoration="underline" textLength="327">MARITIME_DEUTSCHE_NORD_UND_OSTSEE: int</text>
<ellipse cx="18" cy="238.07" rx="3" ry="3" fill="none" stroke="#038048"/>
<text x="27" y="241.417" fill="#000000" font-family="sans-serif" font-size="14" text-decoration="underline" textLength="189">MARITIME_MITTELMEER: int</text>
<ellipse cx="18" cy="254.37" rx="3" ry="3" fill="none" stroke="#038048"/>
<text x="27" y="257.7139" fill="#000000" font-family="sans-serif" font-size="14" text-decoration="underline" textLength="338">MARITIME_NORD_UND_OSTSEE_MITTELFRIST: int</text>
<ellipse cx="18" cy="270.66" rx="3" ry="3" fill="none" stroke="#038048"/>
<text x="27" y="274.0107" fill="#000000" font-family="sans-serif" font-size="14" text-decoration="underline" textLength="166">MARITIME_WARNING: int</text>
</g>
</a>
<a href="TextForecasts.html" target="_top" title="TextForecasts.html" xlink:actuate="onRequest" xlink:href="TextForecasts.html" xlink:show="new" xlink:title="TextForecasts.html" xlink:type="simple">
<g id="c">
<rect id="d" x="53" y="7" width="272" height="37.938" rx="2.5" ry="2.5" fill="#F1F1F1" stroke="#181818" stroke-width=".5" codeLine="16"/>
<ellipse cx="68" cy="25.969" rx="11" ry="11" fill="#ADD1B2" stroke="#181818"/>
<path d="m70.969 31.609q-0.5782 0.2969-1.2188 0.4375-0.6406 0.1562-1.3437 0.1562-2.5 0-3.8282-1.6406-1.3125-1.6562-1.3125-4.7812t1.3125-4.7813q1.3282-1.6562 3.8282-1.6562 0.7031 0 1.3437 0.1562 0.6563 0.1563 1.2188 0.4531v2.7188q-0.625-0.5781-1.2188-0.8438-0.5937-0.2812-1.2187-0.2812-1.3438 0-2.0313 1.0781-0.6875 1.0625-0.6875 3.1563 0 2.0937 0.6875 3.1718 0.6875 1.0625 2.0313 1.0625 0.625 0 1.2187-0.2656 0.5938-0.2812 1.2188-0.8594v2.7188z"/>
<text x="153" y="24.9951" fill="#000000" font-family="sans-serif" font-size="14" textLength="98">TextForecasts</text>
<text x="82" y="37.5791" fill="#000000" font-family="sans-serif" font-size="10" textLength="240">de.kaffeemitkoffein.tinyweatherforecastgermany</text>
</g>
</a>
<g id="e" stroke="#181818">
<path id="f" d="m189 61.29v43.55" fill="none" codeLine="18"/>
<ellipse cx="189" cy="53.29" rx="8" ry="8" fill="#fff"/>
<line x1="189" x2="189" y1="61.29" y2="45.29"/>
<line x1="181" x2="197" y1="53.29" y2="53.29"/>
</g>
<text x="92" y="296.5947" fill="#888888" font-family="sans-serif" font-size="10" textLength="180">UMLDoclet 2.1.2, PlantUML 1.2024.3</text>
</svg>
