<?xml version="1.0" encoding="UTF-8"?>
<svg width="339px" height="304px" style="background:transparent;height:304px;width:339px" contentScriptType="application/ecmascript" contentStyleType="text/css" preserveAspectRatio="none" version="1.1" viewBox="0 0 339 304" xmlns="http://www.w3.org/2000/svg" xmlns:xlink="http://www.w3.org/1999/xlink" zoomAndPan="magnify">
<defs>
<filter id="a" x="-1" y="-1" width="300%" height="300%">
<feGaussianBlur result="blurOut" stdDeviation="2.0"/>
<feColorMatrix in="blurOut" result="blurOut2" values="0 0 0 0 0 0 0 0 0 0 0 0 0 0 0 0 0 0 .4 0"/>
<feOffset dx="4.0" dy="4.0" in="blurOut2" result="blurOut3"/>
<feBlend in="SourceGraphic" in2="blurOut3"/>
</filter>
</defs>
<a href="TextForecastViewActivity.html" target="_top" title="TextForecastViewActivity.html" xlink:actuate="onRequest" xlink:href="TextForecastViewActivity.html" xlink:show="new" xlink:title="TextForecastViewActivity.html" xlink:type="simple">
<rect id="b" x="29" y="7" width="274" height="169.18" fill="#FEFECE" filter="url(#a)" stroke="#A80036" stroke-width="1.5" codeLine="5"/>
<ellipse cx="44.9" cy="25.969" rx="11" ry="11" fill="#ADD1B2" stroke="#A80036"/>
<path d="m47.869 31.609q-0.5782 0.2969-1.2188 0.4375-0.6406 0.1562-1.3437 0.1562-2.5 0-3.8282-1.6406-1.3125-1.6562-1.3125-4.7812t1.3125-4.7813q1.3282-1.6562 3.8282-1.6562 0.7031 0 1.3437 0.1562 0.6563 0.1563 1.2188 0.4531v2.7188q-0.625-0.5781-1.2188-0.8438-0.5937-0.2812-1.2187-0.2812-1.3438 0-2.0313 1.0781-0.6875 1.0625-0.6875 3.1563 0 2.0937 0.6875 3.1718 0.6875 1.0625 2.0313 1.0625 0.625 0 1.2187-0.2656 0.5938-0.2812 1.2188-0.8594v2.7188z"/>
<text x="94.6" y="24.9951" fill="#000000" font-family="sans-serif" font-size="14" textLength="169">TextForecastViewActivity</text>
<text x="59.1" y="37.5791" fill="#000000" font-family="sans-serif" font-size="10" textLength="240">de.kaffeemitkoffein.tinyweatherforecastgermany</text>
<line x1="30" x2="302" y1="44.938" y2="44.938" stroke="#A80036" stroke-width="1.5"/>
<ellipse cx="40" cy="55.938" rx="3" ry="3" fill="none" stroke="#038048"/>
<text x="49" y="59.1479" fill="#000000" font-family="sans-serif" font-size="11" text-decoration="underline" textLength="161">TEXTFORECAST_ITEM: String</text>
<line x1="30" x2="302" y1="65.742" y2="65.742" stroke="#A80036" stroke-width="1.5"/>
<polygon points="40 71.742 44 75.742 40 79.742 36 75.742" fill="#ff4" stroke="#B38D22"/>
<text x="49" y="79.9526" fill="#000000" font-family="sans-serif" font-size="11" textLength="99">onResume(): void</text>
<polygon points="40 84.547 44 88.547 40 92.547 36 88.547" fill="#ff4" stroke="#B38D22"/>
<text x="49" y="92.7573" fill="#000000" font-family="sans-serif" font-size="11" textLength="88">onPause(): void</text>
<ellipse cx="40" cy="102.35" rx="3" ry="3" fill="#84BE84" stroke="#038048"/>
<text x="49" y="105.562" fill="#000000" font-family="sans-serif" font-size="11" textLength="198">onSaveInstanceState(Bundle): void</text>
<ellipse cx="40" cy="115.16" rx="3" ry="3" fill="#84BE84" stroke="#038048"/>
<text x="49" y="118.3667" fill="#000000" font-family="sans-serif" font-size="11" textLength="214">onRestoreInstanceState(Bundle): void</text>
<polygon points="40 122.96 44 126.96 40 130.96 36 126.96" fill="#ff4" stroke="#B38D22"/>
<text x="49" y="131.1714" fill="#000000" font-family="sans-serif" font-size="11" textLength="130">onCreate(Bundle): void</text>
<ellipse cx="40" cy="140.77" rx="3" ry="3" fill="#84BE84" stroke="#038048"/>
<text x="49" y="143.9761" fill="#000000" font-family="sans-serif" font-size="11" textLength="217">onCreateOptionsMenu(Menu): boolean</text>
<ellipse cx="40" cy="153.57" rx="3" ry="3" fill="#84BE84" stroke="#038048"/>
<text x="49" y="156.7808" fill="#000000" font-family="sans-serif" font-size="11" textLength="248">onOptionsItemSelected(MenuItem): boolean</text>
<ellipse cx="40" cy="166.38" rx="3" ry="3" fill="#84BE84" stroke="#038048"/>
<text x="49" y="169.5854" fill="#000000" font-family="sans-serif" font-size="11" textLength="242">updateActionBarLabels(TextForecast): void</text>
</a>
<a href="TextForecastViewActivity.ForecastVisibility.html" target="_top" title="TextForecastViewActivity.ForecastVisibility.html" xlink:actuate="onRequest" xlink:href="TextForecastViewActivity.ForecastVisibility.html" xlink:show="new" xlink:title="TextForecastViewActivity.ForecastVisibility.html" xlink:type="simple">
<rect id="c" x="7" y="236" width="318" height="37.938" fill="#FEFECE" filter="url(#a)" stroke="#A80036" stroke-width="1.5" codeLine="16"/>
<ellipse cx="22" cy="254.97" rx="11" ry="11" fill="#ADD1B2" stroke="#A80036"/>
<path d="m24.969 260.61q-0.5782 0.2969-1.2188 0.4375-0.6406 0.1562-1.3437 0.1562-2.5 0-3.8282-1.6406-1.3125-1.6562-1.3125-4.7812t1.3125-4.7813q1.3282-1.6562 3.8282-1.6562 0.7031 0 1.3437 0.1562 0.6563 0.1563 1.2188 0.4531v2.7188q-0.625-0.5781-1.2188-0.8438-0.5937-0.2812-1.2187-0.2812-1.3438 0-2.0313 1.0781-0.6875 1.0625-0.6875 3.1563 0 2.0937 0.6875 3.1718 0.6875 1.0625 2.0313 1.0625 0.625 0 1.2187-0.2656 0.5938-0.2812 1.2188-0.8594v2.7188z"/>
<text x="36" y="253.9951" fill="#000000" font-family="sans-serif" font-size="14" textLength="286">TextForecastViewActivity.ForecastVisibility</text>
<text x="59" y="266.5791" fill="#000000" font-family="sans-serif" font-size="10" textLength="240">de.kaffeemitkoffein.tinyweatherforecastgermany</text>
</a>
<path id="d" d="m166 191.34v44.62" fill="none" stroke="#A80036" codeLine="18"/>
<ellipse cx="166" cy="184.09" rx="8" ry="8" fill="#fff" stroke="#A80036"/>
<line x1="166" x2="166" y1="192.09" y2="176.09" stroke="#A80036"/>
<line x1="158" x2="174" y1="184.09" y2="184.09" stroke="#A80036"/>
<text x="67" y="296.2197" fill="#888888" font-family="sans-serif" font-size="10" textLength="192">UMLDoclet 2.0.15, PlantUML 1.2021.13</text>
</svg>
