<?xml version="1.0" encoding="UTF-8"?>
<svg width="354px" height="201px" style="background:transparent;height:201px;width:354px" contentStyleType="text/css" preserveAspectRatio="none" version="1.1" viewBox="0 0 354 201" xmlns="http://www.w3.org/2000/svg" xmlns:xlink="http://www.w3.org/1999/xlink" zoomAndPan="magnify">
<a href="TextForecastListActivity.html" target="_top" title="TextForecastListActivity.html" xlink:actuate="onRequest" xlink:href="TextForecastListActivity.html" xlink:show="new" xlink:title="TextForecastListActivity.html" xlink:type="simple">
<g id="a">
<rect id="b" x="7" y="7" width="333" height="168.02" rx="2.5" ry="2.5" fill="#F1F1F1" stroke="#181818" stroke-width=".5" codeLine="5"/>
<ellipse cx="49.45" cy="25.969" rx="11" ry="11" fill="#ADD1B2" stroke="#181818"/>
<path d="m52.419 31.609q-0.5782 0.2969-1.2188 0.4375-0.6406 0.1562-1.3437 0.1562-2.5 0-3.8282-1.6406-1.3125-1.6562-1.3125-4.7812t1.3125-4.7813q1.3282-1.6562 3.8282-1.6562 0.7031 0 1.3437 0.1562 0.6563 0.1563 1.2188 0.4531v2.7188q-0.625-0.5781-1.2188-0.8438-0.5937-0.2812-1.2187-0.2812-1.3438 0-2.0313 1.0781-0.6875 1.0625-0.6875 3.1563 0 2.0937 0.6875 3.1718 0.6875 1.0625 2.0313 1.0625 0.625 0 1.2187-0.2656 0.5938-0.2812 1.2188-0.8594v2.7188z"/>
<text x="109.55" y="24.9951" fill="#000000" font-family="sans-serif" font-size="14" textLength="160">TextForecastListActivity</text>
<text x="69.55" y="37.5791" fill="#000000" font-family="sans-serif" font-size="10" textLength="240">de.kaffeemitkoffein.tinyweatherforecastgermany</text>
<line x1="8" x2="339" y1="44.938" y2="44.938" stroke="#181818" stroke-width=".5"/>
<ellipse cx="18" cy="58.586" rx="3" ry="3" fill="none" stroke="#038048"/>
<text x="27" y="61.9326" fill="#000000" font-family="sans-serif" font-size="14" text-decoration="underline" textLength="217">ACTION_UPDATE_TEXTS: String</text>
<ellipse cx="18" cy="74.883" rx="3" ry="3" fill="none" stroke="#038048"/>
<text x="27" y="78.2295" fill="#000000" font-family="sans-serif" font-size="14" text-decoration="underline" textLength="219">UPDATE_TEXTS_RESULT: String</text>
<line x1="8" x2="339" y1="85.531" y2="85.531" stroke="#181818" stroke-width=".5"/>
<polygon points="18 94.18 22 98.18 18 102.18 14 98.18" fill="#ff4" stroke="#B38D22"/>
<text x="27" y="102.5264" fill="#000000" font-family="sans-serif" font-size="14" textLength="123">onResume(): void</text>
<polygon points="18 110.48 22 114.48 18 118.48 14 114.48" fill="#ff4" stroke="#B38D22"/>
<text x="27" y="118.8232" fill="#000000" font-family="sans-serif" font-size="14" textLength="108">onPause(): void</text>
<polygon points="18 126.77 22 130.77 18 134.77 14 130.77" fill="#ff4" stroke="#B38D22"/>
<text x="27" y="135.1201" fill="#000000" font-family="sans-serif" font-size="14" textLength="160">onCreate(Bundle): void</text>
<ellipse cx="18" cy="148.07" rx="3" ry="3" fill="#84BE84" stroke="#038048"/>
<text x="27" y="151.417" fill="#000000" font-family="sans-serif" font-size="14" textLength="271">onCreateOptionsMenu(Menu): boolean</text>
<ellipse cx="18" cy="164.37" rx="3" ry="3" fill="#84BE84" stroke="#038048"/>
<text x="27" y="167.7139" fill="#000000" font-family="sans-serif" font-size="14" textLength="307">onOptionsItemSelected(MenuItem): boolean</text>
</g>
</a>
<text x="83" y="191.2979" fill="#888888" font-family="sans-serif" font-size="10" textLength="180">UMLDoclet 2.1.2, PlantUML 1.2024.3</text>
</svg>
