<?xml version="1.0" encoding="UTF-8"?>
<svg width="354px" height="330px" style="background:transparent;height:330px;width:354px" contentScriptType="application/ecmascript" contentStyleType="text/css" preserveAspectRatio="none" version="1.1" viewBox="0 0 354 330" xmlns="http://www.w3.org/2000/svg" xmlns:xlink="http://www.w3.org/1999/xlink" zoomAndPan="magnify">
<defs>
<filter id="a" x="-1" y="-1" width="300%" height="300%">
<feGaussianBlur result="blurOut" stdDeviation="2.0"/>
<feColorMatrix in="blurOut" result="blurOut2" values="0 0 0 0 0 0 0 0 0 0 0 0 0 0 0 0 0 0 .4 0"/>
<feOffset dx="4.0" dy="4.0" in="blurOut2" result="blurOut3"/>
<feBlend in="SourceGraphic" in2="blurOut3"/>
</filter>
</defs>
<a href="TextForecastViewActivity.ForecastVisibility.html" target="_top" title="TextForecastViewActivity.ForecastVisibility.html" xlink:actuate="onRequest" xlink:href="TextForecastViewActivity.ForecastVisibility.html" xlink:show="new" xlink:title="TextForecastViewActivity.ForecastVisibility.html" xlink:type="simple">
<rect id="b" x="7" y="105" width="333" height="194.79" fill="#FEFECE" filter="url(#a)" stroke="#A80036" stroke-width="1.5" codeLine="5"/>
<ellipse cx="28.75" cy="123.97" rx="11" ry="11" fill="#ADD1B2" stroke="#A80036"/>
<path d="m31.719 129.61q-0.5782 0.2969-1.2188 0.4375-0.6406 0.1562-1.3437 0.1562-2.5 0-3.8282-1.6406-1.3125-1.6562-1.3125-4.7812t1.3125-4.7813q1.3282-1.6562 3.8282-1.6562 0.7031 0 1.3437 0.1562 0.6563 0.1563 1.2188 0.4531v2.7188q-0.625-0.5781-1.2188-0.8438-0.5937-0.2812-1.2187-0.2812-1.3438 0-2.0313 1.0781-0.6875 1.0625-0.6875 3.1563 0 2.0937 0.6875 3.1718 0.6875 1.0625 2.0313 1.0625 0.625 0 1.2187-0.2656 0.5938-0.2812 1.2188-0.8594v2.7188z"/>
<text x="44.25" y="122.9951" fill="#000000" font-family="sans-serif" font-size="14" textLength="286">TextForecastViewActivity.ForecastVisibility</text>
<text x="67.25" y="135.5791" fill="#000000" font-family="sans-serif" font-size="10" textLength="240">de.kaffeemitkoffein.tinyweatherforecastgermany</text>
<line x1="8" x2="339" y1="142.94" y2="142.94" stroke="#A80036" stroke-width="1.5"/>
<ellipse cx="18" cy="153.94" rx="3" ry="3" fill="none" stroke="#038048"/>
<text x="27" y="157.1479" fill="#000000" font-family="sans-serif" font-size="11" textLength="111">titleVisible: boolean</text>
<ellipse cx="18" cy="166.74" rx="3" ry="3" fill="none" stroke="#038048"/>
<text x="27" y="169.9526" fill="#000000" font-family="sans-serif" font-size="11" textLength="115">dateVisible: boolean</text>
<ellipse cx="18" cy="179.55" rx="3" ry="3" fill="none" stroke="#038048"/>
<text x="27" y="182.7573" fill="#000000" font-family="sans-serif" font-size="11" textLength="132">subtitleVisible: boolean</text>
<ellipse cx="18" cy="192.35" rx="3" ry="3" fill="none" stroke="#038048"/>
<text x="27" y="195.562" fill="#000000" font-family="sans-serif" font-size="11" textLength="117">bodyVisible: boolean</text>
<line x1="8" x2="339" y1="202.16" y2="202.16" stroke="#A80036" stroke-width="1.5"/>
<ellipse cx="18" cy="213.16" rx="3" ry="3" fill="#84BE84" stroke="#038048"/>
<text x="27" y="216.3667" fill="#000000" font-family="sans-serif" font-size="11" textLength="103">ForecastVisibility()</text>
<ellipse cx="18" cy="225.96" rx="3" ry="3" fill="#84BE84" stroke="#038048"/>
<text x="27" y="229.1714" fill="#000000" font-family="sans-serif" font-size="11" textLength="307">ForecastVisibility(boolean, boolean, boolean, boolean)</text>
<ellipse cx="18" cy="238.77" rx="3" ry="3" fill="#84BE84" stroke="#038048"/>
<text x="27" y="241.9761" fill="#000000" font-family="sans-serif" font-size="11" textLength="176">ForecastVisibility(TextForecast)</text>
<ellipse cx="18" cy="251.57" rx="3" ry="3" fill="#84BE84" stroke="#038048"/>
<text x="27" y="254.7808" fill="#000000" font-family="sans-serif" font-size="11" textLength="132">isTitleVisible(): boolean</text>
<ellipse cx="18" cy="264.38" rx="3" ry="3" fill="#84BE84" stroke="#038048"/>
<text x="27" y="267.5854" fill="#000000" font-family="sans-serif" font-size="11" textLength="134">isDateVisible(): boolean</text>
<ellipse cx="18" cy="277.18" rx="3" ry="3" fill="#84BE84" stroke="#038048"/>
<text x="27" y="280.3901" fill="#000000" font-family="sans-serif" font-size="11" textLength="151">isSubtitleVisible(): boolean</text>
<ellipse cx="18" cy="289.98" rx="3" ry="3" fill="#84BE84" stroke="#038048"/>
<text x="27" y="293.1948" fill="#000000" font-family="sans-serif" font-size="11" textLength="136">isBodyVisible(): boolean</text>
</a>
<a href="TextForecastViewActivity.html" target="_top" title="TextForecastViewActivity.html" xlink:actuate="onRequest" xlink:href="TextForecastViewActivity.html" xlink:show="new" xlink:title="TextForecastViewActivity.html" xlink:type="simple">
<rect id="c" x="37.5" y="7" width="272" height="37.938" fill="#FEFECE" filter="url(#a)" stroke="#A80036" stroke-width="1.5" codeLine="19"/>
<ellipse cx="52.5" cy="25.969" rx="11" ry="11" fill="#ADD1B2" stroke="#A80036"/>
<path d="m55.469 31.609q-0.5782 0.2969-1.2188 0.4375-0.6406 0.1562-1.3437 0.1562-2.5 0-3.8282-1.6406-1.3125-1.6562-1.3125-4.7812t1.3125-4.7813q1.3282-1.6562 3.8282-1.6562 0.7031 0 1.3437 0.1562 0.6563 0.1563 1.2188 0.4531v2.7188q-0.625-0.5781-1.2188-0.8438-0.5937-0.2812-1.2187-0.2812-1.3438 0-2.0313 1.0781-0.6875 1.0625-0.6875 3.1563 0 2.0937 0.6875 3.1718 0.6875 1.0625 2.0313 1.0625 0.625 0 1.2187-0.2656 0.5938-0.2812 1.2188-0.8594v2.7188z"/>
<text x="102" y="24.9951" fill="#000000" font-family="sans-serif" font-size="14" textLength="169">TextForecastViewActivity</text>
<text x="66.5" y="37.5791" fill="#000000" font-family="sans-serif" font-size="10" textLength="240">de.kaffeemitkoffein.tinyweatherforecastgermany</text>
</a>
<path id="d" d="m173.5 60.33v44.39" fill="none" stroke="#A80036" codeLine="21"/>
<ellipse cx="173.5" cy="53.02" rx="8" ry="8" fill="#fff" stroke="#A80036"/>
<line x1="173.5" x2="173.5" y1="61.02" y2="45.02" stroke="#A80036"/>
<line x1="165.5" x2="181.5" y1="53.02" y2="53.02" stroke="#A80036"/>
<text x="74.5" y="322.0713" fill="#888888" font-family="sans-serif" font-size="10" textLength="192">UMLDoclet 2.0.15, PlantUML 1.2021.13</text>
</svg>
