<?xml version="1.0" encoding="UTF-8"?>
<svg width="293px" height="463px" style="background:transparent;height:463px;width:293px" contentScriptType="application/ecmascript" contentStyleType="text/css" preserveAspectRatio="none" version="1.1" viewBox="0 0 293 463" xmlns="http://www.w3.org/2000/svg" xmlns:xlink="http://www.w3.org/1999/xlink" zoomAndPan="magnify">
<defs>
<filter id="a" x="-1" y="-1" width="300%" height="300%">
<feGaussianBlur result="blurOut" stdDeviation="2.0"/>
<feColorMatrix in="blurOut" result="blurOut2" values="0 0 0 0 0 0 0 0 0 0 0 0 0 0 0 0 0 0 .4 0"/>
<feOffset dx="4.0" dy="4.0" in="blurOut2" result="blurOut3"/>
<feBlend in="SourceGraphic" in2="blurOut3"/>
</filter>
</defs>
<a href="ThemePicker.ThemeColor.html" target="_top" title="ThemePicker.ThemeColor.html" xlink:actuate="onRequest" xlink:href="ThemePicker.ThemeColor.html" xlink:show="new" xlink:title="ThemePicker.ThemeColor.html" xlink:type="simple">
<rect id="b" x="7" y="105" width="272" height="327.64" fill="#FEFECE" filter="url(#a)" stroke="#A80036" stroke-width="1.5" codeLine="5"/>
<ellipse cx="22" cy="123.97" rx="11" ry="11" fill="#ADD1B2" stroke="#A80036"/>
<path d="m24.969 129.61q-0.5782 0.2969-1.2188 0.4375-0.6406 0.1562-1.3437 0.1562-2.5 0-3.8282-1.6406-1.3125-1.6562-1.3125-4.7812t1.3125-4.7813q1.3282-1.6562 3.8282-1.6562 0.7031 0 1.3437 0.1562 0.6563 0.1563 1.2188 0.4531v2.7188q-0.625-0.5781-1.2188-0.8438-0.5937-0.2812-1.2187-0.2812-1.3438 0-2.0313 1.0781-0.6875 1.0625-0.6875 3.1563 0 2.0937 0.6875 3.1718 0.6875 1.0625 2.0313 1.0625 0.625 0 1.2187-0.2656 0.5938-0.2812 1.2188-0.8594v2.7188z"/>
<text x="66" y="122.9951" fill="#000000" font-family="sans-serif" font-size="14" textLength="180">ThemePicker.ThemeColor</text>
<text x="36" y="135.5791" fill="#000000" font-family="sans-serif" font-size="10" textLength="240">de.kaffeemitkoffein.tinyweatherforecastgermany</text>
<line x1="8" x2="278" y1="142.94" y2="142.94" stroke="#A80036" stroke-width="1.5"/>
<ellipse cx="18" cy="153.94" rx="3" ry="3" fill="none" stroke="#038048"/>
<text x="27" y="157.1479" fill="#000000" font-family="sans-serif" font-size="11" text-decoration="underline" textLength="69">PRIMARY: int</text>
<ellipse cx="18" cy="166.74" rx="3" ry="3" fill="none" stroke="#038048"/>
<text x="27" y="169.9526" fill="#000000" font-family="sans-serif" font-size="11" text-decoration="underline" textLength="98">PRIMARYDARK: int</text>
<ellipse cx="18" cy="179.55" rx="3" ry="3" fill="none" stroke="#038048"/>
<text x="27" y="182.7573" fill="#000000" font-family="sans-serif" font-size="11" text-decoration="underline" textLength="102">PRIMARYLIGHT: int</text>
<ellipse cx="18" cy="192.35" rx="3" ry="3" fill="none" stroke="#038048"/>
<text x="27" y="195.562" fill="#000000" font-family="sans-serif" font-size="11" text-decoration="underline" textLength="67">ACCENT: int</text>
<ellipse cx="18" cy="205.16" rx="3" ry="3" fill="none" stroke="#038048"/>
<text x="27" y="208.3667" fill="#000000" font-family="sans-serif" font-size="11" text-decoration="underline" textLength="50">TEXT: int</text>
<ellipse cx="18" cy="217.96" rx="3" ry="3" fill="none" stroke="#038048"/>
<text x="27" y="221.1714" fill="#000000" font-family="sans-serif" font-size="11" text-decoration="underline" textLength="79">TEXTDARK: int</text>
<ellipse cx="18" cy="230.77" rx="3" ry="3" fill="none" stroke="#038048"/>
<text x="27" y="233.9761" fill="#000000" font-family="sans-serif" font-size="11" text-decoration="underline" textLength="83">TEXTLIGHT: int</text>
<ellipse cx="18" cy="243.57" rx="3" ry="3" fill="none" stroke="#038048"/>
<text x="27" y="246.7808" fill="#000000" font-family="sans-serif" font-size="11" text-decoration="underline" textLength="156">WELCOMEBACKGROUND: int</text>
<ellipse cx="18" cy="256.38" rx="3" ry="3" fill="none" stroke="#038048"/>
<text x="27" y="259.5854" fill="#000000" font-family="sans-serif" font-size="11" text-decoration="underline" textLength="144">WIDGETBACKGROUND: int</text>
<ellipse cx="18" cy="269.18" rx="3" ry="3" fill="none" stroke="#038048"/>
<text x="27" y="272.3901" fill="#000000" font-family="sans-serif" font-size="11" text-decoration="underline" textLength="91">SECONDARY: int</text>
<ellipse cx="18" cy="281.98" rx="3" ry="3" fill="none" stroke="#038048"/>
<text x="27" y="285.1948" fill="#000000" font-family="sans-serif" font-size="11" text-decoration="underline" textLength="66">YELLOW: int</text>
<ellipse cx="18" cy="294.79" rx="3" ry="3" fill="none" stroke="#038048"/>
<text x="27" y="297.9995" fill="#000000" font-family="sans-serif" font-size="11" text-decoration="underline" textLength="69">ORANGE: int</text>
<ellipse cx="18" cy="307.59" rx="3" ry="3" fill="none" stroke="#038048"/>
<text x="27" y="310.8042" fill="#000000" font-family="sans-serif" font-size="11" text-decoration="underline" textLength="44">RED: int</text>
<ellipse cx="18" cy="320.4" rx="3" ry="3" fill="none" stroke="#038048"/>
<text x="27" y="323.6089" fill="#000000" font-family="sans-serif" font-size="11" text-decoration="underline" textLength="76">MAGENTA: int</text>
<ellipse cx="18" cy="333.2" rx="3" ry="3" fill="none" stroke="#038048"/>
<text x="27" y="336.4136" fill="#000000" font-family="sans-serif" font-size="11" text-decoration="underline" textLength="61">VIOLET: int</text>
<ellipse cx="18" cy="346.01" rx="3" ry="3" fill="none" stroke="#038048"/>
<text x="27" y="349.2183" fill="#000000" font-family="sans-serif" font-size="11" text-decoration="underline" textLength="51">BLUE: int</text>
<ellipse cx="18" cy="358.81" rx="3" ry="3" fill="none" stroke="#038048"/>
<text x="27" y="362.0229" fill="#000000" font-family="sans-serif" font-size="11" text-decoration="underline" textLength="52">CYAN: int</text>
<ellipse cx="18" cy="371.62" rx="3" ry="3" fill="none" stroke="#038048"/>
<text x="27" y="374.8276" fill="#000000" font-family="sans-serif" font-size="11" text-decoration="underline" textLength="60">GREEN: int</text>
<ellipse cx="18" cy="384.42" rx="3" ry="3" fill="none" stroke="#038048"/>
<text x="27" y="387.6323" fill="#000000" font-family="sans-serif" font-size="11" text-decoration="underline" textLength="143">VALUES_SOLARIZED: int[]</text>
<ellipse cx="18" cy="397.23" rx="3" ry="3" fill="none" stroke="#038048"/>
<text x="27" y="400.437" fill="#000000" font-family="sans-serif" font-size="11" text-decoration="underline" textLength="178">VALUES_SOLARIZED_DARK: int[]</text>
<ellipse cx="18" cy="410.03" rx="3" ry="3" fill="none" stroke="#038048"/>
<text x="27" y="413.2417" fill="#000000" font-family="sans-serif" font-size="11" text-decoration="underline" textLength="112">VALUES_LIGHT: int[]</text>
<ellipse cx="18" cy="422.84" rx="3" ry="3" fill="none" stroke="#038048"/>
<text x="27" y="426.0464" fill="#000000" font-family="sans-serif" font-size="11" text-decoration="underline" textLength="108">VALUES_DARK: int[]</text>
</a>
<a href="ThemePicker.html" target="_top" title="ThemePicker.html" xlink:actuate="onRequest" xlink:href="ThemePicker.html" xlink:show="new" xlink:title="ThemePicker.html" xlink:type="simple">
<rect id="c" x="7" y="7" width="272" height="37.938" fill="#FEFECE" filter="url(#a)" stroke="#A80036" stroke-width="1.5" codeLine="30"/>
<ellipse cx="22" cy="25.969" rx="11" ry="11" fill="#ADD1B2" stroke="#A80036"/>
<path d="m24.969 31.609q-0.5782 0.2969-1.2188 0.4375-0.6406 0.1562-1.3437 0.1562-2.5 0-3.8282-1.6406-1.3125-1.6562-1.3125-4.7812t1.3125-4.7813q1.3282-1.6562 3.8282-1.6562 0.7031 0 1.3437 0.1562 0.6563 0.1563 1.2188 0.4531v2.7188q-0.625-0.5781-1.2188-0.8438-0.5937-0.2812-1.2187-0.2812-1.3438 0-2.0313 1.0781-0.6875 1.0625-0.6875 3.1563 0 2.0937 0.6875 3.1718 0.6875 1.0625 2.0313 1.0625 0.625 0 1.2187-0.2656 0.5938-0.2812 1.2188-0.8594v2.7188z"/>
<text x="110.5" y="24.9951" fill="#000000" font-family="sans-serif" font-size="14" textLength="91">ThemePicker</text>
<text x="36" y="37.5791" fill="#000000" font-family="sans-serif" font-size="10" textLength="240">de.kaffeemitkoffein.tinyweatherforecastgermany</text>
</a>
<path id="d" d="m143 60.48v44.49" fill="none" stroke="#A80036" codeLine="32"/>
<ellipse cx="143" cy="53.11" rx="8" ry="8" fill="#fff" stroke="#A80036"/>
<line x1="143" x2="143" y1="61.11" y2="45.11" stroke="#A80036"/>
<line x1="135" x2="151" y1="53.11" y2="53.11" stroke="#A80036"/>
<text x="44" y="454.9229" fill="#888888" font-family="sans-serif" font-size="10" textLength="192">UMLDoclet 2.0.15, PlantUML 1.2021.13</text>
</svg>
