<?xml version="1.0" encoding="UTF-8"?>
<svg width="291px" height="515px" style="background:transparent;height:515px;width:291px" contentStyleType="text/css" data-diagram-type="CLASS" preserveAspectRatio="none" version="1.1" viewBox="0 0 291 515" xmlns="http://www.w3.org/2000/svg" xmlns:xlink="http://www.w3.org/1999/xlink" zoomAndPan="magnify">
<g id="a" class="entity" data-entity="de.kaffeemitkoffein.tinyweatherforecastgermany.ThemePicker.ThemeColor" data-source-line="13" data-uid="ent0002">
<a href="ThemePicker.ThemeColor.html" target="_top" title="ThemePicker.ThemeColor.html" xlink:actuate="onRequest" xlink:href="ThemePicker.ThemeColor.html" xlink:show="new" xlink:title="ThemePicker.ThemeColor.html" xlink:type="simple">
<rect x="6" y="86" width="278.11" height="404.47" rx="2.5" ry="2.5" fill="#F1F1F1" stroke="#181818" stroke-width=".5"/>
<ellipse cx="21" cy="104.97" rx="11" ry="11" fill="#ADD1B2" stroke="#181818"/>
<path d="m23.969 110.61q-0.5782 0.2969-1.2188 0.4375-0.6406 0.1562-1.3437 0.1562-2.5 0-3.8282-1.6406-1.3125-1.6562-1.3125-4.7812t1.3125-4.7813q1.3282-1.6562 3.8282-1.6562 0.7031 0 1.3437 0.1562 0.6563 0.1563 1.2188 0.4531v2.7188q-0.625-0.5781-1.2188-0.8438-0.5937-0.2812-1.2187-0.2812-1.3438 0-2.0313 1.0781-0.6875 1.0625-0.6875 3.1563 0 2.0937 0.6875 3.1718 0.6875 1.0625 2.0313 1.0625 0.625 0 1.2187-0.2656 0.5938-0.2812 1.2188-0.8594v2.7188z"/>
<text x="68.0137" y="103.9951" fill="#000000" font-family="sans-serif" font-size="14" textLength="180.0859">ThemePicker.ThemeColor</text>
<text x="35" y="116.5791" fill="#000000" font-family="sans-serif" font-size="10" textLength="246.1133">de.kaffeemitkoffein.tinyweatherforecastgermany</text>
<line x1="7" x2="283.11" y1="123.94" y2="123.94" stroke="#181818" stroke-width=".5"/>
<ellipse cx="17" cy="137.59" rx="3" ry="3" fill="none" stroke="#038048"/>
<text x="26" y="140.9326" fill="#000000" font-family="sans-serif" font-size="14" text-decoration="underline" textLength="89.6533">PRIMARY: int</text>
<ellipse cx="17" cy="153.88" rx="3" ry="3" fill="none" stroke="#038048"/>
<text x="26" y="157.2295" fill="#000000" font-family="sans-serif" font-size="14" text-decoration="underline" textLength="128.9189">PRIMARYDARK: int</text>
<ellipse cx="17" cy="170.18" rx="3" ry="3" fill="none" stroke="#038048"/>
<text x="26" y="173.5264" fill="#000000" font-family="sans-serif" font-size="14" text-decoration="underline" textLength="131.5098">PRIMARYLIGHT: int</text>
<ellipse cx="17" cy="186.48" rx="3" ry="3" fill="none" stroke="#038048"/>
<text x="26" y="189.8232" fill="#000000" font-family="sans-serif" font-size="14" text-decoration="underline" textLength="84.417">ACCENT: int</text>
<ellipse cx="17" cy="202.77" rx="3" ry="3" fill="none" stroke="#038048"/>
<text x="26" y="206.1201" fill="#000000" font-family="sans-serif" font-size="14" text-decoration="underline" textLength="62.959">TEXT: int</text>
<ellipse cx="17" cy="219.07" rx="3" ry="3" fill="none" stroke="#038048"/>
<text x="26" y="222.417" fill="#000000" font-family="sans-serif" font-size="14" text-decoration="underline" textLength="102.2246">TEXTDARK: int</text>
<ellipse cx="17" cy="235.37" rx="3" ry="3" fill="none" stroke="#038048"/>
<text x="26" y="238.7139" fill="#000000" font-family="sans-serif" font-size="14" text-decoration="underline" textLength="104.8154">TEXTLIGHT: int</text>
<ellipse cx="17" cy="251.66" rx="3" ry="3" fill="none" stroke="#038048"/>
<text x="26" y="255.0107" fill="#000000" font-family="sans-serif" font-size="14" text-decoration="underline" textLength="200.8604">WELCOMEBACKGROUND: int</text>
<ellipse cx="17" cy="267.96" rx="3" ry="3" fill="none" stroke="#038048"/>
<text x="26" y="271.3076" fill="#000000" font-family="sans-serif" font-size="14" text-decoration="underline" textLength="185.6504">WIDGETBACKGROUND: int</text>
<ellipse cx="17" cy="284.26" rx="3" ry="3" fill="none" stroke="#038048"/>
<text x="26" y="287.6045" fill="#000000" font-family="sans-serif" font-size="14" text-decoration="underline" textLength="115.0557">SECONDARY: int</text>
<ellipse cx="17" cy="300.55" rx="3" ry="3" fill="none" stroke="#038048"/>
<text x="26" y="303.9014" fill="#000000" font-family="sans-serif" font-size="14" text-decoration="underline" textLength="85.2783">YELLOW: int</text>
<ellipse cx="17" cy="316.85" rx="3" ry="3" fill="none" stroke="#038048"/>
<text x="26" y="320.1982" fill="#000000" font-family="sans-serif" font-size="14" text-decoration="underline" textLength="87.9102">ORANGE: int</text>
<ellipse cx="17" cy="333.15" rx="3" ry="3" fill="none" stroke="#038048"/>
<text x="26" y="336.4951" fill="#000000" font-family="sans-serif" font-size="14" text-decoration="underline" textLength="56.7725">RED: int</text>
<ellipse cx="17" cy="349.45" rx="3" ry="3" fill="none" stroke="#038048"/>
<text x="26" y="352.792" fill="#000000" font-family="sans-serif" font-size="14" text-decoration="underline" textLength="97.3711">MAGENTA: int</text>
<ellipse cx="17" cy="365.74" rx="3" ry="3" fill="none" stroke="#038048"/>
<text x="26" y="369.0889" fill="#000000" font-family="sans-serif" font-size="14" text-decoration="underline" textLength="77.3418">VIOLET: int</text>
<ellipse cx="17" cy="382.04" rx="3" ry="3" fill="none" stroke="#038048"/>
<text x="26" y="385.3857" fill="#000000" font-family="sans-serif" font-size="14" text-decoration="underline" textLength="63.916">BLUE: int</text>
<ellipse cx="17" cy="398.34" rx="3" ry="3" fill="none" stroke="#038048"/>
<text x="26" y="401.6826" fill="#000000" font-family="sans-serif" font-size="14" text-decoration="underline" textLength="65.7959">CYAN: int</text>
<ellipse cx="17" cy="414.63" rx="3" ry="3" fill="none" stroke="#038048"/>
<text x="26" y="417.9795" fill="#000000" font-family="sans-serif" font-size="14" text-decoration="underline" textLength="76.1592">GREEN: int</text>
<ellipse cx="17" cy="430.93" rx="3" ry="3" fill="none" stroke="#038048"/>
<text x="26" y="434.2764" fill="#000000" font-family="sans-serif" font-size="14" text-decoration="underline" textLength="180.6328">VALUES_SOLARIZED: int[]</text>
<ellipse cx="17" cy="447.23" rx="3" ry="3" fill="none" stroke="#038048"/>
<text x="26" y="450.5732" fill="#000000" font-family="sans-serif" font-size="14" text-decoration="underline" textLength="226.8984">VALUES_SOLARIZED_DARK: int[]</text>
<ellipse cx="17" cy="463.52" rx="3" ry="3" fill="none" stroke="#038048"/>
<text x="26" y="466.8701" fill="#000000" font-family="sans-serif" font-size="14" text-decoration="underline" textLength="142.1328">VALUES_LIGHT: int[]</text>
<ellipse cx="17" cy="479.82" rx="3" ry="3" fill="none" stroke="#038048"/>
<text x="26" y="483.167" fill="#000000" font-family="sans-serif" font-size="14" text-decoration="underline" textLength="139.542">VALUES_DARK: int[]</text>
</a>
</g>
<g id="b" class="entity" data-entity="de.kaffeemitkoffein.tinyweatherforecastgermany.ThemePicker" data-source-line="38" data-uid="ent0003">
<a href="ThemePicker.html" target="_top" title="ThemePicker.html" xlink:actuate="onRequest" xlink:href="ThemePicker.html" xlink:show="new" xlink:title="ThemePicker.html" xlink:type="simple">
<rect x="6" y="12" width="278.11" height="37.938" rx="2.5" ry="2.5" fill="#F1F1F1" stroke="#181818" stroke-width=".5"/>
<ellipse cx="21" cy="30.969" rx="11" ry="11" fill="#ADD1B2" stroke="#181818"/>
<path d="m23.969 36.609q-0.5782 0.2969-1.2188 0.4375-0.6406 0.1562-1.3437 0.1562-2.5 0-3.8282-1.6406-1.3125-1.6562-1.3125-4.7812t1.3125-4.7813q1.3282-1.6562 3.8282-1.6562 0.7031 0 1.3437 0.1562 0.6563 0.1563 1.2188 0.4531v2.7188q-0.625-0.5781-1.2188-0.8438-0.5937-0.2812-1.2187-0.2812-1.3438 0-2.0313 1.0781-0.6875 1.0625-0.6875 3.1563 0 2.0937 0.6875 3.1718 0.6875 1.0625 2.0313 1.0625 0.625 0 1.2187-0.2656 0.5938-0.2812 1.2188-0.8594v2.7188z"/>
<text x="112.6592" y="29.9951" fill="#000000" font-family="sans-serif" font-size="14" textLength="90.7949">ThemePicker</text>
<text x="35" y="42.5791" fill="#000000" font-family="sans-serif" font-size="10" textLength="246.1133">de.kaffeemitkoffein.tinyweatherforecastgermany</text>
</a>
</g>
<g id="c" class="link" stroke="#181818" data-entity-1="de.kaffeemitkoffein.tinyweatherforecastgermany.ThemePicker" data-entity-2="de.kaffeemitkoffein.tinyweatherforecastgermany.ThemePicker.ThemeColor" data-uid="lnk4">
<ellipse cx="145" cy="58.339" rx="8" ry="8" fill="#fff"/>
<line x1="145" x2="145" y1="66.339" y2="50.339"/>
<line x1="137" x2="153" y1="58.339" y2="58.339"/>
<path d="m145 66.339v19.56" fill="none"/>
</g>
<g class="footer" data-source-line="48">
<text x="139.9106" y="493.2822" fill="#888888" font-family="sans-serif" font-size="10" textLength="3.1787"></text>
<a href="https://github.com/talsma-ict/umldoclet" target="_top" title="https://github.com/talsma-ict/umldoclet" xlink:actuate="onRequest" xlink:href="https://github.com/talsma-ict/umldoclet" xlink:show="new" xlink:title="https://github.com/talsma-ict/umldoclet" xlink:type="simple">
<text x="100.3452" y="504.9229" fill="#888888" font-family="sans-serif" font-size="10" textLength="82.3096">UMLDoclet 2.2.4</text>
</a>
</g>
</svg>
