<?xml version="1.0" encoding="UTF-8"?>
<svg width="286px" height="167px" style="background:transparent;height:167px;width:286px" contentStyleType="text/css" preserveAspectRatio="none" version="1.1" viewBox="0 0 286 167" xmlns="http://www.w3.org/2000/svg" xmlns:xlink="http://www.w3.org/1999/xlink" zoomAndPan="magnify">
<a href="Weather.SimpleDateFormats.html" target="_top" title="Weather.SimpleDateFormats.html" xlink:actuate="onRequest" xlink:href="Weather.SimpleDateFormats.html" xlink:show="new" xlink:title="Weather.SimpleDateFormats.html" xlink:type="simple">
<g id="a">
<rect id="b" x="7" y="105" width="272" height="37.938" rx="2.5" ry="2.5" fill="#F1F1F1" stroke="#181818" stroke-width=".5" codeLine="5"/>
<ellipse cx="22" cy="123.97" rx="11" ry="11" fill="#ADD1B2" stroke="#181818"/>
<path d="m24.969 129.61q-0.5782 0.2969-1.2188 0.4375-0.6406 0.1562-1.3437 0.1562-2.5 0-3.8282-1.6406-1.3125-1.6562-1.3125-4.7812t1.3125-4.7813q1.3282-1.6562 3.8282-1.6562 0.7031 0 1.3437 0.1562 0.6563 0.1563 1.2188 0.4531v2.7188q-0.625-0.5781-1.2188-0.8438-0.5937-0.2812-1.2187-0.2812-1.3438 0-2.0313 1.0781-0.6875 1.0625-0.6875 3.1563 0 2.0937 0.6875 3.1718 0.6875 1.0625 2.0313 1.0625 0.625 0 1.2187-0.2656 0.5938-0.2812 1.2188-0.8594v2.7188z"/>
<text x="57.5" y="122.9951" fill="#000000" font-family="sans-serif" font-size="14" textLength="197">Weather.SimpleDateFormats</text>
<text x="36" y="135.5791" fill="#000000" font-family="sans-serif" font-size="10" textLength="240">de.kaffeemitkoffein.tinyweatherforecastgermany</text>
</g>
</a>
<a href="Weather.html" target="_top" title="Weather.html" xlink:actuate="onRequest" xlink:href="Weather.html" xlink:show="new" xlink:title="Weather.html" xlink:type="simple">
<g id="c">
<rect id="d" x="7" y="7" width="272" height="37.938" rx="2.5" ry="2.5" fill="#F1F1F1" stroke="#181818" stroke-width=".5" codeLine="8"/>
<ellipse cx="22" cy="25.969" rx="11" ry="11" fill="#ADD1B2" stroke="#181818"/>
<path d="m24.969 31.609q-0.5782 0.2969-1.2188 0.4375-0.6406 0.1562-1.3437 0.1562-2.5 0-3.8282-1.6406-1.3125-1.6562-1.3125-4.7812t1.3125-4.7813q1.3282-1.6562 3.8282-1.6562 0.7031 0 1.3437 0.1562 0.6563 0.1563 1.2188 0.4531v2.7188q-0.625-0.5781-1.2188-0.8438-0.5937-0.2812-1.2187-0.2812-1.3438 0-2.0313 1.0781-0.6875 1.0625-0.6875 3.1563 0 2.0937 0.6875 3.1718 0.6875 1.0625 2.0313 1.0625 0.625 0 1.2187-0.2656 0.5938-0.2812 1.2188-0.8594v2.7188z"/>
<text x="127" y="24.9951" fill="#000000" font-family="sans-serif" font-size="14" textLength="58">Weather</text>
<text x="36" y="37.5791" fill="#000000" font-family="sans-serif" font-size="10" textLength="240">de.kaffeemitkoffein.tinyweatherforecastgermany</text>
</g>
</a>
<g id="e" stroke="#181818">
<path id="f" d="m143 61.06v43.64" fill="none" codeLine="10"/>
<ellipse cx="143" cy="53.06" rx="8" ry="8" fill="#fff"/>
<line x1="143" x2="143" y1="61.06" y2="45.06"/>
<line x1="135" x2="151" y1="53.06" y2="53.06"/>
</g>
<text x="46" y="157.2197" fill="#888888" font-family="sans-serif" font-size="10" textLength="180">UMLDoclet 2.1.2, PlantUML 1.2024.3</text>
</svg>
