<?xml version="1.0" encoding="UTF-8"?>
<svg width="302px" height="279px" style="background:transparent;height:279px;width:302px" contentStyleType="text/css" data-diagram-type="CLASS" preserveAspectRatio="none" version="1.1" viewBox="0 0 302 279" xmlns="http://www.w3.org/2000/svg" xmlns:xlink="http://www.w3.org/1999/xlink" zoomAndPan="magnify">
<g id="a" class="entity" data-entity="de.kaffeemitkoffein.tinyweatherforecastgermany.Weather.RiseSetTimes" data-source-line="13" data-uid="ent0002">
<a href="Weather.RiseSetTimes.html" target="_top" title="Weather.RiseSetTimes.html" xlink:actuate="onRequest" xlink:href="Weather.RiseSetTimes.html" xlink:show="new" xlink:title="Weather.RiseSetTimes.html" xlink:type="simple">
<rect x="6" y="86" width="289.76" height="168.02" rx="2.5" ry="2.5" fill="#F1F1F1" stroke="#181818" stroke-width=".5"/>
<ellipse cx="26.243" cy="104.97" rx="11" ry="11" fill="#ADD1B2" stroke="#181818"/>
<path d="m29.212 110.61q-0.5782 0.2969-1.2188 0.4375-0.6406 0.1562-1.3437 0.1562-2.5 0-3.8282-1.6406-1.3125-1.6562-1.3125-4.7812t1.3125-4.7813q1.3282-1.6562 3.8282-1.6562 0.7031 0 1.3437 0.1562 0.6563 0.1563 1.2188 0.4531v2.7188q-0.625-0.5781-1.2188-0.8438-0.5937-0.2812-1.2187-0.2812-1.3438 0-2.0313 1.0781-0.6875 1.0625-0.6875 3.1563 0 2.0937 0.6875 3.1718 0.6875 1.0625 2.0313 1.0625 0.625 0 1.2187-0.2656 0.5938-0.2812 1.2188-0.8594v2.7188z"/>
<text x="85.1065" y="103.9951" fill="#000000" font-family="sans-serif" font-size="14" textLength="158.7168">Weather.RiseSetTimes</text>
<text x="41.4083" y="116.5791" fill="#000000" font-family="sans-serif" font-size="10" textLength="246.1133">de.kaffeemitkoffein.tinyweatherforecastgermany</text>
<line x1="7" x2="294.76" y1="123.94" y2="123.94" stroke="#181818" stroke-width=".5"/>
<ellipse cx="17" cy="137.59" rx="3" ry="3" fill="none" stroke="#038048"/>
<text x="26" y="140.9326" fill="#000000" font-family="sans-serif" font-size="14" text-decoration="underline" textLength="59.0078">RISE: int</text>
<ellipse cx="17" cy="153.88" rx="3" ry="3" fill="none" stroke="#038048"/>
<text x="26" y="157.2295" fill="#000000" font-family="sans-serif" font-size="14" text-decoration="underline" textLength="53.7031">SET: int</text>
<ellipse cx="17" cy="170.18" rx="3" ry="3" fill="none" stroke="#038048"/>
<text x="26" y="173.5264" fill="#000000" font-family="sans-serif" font-size="14" text-decoration="underline" textLength="171.5479">TWILIGHT_MORNING: int</text>
<ellipse cx="17" cy="186.48" rx="3" ry="3" fill="none" stroke="#038048"/>
<text x="26" y="189.8232" fill="#000000" font-family="sans-serif" font-size="14" text-decoration="underline" textLength="165.9902">TWILIGHT_EVENING: int</text>
<ellipse cx="17" cy="202.77" rx="3" ry="3" fill="none" stroke="#038048"/>
<text x="26" y="206.1201" fill="#000000" font-family="sans-serif" font-size="14" textLength="75.3457">sun: long[]</text>
<ellipse cx="17" cy="219.07" rx="3" ry="3" fill="none" stroke="#038048"/>
<text x="26" y="222.417" fill="#000000" font-family="sans-serif" font-size="14" textLength="89.9473">moon: long[]</text>
<line x1="7" x2="294.76" y1="229.72" y2="229.72" stroke="#181818" stroke-width=".5"/>
<ellipse cx="17" cy="243.37" rx="3" ry="3" fill="#84BE84" stroke="#038048"/>
<text x="26" y="246.7139" fill="#000000" font-family="sans-serif" font-size="14" textLength="263.7646">RiseSetTimes(WeatherLocation, long)</text>
</a>
</g>
<g id="b" class="entity" data-entity="de.kaffeemitkoffein.tinyweatherforecastgermany.Weather" data-source-line="23" data-uid="ent0003">
<a href="Weather.html" target="_top" title="Weather.html" xlink:actuate="onRequest" xlink:href="Weather.html" xlink:show="new" xlink:title="Weather.html" xlink:type="simple">
<rect x="12" y="12" width="278.11" height="37.938" rx="2.5" ry="2.5" fill="#F1F1F1" stroke="#181818" stroke-width=".5"/>
<ellipse cx="27" cy="30.969" rx="11" ry="11" fill="#ADD1B2" stroke="#181818"/>
<path d="m29.969 36.609q-0.5782 0.2969-1.2188 0.4375-0.6406 0.1562-1.3437 0.1562-2.5 0-3.8282-1.6406-1.3125-1.6562-1.3125-4.7812t1.3125-4.7813q1.3282-1.6562 3.8282-1.6562 0.7031 0 1.3437 0.1562 0.6563 0.1563 1.2188 0.4531v2.7188q-0.625-0.5781-1.2188-0.8438-0.5937-0.2812-1.2187-0.2812-1.3438 0-2.0313 1.0781-0.6875 1.0625-0.6875 3.1563 0 2.0937 0.6875 3.1718 0.6875 1.0625 2.0313 1.0625 0.625 0 1.2187-0.2656 0.5938-0.2812 1.2188-0.8594v2.7188z"/>
<text x="134.1733" y="29.9951" fill="#000000" font-family="sans-serif" font-size="14" textLength="59.7666">Weather</text>
<text x="41" y="42.5791" fill="#000000" font-family="sans-serif" font-size="10" textLength="246.1133">de.kaffeemitkoffein.tinyweatherforecastgermany</text>
</a>
</g>
<g id="c" class="link" stroke="#181818" data-entity-1="de.kaffeemitkoffein.tinyweatherforecastgermany.Weather" data-entity-2="de.kaffeemitkoffein.tinyweatherforecastgermany.Weather.RiseSetTimes" data-uid="lnk4">
<ellipse cx="151" cy="58.192" rx="8" ry="8" fill="#fff"/>
<line x1="151" x2="151" y1="66.192" y2="50.192"/>
<line x1="143" x2="159" y1="58.192" y2="58.192"/>
<path d="m151 66.192v19.799" fill="none"/>
</g>
<g class="footer" data-source-line="33">
<text x="145.9106" y="257.2822" fill="#888888" font-family="sans-serif" font-size="10" textLength="3.1787"></text>
<a href="https://github.com/talsma-ict/umldoclet" target="_top" title="https://github.com/talsma-ict/umldoclet" xlink:actuate="onRequest" xlink:href="https://github.com/talsma-ict/umldoclet" xlink:show="new" xlink:title="https://github.com/talsma-ict/umldoclet" xlink:type="simple">
<text x="106.3452" y="268.9229" fill="#888888" font-family="sans-serif" font-size="10" textLength="82.3096">UMLDoclet 2.2.4</text>
</a>
</g>
</svg>
