<?xml version="1.0" encoding="UTF-8"?>
<svg width="348px" height="355px" style="background:transparent;height:355px;width:348px" contentScriptType="application/ecmascript" contentStyleType="text/css" preserveAspectRatio="none" version="1.1" viewBox="0 0 348 355" xmlns="http://www.w3.org/2000/svg" xmlns:xlink="http://www.w3.org/1999/xlink" zoomAndPan="magnify">
<defs>
<filter id="a" x="-1" y="-1" width="300%" height="300%">
<feGaussianBlur result="blurOut" stdDeviation="2.0"/>
<feColorMatrix in="blurOut" result="blurOut2" values="0 0 0 0 0 0 0 0 0 0 0 0 0 0 0 0 0 0 .4 0"/>
<feOffset dx="4.0" dy="4.0" in="blurOut2" result="blurOut3"/>
<feBlend in="SourceGraphic" in2="blurOut3"/>
</filter>
</defs>
<a href="WeatherWarningActivity.html" target="_top" title="WeatherWarningActivity.html" xlink:actuate="onRequest" xlink:href="WeatherWarningActivity.html" xlink:show="new" xlink:title="WeatherWarningActivity.html" xlink:type="simple">
<rect id="b" x="9" y="7" width="325" height="220.4" fill="#FEFECE" filter="url(#a)" stroke="#A80036" stroke-width="1.5" codeLine="5"/>
<ellipse cx="47.85" cy="25.969" rx="11" ry="11" fill="#ADD1B2" stroke="#A80036"/>
<path d="m50.819 31.609q-0.5782 0.2969-1.2188 0.4375-0.6406 0.1562-1.3437 0.1562-2.5 0-3.8282-1.6406-1.3125-1.6562-1.3125-4.7812t1.3125-4.7813q1.3282-1.6562 3.8282-1.6562 0.7031 0 1.3437 0.1562 0.6563 0.1563 1.2188 0.4531v2.7188q-0.625-0.5781-1.2188-0.8438-0.5937-0.2812-1.2187-0.2812-1.3438 0-2.0313 1.0781-0.6875 1.0625-0.6875 3.1563 0 2.0937 0.6875 3.1718 0.6875 1.0625 2.0313 1.0625 0.625 0 1.2187-0.2656 0.5938-0.2812 1.2188-0.8594v2.7188z"/>
<text x="106.65" y="24.9951" fill="#000000" font-family="sans-serif" font-size="14" textLength="161">WeatherWarningActivity</text>
<text x="67.15" y="37.5791" fill="#000000" font-family="sans-serif" font-size="10" textLength="240">de.kaffeemitkoffein.tinyweatherforecastgermany</text>
<line x1="10" x2="333" y1="44.938" y2="44.938" stroke="#A80036" stroke-width="1.5"/>
<ellipse cx="20" cy="55.938" rx="3" ry="3" fill="none" stroke="#038048"/>
<text x="29" y="59.1479" fill="#000000" font-family="sans-serif" font-size="11" text-decoration="underline" textLength="209">WEATHER_WARNINGS_UPDATE: String</text>
<ellipse cx="20" cy="68.742" rx="3" ry="3" fill="none" stroke="#038048"/>
<text x="29" y="71.9526" fill="#000000" font-family="sans-serif" font-size="11" text-decoration="underline" textLength="258">WEATHER_WARNINGS_UPDATE_RESULT: String</text>
<ellipse cx="20" cy="81.547" rx="3" ry="3" fill="none" stroke="#038048"/>
<text x="29" y="84.7573" fill="#000000" font-family="sans-serif" font-size="11" text-decoration="underline" textLength="207">SIS_ZOOMMAPSTATEBUNDLE: String</text>
<ellipse cx="20" cy="94.352" rx="3" ry="3" fill="none" stroke="#038048"/>
<text x="29" y="97.562" fill="#000000" font-family="sans-serif" font-size="11" text-decoration="underline" textLength="118">SIS_HIDERAIN: String</text>
<line x1="10" x2="333" y1="104.16" y2="104.16" stroke="#A80036" stroke-width="1.5"/>
<ellipse cx="20" cy="115.16" rx="3" ry="3" fill="#84BE84" stroke="#038048"/>
<text x="29" y="118.3667" fill="#000000" font-family="sans-serif" font-size="11" textLength="198">onSaveInstanceState(Bundle): void</text>
<polygon points="20 122.96 24 126.96 20 130.96 16 126.96" fill="#ff4" stroke="#B38D22"/>
<text x="29" y="131.1714" fill="#000000" font-family="sans-serif" font-size="11" textLength="214">onRestoreInstanceState(Bundle): void</text>
<polygon points="20 135.77 24 139.77 20 143.77 16 139.77" fill="#ff4" stroke="#B38D22"/>
<text x="29" y="143.9761" fill="#000000" font-family="sans-serif" font-size="11" textLength="99">onResume(): void</text>
<polygon points="20 148.57 24 152.57 20 156.57 16 152.57" fill="#ff4" stroke="#B38D22"/>
<text x="29" y="156.7808" fill="#000000" font-family="sans-serif" font-size="11" textLength="88">onPause(): void</text>
<polygon points="20 161.38 24 165.38 20 169.38 16 165.38" fill="#ff4" stroke="#B38D22"/>
<text x="29" y="169.5854" fill="#000000" font-family="sans-serif" font-size="11" textLength="130">onCreate(Bundle): void</text>
<ellipse cx="20" cy="179.18" rx="3" ry="3" fill="#84BE84" stroke="#038048"/>
<text x="29" y="182.3901" fill="#000000" font-family="sans-serif" font-size="11" textLength="217">onCreateOptionsMenu(Menu): boolean</text>
<ellipse cx="20" cy="191.98" rx="3" ry="3" fill="#84BE84" stroke="#038048"/>
<text x="29" y="195.1948" fill="#000000" font-family="sans-serif" font-size="11" textLength="248">onOptionsItemSelected(MenuItem): boolean</text>
<ellipse cx="20" cy="204.79" rx="3" ry="3" fill="#84BE84" stroke="#038048"/>
<text x="29" y="207.9995" fill="#000000" font-family="sans-serif" font-size="11" textLength="169">updateActionBarLabels(): void</text>
<ellipse cx="20" cy="217.59" rx="3" ry="3" fill="#84BE84" stroke="#038048"/>
<text x="29" y="220.8042" fill="#000000" font-family="sans-serif" font-size="11" textLength="299">onRequestPermissionsResult(int, String[], int[]): void</text>
</a>
<a href="WeatherWarningActivity.PlotPoint.html" target="_top" title="WeatherWarningActivity.PlotPoint.html" xlink:actuate="onRequest" xlink:href="WeatherWarningActivity.PlotPoint.html" xlink:show="new" xlink:title="WeatherWarningActivity.PlotPoint.html" xlink:type="simple">
<rect id="c" x="35.5" y="287" width="272" height="37.938" fill="#FEFECE" filter="url(#a)" stroke="#A80036" stroke-width="1.5" codeLine="20"/>
<ellipse cx="50.5" cy="305.97" rx="11" ry="11" fill="#ADD1B2" stroke="#A80036"/>
<path d="m53.469 311.61q-0.5782 0.2969-1.2188 0.4375-0.6406 0.1562-1.3437 0.1562-2.5 0-3.8282-1.6406-1.3125-1.6562-1.3125-4.7812t1.3125-4.7813q1.3282-1.6562 3.8282-1.6562 0.7031 0 1.3437 0.1562 0.6563 0.1563 1.2188 0.4531v2.7188q-0.625-0.5781-1.2188-0.8438-0.5937-0.2812-1.2187-0.2812-1.3438 0-2.0313 1.0781-0.6875 1.0625-0.6875 3.1563 0 2.0937 0.6875 3.1718 0.6875 1.0625 2.0313 1.0625 0.625 0 1.2187-0.2656 0.5938-0.2812 1.2188-0.8594v2.7188z"/>
<text x="71.5" y="304.9951" fill="#000000" font-family="sans-serif" font-size="14" textLength="226">WeatherWarningActivity.PlotPoint</text>
<text x="64.5" y="317.5791" fill="#000000" font-family="sans-serif" font-size="10" textLength="240">de.kaffeemitkoffein.tinyweatherforecastgermany</text>
</a>
<path id="d" d="m171.5 242.31v44.54" fill="none" stroke="#A80036" codeLine="22"/>
<ellipse cx="171.5" cy="235.05" rx="8" ry="8" fill="#fff" stroke="#A80036"/>
<line x1="171.5" x2="171.5" y1="243.05" y2="227.05" stroke="#A80036"/>
<line x1="163.5" x2="179.5" y1="235.05" y2="235.05" stroke="#A80036"/>
<text x="71.5" y="347.2197" fill="#888888" font-family="sans-serif" font-size="10" textLength="192">UMLDoclet 2.0.15, PlantUML 1.2021.13</text>
</svg>
