<?xml version="1.0" encoding="UTF-8"?>
<svg width="414px" height="541px" style="background:transparent;height:541px;width:414px" contentStyleType="text/css" preserveAspectRatio="none" version="1.1" viewBox="0 0 414 541" xmlns="http://www.w3.org/2000/svg" xmlns:xlink="http://www.w3.org/1999/xlink" zoomAndPan="magnify">
<a href="WeatherLayerMapActivity.html" target="_top" title="WeatherLayerMapActivity.html" xlink:actuate="onRequest" xlink:href="WeatherLayerMapActivity.html" xlink:show="new" xlink:title="WeatherLayerMapActivity.html" xlink:type="simple">
<g id="a">
<rect id="b" x="9" y="7" width="398" height="412.47" rx="2.5" ry="2.5" fill="#F1F1F1" stroke="#181818" stroke-width=".5" codeLine="5"/>
<ellipse cx="83.75" cy="25.969" rx="11" ry="11" fill="#ADD1B2" stroke="#181818"/>
<path d="m86.719 31.609q-0.5782 0.2969-1.2188 0.4375-0.6406 0.1562-1.3437 0.1562-2.5 0-3.8282-1.6406-1.3125-1.6562-1.3125-4.7812t1.3125-4.7813q1.3282-1.6562 3.8282-1.6562 0.7031 0 1.3437 0.1562 0.6563 0.1563 1.2188 0.4531v2.7188q-0.625-0.5781-1.2188-0.8438-0.5937-0.2812-1.2187-0.2812-1.3438 0-2.0313 1.0781-0.6875 1.0625-0.6875 3.1563 0 2.0937 0.6875 3.1718 0.6875 1.0625 2.0313 1.0625 0.625 0 1.2187-0.2656 0.5938-0.2812 1.2188-0.8594v2.7188z"/>
<text x="139.25" y="24.9951" fill="#000000" font-family="sans-serif" font-size="14" textLength="170">WeatherLayerMapActivity</text>
<text x="104.25" y="37.5791" fill="#000000" font-family="sans-serif" font-size="10" textLength="240">de.kaffeemitkoffein.tinyweatherforecastgermany</text>
<line x1="10" x2="406" y1="44.938" y2="44.938" stroke="#181818" stroke-width=".5"/>
<ellipse cx="20" cy="58.586" rx="3" ry="3" fill="none" stroke="#038048"/>
<text x="29" y="61.9326" fill="#000000" font-family="sans-serif" font-size="14" text-decoration="underline" textLength="93">LAYER: String</text>
<line x1="10" x2="406" y1="69.234" y2="69.234" stroke="#181818" stroke-width=".5"/>
<polygon points="20 77.883 24 81.883 20 85.883 16 81.883" fill="#ff4" stroke="#B38D22"/>
<text x="29" y="86.2295" fill="#000000" font-family="sans-serif" font-size="14" textLength="160">onCreate(Bundle): void</text>
<ellipse cx="20" cy="99.18" rx="3" ry="3" fill="#84BE84" stroke="#038048"/>
<text x="29" y="102.5264" fill="#000000" font-family="sans-serif" font-size="14" textLength="242">onSaveInstanceState(Bundle): void</text>
<polygon points="20 110.48 24 114.48 20 118.48 16 114.48" fill="#ff4" stroke="#B38D22"/>
<text x="29" y="118.8232" fill="#000000" font-family="sans-serif" font-size="14" textLength="123">onResume(): void</text>
<polygon points="20 126.77 24 130.77 20 134.77 16 130.77" fill="#ff4" stroke="#B38D22"/>
<text x="29" y="135.1201" fill="#000000" font-family="sans-serif" font-size="14" textLength="108">onPause(): void</text>
<polygon points="20 143.07 24 147.07 20 151.07 16 147.07" fill="#ff4" stroke="#B38D22"/>
<text x="29" y="151.417" fill="#000000" font-family="sans-serif" font-size="14" textLength="97">onStop(): void</text>
<polygon points="20 159.37 24 163.37 20 167.37 16 163.37" fill="#ff4" stroke="#B38D22"/>
<text x="29" y="167.7139" fill="#000000" font-family="sans-serif" font-size="14" textLength="119">onDestroy(): void</text>
<ellipse cx="20" cy="180.66" rx="3" ry="3" fill="#84BE84" stroke="#038048"/>
<text x="29" y="184.0107" fill="#000000" font-family="sans-serif" font-size="14" textLength="271">onCreateOptionsMenu(Menu): boolean</text>
<ellipse cx="20" cy="196.96" rx="3" ry="3" fill="#84BE84" stroke="#038048"/>
<text x="29" y="200.3076" fill="#000000" font-family="sans-serif" font-size="14" textLength="169">findLayerPosition(int): int</text>
<ellipse cx="20" cy="213.26" rx="3" ry="3" fill="#84BE84" stroke="#038048"/>
<text x="29" y="216.6045" fill="#000000" font-family="sans-serif" font-size="14" textLength="145">changeMap(int): void</text>
<ellipse cx="20" cy="229.55" rx="3" ry="3" fill="#84BE84" stroke="#038048"/>
<text x="29" y="232.9014" fill="#000000" font-family="sans-serif" font-size="14" textLength="307">onOptionsItemSelected(MenuItem): boolean</text>
<ellipse cx="20" cy="245.85" rx="3" ry="3" fill="#84BE84" stroke="#038048"/>
<text x="29" y="249.1982" fill="#000000" font-family="sans-serif" font-size="14" textLength="240">removeSpecialChars(String): String</text>
<ellipse cx="20" cy="262.15" rx="3" ry="3" fill="#84BE84" stroke="#038048"/>
<text x="29" y="265.4951" fill="#000000" font-family="sans-serif" font-size="14" textLength="179">setTimeSpinnerList(): void</text>
<ellipse cx="20" cy="278.45" rx="3" ry="3" fill="#84BE84" stroke="#038048"/>
<text x="29" y="281.792" fill="#000000" font-family="sans-serif" font-size="14" textLength="187">setPollenSpinnerList(): void</text>
<ellipse cx="20" cy="294.74" rx="3" ry="3" fill="#84BE84" stroke="#038048"/>
<text x="29" y="298.0889" fill="#000000" font-family="sans-serif" font-size="14" textLength="318">getBaseSpinnerPosition(): SpinnerPositionPair</text>
<ellipse cx="20" cy="311.04" rx="3" ry="3" fill="#84BE84" stroke="#038048"/>
<text x="29" y="314.3857" fill="#000000" font-family="sans-serif" font-size="14" textLength="185">setCloudSpinnerList(): void</text>
<ellipse cx="20" cy="327.34" rx="3" ry="3" fill="#84BE84" stroke="#038048"/>
<text x="29" y="330.6826" fill="#000000" font-family="sans-serif" font-size="14" textLength="329">setTodaySensedTemeraturesSpinnerList(): void</text>
<ellipse cx="20" cy="343.63" rx="3" ry="3" fill="#84BE84" stroke="#038048"/>
<text x="29" y="346.9795" fill="#000000" font-family="sans-serif" font-size="14" textLength="372">setTodaySensedTemperatureTimesSpinnerList(): void</text>
<ellipse cx="20" cy="359.93" rx="3" ry="3" fill="#84BE84" stroke="#038048"/>
<text x="29" y="363.2764" fill="#000000" font-family="sans-serif" font-size="14" textLength="286">setMinMaxTemperatureSpinnerList(): void</text>
<ellipse cx="20" cy="376.23" rx="3" ry="3" fill="#84BE84" stroke="#038048"/>
<text x="29" y="379.5732" fill="#000000" font-family="sans-serif" font-size="14" textLength="143">attachSpinner(): void</text>
<ellipse cx="20" cy="392.52" rx="3" ry="3" fill="#84BE84" stroke="#038048"/>
<text x="29" y="395.8701" fill="#000000" font-family="sans-serif" font-size="14" textLength="123">displayMap(): void</text>
<ellipse cx="20" cy="408.82" rx="3" ry="3" fill="#84BE84" stroke="#038048"/>
<text x="29" y="412.167" fill="#000000" font-family="sans-serif" font-size="14" textLength="226">drawLegend(WeatherLayer): void</text>
</g>
</a>
<a href="WeatherLayerMapActivity.SpinnerPositionPair.html" target="_top" title="WeatherLayerMapActivity.SpinnerPositionPair.html" xlink:actuate="onRequest" xlink:href="WeatherLayerMapActivity.SpinnerPositionPair.html" xlink:show="new" xlink:title="WeatherLayerMapActivity.SpinnerPositionPair.html" xlink:type="simple">
<g id="c">
<rect id="d" x="38.5" y="479" width="339" height="37.938" rx="2.5" ry="2.5" fill="#F1F1F1" stroke="#181818" stroke-width=".5" codeLine="29"/>
<ellipse cx="53.5" cy="497.97" rx="11" ry="11" fill="#ADD1B2" stroke="#181818"/>
<path d="m56.469 503.61q-0.5782 0.2969-1.2188 0.4375-0.6406 0.1562-1.3437 0.1562-2.5 0-3.8282-1.6406-1.3125-1.6562-1.3125-4.7812t1.3125-4.7813q1.3282-1.6562 3.8282-1.6562 0.7031 0 1.3437 0.1562 0.6563 0.1563 1.2188 0.4531v2.7188q-0.625-0.5781-1.2188-0.8438-0.5937-0.2812-1.2187-0.2812-1.3438 0-2.0313 1.0781-0.6875 1.0625-0.6875 3.1563 0 2.0937 0.6875 3.1718 0.6875 1.0625 2.0313 1.0625 0.625 0 1.2187-0.2656 0.5938-0.2812 1.2188-0.8594v2.7188z"/>
<text x="67.5" y="496.9951" fill="#000000" font-family="sans-serif" font-size="14" textLength="307">WeatherLayerMapActivity.SpinnerPositionPair</text>
<text x="101" y="509.5791" fill="#000000" font-family="sans-serif" font-size="10" textLength="240">de.kaffeemitkoffein.tinyweatherforecastgermany</text>
</g>
</a>
<g id="e" stroke="#181818">
<path id="f" d="m208 435.29v43.45" fill="none" codeLine="31"/>
<ellipse cx="208" cy="427.29" rx="8" ry="8" fill="#fff"/>
<line x1="208" x2="208" y1="435.29" y2="419.29"/>
<line x1="200" x2="216" y1="427.29" y2="427.29"/>
</g>
<text x="110" y="531.2197" fill="#888888" font-family="sans-serif" font-size="10" textLength="180">UMLDoclet 2.1.2, PlantUML 1.2024.3</text>
</svg>
