<?xml version="1.0" encoding="UTF-8"?>
<svg width="683px" height="427px" style="background:transparent;height:427px;width:683px" contentStyleType="text/css" preserveAspectRatio="none" version="1.1" viewBox="0 0 683 427" xmlns="http://www.w3.org/2000/svg" xmlns:xlink="http://www.w3.org/1999/xlink" zoomAndPan="magnify">
<a href="WeatherSyncAdapter.html" target="_top" title="WeatherSyncAdapter.html" xlink:actuate="onRequest" xlink:href="WeatherSyncAdapter.html" xlink:show="new" xlink:title="WeatherSyncAdapter.html" xlink:type="simple">
<g id="a">
<rect id="b" x="7" y="7" width="669" height="298.39" rx="2.5" ry="2.5" fill="#F1F1F1" stroke="#181818" stroke-width=".5" codeLine="5"/>
<ellipse cx="217.25" cy="25.969" rx="11" ry="11" fill="#ADD1B2" stroke="#181818"/>
<path d="m220.22 31.609q-0.5782 0.2969-1.2188 0.4375-0.6406 0.1562-1.3437 0.1562-2.5 0-3.8282-1.6406-1.3125-1.6562-1.3125-4.7812t1.3125-4.7813q1.3282-1.6562 3.8282-1.6562 0.7031 0 1.3437 0.1562 0.6563 0.1563 1.2188 0.4531v2.7188q-0.625-0.5781-1.2188-0.8438-0.5937-0.2812-1.2187-0.2812-1.3438 0-2.0313 1.0781-0.6875 1.0625-0.6875 3.1563 0 2.0937 0.6875 3.1718 0.6875 1.0625 2.0313 1.0625 0.625 0 1.2187-0.2656 0.5938-0.2812 1.2188-0.8594v2.7188z"/>
<text x="285.25" y="24.9951" fill="#000000" font-family="sans-serif" font-size="14" textLength="145">WeatherSyncAdapter</text>
<text x="237.75" y="37.5791" fill="#000000" font-family="sans-serif" font-size="10" textLength="240">de.kaffeemitkoffein.tinyweatherforecastgermany</text>
<line x1="8" x2="675" y1="44.938" y2="44.938" stroke="#181818" stroke-width=".5"/>
<ellipse cx="18" cy="58.586" rx="3" ry="3" fill="none" stroke="#038048"/>
<text x="27" y="61.9326" fill="#000000" font-family="sans-serif" font-size="14" text-decoration="underline" textLength="210">EXTRAS_UPDATE_FLAG: String</text>
<ellipse cx="18" cy="74.883" rx="3" ry="3" fill="none" stroke="#038048"/>
<text x="27" y="78.2295" fill="#000000" font-family="sans-serif" font-size="14" text-decoration="underline" textLength="83">IC_ID: String</text>
<ellipse cx="18" cy="91.18" rx="3" ry="3" fill="none" stroke="#038048"/>
<text x="27" y="94.5264" fill="#000000" font-family="sans-serif" font-size="14" text-decoration="underline" textLength="243">WARNING_NC_ID_SKELETON: String</text>
<ellipse cx="18" cy="107.48" rx="3" ry="3" fill="none" stroke="#038048"/>
<text x="27" y="110.8232" fill="#000000" font-family="sans-serif" font-size="14" text-decoration="underline" textLength="200">WARNING_NC_GROUP: String</text>
<line x1="8" x2="675" y1="118.12" y2="118.12" stroke="#181818" stroke-width=".5"/>
<ellipse cx="18" cy="131.77" rx="3" ry="3" fill="#84BE84" stroke="#038048"/>
<text x="27" y="135.1201" fill="#000000" font-family="sans-serif" font-size="14" textLength="273">WeatherSyncAdapter(Context, boolean)</text>
<ellipse cx="18" cy="148.07" rx="3" ry="3" fill="#84BE84" stroke="#038048"/>
<text x="27" y="151.417" fill="#000000" font-family="sans-serif" font-size="14" textLength="337">WeatherSyncAdapter(Context, boolean, boolean)</text>
<ellipse cx="18" cy="164.37" rx="3" ry="3" fill="#84BE84" stroke="#038048"/>
<text x="27" y="167.7139" fill="#000000" font-family="sans-serif" font-size="14" textLength="558">onPerformSync(Account, Bundle, String, ContentProviderClient, SyncResult): void</text>
<ellipse cx="18" cy="180.66" rx="3" ry="3" fill="#84BE84" stroke="#038048"/>
<text x="27" y="184.0107" fill="#000000" font-family="sans-serif" font-size="14" text-decoration="underline" textLength="392">getNotification(Context, NotificationManager): Notification</text>
<ellipse cx="18" cy="196.96" rx="3" ry="3" fill="#84BE84" stroke="#038048"/>
<text x="27" y="200.3076" fill="#000000" font-family="sans-serif" font-size="14" text-decoration="underline" textLength="354">getWarningIntent(Context, WeatherWarning): Intent</text>
<ellipse cx="18" cy="213.26" rx="3" ry="3" fill="#84BE84" stroke="#038048"/>
<text x="27" y="216.6045" fill="#000000" font-family="sans-serif" font-size="14" text-decoration="underline" textLength="493">getWarningPendingIntent(Context, WeatherWarning, int): PendingIntent</text>
<ellipse cx="18" cy="229.55" rx="3" ry="3" fill="#84BE84" stroke="#038048"/>
<text x="27" y="232.9014" fill="#000000" font-family="sans-serif" font-size="14" text-decoration="underline" textLength="643">getWarningNotification(Context, NotificationManager, WeatherWarning, String, int): Notification</text>
<ellipse cx="18" cy="245.85" rx="3" ry="3" fill="#84BE84" stroke="#038048"/>
<text x="27" y="249.1982" fill="#000000" font-family="sans-serif" font-size="14" text-decoration="underline" textLength="640">launchWeatherWarningNotifications(Context, ArrayList&lt;WeatherWarning&gt;, boolean): boolean</text>
<ellipse cx="18" cy="262.15" rx="3" ry="3" fill="#84BE84" stroke="#038048"/>
<text x="27" y="265.4951" fill="#000000" font-family="sans-serif" font-size="14" text-decoration="underline" textLength="512">cancelDeprecatedWarningNotifications(Context, NotificationManager): void</text>
<ellipse cx="18" cy="278.45" rx="3" ry="3" fill="#84BE84" stroke="#038048"/>
<text x="27" y="281.792" fill="#000000" font-family="sans-serif" font-size="14" text-decoration="underline" textLength="365">resetNotifications(Context, NotificationManager): void</text>
<ellipse cx="18" cy="294.74" rx="3" ry="3" fill="#84BE84" stroke="#038048"/>
<text x="27" y="298.0889" fill="#000000" font-family="sans-serif" font-size="14" text-decoration="underline" textLength="208">Update(Context, Bundle): void</text>
</g>
</a>
<a href="WeatherSyncAdapter.UpdateFlags.html" target="_top" title="WeatherSyncAdapter.UpdateFlags.html" xlink:actuate="onRequest" xlink:href="WeatherSyncAdapter.UpdateFlags.html" xlink:show="new" xlink:title="WeatherSyncAdapter.UpdateFlags.html" xlink:type="simple">
<g id="c">
<rect id="d" x="205.5" y="365" width="272" height="37.938" rx="2.5" ry="2.5" fill="#F1F1F1" stroke="#181818" stroke-width=".5" codeLine="22"/>
<ellipse cx="220.5" cy="383.97" rx="11" ry="11" fill="#ADD1B2" stroke="#181818"/>
<path d="m223.47 389.61q-0.5782 0.2969-1.2188 0.4375-0.6406 0.1562-1.3437 0.1562-2.5 0-3.8282-1.6406-1.3125-1.6562-1.3125-4.7812t1.3125-4.7813q1.3282-1.6562 3.8282-1.6562 0.7031 0 1.3437 0.1562 0.6563 0.1563 1.2188 0.4531v2.7188q-0.625-0.5781-1.2188-0.8438-0.5937-0.2812-1.2187-0.2812-1.3438 0-2.0313 1.0781-0.6875 1.0625-0.6875 3.1563 0 2.0937 0.6875 3.1718 0.6875 1.0625 2.0313 1.0625 0.625 0 1.2187-0.2656 0.5938-0.2812 1.2188-0.8594v2.7188z"/>
<text x="237" y="382.9951" fill="#000000" font-family="sans-serif" font-size="14" textLength="235">WeatherSyncAdapter.UpdateFlags</text>
<text x="234.5" y="395.5791" fill="#000000" font-family="sans-serif" font-size="10" textLength="240">de.kaffeemitkoffein.tinyweatherforecastgermany</text>
</g>
</a>
<g id="e" stroke="#181818">
<path id="f" d="m341.5 321.22v43.61" fill="none" codeLine="24"/>
<ellipse cx="341.5" cy="313.22" rx="8" ry="8" fill="#fff"/>
<line x1="341.5" x2="341.5" y1="321.22" y2="305.22"/>
<line x1="333.5" x2="349.5" y1="313.22" y2="313.22"/>
</g>
<text x="244.5" y="417.2197" fill="#888888" font-family="sans-serif" font-size="10" textLength="180">UMLDoclet 2.1.2, PlantUML 1.2024.3</text>
</svg>
