<?xml version="1.0" encoding="UTF-8"?>
<svg width="997px" height="444px" style="background:transparent;height:444px;width:997px" contentStyleType="text/css" preserveAspectRatio="none" version="1.1" viewBox="0 0 997 444" xmlns="http://www.w3.org/2000/svg" xmlns:xlink="http://www.w3.org/1999/xlink" zoomAndPan="magnify">
<a href="WeatherDetailsActivity.html" target="_top" title="WeatherDetailsActivity.html" xlink:actuate="onRequest" xlink:href="WeatherDetailsActivity.html" xlink:show="new" xlink:title="WeatherDetailsActivity.html" xlink:type="simple">
<g id="a">
<rect id="b" x="307.5" y="7" width="366" height="314.69" rx="2.5" ry="2.5" fill="#F1F1F1" stroke="#181818" stroke-width=".5" codeLine="5"/>
<ellipse cx="366.25" cy="25.969" rx="11" ry="11" fill="#ADD1B2" stroke="#181818"/>
<path d="m369.22 31.609q-0.5782 0.2969-1.2188 0.4375-0.6406 0.1562-1.3437 0.1562-2.5 0-3.8282-1.6406-1.3125-1.6562-1.3125-4.7812t1.3125-4.7813q1.3282-1.6562 3.8282-1.6562 0.7031 0 1.3437 0.1562 0.6563 0.1563 1.2188 0.4531v2.7188q-0.625-0.5781-1.2188-0.8438-0.5937-0.2812-1.2187-0.2812-1.3438 0-2.0313 1.0781-0.6875 1.0625-0.6875 3.1563 0 2.0937 0.6875 3.1718 0.6875 1.0625 2.0313 1.0625 0.625 0 1.2187-0.2656 0.5938-0.2812 1.2188-0.8594v2.7188z"/>
<text x="430.75" y="24.9951" fill="#000000" font-family="sans-serif" font-size="14" textLength="152">WeatherDetailsActivity</text>
<text x="386.75" y="37.5791" fill="#000000" font-family="sans-serif" font-size="10" textLength="240">de.kaffeemitkoffein.tinyweatherforecastgermany</text>
<line x1="308.5" x2="672.5" y1="44.938" y2="44.938" stroke="#181818" stroke-width=".5"/>
<ellipse cx="318.5" cy="58.586" rx="3" ry="3" fill="none" stroke="#038048"/>
<text x="327.5" y="61.9326" fill="#000000" font-family="sans-serif" font-size="14" text-decoration="underline" textLength="224">INTENT_EXTRA_POSITION: String</text>
<ellipse cx="318.5" cy="74.883" rx="3" ry="3" fill="none" stroke="#038048"/>
<text x="327.5" y="78.2295" fill="#000000" font-family="sans-serif" font-size="14" text-decoration="underline" textLength="142">SIS_POSITION: String</text>
<line x1="308.5" x2="672.5" y1="85.531" y2="85.531" stroke="#181818" stroke-width=".5"/>
<ellipse cx="318.5" cy="99.18" rx="3" ry="3" fill="#84BE84" stroke="#038048"/>
<text x="327.5" y="102.5264" fill="#000000" font-family="sans-serif" font-size="14" textLength="242">onSaveInstanceState(Bundle): void</text>
<ellipse cx="318.5" cy="115.48" rx="3" ry="3" fill="#84BE84" stroke="#038048"/>
<text x="327.5" y="118.8232" fill="#000000" font-family="sans-serif" font-size="14" textLength="264">onRestoreInstanceState(Bundle): void</text>
<polygon points="318.5 126.77 322.5 130.77 318.5 134.77 314.5 130.77" fill="#ff4" stroke="#B38D22"/>
<text x="327.5" y="135.1201" fill="#000000" font-family="sans-serif" font-size="14" textLength="160">onCreate(Bundle): void</text>
<ellipse cx="318.5" cy="148.07" rx="3" ry="3" fill="#84BE84" stroke="#038048"/>
<text x="327.5" y="151.417" fill="#000000" font-family="sans-serif" font-size="14" textLength="271">onCreateOptionsMenu(Menu): boolean</text>
<ellipse cx="318.5" cy="164.37" rx="3" ry="3" fill="#84BE84" stroke="#038048"/>
<text x="327.5" y="167.7139" fill="#000000" font-family="sans-serif" font-size="14" textLength="307">onOptionsItemSelected(MenuItem): boolean</text>
<ellipse cx="318.5" cy="180.66" rx="3" ry="3" fill="#84BE84" stroke="#038048"/>
<text x="327.5" y="184.0107" fill="#000000" font-family="sans-serif" font-size="14" textLength="140">displayValues(): void</text>
<ellipse cx="318.5" cy="196.96" rx="3" ry="3" fill="#84BE84" stroke="#038048"/>
<text x="327.5" y="200.3076" fill="#000000" font-family="sans-serif" font-size="14" textLength="340">setWarnings(WeatherInfo, WeatherLocation): void</text>
<ellipse cx="318.5" cy="213.26" rx="3" ry="3" fill="#84BE84" stroke="#038048"/>
<text x="327.5" y="216.6045" fill="#000000" font-family="sans-serif" font-size="14" textLength="274">setPrecipitationChart(WeatherInfo): void</text>
<ellipse cx="318.5" cy="229.55" rx="3" ry="3" fill="#84BE84" stroke="#038048"/>
<text x="327.5" y="232.9014" fill="#000000" font-family="sans-serif" font-size="14" textLength="322">setValues(WeatherInfo, WeatherLocation): void</text>
<ellipse cx="318.5" cy="245.85" rx="3" ry="3" fill="#84BE84" stroke="#038048"/>
<text x="327.5" y="249.1982" fill="#000000" font-family="sans-serif" font-size="14" text-decoration="underline" textLength="336">setPollenLegendColorBoxes(Context, View): void</text>
<polygon points="318.5 257.15 322.5 261.15 318.5 265.15 314.5 261.15" fill="#ff4" stroke="#B38D22"/>
<text x="327.5" y="265.4951" fill="#000000" font-family="sans-serif" font-size="14" textLength="123">onResume(): void</text>
<polygon points="318.5 273.45 322.5 277.45 318.5 281.45 314.5 277.45" fill="#ff4" stroke="#B38D22"/>
<text x="327.5" y="281.792" fill="#000000" font-family="sans-serif" font-size="14" textLength="108">onPause(): void</text>
<polygon points="318.5 289.74 322.5 293.74 318.5 297.74 314.5 293.74" fill="#ff4" stroke="#B38D22"/>
<text x="327.5" y="298.0889" fill="#000000" font-family="sans-serif" font-size="14" textLength="119">onDestroy(): void</text>
<ellipse cx="318.5" cy="311.04" rx="3" ry="3" fill="#84BE84" stroke="#038048"/>
<text x="327.5" y="314.3857" fill="#000000" font-family="sans-serif" font-size="14" textLength="165">openLayerMap(int): void</text>
</g>
</a>
<a href="WeatherDetailsActivity.ListItemType.html" target="_top" title="WeatherDetailsActivity.ListItemType.html" xlink:actuate="onRequest" xlink:href="WeatherDetailsActivity.ListItemType.html" xlink:show="new" xlink:title="WeatherDetailsActivity.ListItemType.html" xlink:type="simple">
<g id="c">
<rect id="d" x="7" y="382" width="275" height="37.938" rx="2.5" ry="2.5" fill="#F1F1F1" stroke="#181818" stroke-width=".5" codeLine="23"/>
<ellipse cx="22" cy="400.97" rx="11" ry="11" fill="#ADD1B2" stroke="#181818"/>
<path d="m24.969 406.61q-0.5782 0.2969-1.2188 0.4375-0.6406 0.1562-1.3437 0.1562-2.5 0-3.8282-1.6406-1.3125-1.6562-1.3125-4.7812t1.3125-4.7813q1.3282-1.6562 3.8282-1.6562 0.7031 0 1.3437 0.1562 0.6563 0.1563 1.2188 0.4531v2.7188q-0.625-0.5781-1.2188-0.8438-0.5937-0.2812-1.2187-0.2812-1.3438 0-2.0313 1.0781-0.6875 1.0625-0.6875 3.1563 0 2.0937 0.6875 3.1718 0.6875 1.0625 2.0313 1.0625 0.625 0 1.2187-0.2656 0.5938-0.2812 1.2188-0.8594v2.7188z"/>
<text x="36" y="399.9951" fill="#000000" font-family="sans-serif" font-size="14" textLength="243">WeatherDetailsActivity.ListItemType</text>
<text x="37.5" y="412.5791" fill="#000000" font-family="sans-serif" font-size="10" textLength="240">de.kaffeemitkoffein.tinyweatherforecastgermany</text>
</g>
</a>
<a href="WeatherDetailsActivity.SwipeGestureDetector.html" target="_top" title="WeatherDetailsActivity.SwipeGestureDetector.html" xlink:actuate="onRequest" xlink:href="WeatherDetailsActivity.SwipeGestureDetector.html" xlink:show="new" xlink:title="WeatherDetailsActivity.SwipeGestureDetector.html" xlink:type="simple">
<g id="e">
<rect id="f" x="317.5" y="382" width="346" height="37.938" rx="2.5" ry="2.5" fill="#F1F1F1" stroke="#181818" stroke-width=".5" codeLine="24"/>
<ellipse cx="332.5" cy="400.97" rx="11" ry="11" fill="#ADD1B2" stroke="#181818"/>
<path d="m335.47 406.61q-0.5782 0.2969-1.2188 0.4375-0.6406 0.1562-1.3437 0.1562-2.5 0-3.8282-1.6406-1.3125-1.6562-1.3125-4.7812t1.3125-4.7813q1.3282-1.6562 3.8282-1.6562 0.7031 0 1.3437 0.1562 0.6563 0.1563 1.2188 0.4531v2.7188q-0.625-0.5781-1.2188-0.8438-0.5937-0.2812-1.2187-0.2812-1.3438 0-2.0313 1.0781-0.6875 1.0625-0.6875 3.1563 0 2.0937 0.6875 3.1718 0.6875 1.0625 2.0313 1.0625 0.625 0 1.2187-0.2656 0.5938-0.2812 1.2188-0.8594v2.7188z"/>
<text x="346.5" y="399.9951" fill="#000000" font-family="sans-serif" font-size="14" textLength="314">WeatherDetailsActivity.SwipeGestureDetector</text>
<text x="383.5" y="412.5791" fill="#000000" font-family="sans-serif" font-size="10" textLength="240">de.kaffeemitkoffein.tinyweatherforecastgermany</text>
</g>
</a>
<a href="WeatherDetailsActivity.DetailsElement.html" target="_top" title="WeatherDetailsActivity.DetailsElement.html" xlink:actuate="onRequest" xlink:href="WeatherDetailsActivity.DetailsElement.html" xlink:show="new" xlink:title="WeatherDetailsActivity.DetailsElement.html" xlink:type="simple">
<g id="g">
<rect id="h" x="698.5" y="382" width="292" height="37.938" rx="2.5" ry="2.5" fill="#F1F1F1" stroke="#181818" stroke-width=".5" codeLine="25"/>
<ellipse cx="713.5" cy="400.97" rx="11" ry="11" fill="#ADD1B2" stroke="#181818"/>
<path d="m716.47 406.61q-0.5782 0.2969-1.2188 0.4375-0.6406 0.1562-1.3437 0.1562-2.5 0-3.8282-1.6406-1.3125-1.6562-1.3125-4.7812t1.3125-4.7813q1.3282-1.6562 3.8282-1.6562 0.7031 0 1.3437 0.1562 0.6563 0.1563 1.2188 0.4531v2.7188q-0.625-0.5781-1.2188-0.8438-0.5937-0.2812-1.2187-0.2812-1.3438 0-2.0313 1.0781-0.6875 1.0625-0.6875 3.1563 0 2.0937 0.6875 3.1718 0.6875 1.0625 2.0313 1.0625 0.625 0 1.2187-0.2656 0.5938-0.2812 1.2188-0.8594v2.7188z"/>
<text x="727.5" y="399.9951" fill="#000000" font-family="sans-serif" font-size="14" textLength="260">WeatherDetailsActivity.DetailsElement</text>
<text x="737.5" y="412.5791" fill="#000000" font-family="sans-serif" font-size="10" textLength="240">de.kaffeemitkoffein.tinyweatherforecastgermany</text>
</g>
</a>
<g id="i" stroke="#181818">
<path id="j" d="m294.12 298.6c-53.49 36.25-92.445 62.654-122.8 83.224" fill="none" codeLine="27"/>
<ellipse cx="300.75" cy="294.11" rx="8" ry="8" fill="#fff"/>
<line x1="294.12" x2="307.37" y1="298.6" y2="289.62"/>
<line x1="296.26" x2="305.24" y1="287.49" y2="300.73"/>
</g>
<g id="k" stroke="#181818">
<path id="l" d="m490.5 338.24v43.68" fill="none" codeLine="28"/>
<ellipse cx="490.5" cy="330.24" rx="8" ry="8" fill="#fff"/>
<line x1="490.5" x2="490.5" y1="338.24" y2="322.24"/>
<line x1="482.5" x2="498.5" y1="330.24" y2="330.24"/>
</g>
<g id="m" stroke="#181818">
<path id="n" d="m687.06 295.71c56.18 37.22 98.182 65.043 130.01 86.123" fill="none" codeLine="29"/>
<ellipse cx="680.39" cy="291.29" rx="8" ry="8" fill="#fff"/>
<line x1="687.06" x2="673.72" y1="295.71" y2="286.87"/>
<line x1="675.97" x2="684.81" y1="297.96" y2="284.62"/>
</g>
<text x="401.75" y="434.2197" fill="#888888" font-family="sans-serif" font-size="10" textLength="180">UMLDoclet 2.1.2, PlantUML 1.2024.3</text>
</svg>
