<?xml version="1.0" encoding="UTF-8"?>
<svg width="367px" height="491px" style="background:transparent;height:491px;width:367px" contentStyleType="text/css" data-diagram-type="CLASS" preserveAspectRatio="none" version="1.1" viewBox="0 0 367 491" xmlns="http://www.w3.org/2000/svg" xmlns:xlink="http://www.w3.org/1999/xlink" zoomAndPan="magnify">
<g id="a" class="entity" data-entity="de.kaffeemitkoffein.tinyweatherforecastgermany.WeatherWarning" data-source-line="13" data-uid="ent0002">
<a href="WeatherWarning.html" target="_top" title="WeatherWarning.html" xlink:actuate="onRequest" xlink:href="WeatherWarning.html" xlink:show="new" xlink:title="WeatherWarning.html" xlink:type="simple">
<rect x="6" y="110" width="354.14" height="282.09" rx="2.5" ry="2.5" fill="#F1F1F1" stroke="#181818" stroke-width=".5"/>
<ellipse cx="55.763" cy="128.97" rx="11" ry="11" fill="#ADD1B2" stroke="#181818"/>
<path d="m58.731 134.61q-0.5781 0.2969-1.2187 0.4375-0.6406 0.1562-1.3438 0.1562-2.5 0-3.8281-1.6406-1.3125-1.6562-1.3125-4.7812t1.3125-4.7813q1.3281-1.6562 3.8281-1.6562 0.7032 0 1.3438 0.1562 0.6562 0.1563 1.2187 0.4531v2.7188q-0.625-0.5781-1.2187-0.8438-0.5938-0.2812-1.2188-0.2812-1.3437 0-2.0312 1.0781-0.6875 1.0625-0.6875 3.1563 0 2.0937 0.6875 3.1718 0.6875 1.0625 2.0312 1.0625 0.625 0 1.2188-0.2656 0.5937-0.2812 1.2187-0.8594v2.7188z"/>
<text x="140.0859" y="127.9951" fill="#000000" font-family="sans-serif" font-size="14" textLength="118.4668">WeatherWarning</text>
<text x="76.2627" y="140.5791" fill="#000000" font-family="sans-serif" font-size="10" textLength="246.1133">de.kaffeemitkoffein.tinyweatherforecastgermany</text>
<line x1="7" x2="359.14" y1="147.94" y2="147.94" stroke="#181818" stroke-width=".5"/>
<ellipse cx="17" cy="161.59" rx="3" ry="3" fill="none" stroke="#038048"/>
<text x="26" y="164.9326" fill="#000000" font-family="sans-serif" font-size="14" text-decoration="underline" textLength="129.3018">ID_UPDATE: String</text>
<ellipse cx="17" cy="177.88" rx="3" ry="3" fill="none" stroke="#038048"/>
<text x="26" y="181.2295" fill="#000000" font-family="sans-serif" font-size="14" text-decoration="underline" textLength="184.9873">ID_SILENT_UPDATE: String</text>
<line x1="7" x2="359.14" y1="188.53" y2="188.53" stroke="#181818" stroke-width=".5"/>
<ellipse cx="17" cy="202.18" rx="3" ry="3" fill="#84BE84" stroke="#038048"/>
<text x="26" y="205.5264" fill="#000000" font-family="sans-serif" font-size="14" textLength="189.752">initPolygons(Context): void</text>
<ellipse cx="17" cy="218.48" rx="3" ry="3" fill="#84BE84" stroke="#038048"/>
<text x="26" y="221.8232" fill="#000000" font-family="sans-serif" font-size="14" textLength="255.5889">isInPolygonGeo(float, float): boolean</text>
<ellipse cx="17" cy="234.77" rx="3" ry="3" fill="#84BE84" stroke="#038048"/>
<text x="26" y="238.1201" fill="#000000" font-family="sans-serif" font-size="14" textLength="303.0098">isInPolygonGeo(WeatherLocation): boolean</text>
<ellipse cx="17" cy="251.07" rx="3" ry="3" fill="#84BE84" stroke="#038048"/>
<text x="26" y="254.417" fill="#000000" font-family="sans-serif" font-size="14" textLength="156.584">getWarningColor(): int</text>
<ellipse cx="17" cy="267.37" rx="3" ry="3" fill="#84BE84" stroke="#038048"/>
<text x="26" y="270.7139" fill="#000000" font-family="sans-serif" font-size="14" textLength="137.9492">isUpdate(): boolean</text>
<ellipse cx="17" cy="283.66" rx="3" ry="3" fill="#84BE84" stroke="#038048"/>
<text x="26" y="287.0107" fill="#000000" font-family="sans-serif" font-size="14" textLength="177.5908">isSilentUpdate(): boolean</text>
<ellipse cx="17" cy="299.96" rx="3" ry="3" fill="#84BE84" stroke="#038048"/>
<text x="26" y="303.3076" fill="#000000" font-family="sans-serif" font-size="14" textLength="228.9355">hasReferenceID(String): boolean</text>
<ellipse cx="17" cy="316.26" rx="3" ry="3" fill="#84BE84" stroke="#038048"/>
<text x="26" y="319.6045" fill="#000000" font-family="sans-serif" font-size="14" textLength="119.1504">getSeverity(): int</text>
<ellipse cx="17" cy="332.55" rx="3" ry="3" fill="#84BE84" stroke="#038048"/>
<text x="26" y="335.9014" fill="#000000" font-family="sans-serif" font-size="14" text-decoration="underline" textLength="286.7471">getUnderlineString(String, String): String</text>
<ellipse cx="17" cy="348.85" rx="3" ry="3" fill="#84BE84" stroke="#038048"/>
<text x="26" y="352.1982" fill="#000000" font-family="sans-serif" font-size="14" textLength="328.1387">getPlainTextWarning(Context, boolean): String</text>
<ellipse cx="17" cy="365.15" rx="3" ry="3" fill="#84BE84" stroke="#038048"/>
<text x="26" y="368.4951" fill="#000000" font-family="sans-serif" font-size="14" textLength="235.6621">compareTo(WeatherWarning): int</text>
<ellipse cx="17" cy="381.45" rx="3" ry="3" fill="#84BE84" stroke="#038048"/>
<text x="26" y="384.792" fill="#000000" font-family="sans-serif" font-size="14" textLength="197.6611">getApplicableExpires(): long</text>
</a>
</g>
<g id="b" class="entity" data-entity="java.lang.Comparable" data-source-line="30" data-uid="ent0003">
<rect x="52" y="12" width="261.66" height="62.234" rx="2.5" ry="2.5" fill="#F1F1F1" stroke="#181818" stroke-width=".5"/>
<ellipse cx="84.528" cy="30.969" rx="11" ry="11" fill="#B4A7E5" stroke="#181818"/>
<path d="m80.45 26.734v-2.1563h7.3906v2.1563h-2.4688v8.0781h2.4688v2.1563h-7.3906v-2.1563h2.4687v-8.0781h-2.4687z"/>
<text x="102.4226" y="29.9951" fill="#000000" font-family="sans-serif" font-size="14" font-style="italic" textLength="85.1689">Comparable</text>
<text x="122.1458" y="42.5791" fill="#000000" font-family="sans-serif" font-size="10" font-style="italic" textLength="45.7227">java.lang</text>
<rect x="213.12" y="9" width="103.54" height="15.969" fill="#fff" stroke="#181818" stroke-dasharray="2,2"/>
<text x="214.1191" y="21.1387" fill="#000000" font-family="sans-serif" font-size="12" font-style="italic" textLength="101.543">WeatherWarning</text>
<line x1="53" x2="312.66" y1="49.938" y2="49.938" stroke="#181818" stroke-width=".5"/>
<ellipse cx="63" cy="63.586" rx="3" ry="3" fill="#84BE84" stroke="#038048"/>
<text x="72" y="66.9326" fill="#000000" font-family="sans-serif" font-size="14" font-style="italic" textLength="235.6621">compareTo(WeatherWarning): int</text>
</g>
<g id="c" class="entity" data-entity="de.kaffeemitkoffein.tinyweatherforecastgermany.WeatherWarning.Severity" data-source-line="33" data-uid="ent0004">
<a href="WeatherWarning.Severity.html" target="_top" title="WeatherWarning.Severity.html" xlink:actuate="onRequest" xlink:href="WeatherWarning.Severity.html" xlink:show="new" xlink:title="WeatherWarning.Severity.html" xlink:type="simple">
<rect x="44" y="428" width="278.11" height="37.938" rx="2.5" ry="2.5" fill="#F1F1F1" stroke="#181818" stroke-width=".5"/>
<ellipse cx="59" cy="446.97" rx="11" ry="11" fill="#ADD1B2" stroke="#181818"/>
<path d="m61.969 452.61q-0.5782 0.2969-1.2188 0.4375-0.6406 0.1562-1.3437 0.1562-2.5 0-3.8282-1.6406-1.3125-1.6562-1.3125-4.7812t1.3125-4.7813q1.3282-1.6562 3.8282-1.6562 0.7031 0 1.3437 0.1562 0.6563 0.1563 1.2188 0.4531v2.7188q-0.625-0.5781-1.2188-0.8438-0.5937-0.2812-1.2187-0.2812-1.3438 0-2.0313 1.0781-0.6875 1.0625-0.6875 3.1563 0 2.0937 0.6875 3.1718 0.6875 1.0625 2.0313 1.0625 0.625 0 1.2187-0.2656 0.5938-0.2812 1.2188-0.8594v2.7188z"/>
<text x="105.689" y="445.9951" fill="#000000" font-family="sans-serif" font-size="14" textLength="180.7354">WeatherWarning.Severity</text>
<text x="73" y="458.5791" fill="#000000" font-family="sans-serif" font-size="10" textLength="246.1133">de.kaffeemitkoffein.tinyweatherforecastgermany</text>
</a>
</g>
<g id="d" class="link" fill="none" stroke="#181818" data-entity-1="java.lang.Comparable" data-entity-2="de.kaffeemitkoffein.tinyweatherforecastgermany.WeatherWarning" data-uid="lnk5">
<polygon points="183 74.396 177 92.396 189 92.396"/>
<path d="m183 92.396v17.328" stroke-dasharray="7,7"/>
</g>
<g id="e" class="link" stroke="#181818" data-entity-1="de.kaffeemitkoffein.tinyweatherforecastgermany.WeatherWarning" data-entity-2="de.kaffeemitkoffein.tinyweatherforecastgermany.WeatherWarning.Severity" data-uid="lnk6">
<ellipse cx="183" cy="400.22" rx="8" ry="8" fill="#fff"/>
<line x1="183" x2="183" y1="408.22" y2="392.22"/>
<line x1="175" x2="191" y1="400.22" y2="400.22"/>
<path d="m183 408.22v19.507" fill="none"/>
</g>
<g class="footer" data-source-line="44">
<text x="177.9106" y="469.2822" fill="#888888" font-family="sans-serif" font-size="10" textLength="3.1787"></text>
<a href="https://github.com/talsma-ict/umldoclet" target="_top" title="https://github.com/talsma-ict/umldoclet" xlink:actuate="onRequest" xlink:href="https://github.com/talsma-ict/umldoclet" xlink:show="new" xlink:title="https://github.com/talsma-ict/umldoclet" xlink:type="simple">
<text x="138.3452" y="480.9229" fill="#888888" font-family="sans-serif" font-size="10" textLength="82.3096">UMLDoclet 2.2.4</text>
</a>
</g>
</svg>
