<?xml version="1.0" encoding="UTF-8"?>
<svg width="349px" height="427px" style="background:transparent;height:427px;width:349px" contentStyleType="text/css" preserveAspectRatio="none" version="1.1" viewBox="0 0 349 427" xmlns="http://www.w3.org/2000/svg" xmlns:xlink="http://www.w3.org/1999/xlink" zoomAndPan="magnify">
<a href="WeatherLayersActivity.html" target="_top" title="WeatherLayersActivity.html" xlink:actuate="onRequest" xlink:href="WeatherLayersActivity.html" xlink:show="new" xlink:title="WeatherLayersActivity.html" xlink:type="simple">
<g id="a">
<rect id="b" x="9" y="7" width="333" height="298.39" rx="2.5" ry="2.5" fill="#F1F1F1" stroke="#181818" stroke-width=".5" codeLine="5"/>
<ellipse cx="51.45" cy="25.969" rx="11" ry="11" fill="#ADD1B2" stroke="#181818"/>
<path d="m54.419 31.609q-0.5782 0.2969-1.2188 0.4375-0.6406 0.1562-1.3437 0.1562-2.5 0-3.8282-1.6406-1.3125-1.6562-1.3125-4.7812t1.3125-4.7813q1.3282-1.6562 3.8282-1.6562 0.7031 0 1.3437 0.1562 0.6563 0.1563 1.2188 0.4531v2.7188q-0.625-0.5781-1.2188-0.8438-0.5937-0.2812-1.2187-0.2812-1.3438 0-2.0313 1.0781-0.6875 1.0625-0.6875 3.1563 0 2.0937 0.6875 3.1718 0.6875 1.0625 2.0313 1.0625 0.625 0 1.2187-0.2656 0.5938-0.2812 1.2188-0.8594v2.7188z"/>
<text x="117.05" y="24.9951" fill="#000000" font-family="sans-serif" font-size="14" textLength="149">WeatherLayersActivity</text>
<text x="71.55" y="37.5791" fill="#000000" font-family="sans-serif" font-size="10" textLength="240">de.kaffeemitkoffein.tinyweatherforecastgermany</text>
<line x1="10" x2="341" y1="44.938" y2="44.938" stroke="#181818" stroke-width=".5"/>
<ellipse cx="20" cy="58.586" rx="3" ry="3" fill="none" stroke="#038048"/>
<text x="29" y="61.9326" fill="#000000" font-family="sans-serif" font-size="14" text-decoration="underline" textLength="225">ACTION_UPDATE_LAYERS: String</text>
<ellipse cx="20" cy="74.883" rx="3" ry="3" fill="none" stroke="#038048"/>
<text x="29" y="78.2295" fill="#000000" font-family="sans-serif" font-size="14" text-decoration="underline" textLength="227">UPDATE_LAYERS_RESULT: String</text>
<ellipse cx="20" cy="91.18" rx="3" ry="3" fill="none" stroke="#038048"/>
<text x="29" y="94.5264" fill="#000000" font-family="sans-serif" font-size="14" text-decoration="underline" textLength="255">ACTION_UPDATE_FORBIDDEN: String</text>
<line x1="10" x2="341" y1="101.83" y2="101.83" stroke="#181818" stroke-width=".5"/>
<polygon points="20 110.48 24 114.48 20 118.48 16 114.48" fill="#ff4" stroke="#B38D22"/>
<text x="29" y="118.8232" fill="#000000" font-family="sans-serif" font-size="14" textLength="123">onResume(): void</text>
<polygon points="20 126.77 24 130.77 20 134.77 16 130.77" fill="#ff4" stroke="#B38D22"/>
<text x="29" y="135.1201" fill="#000000" font-family="sans-serif" font-size="14" textLength="108">onPause(): void</text>
<polygon points="20 143.07 24 147.07 20 151.07 16 147.07" fill="#ff4" stroke="#B38D22"/>
<text x="29" y="151.417" fill="#000000" font-family="sans-serif" font-size="14" textLength="119">onDestroy(): void</text>
<polygon points="20 159.37 24 163.37 20 167.37 16 163.37" fill="#ff4" stroke="#B38D22"/>
<text x="29" y="167.7139" fill="#000000" font-family="sans-serif" font-size="14" textLength="160">onCreate(Bundle): void</text>
<ellipse cx="20" cy="180.66" rx="3" ry="3" fill="#84BE84" stroke="#038048"/>
<text x="29" y="184.0107" fill="#000000" font-family="sans-serif" font-size="14" textLength="271">onCreateOptionsMenu(Menu): boolean</text>
<ellipse cx="20" cy="196.96" rx="3" ry="3" fill="#84BE84" stroke="#038048"/>
<text x="29" y="200.3076" fill="#000000" font-family="sans-serif" font-size="14" textLength="307">onOptionsItemSelected(MenuItem): boolean</text>
<ellipse cx="20" cy="213.26" rx="3" ry="3" fill="#84BE84" stroke="#038048"/>
<text x="29" y="216.6045" fill="#000000" font-family="sans-serif" font-size="14" textLength="186">openDetailedMap(int): void</text>
<ellipse cx="20" cy="229.55" rx="3" ry="3" fill="#84BE84" stroke="#038048"/>
<text x="29" y="232.9014" fill="#000000" font-family="sans-serif" font-size="14" textLength="124">getViewIDs(): void</text>
<ellipse cx="20" cy="245.85" rx="3" ry="3" fill="#84BE84" stroke="#038048"/>
<text x="29" y="249.1982" fill="#000000" font-family="sans-serif" font-size="14" textLength="278">getWeatherLayerByID(int): WeatherLayer</text>
<ellipse cx="20" cy="262.15" rx="3" ry="3" fill="#84BE84" stroke="#038048"/>
<text x="29" y="265.4951" fill="#000000" font-family="sans-serif" font-size="14" textLength="260">getDisplayLayerByID(int): DisplayLayer</text>
<ellipse cx="20" cy="278.45" rx="3" ry="3" fill="#84BE84" stroke="#038048"/>
<text x="29" y="281.792" fill="#000000" font-family="sans-serif" font-size="14" textLength="145">updateDisplay(): void</text>
<ellipse cx="20" cy="294.74" rx="3" ry="3" fill="#84BE84" stroke="#038048"/>
<text x="29" y="298.0889" fill="#000000" font-family="sans-serif" font-size="14" textLength="226">updateLayer(WeatherLayer): void</text>
</g>
</a>
<a href="WeatherLayersActivity.DisplayLayer.html" target="_top" title="WeatherLayersActivity.DisplayLayer.html" xlink:actuate="onRequest" xlink:href="WeatherLayersActivity.DisplayLayer.html" xlink:show="new" xlink:title="WeatherLayersActivity.DisplayLayer.html" xlink:type="simple">
<g id="c">
<rect id="d" x="39.5" y="365" width="272" height="37.938" rx="2.5" ry="2.5" fill="#F1F1F1" stroke="#181818" stroke-width=".5" codeLine="22"/>
<ellipse cx="54.5" cy="383.97" rx="11" ry="11" fill="#ADD1B2" stroke="#181818"/>
<path d="m57.469 389.61q-0.5782 0.2969-1.2188 0.4375-0.6406 0.1562-1.3437 0.1562-2.5 0-3.8282-1.6406-1.3125-1.6562-1.3125-4.7812t1.3125-4.7813q1.3282-1.6562 3.8282-1.6562 0.7031 0 1.3437 0.1562 0.6563 0.1563 1.2188 0.4531v2.7188q-0.625-0.5781-1.2188-0.8438-0.5937-0.2812-1.2187-0.2812-1.3438 0-2.0313 1.0781-0.6875 1.0625-0.6875 3.1563 0 2.0937 0.6875 3.1718 0.6875 1.0625 2.0313 1.0625 0.625 0 1.2187-0.2656 0.5938-0.2812 1.2188-0.8594v2.7188z"/>
<text x="69.5" y="382.9951" fill="#000000" font-family="sans-serif" font-size="14" textLength="238">WeatherLayersActivity.DisplayLayer</text>
<text x="68.5" y="395.5791" fill="#000000" font-family="sans-serif" font-size="10" textLength="240">de.kaffeemitkoffein.tinyweatherforecastgermany</text>
</g>
</a>
<g id="e" stroke="#181818">
<path id="f" d="m175.5 321.22v43.61" fill="none" codeLine="24"/>
<ellipse cx="175.5" cy="313.22" rx="8" ry="8" fill="#fff"/>
<line x1="175.5" x2="175.5" y1="321.22" y2="305.22"/>
<line x1="167.5" x2="183.5" y1="313.22" y2="313.22"/>
</g>
<text x="77.5" y="417.2197" fill="#888888" font-family="sans-serif" font-size="10" textLength="180">UMLDoclet 2.1.2, PlantUML 1.2024.3</text>
</svg>
