<?xml version="1.0" encoding="UTF-8"?>
<svg width="460px" height="255px" style="background:transparent;height:255px;width:460px" contentStyleType="text/css" data-diagram-type="CLASS" preserveAspectRatio="none" version="1.1" viewBox="0 0 460 255" xmlns="http://www.w3.org/2000/svg" xmlns:xlink="http://www.w3.org/1999/xlink" zoomAndPan="magnify">
<g id="a" class="entity" data-entity="de.kaffeemitkoffein.tinyweatherforecastgermany.WeatherDetailsActivity.SwipeGestureDetector" data-source-line="13" data-uid="ent0002">
<a href="WeatherDetailsActivity.SwipeGestureDetector.html" target="_top" title="WeatherDetailsActivity.SwipeGestureDetector.html" xlink:actuate="onRequest" xlink:href="WeatherDetailsActivity.SwipeGestureDetector.html" xlink:show="new" xlink:title="WeatherDetailsActivity.SwipeGestureDetector.html" xlink:type="simple">
<rect x="19.5" y="86" width="355.57" height="143.72" rx="2.5" ry="2.5" fill="#F1F1F1" stroke="#181818" stroke-width=".5"/>
<ellipse cx="34.5" cy="104.97" rx="11" ry="11" fill="#ADD1B2" stroke="#181818"/>
<path d="m37.469 110.61q-0.5782 0.2969-1.2188 0.4375-0.6406 0.1562-1.3437 0.1562-2.5 0-3.8282-1.6406-1.3125-1.6562-1.3125-4.7812t1.3125-4.7813q1.3282-1.6562 3.8282-1.6562 0.7031 0 1.3437 0.1562 0.6563 0.1563 1.2188 0.4531v2.7188q-0.625-0.5781-1.2188-0.8438-0.5937-0.2812-1.2187-0.2812-1.3438 0-2.0313 1.0781-0.6875 1.0625-0.6875 3.1563 0 2.0937 0.6875 3.1718 0.6875 1.0625 2.0313 1.0625 0.625 0 1.2187-0.2656 0.5938-0.2812 1.2188-0.8594v2.7188z"/>
<text x="48.5" y="103.9951" fill="#000000" font-family="sans-serif" font-size="14" textLength="323.5723">WeatherDetailsActivity.SwipeGestureDetector</text>
<text x="87.2295" y="116.5791" fill="#000000" font-family="sans-serif" font-size="10" textLength="246.1133">de.kaffeemitkoffein.tinyweatherforecastgermany</text>
<line x1="20.5" x2="374.07" y1="123.94" y2="123.94" stroke="#181818" stroke-width=".5"/>
<ellipse cx="30.5" cy="137.59" rx="3" ry="3" fill="#84BE84" stroke="#038048"/>
<text x="39.5" y="140.9326" fill="#000000" font-family="sans-serif" font-size="14" textLength="158.6689">setThreshold(int): void</text>
<ellipse cx="30.5" cy="153.88" rx="3" ry="3" fill="#84BE84" stroke="#038048"/>
<text x="39.5" y="157.2295" fill="#000000" font-family="sans-serif" font-size="14" textLength="292.0586">onLeftSwipe(View, MotionEvent): boolean</text>
<ellipse cx="30.5" cy="170.18" rx="3" ry="3" fill="#84BE84" stroke="#038048"/>
<text x="39.5" y="173.5264" fill="#000000" font-family="sans-serif" font-size="14" textLength="302.0938">onRightSwipe(View, MotionEvent): boolean</text>
<ellipse cx="30.5" cy="186.48" rx="3" ry="3" fill="#84BE84" stroke="#038048"/>
<text x="39.5" y="189.8232" fill="#000000" font-family="sans-serif" font-size="14" textLength="284.3613">onUpSwipe(View, MotionEvent): boolean</text>
<ellipse cx="30.5" cy="202.77" rx="3" ry="3" fill="#84BE84" stroke="#038048"/>
<text x="39.5" y="206.1201" fill="#000000" font-family="sans-serif" font-size="14" textLength="304.8965">onDownSwipe(View, MotionEvent): boolean</text>
<ellipse cx="30.5" cy="219.07" rx="3" ry="3" fill="#84BE84" stroke="#038048"/>
<text x="39.5" y="222.417" fill="#000000" font-family="sans-serif" font-size="14" textLength="266.0615">onTouch(View, MotionEvent): boolean</text>
</a>
</g>
<g id="b" class="entity" data-entity="View.OnTouchListener" data-source-line="22" data-uid="ent0003">
<rect x="6" y="12" width="150.78" height="37.938" rx="2.5" ry="2.5" fill="#F1F1F1" stroke="#181818" stroke-width=".5"/>
<ellipse cx="21" cy="30.969" rx="11" ry="11" fill="#B4A7E5" stroke="#181818"/>
<path d="m16.922 26.734v-2.1563h7.3906v2.1563h-2.4687v8.0781h2.4687v2.1563h-7.3906v-2.1563h2.4687v-8.0781h-2.4687z"/>
<text x="35" y="29.9951" fill="#000000" font-family="sans-serif" font-size="14" font-style="italic" textLength="118.7813">OnTouchListener</text>
<text x="82.4155" y="42.5791" fill="#000000" font-family="sans-serif" font-size="10" font-style="italic" textLength="23.9502">View</text>
</g>
<g id="c" class="entity" data-entity="de.kaffeemitkoffein.tinyweatherforecastgermany.WeatherDetailsActivity" data-source-line="23" data-uid="ent0004">
<a href="WeatherDetailsActivity.html" target="_top" title="WeatherDetailsActivity.html" xlink:actuate="onRequest" xlink:href="WeatherDetailsActivity.html" xlink:show="new" xlink:title="WeatherDetailsActivity.html" xlink:type="simple">
<rect x="175.5" y="12" width="278.11" height="37.938" rx="2.5" ry="2.5" fill="#F1F1F1" stroke="#181818" stroke-width=".5"/>
<ellipse cx="190.5" cy="30.969" rx="11" ry="11" fill="#ADD1B2" stroke="#181818"/>
<path d="m193.47 36.609q-0.5782 0.2969-1.2188 0.4375-0.6406 0.1562-1.3437 0.1562-2.5 0-3.8282-1.6406-1.3125-1.6562-1.3125-4.7812t1.3125-4.7813q1.3282-1.6562 3.8282-1.6562 0.7031 0 1.3437 0.1562 0.6563 0.1563 1.2188 0.4531v2.7188q-0.625-0.5781-1.2188-0.8438-0.5937-0.2812-1.2187-0.2812-1.3438 0-2.0313 1.0781-0.6875 1.0625-0.6875 3.1563 0 2.0937 0.6875 3.1718 0.6875 1.0625 2.0313 1.0625 0.625 0 1.2187-0.2656 0.5938-0.2812 1.2188-0.8594v2.7188z"/>
<text x="247.1045" y="29.9951" fill="#000000" font-family="sans-serif" font-size="14" textLength="160.9043">WeatherDetailsActivity</text>
<text x="204.5" y="42.5791" fill="#000000" font-family="sans-serif" font-size="10" textLength="246.1133">de.kaffeemitkoffein.tinyweatherforecastgermany</text>
</a>
</g>
<g id="d" class="link" fill="none" stroke="#181818" data-entity-1="View.OnTouchListener" data-entity-2="de.kaffeemitkoffein.tinyweatherforecastgermany.WeatherDetailsActivity.SwipeGestureDetector" data-uid="lnk5">
<polygon points="98.367 50.176 106.21 67.452 115.01 59.289"/>
<path d="m110.61 63.37c9.0484 9.7505 8.6046 9.2723 20.893 22.514" stroke-dasharray="7,7"/>
</g>
<g id="e" class="link" stroke="#181818" data-entity-1="de.kaffeemitkoffein.tinyweatherforecastgermany.WeatherDetailsActivity" data-entity-2="de.kaffeemitkoffein.tinyweatherforecastgermany.WeatherDetailsActivity.SwipeGestureDetector" data-uid="lnk6">
<ellipse cx="292.02" cy="56.017" rx="8" ry="8" fill="#fff"/>
<line x1="286.55" x2="297.49" y1="61.857" y2="50.176"/>
<line x1="286.18" x2="297.86" y1="50.55" y2="61.484"/>
<path d="m286.55 61.857c-9.1265 9.7505-10.095 10.785-22.489 24.027" fill="none"/>
</g>
<g class="footer" data-source-line="34">
<text x="224.6606" y="233.2822" fill="#888888" font-family="sans-serif" font-size="10" textLength="3.1787"></text>
<a href="https://github.com/talsma-ict/umldoclet" target="_top" title="https://github.com/talsma-ict/umldoclet" xlink:actuate="onRequest" xlink:href="https://github.com/talsma-ict/umldoclet" xlink:show="new" xlink:title="https://github.com/talsma-ict/umldoclet" xlink:type="simple">
<text x="185.0952" y="244.9229" fill="#888888" font-family="sans-serif" font-size="10" textLength="82.3096">UMLDoclet 2.2.4</text>
</a>
</g>
</svg>
