<?xml version="1.0" encoding="UTF-8"?>
<svg width="456px" height="393px" style="background:transparent;height:393px;width:456px" contentScriptType="application/ecmascript" contentStyleType="text/css" preserveAspectRatio="none" version="1.1" viewBox="0 0 456 393" xmlns="http://www.w3.org/2000/svg" xmlns:xlink="http://www.w3.org/1999/xlink" zoomAndPan="magnify">
<defs>
<filter id="a" x="-1" y="-1" width="300%" height="300%">
<feGaussianBlur result="blurOut" stdDeviation="2.0"/>
<feColorMatrix in="blurOut" result="blurOut2" values="0 0 0 0 0 0 0 0 0 0 0 0 0 0 0 0 0 0 .4 0"/>
<feOffset dx="4.0" dy="4.0" in="blurOut2" result="blurOut3"/>
<feBlend in="SourceGraphic" in2="blurOut3"/>
</filter>
</defs>
<a href="WeatherContentManager.html" target="_top" title="WeatherContentManager.html" xlink:actuate="onRequest" xlink:href="WeatherContentManager.html" xlink:show="new" xlink:title="WeatherContentManager.html" xlink:type="simple">
<rect id="b" x="7" y="7" width="435" height="361.25" fill="#FEFECE" filter="url(#a)" stroke="#A80036" stroke-width="1.5" codeLine="5"/>
<ellipse cx="100.25" cy="25.969" rx="11" ry="11" fill="#ADD1B2" stroke="#A80036"/>
<path d="m103.22 31.609q-0.5782 0.2969-1.2188 0.4375-0.6406 0.1562-1.3437 0.1562-2.5 0-3.8282-1.6406-1.3125-1.6562-1.3125-4.7812t1.3125-4.7813q1.3282-1.6562 3.8282-1.6562 0.7031 0 1.3437 0.1562 0.6563 0.1563 1.2188 0.4531v2.7188q-0.625-0.5781-1.2188-0.8438-0.5937-0.2812-1.2187-0.2812-1.3438 0-2.0313 1.0781-0.6875 1.0625-0.6875 3.1563 0 2.0937 0.6875 3.1718 0.6875 1.0625 2.0313 1.0625 0.625 0 1.2187-0.2656 0.5938-0.2812 1.2188-0.8594v2.7188z"/>
<text x="153.75" y="24.9951" fill="#000000" font-family="sans-serif" font-size="14" textLength="174">WeatherContentManager</text>
<text x="120.75" y="37.5791" fill="#000000" font-family="sans-serif" font-size="10" textLength="240">de.kaffeemitkoffein.tinyweatherforecastgermany</text>
<line x1="8" x2="441" y1="44.938" y2="44.938" stroke="#A80036" stroke-width="1.5"/>
<ellipse cx="18" cy="55.938" rx="3" ry="3" fill="none" stroke="#038048"/>
<text x="27" y="59.1479" fill="#000000" font-family="sans-serif" font-size="11" text-decoration="underline" textLength="154">FORECAST_URI_SINLGE: Uri</text>
<ellipse cx="18" cy="68.742" rx="3" ry="3" fill="none" stroke="#038048"/>
<text x="27" y="71.9526" fill="#000000" font-family="sans-serif" font-size="11" text-decoration="underline" textLength="132">FORECAST_URI_ALL: Uri</text>
<ellipse cx="18" cy="81.547" rx="3" ry="3" fill="none" stroke="#038048"/>
<text x="27" y="84.7573" fill="#000000" font-family="sans-serif" font-size="11" text-decoration="underline" textLength="146">WARNING_URI_SINLGE: Uri</text>
<ellipse cx="18" cy="94.352" rx="3" ry="3" fill="none" stroke="#038048"/>
<text x="27" y="97.562" fill="#000000" font-family="sans-serif" font-size="11" text-decoration="underline" textLength="124">WARNING_URI_ALL: Uri</text>
<ellipse cx="18" cy="107.16" rx="3" ry="3" fill="none" stroke="#038048"/>
<text x="27" y="110.3667" fill="#000000" font-family="sans-serif" font-size="11" text-decoration="underline" textLength="123">TEXT_URI_SINLGE: Uri</text>
<ellipse cx="18" cy="119.96" rx="3" ry="3" fill="none" stroke="#038048"/>
<text x="27" y="123.1714" fill="#000000" font-family="sans-serif" font-size="11" text-decoration="underline" textLength="101">TEXT_URI_ALL: Uri</text>
<ellipse cx="18" cy="132.77" rx="3" ry="3" fill="none" stroke="#038048"/>
<text x="27" y="135.9761" fill="#000000" font-family="sans-serif" font-size="11" text-decoration="underline" textLength="123">AREA_URI_SINLGE: Uri</text>
<ellipse cx="18" cy="145.57" rx="3" ry="3" fill="none" stroke="#038048"/>
<text x="27" y="148.7808" fill="#000000" font-family="sans-serif" font-size="11" text-decoration="underline" textLength="101">AREA_URI_ALL: Uri</text>
<line x1="8" x2="441" y1="155.38" y2="155.38" stroke="#A80036" stroke-width="1.5"/>
<ellipse cx="18" cy="166.38" rx="3" ry="3" fill="#84BE84" stroke="#038048"/>
<text x="27" y="169.5854" fill="#000000" font-family="sans-serif" font-size="11" text-decoration="underline" textLength="173">serializeString(String[]): String</text>
<ellipse cx="18" cy="179.18" rx="3" ry="3" fill="#84BE84" stroke="#038048"/>
<text x="27" y="182.3901" fill="#000000" font-family="sans-serif" font-size="11" text-decoration="underline" textLength="312">serializeStringFromArrayList(ArrayList&lt;String&gt;): String</text>
<ellipse cx="18" cy="191.98" rx="3" ry="3" fill="#84BE84" stroke="#038048"/>
<text x="27" y="195.1948" fill="#000000" font-family="sans-serif" font-size="11" text-decoration="underline" textLength="188">deSerializeString(String): String[]</text>
<ellipse cx="18" cy="204.79" rx="3" ry="3" fill="#84BE84" stroke="#038048"/>
<text x="27" y="207.9995" fill="#000000" font-family="sans-serif" font-size="11" text-decoration="underline" textLength="309">deSerializeStringToArraylist(String): ArrayList&lt;String&gt;</text>
<ellipse cx="18" cy="217.59" rx="3" ry="3" fill="#84BE84" stroke="#038048"/>
<text x="27" y="220.8042" fill="#000000" font-family="sans-serif" font-size="11" text-decoration="underline" textLength="390">getContentValuesFromWeatherCard(RawWeatherInfo): ContentValues</text>
<ellipse cx="18" cy="230.4" rx="3" ry="3" fill="#84BE84" stroke="#038048"/>
<text x="27" y="233.6089" fill="#000000" font-family="sans-serif" font-size="11" text-decoration="underline" textLength="321">getRawWeatherInfoFromCursor(Cursor): RawWeatherInfo</text>
<ellipse cx="18" cy="243.2" rx="3" ry="3" fill="#84BE84" stroke="#038048"/>
<text x="27" y="246.4136" fill="#000000" font-family="sans-serif" font-size="11" text-decoration="underline" textLength="301">getWeatherInfo(Context, Cursor): CurrentWeatherInfo</text>
<ellipse cx="18" cy="256.01" rx="3" ry="3" fill="#84BE84" stroke="#038048"/>
<text x="27" y="259.2183" fill="#000000" font-family="sans-serif" font-size="11" text-decoration="underline" textLength="409">getContentValuesFromWeatherWarning(WeatherWarning): ContentValues</text>
<ellipse cx="18" cy="268.81" rx="3" ry="3" fill="#84BE84" stroke="#038048"/>
<text x="27" y="272.0229" fill="#000000" font-family="sans-serif" font-size="11" text-decoration="underline" textLength="323">getWeatherWarningFromCursor(Cursor): WeatherWarning</text>
<ellipse cx="18" cy="281.62" rx="3" ry="3" fill="#84BE84" stroke="#038048"/>
<text x="27" y="284.8276" fill="#000000" font-family="sans-serif" font-size="11" text-decoration="underline" textLength="373">getContentValuesFromTextForecast(TextForecast): ContentValues</text>
<ellipse cx="18" cy="294.42" rx="3" ry="3" fill="#84BE84" stroke="#038048"/>
<text x="27" y="297.6323" fill="#000000" font-family="sans-serif" font-size="11" text-decoration="underline" textLength="287">getTextForecastFromCursor(Cursor): TextForecast</text>
<ellipse cx="18" cy="307.23" rx="3" ry="3" fill="#84BE84" stroke="#038048"/>
<text x="27" y="310.437" fill="#000000" font-family="sans-serif" font-size="11" text-decoration="underline" textLength="279">getContentValuesFromArea(Area): ContentValues</text>
<ellipse cx="18" cy="320.03" rx="3" ry="3" fill="#84BE84" stroke="#038048"/>
<text x="27" y="323.2417" fill="#000000" font-family="sans-serif" font-size="11" text-decoration="underline" textLength="193">getAreaFromCursor(Cursor): Area</text>
<ellipse cx="18" cy="332.84" rx="3" ry="3" fill="#84BE84" stroke="#038048"/>
<text x="27" y="336.0464" fill="#000000" font-family="sans-serif" font-size="11" text-decoration="underline" textLength="234">getAreaNameFromCursor(Cursor): String</text>
<ellipse cx="18" cy="345.64" rx="3" ry="3" fill="#84BE84" stroke="#038048"/>
<text x="27" y="348.8511" fill="#000000" font-family="sans-serif" font-size="11" text-decoration="underline" textLength="233">getWarncellIDFromCursor(Cursor): String</text>
<ellipse cx="18" cy="358.45" rx="3" ry="3" fill="#84BE84" stroke="#038048"/>
<text x="27" y="361.6558" fill="#000000" font-family="sans-serif" font-size="11" text-decoration="underline" textLength="225">checkForDatabaseUpgrade(Context): int</text>
</a>
<text x="128.5" y="384.5322" fill="#888888" font-family="sans-serif" font-size="10" textLength="192">UMLDoclet 2.0.15, PlantUML 1.2021.13</text>
</svg>
