<?xml version="1.0" encoding="UTF-8"?>
<svg width="331px" height="407px" style="background:transparent;height:407px;width:331px" contentScriptType="application/ecmascript" contentStyleType="text/css" preserveAspectRatio="none" version="1.1" viewBox="0 0 331 407" xmlns="http://www.w3.org/2000/svg" xmlns:xlink="http://www.w3.org/1999/xlink" zoomAndPan="magnify">
<defs>
<filter id="a" x="-1" y="-1" width="300%" height="300%">
<feGaussianBlur result="blurOut" stdDeviation="2.0"/>
<feColorMatrix in="blurOut" result="blurOut2" values="0 0 0 0 0 0 0 0 0 0 0 0 0 0 0 0 0 0 .4 0"/>
<feOffset dx="4.0" dy="4.0" in="blurOut2" result="blurOut3"/>
<feBlend in="SourceGraphic" in2="blurOut3"/>
</filter>
</defs>
<a href="WeatherLocationManager.html" target="_top" title="WeatherLocationManager.html" xlink:actuate="onRequest" xlink:href="WeatherLocationManager.html" xlink:show="new" xlink:title="WeatherLocationManager.html" xlink:type="simple">
<rect id="b" x="7" y="105" width="310" height="271.62" fill="#FEFECE" filter="url(#a)" stroke="#A80036" stroke-width="1.5" codeLine="5"/>
<ellipse cx="39.1" cy="123.97" rx="11" ry="11" fill="#ADD1B2" stroke="#A80036"/>
<path d="m42.069 129.61q-0.5782 0.2969-1.2188 0.4375-0.6406 0.1562-1.3437 0.1562-2.5 0-3.8282-1.6406-1.3125-1.6562-1.3125-4.7812t1.3125-4.7813q1.3282-1.6562 3.8282-1.6562 0.7031 0 1.3437 0.1562 0.6563 0.1563 1.2188 0.4531v2.7188q-0.625-0.5781-1.2188-0.8438-0.5937-0.2812-1.2187-0.2812-1.3438 0-2.0313 1.0781-0.6875 1.0625-0.6875 3.1563 0 2.0937 0.6875 3.1718 0.6875 1.0625 2.0313 1.0625 0.625 0 1.2187-0.2656 0.5938-0.2812 1.2188-0.8594v2.7188z"/>
<text x="88.9" y="122.9951" fill="#000000" font-family="sans-serif" font-size="14" textLength="176">WeatherLocationManager</text>
<text x="56.9" y="135.5791" fill="#000000" font-family="sans-serif" font-size="10" textLength="240">de.kaffeemitkoffein.tinyweatherforecastgermany</text>
<line x1="8" x2="316" y1="142.94" y2="142.94" stroke="#A80036" stroke-width="1.5"/>
<ellipse cx="18" cy="153.94" rx="3" ry="3" fill="none" stroke="#038048"/>
<text x="27" y="157.1479" fill="#000000" font-family="sans-serif" font-size="11" text-decoration="underline" textLength="114">GPSFIXINTERVAL: int</text>
<ellipse cx="18" cy="166.74" rx="3" ry="3" fill="none" stroke="#038048"/>
<text x="27" y="169.9526" fill="#000000" font-family="sans-serif" font-size="11" text-decoration="underline" textLength="217">PERMISSION_CALLBACK_LOCATION: int</text>
<line x1="8" x2="316" y1="176.55" y2="176.55" stroke="#A80036" stroke-width="1.5"/>
<ellipse cx="18" cy="187.55" rx="3" ry="3" fill="#84BE84" stroke="#038048"/>
<text x="27" y="190.7573" fill="#000000" font-family="sans-serif" font-size="11" textLength="193">WeatherLocationManager(Context)</text>
<ellipse cx="18" cy="200.35" rx="3" ry="3" fill="#84BE84" stroke="#038048"/>
<text x="27" y="203.562" fill="#000000" font-family="sans-serif" font-size="11" textLength="164">setView(RelativeLayout): void</text>
<ellipse cx="18" cy="213.16" rx="3" ry="3" fill="#84BE84" stroke="#038048"/>
<text x="27" y="216.3667" fill="#000000" font-family="sans-serif" font-size="11" textLength="196">registerCancelButton(Button): void</text>
<ellipse cx="18" cy="225.96" rx="3" ry="3" fill="#84BE84" stroke="#038048"/>
<text x="27" y="229.1714" fill="#000000" font-family="sans-serif" font-size="11" textLength="223">onActivityCreated(Activity, Bundle): void</text>
<ellipse cx="18" cy="238.77" rx="3" ry="3" fill="#84BE84" stroke="#038048"/>
<text x="27" y="241.9761" fill="#000000" font-family="sans-serif" font-size="11" textLength="173">onActivityStarted(Activity): void</text>
<ellipse cx="18" cy="251.57" rx="3" ry="3" fill="#84BE84" stroke="#038048"/>
<text x="27" y="254.7808" fill="#000000" font-family="sans-serif" font-size="11" textLength="184">onActivityResumed(Activity): void</text>
<ellipse cx="18" cy="264.38" rx="3" ry="3" fill="#84BE84" stroke="#038048"/>
<text x="27" y="267.5854" fill="#000000" font-family="sans-serif" font-size="11" textLength="173">onActivityPaused(Activity): void</text>
<ellipse cx="18" cy="277.18" rx="3" ry="3" fill="#84BE84" stroke="#038048"/>
<text x="27" y="280.3901" fill="#000000" font-family="sans-serif" font-size="11" textLength="178">onActivityStopped(Activity): void</text>
<ellipse cx="18" cy="289.98" rx="3" ry="3" fill="#84BE84" stroke="#038048"/>
<text x="27" y="293.1948" fill="#000000" font-family="sans-serif" font-size="11" textLength="284">onActivitySaveInstanceState(Activity, Bundle): void</text>
<ellipse cx="18" cy="302.79" rx="3" ry="3" fill="#84BE84" stroke="#038048"/>
<text x="27" y="305.9995" fill="#000000" font-family="sans-serif" font-size="11" textLength="189">onActivityDestroyed(Activity): void</text>
<ellipse cx="18" cy="315.59" rx="3" ry="3" fill="#84BE84" stroke="#038048"/>
<text x="27" y="318.8042" fill="#000000" font-family="sans-serif" font-size="11" textLength="189">getLastKnownLocation(): Location</text>
<ellipse cx="18" cy="328.4" rx="3" ry="3" fill="#84BE84" stroke="#038048"/>
<text x="27" y="331.6089" fill="#000000" font-family="sans-serif" font-size="11" textLength="177">startGPSLocationSearch(): void</text>
<ellipse cx="18" cy="341.2" rx="3" ry="3" fill="#84BE84" stroke="#038048"/>
<text x="27" y="344.4136" fill="#000000" font-family="sans-serif" font-size="11" textLength="175">stopGPSLocationSearch(): void</text>
<ellipse cx="18" cy="354.01" rx="3" ry="3" fill="#84BE84" stroke="#038048"/>
<text x="27" y="357.2183" fill="#000000" font-family="sans-serif" font-size="11" textLength="118">checkLocation(): void</text>
<ellipse cx="18" cy="366.81" rx="3" ry="3" fill="#84BE84" stroke="#038048"/>
<text x="27" y="370.0229" fill="#000000" font-family="sans-serif" font-size="11" textLength="156">newLocation(Location): void</text>
</a>
<rect id="c" x="61" y="7" width="202" height="37.938" fill="#FEFECE" filter="url(#a)" stroke="#A80036" stroke-width="1.5" codeLine="25"/>
<ellipse cx="76" cy="25.969" rx="11" ry="11" fill="#B4A7E5" stroke="#A80036"/>
<path d="m71.922 21.734v-2.1563h7.3906v2.1563h-2.4687v8.0781h2.4687v2.1563h-7.3906v-2.1563h2.4687v-8.0781h-2.4687z"/>
<text x="90" y="24.9951" fill="#000000" font-family="sans-serif" font-size="14" font-style="italic" textLength="170">ActivityLifecycleCallbacks</text>
<text x="149" y="37.5791" fill="#000000" font-family="sans-serif" font-size="10" font-style="italic" textLength="52">Application</text>
<path id="d" d="m162 65.44v39.24" fill="none" stroke="#A80036" stroke-dasharray="7.0,7.0" codeLine="27"/>
<polygon points="155 65.16 162 45.16 169 65.16" fill="none" stroke="#A80036"/>
<text x="63" y="398.8994" fill="#888888" font-family="sans-serif" font-size="10" textLength="192">UMLDoclet 2.0.15, PlantUML 1.2021.13</text>
</svg>
