<?xml version="1.0" encoding="UTF-8"?>
<svg width="472px" height="274px" style="background:transparent;height:274px;width:472px" contentStyleType="text/css" preserveAspectRatio="none" version="1.1" viewBox="0 0 472 274" xmlns="http://www.w3.org/2000/svg" xmlns:xlink="http://www.w3.org/1999/xlink" zoomAndPan="magnify">
<a href="WeatherDetailsActivity.SwipeGestureDetector.html" target="_top" title="WeatherDetailsActivity.SwipeGestureDetector.html" xlink:actuate="onRequest" xlink:href="WeatherDetailsActivity.SwipeGestureDetector.html" xlink:show="new" xlink:title="WeatherDetailsActivity.SwipeGestureDetector.html" xlink:type="simple">
<g id="a">
<rect id="b" x="32.5" y="105" width="346" height="143.72" rx="2.5" ry="2.5" fill="#F1F1F1" stroke="#181818" stroke-width=".5" codeLine="5"/>
<ellipse cx="47.5" cy="123.97" rx="11" ry="11" fill="#ADD1B2" stroke="#181818"/>
<path d="m50.469 129.61q-0.5782 0.2969-1.2188 0.4375-0.6406 0.1562-1.3437 0.1562-2.5 0-3.8282-1.6406-1.3125-1.6562-1.3125-4.7812t1.3125-4.7813q1.3282-1.6562 3.8282-1.6562 0.7031 0 1.3437 0.1562 0.6563 0.1563 1.2188 0.4531v2.7188q-0.625-0.5781-1.2188-0.8438-0.5937-0.2812-1.2187-0.2812-1.3438 0-2.0313 1.0781-0.6875 1.0625-0.6875 3.1563 0 2.0937 0.6875 3.1718 0.6875 1.0625 2.0313 1.0625 0.625 0 1.2187-0.2656 0.5938-0.2812 1.2188-0.8594v2.7188z"/>
<text x="61.5" y="122.9951" fill="#000000" font-family="sans-serif" font-size="14" textLength="314">WeatherDetailsActivity.SwipeGestureDetector</text>
<text x="98.5" y="135.5791" fill="#000000" font-family="sans-serif" font-size="10" textLength="240">de.kaffeemitkoffein.tinyweatherforecastgermany</text>
<line x1="33.5" x2="377.5" y1="142.94" y2="142.94" stroke="#181818" stroke-width=".5"/>
<ellipse cx="43.5" cy="156.59" rx="3" ry="3" fill="#84BE84" stroke="#038048"/>
<text x="52.5" y="159.9326" fill="#000000" font-family="sans-serif" font-size="14" textLength="156">setThreshold(int): void</text>
<ellipse cx="43.5" cy="172.88" rx="3" ry="3" fill="#84BE84" stroke="#038048"/>
<text x="52.5" y="176.2295" fill="#000000" font-family="sans-serif" font-size="14" textLength="285">onLeftSwipe(View, MotionEvent): boolean</text>
<ellipse cx="43.5" cy="189.18" rx="3" ry="3" fill="#84BE84" stroke="#038048"/>
<text x="52.5" y="192.5264" fill="#000000" font-family="sans-serif" font-size="14" textLength="296">onRightSwipe(View, MotionEvent): boolean</text>
<ellipse cx="43.5" cy="205.48" rx="3" ry="3" fill="#84BE84" stroke="#038048"/>
<text x="52.5" y="208.8232" fill="#000000" font-family="sans-serif" font-size="14" textLength="279">onUpSwipe(View, MotionEvent): boolean</text>
<ellipse cx="43.5" cy="221.77" rx="3" ry="3" fill="#84BE84" stroke="#038048"/>
<text x="52.5" y="225.1201" fill="#000000" font-family="sans-serif" font-size="14" textLength="300">onDownSwipe(View, MotionEvent): boolean</text>
<ellipse cx="43.5" cy="238.07" rx="3" ry="3" fill="#84BE84" stroke="#038048"/>
<text x="52.5" y="241.417" fill="#000000" font-family="sans-serif" font-size="14" textLength="263">onTouch(View, MotionEvent): boolean</text>
</g>
</a>
<g id="c">
<rect id="d" x="7" y="7" width="151" height="37.938" rx="2.5" ry="2.5" fill="#F1F1F1" stroke="#181818" stroke-width=".5" codeLine="14"/>
<ellipse cx="22" cy="25.969" rx="11" ry="11" fill="#B4A7E5" stroke="#181818"/>
<path d="m17.922 21.734v-2.1563h7.3906v2.1563h-2.4687v8.0781h2.4687v2.1563h-7.3906v-2.1563h2.4687v-8.0781h-2.4687z"/>
<text x="36" y="24.9951" fill="#000000" font-family="sans-serif" font-size="14" font-style="italic" textLength="119">OnTouchListener</text>
<text x="84" y="37.5791" fill="#000000" font-family="sans-serif" font-size="10" font-style="italic" textLength="23">View</text>
</g>
<a href="WeatherDetailsActivity.html" target="_top" title="WeatherDetailsActivity.html" xlink:actuate="onRequest" xlink:href="WeatherDetailsActivity.html" xlink:show="new" xlink:title="WeatherDetailsActivity.html" xlink:type="simple">
<g id="e">
<rect id="f" x="193.5" y="7" width="272" height="37.938" rx="2.5" ry="2.5" fill="#F1F1F1" stroke="#181818" stroke-width=".5" codeLine="15"/>
<ellipse cx="208.5" cy="25.969" rx="11" ry="11" fill="#ADD1B2" stroke="#181818"/>
<path d="m211.47 31.609q-0.5782 0.2969-1.2188 0.4375-0.6406 0.1562-1.3437 0.1562-2.5 0-3.8282-1.6406-1.3125-1.6562-1.3125-4.7812t1.3125-4.7813q1.3282-1.6562 3.8282-1.6562 0.7031 0 1.3437 0.1562 0.6563 0.1563 1.2188 0.4531v2.7188q-0.625-0.5781-1.2188-0.8438-0.5937-0.2812-1.2187-0.2812-1.3438 0-2.0313 1.0781-0.6875 1.0625-0.6875 3.1563 0 2.0937 0.6875 3.1718 0.6875 1.0625 2.0313 1.0625 0.625 0 1.2187-0.2656 0.5938-0.2812 1.2188-0.8594v2.7188z"/>
<text x="266.5" y="24.9951" fill="#000000" font-family="sans-serif" font-size="14" textLength="152">WeatherDetailsActivity</text>
<text x="222.5" y="37.5791" fill="#000000" font-family="sans-serif" font-size="10" textLength="240">de.kaffeemitkoffein.tinyweatherforecastgermany</text>
</g>
</a>
<g id="g" fill="none" stroke="#181818">
<path id="h" d="m109.04 59.151c12.45 15.08 19.49 23.619 37.68 45.649" stroke-dasharray="7.0,7.0" codeLine="17"/>
<polygon points="97.58 45.27 104.41 62.971 113.67 55.331"/>
</g>
<g id="i" stroke="#181818">
<path id="j" d="m304.07 57.568c-12.55 15.08-20.975 25.202-39.315 47.232" fill="none" codeLine="18"/>
<ellipse cx="309.18" cy="51.419" rx="8" ry="8" fill="#fff"/>
<line x1="304.07" x2="314.3" y1="57.568" y2="45.27"/>
<line x1="303.03" x2="315.33" y1="46.302" y2="56.537"/>
</g>
<text x="139.25" y="264.001" fill="#888888" font-family="sans-serif" font-size="10" textLength="180">UMLDoclet 2.1.2, PlantUML 1.2024.3</text>
</svg>
