<?xml version="1.0" encoding="UTF-8"?>
<svg width="858px" height="305px" style="background:transparent;height:305px;width:858px" contentStyleType="text/css" preserveAspectRatio="none" version="1.1" viewBox="0 0 858 305" xmlns="http://www.w3.org/2000/svg" xmlns:xlink="http://www.w3.org/1999/xlink" zoomAndPan="magnify">
<a href="WeatherWarningAdapter.html" target="_top" title="WeatherWarningAdapter.html" xlink:actuate="onRequest" xlink:href="WeatherWarningAdapter.html" xlink:show="new" xlink:title="WeatherWarningAdapter.html" xlink:type="simple">
<g id="a">
<rect id="b" x="7" y="7" width="844" height="176.31" rx="2.5" ry="2.5" fill="#F1F1F1" stroke="#181818" stroke-width=".5" codeLine="5"/>
<ellipse cx="304.75" cy="25.969" rx="11" ry="11" fill="#ADD1B2" stroke="#181818"/>
<path d="m307.72 31.609q-0.5782 0.2969-1.2188 0.4375-0.6406 0.1562-1.3437 0.1562-2.5 0-3.8282-1.6406-1.3125-1.6562-1.3125-4.7812t1.3125-4.7813q1.3282-1.6562 3.8282-1.6562 0.7031 0 1.3437 0.1562 0.6563 0.1563 1.2188 0.4531v2.7188q-0.625-0.5781-1.2188-0.8438-0.5937-0.2812-1.2187-0.2812-1.3438 0-2.0313 1.0781-0.6875 1.0625-0.6875 3.1563 0 2.0937 0.6875 3.1718 0.6875 1.0625 2.0313 1.0625 0.625 0 1.2187-0.2656 0.5938-0.2812 1.2188-0.8594v2.7188z"/>
<text x="361.25" y="24.9951" fill="#000000" font-family="sans-serif" font-size="14" textLength="168">WeatherWarningAdapter</text>
<text x="325.25" y="37.5791" fill="#000000" font-family="sans-serif" font-size="10" textLength="240">de.kaffeemitkoffein.tinyweatherforecastgermany</text>
<line x1="8" x2="850" y1="44.938" y2="44.938" stroke="#181818" stroke-width=".5"/>
<ellipse cx="18" cy="58.586" rx="3" ry="3" fill="#84BE84" stroke="#038048"/>
<text x="27" y="61.9326" fill="#000000" font-family="sans-serif" font-size="14" textLength="504">WeatherWarningAdapter(Context, ArrayList&lt;WeatherWarning&gt;, Executor)</text>
<ellipse cx="18" cy="74.883" rx="3" ry="3" fill="#84BE84" stroke="#038048"/>
<text x="27" y="78.2295" fill="#000000" font-family="sans-serif" font-size="14" textLength="363">setLocalWarnings(ArrayList&lt;WeatherWarning&gt;): void</text>
<ellipse cx="18" cy="91.18" rx="3" ry="3" fill="#84BE84" stroke="#038048"/>
<text x="27" y="94.5264" fill="#000000" font-family="sans-serif" font-size="14" text-decoration="underline" textLength="167">formatTime(long): String</text>
<ellipse cx="18" cy="107.48" rx="3" ry="3" fill="#84BE84" stroke="#038048"/>
<text x="27" y="110.8232" fill="#000000" font-family="sans-serif" font-size="14" textLength="101">getCount(): int</text>
<ellipse cx="18" cy="123.77" rx="3" ry="3" fill="#84BE84" stroke="#038048"/>
<text x="27" y="127.1201" fill="#000000" font-family="sans-serif" font-size="14" textLength="134">getItem(int): Object</text>
<ellipse cx="18" cy="140.07" rx="3" ry="3" fill="#84BE84" stroke="#038048"/>
<text x="27" y="143.417" fill="#000000" font-family="sans-serif" font-size="14" textLength="131">getItemId(int): long</text>
<ellipse cx="18" cy="156.37" rx="3" ry="3" fill="#84BE84" stroke="#038048"/>
<text x="27" y="159.7139" fill="#000000" font-family="sans-serif" font-size="14" textLength="246">getView(int, View, ViewGroup): View</text>
<ellipse cx="18" cy="172.66" rx="3" ry="3" fill="#84BE84" stroke="#038048"/>
<text x="27" y="176.0107" fill="#000000" font-family="sans-serif" font-size="14" text-decoration="underline" textLength="818">setWarningViewElements(Context, LayoutInflater, View, ViewGroup, WeatherWarning, boolean, Handler, Executor): View</text>
</g>
</a>
<a href="WeatherWarningAdapter.ViewHolder.html" target="_top" title="WeatherWarningAdapter.ViewHolder.html" xlink:actuate="onRequest" xlink:href="WeatherWarningAdapter.ViewHolder.html" xlink:show="new" xlink:title="WeatherWarningAdapter.ViewHolder.html" xlink:type="simple">
<g id="c">
<rect id="d" x="288.5" y="243" width="281" height="37.938" rx="2.5" ry="2.5" fill="#F1F1F1" stroke="#181818" stroke-width=".5" codeLine="15"/>
<ellipse cx="303.5" cy="261.97" rx="11" ry="11" fill="#ADD1B2" stroke="#181818"/>
<path d="m306.47 267.61q-0.5782 0.2969-1.2188 0.4375-0.6406 0.1562-1.3437 0.1562-2.5 0-3.8282-1.6406-1.3125-1.6562-1.3125-4.7812t1.3125-4.7813q1.3282-1.6562 3.8282-1.6562 0.7031 0 1.3437 0.1562 0.6563 0.1563 1.2188 0.4531v2.7188q-0.625-0.5781-1.2188-0.8438-0.5937-0.2812-1.2187-0.2812-1.3438 0-2.0313 1.0781-0.6875 1.0625-0.6875 3.1563 0 2.0937 0.6875 3.1718 0.6875 1.0625 2.0313 1.0625 0.625 0 1.2187-0.2656 0.5938-0.2812 1.2188-0.8594v2.7188z"/>
<text x="317.5" y="260.9951" fill="#000000" font-family="sans-serif" font-size="14" textLength="249">WeatherWarningAdapter.ViewHolder</text>
<text x="322" y="273.5791" fill="#000000" font-family="sans-serif" font-size="10" textLength="240">de.kaffeemitkoffein.tinyweatherforecastgermany</text>
</g>
</a>
<g id="e" stroke="#181818">
<path id="f" d="m429 199.33v43.48" fill="none" codeLine="17"/>
<ellipse cx="429" cy="191.33" rx="8" ry="8" fill="#fff"/>
<line x1="429" x2="429" y1="199.33" y2="183.33"/>
<line x1="421" x2="437" y1="191.33" y2="191.33"/>
</g>
<text x="332" y="295.2197" fill="#888888" font-family="sans-serif" font-size="10" textLength="180">UMLDoclet 2.1.2, PlantUML 1.2024.3</text>
</svg>
