<?xml version="1.0" encoding="UTF-8"?>
<svg width="299px" height="298px" style="background:transparent;height:298px;width:299px" contentStyleType="text/css" preserveAspectRatio="none" version="1.1" viewBox="0 0 299 298" xmlns="http://www.w3.org/2000/svg" xmlns:xlink="http://www.w3.org/1999/xlink" zoomAndPan="magnify">
<a href="Weather.RiseSetTimes.html" target="_top" title="Weather.RiseSetTimes.html" xlink:actuate="onRequest" xlink:href="Weather.RiseSetTimes.html" xlink:show="new" xlink:title="Weather.RiseSetTimes.html" xlink:type="simple">
<g id="a">
<rect id="b" x="7" y="105" width="285" height="168.02" rx="2.5" ry="2.5" fill="#F1F1F1" stroke="#181818" stroke-width=".5" codeLine="5"/>
<ellipse cx="27.85" cy="123.97" rx="11" ry="11" fill="#ADD1B2" stroke="#181818"/>
<path d="m30.819 129.61q-0.5782 0.2969-1.2188 0.4375-0.6406 0.1562-1.3437 0.1562-2.5 0-3.8282-1.6406-1.3125-1.6562-1.3125-4.7812t1.3125-4.7813q1.3282-1.6562 3.8282-1.6562 0.7031 0 1.3437 0.1562 0.6563 0.1563 1.2188 0.4531v2.7188q-0.625-0.5781-1.2188-0.8438-0.5937-0.2812-1.2187-0.2812-1.3438 0-2.0313 1.0781-0.6875 1.0625-0.6875 3.1563 0 2.0937 0.6875 3.1718 0.6875 1.0625 2.0313 1.0625 0.625 0 1.2187-0.2656 0.5938-0.2812 1.2188-0.8594v2.7188z"/>
<text x="84.65" y="122.9951" fill="#000000" font-family="sans-serif" font-size="14" textLength="157">Weather.RiseSetTimes</text>
<text x="43.15" y="135.5791" fill="#000000" font-family="sans-serif" font-size="10" textLength="240">de.kaffeemitkoffein.tinyweatherforecastgermany</text>
<line x1="8" x2="291" y1="142.94" y2="142.94" stroke="#181818" stroke-width=".5"/>
<ellipse cx="18" cy="156.59" rx="3" ry="3" fill="none" stroke="#038048"/>
<text x="27" y="159.9326" fill="#000000" font-family="sans-serif" font-size="14" text-decoration="underline" textLength="57">RISE: int</text>
<ellipse cx="18" cy="172.88" rx="3" ry="3" fill="none" stroke="#038048"/>
<text x="27" y="176.2295" fill="#000000" font-family="sans-serif" font-size="14" text-decoration="underline" textLength="53">SET: int</text>
<ellipse cx="18" cy="189.18" rx="3" ry="3" fill="none" stroke="#038048"/>
<text x="27" y="192.5264" fill="#000000" font-family="sans-serif" font-size="14" text-decoration="underline" textLength="165">TWILIGHT_MORNING: int</text>
<ellipse cx="18" cy="205.48" rx="3" ry="3" fill="none" stroke="#038048"/>
<text x="27" y="208.8232" fill="#000000" font-family="sans-serif" font-size="14" text-decoration="underline" textLength="159">TWILIGHT_EVENING: int</text>
<ellipse cx="18" cy="221.77" rx="3" ry="3" fill="none" stroke="#038048"/>
<text x="27" y="225.1201" fill="#000000" font-family="sans-serif" font-size="14" textLength="75">sun: long[]</text>
<ellipse cx="18" cy="238.07" rx="3" ry="3" fill="none" stroke="#038048"/>
<text x="27" y="241.417" fill="#000000" font-family="sans-serif" font-size="14" textLength="89">moon: long[]</text>
<line x1="8" x2="291" y1="248.72" y2="248.72" stroke="#181818" stroke-width=".5"/>
<ellipse cx="18" cy="262.37" rx="3" ry="3" fill="#84BE84" stroke="#038048"/>
<text x="27" y="265.7139" fill="#000000" font-family="sans-serif" font-size="14" textLength="259">RiseSetTimes(WeatherLocation, long)</text>
</g>
</a>
<a href="Weather.html" target="_top" title="Weather.html" xlink:actuate="onRequest" xlink:href="Weather.html" xlink:show="new" xlink:title="Weather.html" xlink:type="simple">
<g id="c">
<rect id="d" x="13.5" y="7" width="272" height="37.938" rx="2.5" ry="2.5" fill="#F1F1F1" stroke="#181818" stroke-width=".5" codeLine="15"/>
<ellipse cx="28.5" cy="25.969" rx="11" ry="11" fill="#ADD1B2" stroke="#181818"/>
<path d="m31.469 31.609q-0.5782 0.2969-1.2188 0.4375-0.6406 0.1562-1.3437 0.1562-2.5 0-3.8282-1.6406-1.3125-1.6562-1.3125-4.7812t1.3125-4.7813q1.3282-1.6562 3.8282-1.6562 0.7031 0 1.3437 0.1562 0.6563 0.1563 1.2188 0.4531v2.7188q-0.625-0.5781-1.2188-0.8438-0.5937-0.2812-1.2187-0.2812-1.3438 0-2.0313 1.0781-0.6875 1.0625-0.6875 3.1563 0 2.0937 0.6875 3.1718 0.6875 1.0625 2.0313 1.0625 0.625 0 1.2187-0.2656 0.5938-0.2812 1.2188-0.8594v2.7188z"/>
<text x="133.5" y="24.9951" fill="#000000" font-family="sans-serif" font-size="14" textLength="58">Weather</text>
<text x="42.5" y="37.5791" fill="#000000" font-family="sans-serif" font-size="10" textLength="240">de.kaffeemitkoffein.tinyweatherforecastgermany</text>
</g>
</a>
<g id="e" stroke="#181818">
<path id="f" d="m149.5 61.16v43.59" fill="none" codeLine="17"/>
<ellipse cx="149.5" cy="53.16" rx="8" ry="8" fill="#fff"/>
<line x1="149.5" x2="149.5" y1="61.16" y2="45.16"/>
<line x1="141.5" x2="157.5" y1="53.16" y2="53.16"/>
</g>
<text x="52.5" y="288.2979" fill="#888888" font-family="sans-serif" font-size="10" textLength="180">UMLDoclet 2.1.2, PlantUML 1.2024.3</text>
</svg>
