<?xml version="1.0" encoding="UTF-8"?>
<svg width="293px" height="71px" style="background:transparent;height:71px;width:293px" contentStyleType="text/css" preserveAspectRatio="none" version="1.1" viewBox="0 0 293 71" xmlns="http://www.w3.org/2000/svg" xmlns:xlink="http://www.w3.org/1999/xlink" zoomAndPan="magnify">
<a href="WeatherAuthenticatorActivity.html" target="_top" title="WeatherAuthenticatorActivity.html" xlink:actuate="onRequest" xlink:href="WeatherAuthenticatorActivity.html" xlink:show="new" xlink:title="WeatherAuthenticatorActivity.html" xlink:type="simple">
<g id="a">
<rect id="b" x="7" y="7" width="272" height="37.938" rx="2.5" ry="2.5" fill="#F1F1F1" stroke="#181818" stroke-width=".5" codeLine="5"/>
<ellipse cx="22" cy="25.969" rx="11" ry="11" fill="#ADD1B2" stroke="#181818"/>
<path d="m24.969 31.609q-0.5782 0.2969-1.2188 0.4375-0.6406 0.1562-1.3437 0.1562-2.5 0-3.8282-1.6406-1.3125-1.6562-1.3125-4.7812t1.3125-4.7813q1.3282-1.6562 3.8282-1.6562 0.7031 0 1.3437 0.1562 0.6563 0.1563 1.2188 0.4531v2.7188q-0.625-0.5781-1.2188-0.8438-0.5937-0.2812-1.2187-0.2812-1.3438 0-2.0313 1.0781-0.6875 1.0625-0.6875 3.1563 0 2.0937 0.6875 3.1718 0.6875 1.0625 2.0313 1.0625 0.625 0 1.2187-0.2656 0.5938-0.2812 1.2188-0.8594v2.7188z"/>
<text x="57" y="24.9951" fill="#000000" font-family="sans-serif" font-size="14" textLength="198">WeatherAuthenticatorActivity</text>
<text x="36" y="37.5791" fill="#000000" font-family="sans-serif" font-size="10" textLength="240">de.kaffeemitkoffein.tinyweatherforecastgermany</text>
</g>
</a>
<text x="52.5" y="61.2197" fill="#888888" font-family="sans-serif" font-size="10" textLength="180">UMLDoclet 2.1.2, PlantUML 1.2024.3</text>
</svg>
