<?xml version="1.0" encoding="UTF-8"?>
<svg width="312px" height="245px" style="background:transparent;height:245px;width:312px" contentScriptType="application/ecmascript" contentStyleType="text/css" preserveAspectRatio="none" version="1.1" viewBox="0 0 312 245" xmlns="http://www.w3.org/2000/svg" xmlns:xlink="http://www.w3.org/1999/xlink" zoomAndPan="magnify">
<defs>
<filter id="a" x="-1" y="-1" width="300%" height="300%">
<feGaussianBlur result="blurOut" stdDeviation="2.0"/>
<feColorMatrix in="blurOut" result="blurOut2" values="0 0 0 0 0 0 0 0 0 0 0 0 0 0 0 0 0 0 .4 0"/>
<feOffset dx="4.0" dy="4.0" in="blurOut2" result="blurOut3"/>
<feBlend in="SourceGraphic" in2="blurOut3"/>
</filter>
</defs>
<a href="ZoomableImageView.SPRITEFIXPOINT.html" target="_top" title="ZoomableImageView.SPRITEFIXPOINT.html" xlink:actuate="onRequest" xlink:href="ZoomableImageView.SPRITEFIXPOINT.html" xlink:show="new" xlink:title="ZoomableImageView.SPRITEFIXPOINT.html" xlink:type="simple">
<rect id="b" x="7" y="105" width="291" height="109.96" fill="#FEFECE" filter="url(#a)" stroke="#A80036" stroke-width="1.5" codeLine="5"/>
<ellipse cx="22" cy="123.97" rx="11" ry="11" fill="#ADD1B2" stroke="#A80036"/>
<path d="m24.969 129.61q-0.5782 0.2969-1.2188 0.4375-0.6406 0.1562-1.3437 0.1562-2.5 0-3.8282-1.6406-1.3125-1.6562-1.3125-4.7812t1.3125-4.7813q1.3282-1.6562 3.8282-1.6562 0.7031 0 1.3437 0.1562 0.6563 0.1563 1.2188 0.4531v2.7188q-0.625-0.5781-1.2188-0.8438-0.5937-0.2812-1.2187-0.2812-1.3438 0-2.0313 1.0781-0.6875 1.0625-0.6875 3.1563 0 2.0937 0.6875 3.1718 0.6875 1.0625 2.0313 1.0625 0.625 0 1.2187-0.2656 0.5938-0.2812 1.2188-0.8594v2.7188z"/>
<text x="36" y="122.9951" fill="#000000" font-family="sans-serif" font-size="14" textLength="259">ZoomableImageView.SPRITEFIXPOINT</text>
<text x="45.5" y="135.5791" fill="#000000" font-family="sans-serif" font-size="10" textLength="240">de.kaffeemitkoffein.tinyweatherforecastgermany</text>
<line x1="8" x2="297" y1="142.94" y2="142.94" stroke="#A80036" stroke-width="1.5"/>
<ellipse cx="18" cy="153.94" rx="3" ry="3" fill="none" stroke="#038048"/>
<text x="27" y="157.1479" fill="#000000" font-family="sans-serif" font-size="11" text-decoration="underline" textLength="77">TOP_LEFT: int</text>
<ellipse cx="18" cy="166.74" rx="3" ry="3" fill="none" stroke="#038048"/>
<text x="27" y="169.9526" fill="#000000" font-family="sans-serif" font-size="11" text-decoration="underline" textLength="85">TOP_RIGHT: int</text>
<ellipse cx="18" cy="179.55" rx="3" ry="3" fill="none" stroke="#038048"/>
<text x="27" y="182.7573" fill="#000000" font-family="sans-serif" font-size="11" text-decoration="underline" textLength="103">BOTTOM_LEFT: int</text>
<ellipse cx="18" cy="192.35" rx="3" ry="3" fill="none" stroke="#038048"/>
<text x="27" y="195.562" fill="#000000" font-family="sans-serif" font-size="11" text-decoration="underline" textLength="111">BOTTOM_RIGHT: int</text>
<ellipse cx="18" cy="205.16" rx="3" ry="3" fill="none" stroke="#038048"/>
<text x="27" y="208.3667" fill="#000000" font-family="sans-serif" font-size="11" text-decoration="underline" textLength="105">SPRITECENTER: int</text>
</a>
<a href="ZoomableImageView.html" target="_top" title="ZoomableImageView.html" xlink:actuate="onRequest" xlink:href="ZoomableImageView.html" xlink:show="new" xlink:title="ZoomableImageView.html" xlink:type="simple">
<rect id="c" x="16.5" y="7" width="272" height="37.938" fill="#FEFECE" filter="url(#a)" stroke="#A80036" stroke-width="1.5" codeLine="13"/>
<ellipse cx="31.5" cy="25.969" rx="11" ry="11" fill="#ADD1B2" stroke="#A80036"/>
<path d="m34.469 31.609q-0.5782 0.2969-1.2188 0.4375-0.6406 0.1562-1.3437 0.1562-2.5 0-3.8282-1.6406-1.3125-1.6562-1.3125-4.7812t1.3125-4.7813q1.3282-1.6562 3.8282-1.6562 0.7031 0 1.3437 0.1562 0.6563 0.1563 1.2188 0.4531v2.7188q-0.625-0.5781-1.2188-0.8438-0.5937-0.2812-1.2187-0.2812-1.3438 0-2.0313 1.0781-0.6875 1.0625-0.6875 3.1563 0 2.0937 0.6875 3.1718 0.6875 1.0625 2.0313 1.0625 0.625 0 1.2187-0.2656 0.5938-0.2812 1.2188-0.8594v2.7188z"/>
<text x="93.5" y="24.9951" fill="#000000" font-family="sans-serif" font-size="14" textLength="144">ZoomableImageView</text>
<text x="45.5" y="37.5791" fill="#000000" font-family="sans-serif" font-size="10" textLength="240">de.kaffeemitkoffein.tinyweatherforecastgermany</text>
</a>
<path id="d" d="m152.5 60.17v44.8" fill="none" stroke="#A80036" codeLine="15"/>
<ellipse cx="152.5" cy="53.08" rx="8" ry="8" fill="#fff" stroke="#A80036"/>
<line x1="152.5" x2="152.5" y1="61.08" y2="45.08" stroke="#A80036"/>
<line x1="144.5" x2="160.5" y1="53.08" y2="53.08" stroke="#A80036"/>
<text x="53.5" y="237.2432" fill="#888888" font-family="sans-serif" font-size="10" textLength="192">UMLDoclet 2.0.15, PlantUML 1.2021.13</text>
</svg>
